<?xml version="1.0" encoding="UTF-8"?>
<svg width="100pt" height="100pt" version="1.1" viewBox="0 0 100 100" xmlns="http://www.w3.org/2000/svg">
 <path d="m79.098 2.2617c-0.83984-1.4414-2.3945-2.2617-4.2617-2.2617h-22.91c-2.7344 0-5.5781 1.7852-6.7578 4.2461l-24.297 50.465c-0.79297 1.6445-0.74609 3.3906 0.11719 4.7773 0.86719 1.3984 2.4062 2.2109 4.2305 2.25l17.98 0.22656-13.016 32.539c-0.32031 0.8125-0.99219 2.5117 0.20703 4.2617 0.52344 0.76562 1.4219 1.2344 2.3516 1.2344h0.21094c1.7578 0 2.8164-1.332 3.3242-1.9727l42.055-52.82c1.793-2.25 1.0547-4.2695 0.78125-4.8555-0.28125-0.5625-1.4102-2.4062-4.2773-2.4062h-13.383l17.516-30.859c0.91797-1.6289 0.96875-3.3906 0.12891-4.8242z"/>
</svg>
