<?xml version="1.0" encoding="UTF-8"?>
<svg width="100pt" height="100pt" version="1.1" viewBox="0 0 100 100" xmlns="http://www.w3.org/2000/svg">
 <path d="m49 53.102c8.6992 8.6992 8.6992 22.898 0 31.602-12.898 12.898-32.102 15.602-47.699 8.1992-0.39844-0.19922-0.39844-0.80078 0.10156-0.89844 2.3008-0.69922 4.3984-1.8984 6.1992-3.6992 3.6016-3.6016 5-8.6992 4.1992-13.398 0-0.19922-0.10156-0.39844-0.19922-0.60156-1.8008-7.3008 0.10156-15.398 5.8984-21.102 8.6016-8.9023 22.801-8.9023 31.5-0.10156zm49.102-49.102c-1.1016-1.1016-3-1.1992-4.1992-0.30078l-44.902 34.102c-1.1992 0.89844-1.3008 2.6016-0.19922 3.6992l11.898 11.898c1.1016 1.1016 2.6992 1 3.6992-0.19922l34-45c0.90234-1.3008 0.80078-3.1992-0.29688-4.1992z"/>
</svg>
