<?xml version="1.0" encoding="UTF-8"?>
<svg width="100pt" height="100pt" version="1.1" viewBox="0 0 100 100" xmlns="http://www.w3.org/2000/svg">
 <path d="m29.996 95.094-9.4648-9.4688c-1.4922-1.4922-1.7812-3.3281-1.7812-4.375 0-1.4961 0.60547-3.2148 1.8008-4.4141l26.84-26.836-26.84-26.836c-1.1953-1.1992-1.8008-2.918-1.8008-4.4141 0-1.0469 0.28906-2.8828 1.7812-4.375l9.4688-9.4688c1.4922-1.4922 3.3281-1.7812 4.375-1.7812 1.4961 0 3.2148 0.60547 4.4141 1.8008l40.645 40.648c1.1211 1.1289 1.8164 2.6992 1.8164 4.4258 0 1.7383-0.73438 3.332-1.8242 4.4258l-40.637 40.648c-1.1992 1.1953-2.918 1.8008-4.4141 1.8008-1.0469 0-2.8828-0.28906-4.3789-1.7812z"/>
</svg>
