<?xml version="1.0" encoding="UTF-8"?>
<svg width="100pt" height="100pt" version="1.1" viewBox="0 0 100 100" xmlns="http://www.w3.org/2000/svg">
 <path d="m75.301 45.102-21.199-29.703c-0.96484-1.2969-2.4844-2.0664-4.1016-2.0664s-3.1367 0.76953-4.1016 2.0664l-21.199 29.703c0 0.10156-0.10156 0.10156-0.10156 0.19922h0.003906c-2.3555 4.0625-3.5781 8.6797-3.543 13.375 0.035156 4.6953 1.3281 9.2969 3.7422 13.324 3.3633 5.9922 8.7578 10.594 15.207 12.969 6.4492 2.3789 13.535 2.3789 19.984 0 6.4492-2.375 11.844-6.9766 15.207-12.969 2.4141-4.0273 3.707-8.6289 3.7422-13.324 0.035156-4.6953-1.1875-9.3125-3.543-13.375 0-0.10156-0.097657-0.10156-0.097657-0.19922z"/>
</svg>
