<?xml version="1.0" encoding="UTF-8"?>
<svg width="100pt" height="100pt" version="1.1" viewBox="0 0 100 100" xmlns="http://www.w3.org/2000/svg">
 <g fill-rule="evenodd">
  <path d="m16.781 38.234c-6.5 0-11.762 5.2656-11.762 11.766s5.2617 11.766 11.762 11.766 11.766-5.2656 11.766-11.766-5.2656-11.766-11.766-11.766"/>
  <path d="m52.078 38.234c-6.5 0-11.766 5.2656-11.766 11.766s5.2656 11.766 11.766 11.766 11.762-5.2656 11.762-11.766-5.2617-11.766-11.762-11.766"/>
  <path d="m87.371 38.234c-6.5 0-11.766 5.2656-11.766 11.766s5.2656 11.766 11.766 11.766 11.766-5.2656 11.766-11.766-5.2656-11.766-11.766-11.766"/>
 </g>
</svg>
