<?xml version="1.0" encoding="UTF-8"?>
<svg width="100pt" height="100pt" version="1.1" viewBox="0 0 100 100" xmlns="http://www.w3.org/2000/svg">
 <g fill-rule="evenodd">
  <path d="m50 37.801c-6.7344 0-12.223 5.4727-12.223 12.199 0 6.6953 5.4766 12.199 12.223 12.199 6.7148 0 12.223-5.4961 12.223-12.199 0-6.7383-5.5195-12.199-12.223-12.199z"/>
  <path d="m18.023 37.801c-6.7344 0-12.223 5.4727-12.223 12.199 0 6.6953 5.4766 12.199 12.223 12.199 6.7148 0 12.223-5.4961 12.223-12.199 0-6.7383-5.5195-12.199-12.223-12.199z"/>
  <path d="m81.977 37.801c-6.7031 0-12.223 5.4609-12.223 12.199 0 6.707 5.5117 12.199 12.223 12.199 6.7461 0 12.223-5.5039 12.223-12.199 0-6.7266-5.4883-12.199-12.223-12.199z"/>
 </g>
</svg>
