<?xml version="1.0" encoding="UTF-8"?>
<svg width="100pt" height="100pt" version="1.1" viewBox="0 0 100 100" xmlns="http://www.w3.org/2000/svg">
 <g>
  <path d="m95 47.5c-0.83203-1.25-20-26.668-45-26.668s-44.168 25.418-45 26.668c-1.25 1.668-1.25 3.332 0 5 0.83203 1.25 20 26.668 45 26.668s44.168-25.418 45-26.668c1.25-1.668 1.25-3.332 0-5zm-45 23.332c-11.668 0-20.832-9.168-20.832-20.832 0-11.668 9.168-20.832 20.832-20.832 11.668 0 20.832 9.168 20.832 20.832 0 11.668-9.1641 20.832-20.832 20.832z"/>
  <path d="m60.418 50c0 5.7539-4.6641 10.418-10.418 10.418s-10.418-4.6641-10.418-10.418 4.6641-10.418 10.418-10.418 10.418 4.6641 10.418 10.418"/>
 </g>
</svg>
