<?xml version="1.0" encoding="UTF-8"?>
<svg width="100pt" height="100pt" version="1.1" viewBox="0 0 100 100" xmlns="http://www.w3.org/2000/svg">
 <path d="m50 26c-17.895 0-33.77 8.9727-43.625 22.812-0.50391 0.69922-0.50391 1.6445 0 2.3438 9.8555 13.84 25.73 22.844 43.625 22.844s33.77-9.0039 43.625-22.844c0.50391-0.69922 0.50391-1.6445 0-2.3438-9.8555-13.84-25.73-22.812-43.625-22.812zm0 4c16.031 0 30.238 7.832 39.438 20-9.1992 12.16-23.414 20-39.438 20s-30.238-7.8398-39.438-20c9.1992-12.168 23.406-20 39.438-20zm0 6c-7.707 0-14 6.293-14 14s6.293 14 14 14 14-6.293 14-14-6.293-14-14-14zm0 4c5.5469 0 10 4.4531 10 10s-4.4531 10-10 10-10-4.4531-10-10 4.4531-10 10-10z"/>
</svg>
