<?xml version="1.0" encoding="UTF-8"?>
<svg width="100pt" height="100pt" version="1.1" viewBox="0 0 100 100" xmlns="http://www.w3.org/2000/svg">
 <g fill-rule="evenodd">
  <path d="m35.363 30.523c-8.2461 0-14.996-6.75-14.996-15 0-8.2461 6.75-14.992 14.996-14.992h29.875c8.2461 0 14.996 6.7461 14.996 14.992 0 8.25-6.75 15-14.996 15z"/>
  <path d="m34.969 64.852h15.266v-30h-15.266c-4.1172 0-7.8672 1.6875-10.586 4.4062s-4.4062 6.4727-4.4062 10.605c0 8.2422 6.7461 14.988 14.992 14.988"/>
  <path d="m66.691 35.16c-8.2812 0-14.996 6.7148-14.996 14.996s6.7148 14.996 14.996 14.996 14.996-6.7148 14.996-14.996-6.7148-14.996-14.996-14.996"/>
  <path d="m50.211 69.133h-15.535v0.027344c-8.0156 0.30078-14.426 6.875-14.426 14.969 0 8.2812 6.7109 14.992 14.992 14.992 8.0234 0 14.559-6.3047 14.961-14.23h0.007813v-0.17188c0.007812-0.19531 0.03125-0.39062 0.03125-0.58984 0-0.19922-0.023438-0.39453-0.03125-0.59375z"/>
 </g>
</svg>
