<?xml version="1.0" encoding="UTF-8"?>
<svg width="100pt" height="100pt" version="1.1" viewBox="0 0 100 100" xmlns="http://www.w3.org/2000/svg">
 <path d="m74.41 35.293c4.2383-2.8086 7.0547-7.3086 7.7344-12.348 0.67969-5.0352-0.84375-10.121-4.1836-13.953-3.3438-3.832-8.1719-6.0352-13.254-6.0508h-29.414c-5.082 0.015625-9.9102 2.2188-13.254 6.0508-3.3398 3.832-4.8633 8.918-4.1836 13.953 0.67969 5.0391 3.4961 9.5391 7.7344 12.348-4.9297 3.2695-7.8945 8.793-7.8945 14.707s2.9648 11.438 7.8945 14.707c-5.1914 3.418-8.2031 9.3125-7.9258 15.523 0.27734 6.207 3.8008 11.812 9.2734 14.758 5.4727 2.9414 12.094 2.7891 17.426-0.40625 5.332-3.1914 8.5898-8.957 8.5781-15.172v-16.176c3.3008 2.7773 7.4531 4.332 11.766 4.4141 5.082-0.015626 9.9102-2.2188 13.254-6.0508 3.3398-3.832 4.8633-8.918 4.1836-13.957-0.67969-5.0352-3.4961-9.5352-7.7344-12.348zm-21.469-26.469h11.766c6.4961 0 11.762 5.2656 11.762 11.766 0 6.4961-5.2656 11.762-11.762 11.762h-11.766zm-29.41 11.766c0-6.5 5.2656-11.766 11.762-11.766h11.766v23.531l-11.766-0.003907c-6.4961 0-11.762-5.2656-11.762-11.762zm0 29.41c0-6.4961 5.2656-11.766 11.762-11.766h11.766v23.531h-11.766c-6.4961 0-11.762-5.2695-11.762-11.766zm23.531 29.41h-0.003906c0 4.7617-2.8672 9.0508-7.2617 10.871-4.3984 1.8203-9.457 0.8125-12.82-2.5508-3.3672-3.3633-4.3711-8.4258-2.5508-12.82 1.8203-4.3984 6.1094-7.2617 10.867-7.2617h11.766zm17.648-17.648-0.003907 0.003906c-4.7578 0-9.0508-2.8672-10.871-7.2617-1.8203-4.3984-0.8125-9.457 2.5508-12.824 3.3633-3.3633 8.4258-4.3711 12.82-2.5508 4.3984 1.8242 7.2617 6.1133 7.2617 10.871 0 3.1211-1.2383 6.1133-3.4453 8.3203-2.2031 2.2031-5.1992 3.4453-8.3164 3.4453z"/>
</svg>
