<?xml version="1.0" encoding="UTF-8"?>
<svg width="100pt" height="100pt" version="1.1" viewBox="0 0 100 100" xmlns="http://www.w3.org/2000/svg">
 <path d="m50.172 14.496c0.91406 0.003906 1.8359 0.042968 2.7422 0.11719 1.5859 0.13281 3.0195-0.55859 3.8984-1.8867l7.2656-10.941c0.38281-0.58984 1.1328-0.80859 1.7773-0.50781l11.27 5.2539c0.64062 0.30078 0.95703 1.0117 0.75781 1.6875l-3.7148 12.598c-0.45312 1.5234-0.0625 3.0664 1.0586 4.1992 0.64063 0.64453 1.2617 1.3242 1.8516 2.0234 1.0273 1.2148 2.5273 1.7383 4.0938 1.4219l12.875-2.6016c0.68359-0.14453 1.3711 0.23047 1.6133 0.89844l4.2539 11.684c0.24219 0.66016-0.039062 1.3945-0.65625 1.7305l-11.535 6.2852c-1.3984 0.76172-2.2148 2.1211-2.2227 3.7148-0.007812 0.91016-0.042969 1.8281-0.11719 2.7383-0.13281 1.5898 0.5625 3.0195 1.8867 3.8984l10.941 7.2656c0.58984 0.38281 0.80859 1.1328 0.50781 1.7773l-5.2539 11.27c-0.30078 0.64062-1.0117 0.95703-1.6875 0.75781l-12.598-3.7148c-1.5234-0.44922-3.0703-0.0625-4.1992 1.0586-0.64844 0.64062-1.3242 1.2617-2.0195 1.8555-1.2148 1.0312-1.7344 2.5312-1.418 4.0898l2.5977 12.875c0.14453 0.68359-0.23047 1.3711-0.89844 1.6133l-11.684 4.2539c-0.66016 0.24219-1.3945-0.039062-1.7305-0.65625l-6.2852-11.535c-0.76172-1.3984-2.1211-2.2148-3.7148-2.2227-0.91016-0.007813-1.8281-0.042969-2.7383-0.11719-1.5898-0.13281-3.0195 0.5625-3.8984 1.8867l-7.2656 10.941c-0.38281 0.58984-1.1328 0.80859-1.7773 0.50781l-11.27-5.2539c-0.64062-0.30078-0.95703-1.0117-0.75781-1.6875l3.7148-12.598c0.44922-1.5234 0.0625-3.0703-1.0586-4.1992-0.64062-0.64844-1.2617-1.3242-1.8555-2.0195-1.0312-1.2148-2.5312-1.7344-4.0898-1.418l-12.875 2.5977c-0.68359 0.14453-1.3711-0.23047-1.6133-0.89844l-4.2539-11.684c-0.24219-0.66016 0.039062-1.3945 0.65625-1.7305l11.535-6.2852c1.3984-0.76172 2.2148-2.1211 2.2227-3.7148 0.007813-0.91016 0.042969-1.8281 0.11719-2.7383 0.13281-1.5898-0.5625-3.0195-1.8867-3.8984l-10.941-7.2656c-0.58984-0.38281-0.80859-1.1328-0.50781-1.7773l5.2539-11.27c0.30078-0.64062 1.0117-0.95703 1.6875-0.75781l12.598 3.7148c1.5234 0.44922 3.0703 0.0625 4.1992-1.0586 0.64844-0.64063 1.3242-1.2617 2.0195-1.8555 1.2148-1.0312 1.7344-2.5312 1.418-4.0898l-2.5977-12.875c-0.14453-0.68359 0.23047-1.3711 0.89844-1.6133l11.684-4.2539c0.66016-0.24219 1.3945 0.039062 1.7266 0.65625l6.2812 11.531c0.76172 1.3984 2.125 2.2148 3.7188 2.2227zm-7.0664 16.57c10.457-3.8047 22.02 1.5859 25.828 12.043 3.8047 10.457-1.5859 22.02-12.043 25.828-10.457 3.8047-22.02-1.5859-25.828-12.043-3.8047-10.457 1.5859-22.02 12.043-25.828z" fill-rule="evenodd"/>
</svg>
