<?xml version="1.0" encoding="UTF-8"?>
<svg width="100pt" height="100pt" version="1.1" viewBox="0 0 100 100" xmlns="http://www.w3.org/2000/svg">
 <path d="m83.102 2.5h-66.203c-8 0-14.398 6.3984-14.398 14.398v66.301c0 7.8984 6.3984 14.398 14.398 14.398h66.301c7.8984 0 14.398-6.3984 14.398-14.398l0.003906-66.301c-0.10156-8-6.5-14.398-14.5-14.398zm-28.602 54.898v14.801c0 1.1016-0.89844 2-2.1016 2h-4.8984c-1.1016 0-2-0.89844-2-2.1016v-14.699c0-1.6016-1.3008-2.8008-2.8008-2.8008l-14.801 0.003906c-1.1016 0-2-0.89844-2.1016-2v-4.8984c0-1.1016 0.89844-2.1016 2-2.1016h14.801c1.6016 0 2.8008-1.3008 2.8008-2.8008v-14.902c0-1.1016 0.89844-2.1016 2.1016-2.1016h4.8984c1.1016 0 2.1016 0.89844 2.1016 2.1016v14.801c0 1.6016 1.3008 2.8008 2.8008 2.8008h14.801c1.1016 0 2 0.89844 2 2v4.8984c0 1.1016-0.89844 2.1016-2.1016 2.1016h-14.602c-1.5977 0-2.8984 1.3008-2.8984 2.8984z"/>
</svg>
