<?xml version="1.0" encoding="UTF-8"?>
<svg width="100pt" height="100pt" version="1.1" viewBox="0 0 100 100" xmlns="http://www.w3.org/2000/svg">
 <path d="m10.418 37.082 37.5 21.668c0.83203 0.41797 1.25 0.41797 2.082 0.41797s1.25 0 2.082-0.41797l37.5-21.668c0.83203-0.41797 1.25-0.83203 1.668-1.668 0.83203-2.082 0.41797-4.582-1.668-5.832l-37.5-21.668c-1.25-0.83203-2.918-0.83203-4.168 0l-37.5 21.668c-0.83203 0.41797-1.2461 0.83594-1.6641 1.668-0.83203 2.082-0.41797 4.582 1.668 5.832zm79.164 9.168-0.83203-0.41797-36.668 21.25c-1.25 0.83203-2.918 0.83203-4.168 0l-36.664-21.25-0.83203 0.41797c-2.0859 1.25-2.5 3.75-1.668 5.832 0.41797 0.83203 0.83203 1.25 1.668 1.668l37.5 21.668c1.25 0.83203 2.918 0.83203 4.168 0l37.5-21.668c2.082-1.25 2.5-3.75 1.668-5.832-0.42188-0.83594-0.83594-1.25-1.6719-1.668zm0 16.668-0.83203-0.41797-36.668 21.25c-1.25 0.83203-2.918 0.83203-4.168 0l-36.664-21.25-0.83203 0.41797c-2.0859 1.25-2.5 3.75-1.668 5.832 0.41797 0.83203 0.83203 1.25 1.668 1.668l37.5 21.668c1.25 0.83203 2.918 0.83203 4.168 0l37.5-21.668c2.082-1.25 2.5-3.75 1.668-5.832-0.42188-0.83594-0.83594-1.2539-1.6719-1.668z"/>
</svg>
