<?xml version="1.0" encoding="UTF-8"?>
<svg width="100pt" height="100pt" version="1.1" viewBox="0 0 100 100" xmlns="http://www.w3.org/2000/svg">
 <g>
  <path d="m92.855 39.285h-85.711c-1 0-1.7852 0.80469-1.7852 1.7852v17.855c0 1 0.78516 1.7852 1.7852 1.7852h85.715c0.98047 0 1.7852-0.78516 1.7852-1.7852v-17.855c0-0.98047-0.80469-1.7852-1.7891-1.7852z"/>
  <path d="m92.855 73.215h-85.711c-1 0-1.7852 0.80469-1.7852 1.7852v17.855c0 1 0.78516 1.7852 1.7852 1.7852h85.715c0.98047 0 1.7852-0.78516 1.7852-1.7852v-17.855c0-0.98047-0.80469-1.7852-1.7891-1.7852z"/>
  <path d="m92.855 5.3555h-85.711c-1 0-1.7891 0.80469-1.7891 1.7891v17.855c0 1 0.78516 1.7852 1.7852 1.7852h85.715c0.98047 0 1.7852-0.78516 1.7852-1.7852l0.003906-17.855c0-0.98438-0.80469-1.7891-1.7891-1.7891z"/>
 </g>
</svg>
