<?xml version="1.0" encoding="UTF-8"?>
<svg width="100pt" height="100pt" version="1.1" viewBox="0 0 100 100" xmlns="http://www.w3.org/2000/svg">
 <path d="m17.219 18.406c-4.9023 5.2578-7.7031 12.133-7.8789 19.32-0.17188 7.1875 2.2969 14.191 6.9414 19.68 4.6602 5.4492 11.168 8.9805 18.273 9.9219 7.1094 0.94141 14.312-0.78125 20.227-4.8281l20.312 20.312c1.7578 1.9062 4.6016 2.332 6.8438 1.0312 1.3516-0.85156 2.2383-2.2734 2.4141-3.8594 0.17969-1.5859-0.37891-3.168-1.5078-4.2969l-20.625-20.625c5.8945-8.0898 7.2109-18.645 3.4805-27.938-3.7266-9.2891-11.973-16.008-21.824-17.777-9.8555-1.7734-19.926 1.6484-26.656 9.0586zm37.156 29.812c-2.8945 4.6406-7.668 7.7852-13.074 8.6133s-10.902-0.74609-15.051-4.3086-6.5352-8.7578-6.5352-14.227 2.3867-10.664 6.5352-14.227 9.6445-5.1367 15.051-4.3086 10.18 3.9727 13.074 8.6133c1.8555 2.9766 2.8398 6.4141 2.8398 9.9219s-0.98438 6.9453-2.8398 9.9219z"/>
</svg>
