<?xml version="1.0" encoding="UTF-8"?>
<svg width="100pt" height="100pt" version="1.1" viewBox="0 0 100 100" xmlns="http://www.w3.org/2000/svg">
 <g>
  <path d="m50 100c-27.613 0-50-22.387-50-50s22.387-50 50-50 50 22.387 50 50-22.387 50-50 50zm0-4c25.406 0 46-20.594 46-46s-20.594-46-46-46-46 20.594-46 46 20.594 46 46 46z"/>
  <path d="m50 83.75h-36.668v-4.168h36.668v-17.5h-48.332v-4.1641h48.332v-17.5h-45v-4.168h45v-36.25c27.613 0 50 22.387 50 50s-22.387 50-50 50zm-35-65v-4.168h35v4.168z" fill-rule="evenodd"/>
 </g>
</svg>
