<svg width="18" height="18" viewBox="0 0 18 18" fill="none" xmlns="http://www.w3.org/2000/svg">
<g clip-path="url(#clip0)">
<path d="M11.4861 9.70627C11.8136 9.70627 12.085 9.86819 12.3212 10.1884C12.5549 10.511 12.6791 10.9042 12.6791 11.3753C12.6791 11.844 12.5549 12.2409 12.3212 12.5598C12.0863 12.8824 11.8136 13.0419 11.4861 13.0419C11.1476 13.0419 10.8506 12.8824 10.6156 12.5598C10.3819 12.2409 10.2577 11.844 10.2577 11.3753C10.2577 10.9042 10.3819 10.511 10.6156 10.1884C10.8494 9.86697 11.1464 9.70627 11.4861 9.70627ZM15.6739 5.37358C16.5821 6.36088 17.0435 7.55879 17.0435 8.96853C17.0435 9.87914 16.9388 10.7009 16.7282 11.4313C16.5151 12.1581 16.2485 12.751 15.932 13.2075C15.6106 13.6652 15.2162 14.0657 14.7462 14.4115C14.2763 14.7597 13.8442 15.0104 13.4497 15.1699C13.0541 15.3306 12.6036 15.4536 12.0972 15.5424C11.5896 15.6289 11.2134 15.6776 10.9492 15.6922C10.6899 15.7031 10.416 15.7092 10.1153 15.7092C10.0483 15.7092 9.81947 15.7141 9.44938 15.7275C9.08295 15.7433 8.76764 15.747 8.52173 15.747C8.27582 15.747 7.96051 15.7433 7.59408 15.7275C7.22399 15.7141 6.99512 15.7092 6.92817 15.7092C6.62869 15.7092 6.35356 15.7031 6.09425 15.6922C5.82886 15.6776 5.45391 15.6289 4.94626 15.5424C4.4313 15.4548 3.98939 15.3306 3.59374 15.1699C3.1993 15.0104 2.76591 14.7597 2.29843 14.4115C1.8273 14.0657 1.43287 13.6652 1.11148 13.2075C0.793739 12.751 0.528347 12.1581 0.315304 11.4313C0.104695 10.7009 0 9.87914 0 8.96853C0 7.55879 0.461391 6.35967 1.36956 5.37358C1.26974 5.32367 1.26609 4.82941 1.35983 3.89201C1.43652 2.95341 1.63617 2.08784 1.96243 1.29654C3.09948 1.41706 4.50678 2.06228 6.18799 3.22123C6.7553 3.07636 7.52834 2.99845 8.52173 2.99845C9.55895 2.99845 10.3369 3.07636 10.8567 3.22245C11.6224 2.70506 12.3541 2.28384 13.0541 1.96367C13.765 1.64593 14.2776 1.45723 14.5989 1.40732L15.081 1.29776C15.4097 2.08784 15.6094 2.95341 15.6849 3.89323C15.7774 4.82941 15.7737 5.32367 15.6739 5.37358ZM8.55825 14.8936C10.6132 14.8936 12.1544 14.6477 13.2099 14.1546C14.2508 13.6628 14.7828 12.6475 14.7828 11.116C14.7828 10.2273 14.4504 9.48471 13.7821 8.89062C13.4436 8.57045 13.0358 8.37323 12.5781 8.29897C12.1216 8.22471 11.4228 8.22471 10.4842 8.29897C9.54799 8.37445 8.90399 8.40853 8.55825 8.40853C8.08956 8.40853 7.58434 8.38662 6.95252 8.33671C6.31947 8.28801 5.82278 8.25758 5.46365 8.24175C5.10573 8.2308 4.72226 8.27462 4.29739 8.37323C3.87739 8.47306 3.53165 8.64593 3.25895 8.89062C2.62469 9.46158 2.29722 10.2017 2.29722 11.116C2.29722 12.6475 2.81582 13.6628 3.85547 14.1546C4.89026 14.6477 6.42782 14.8936 8.48399 14.8936H8.55825ZM5.59512 9.70627C5.92139 9.70627 6.19408 9.86819 6.42904 10.1884C6.66278 10.511 6.78695 10.9042 6.78695 11.3753C6.78695 11.844 6.66278 12.2409 6.42904 12.5598C6.1953 12.8824 5.92139 13.0419 5.59512 13.0419C5.25547 13.0419 4.95965 12.8824 4.72347 12.5598C4.48974 12.2409 4.36556 11.844 4.36556 11.3753C4.36556 10.9042 4.48974 10.511 4.72347 10.1884C4.95843 9.86697 5.25426 9.70627 5.59512 9.70627Z" fill="black"/>
</g>
<defs>
<clipPath id="clip0">
<rect width="17.0435" height="17.0435" fill="white"/>
</clipPath>
</defs>
</svg>
