<svg width="18" height="18" viewBox="0 0 18 18" fill="none" xmlns="http://www.w3.org/2000/svg">
<g clip-path="url(#clip0)">
<path d="M18.0054 3.14967C17.3514 3.43287 16.6475 3.6239 15.909 3.70938C16.6631 3.26964 17.2412 2.57308 17.5139 1.74214C16.8086 2.14987 16.0278 2.44573 15.1962 2.60545C14.5306 1.91452 13.582 1.48251 12.5322 1.48251C10.5167 1.48251 8.88264 3.07439 8.88264 5.03812C8.88264 5.31639 8.91478 5.58762 8.97726 5.8483C5.94382 5.69984 3.25416 4.28457 1.45396 2.13334C1.13978 2.65822 0.95994 3.26893 0.95994 3.92116C0.95994 5.15456 1.60419 6.24302 2.58355 6.88047C1.98553 6.86183 1.42254 6.70176 0.930328 6.43545C0.929966 6.45022 0.929966 6.46535 0.929966 6.48048C0.929966 8.20287 2.18812 9.63961 3.85796 9.96678C3.55173 10.0477 3.22924 10.0913 2.89629 10.0913C2.66084 10.0913 2.43224 10.0692 2.20943 10.0273C2.6742 11.4397 4.02191 12.468 5.6188 12.4965C4.36968 13.4503 2.79626 14.0188 1.08597 14.0188C0.791656 14.0188 0.500951 14.0019 0.215302 13.9688C1.83097 14.9781 3.74926 15.5663 5.8102 15.5663C12.5239 15.5663 16.1947 10.1487 16.1947 5.45007C16.1947 5.29598 16.1914 5.14225 16.1846 4.98957C16.8974 4.48931 17.5164 3.86276 18.0054 3.14967Z" fill="black"/>
</g>
<defs>
<clipPath id="clip0">
<rect x="0.956543" width="17.0435" height="17.0435" fill="white"/>
</clipPath>
</defs>
</svg>
