<?xml version="1.0" encoding="UTF-8"?>
<svg width="100pt" height="100pt" version="1.1" viewBox="0 0 100 100" xmlns="http://www.w3.org/2000/svg">
 <path d="m50 4.5469c-15.012 0-28.309 7.2578-36.582 18.457l14.039 24.316h0.003907c0.65234-5.4727 3.2695-10.52 7.3672-14.207 4.0977-3.6836 9.3945-5.7578 14.902-5.8281 0.089843-0.007812 0.17969-0.015625 0.26953-0.011718h39.371c-7.8516-13.59-22.527-22.727-39.371-22.727zm-39.371 22.723c-3.8633 6.6875-6.0859 14.445-6.0859 22.73 0 23.41 17.637 42.648 40.371 45.172l14.02-24.277v-0.003906c-2.8242 1.2109-5.8633 1.8359-8.9336 1.8359-7.9922-0.007812-15.387-4.2148-19.484-11.074-0.074219-0.089844-0.14062-0.1875-0.19922-0.28906zm39.371 4.5508v-0.003906c-4.8203 0-9.4453 1.918-12.855 5.3281-3.4102 3.4102-5.3281 8.0352-5.3281 12.855s1.918 9.4453 5.3281 12.855c3.4102 3.4102 8.0352 5.3281 12.855 5.3281s9.4453-1.918 12.855-5.3281c3.4102-3.4102 5.3281-8.0352 5.3281-12.855s-1.918-9.4453-5.3281-12.855c-3.4102-3.4102-8.0352-5.3281-12.855-5.3281zm13.598 0v-0.003906c5.7383 4.2852 9.1211 11.023 9.1289 18.184-0.007812 3.8555-0.99609 7.6445-2.875 11.012-0.046874 0.12109-0.10156 0.23828-0.16797 0.35156l-19.684 34.09c25.129 0 45.453-20.324 45.453-45.453 0-6.4688-1.3516-12.613-3.7812-18.184h-28.074z"/>
</svg>
