<?xml version="1.0" encoding="UTF-8"?>
<svg width="100pt" height="100pt" version="1.1" viewBox="0 0 100 100" xmlns="http://www.w3.org/2000/svg">
 <g>
  <path d="m44.445 8.0078c0-4.4219-3.5859-8.0078-8.0078-8.0078h-28.43c-4.4219 0-8.0078 3.5859-8.0078 8.0078v28.43c0 4.4219 3.5859 8.0078 8.0078 8.0078h28.43c4.4219 0 8.0078-3.5859 8.0078-8.0078z"/>
  <path d="m100 8.0078c0-4.4219-3.5859-8.0078-8.0078-8.0078h-28.43c-4.4219 0-8.0078 3.5859-8.0078 8.0078v28.43c0 4.4219 3.5859 8.0078 8.0078 8.0078h28.43c4.4219 0 8.0078-3.5859 8.0078-8.0078z"/>
  <path d="m44.445 63.562c0-4.4219-3.5859-8.0078-8.0078-8.0078h-28.43c-4.4219 0-8.0078 3.5859-8.0078 8.0078v28.43c0 4.4219 3.5859 8.0078 8.0078 8.0078h28.43c4.4219 0 8.0078-3.5859 8.0078-8.0078z"/>
  <path d="m100 63.562c0-4.4219-3.5859-8.0078-8.0078-8.0078h-28.43c-4.4219 0-8.0078 3.5859-8.0078 8.0078v28.43c0 4.4219 3.5859 8.0078 8.0078 8.0078h28.43c4.4219 0 8.0078-3.5859 8.0078-8.0078z"/>
 </g>
</svg>
