<?xml version="1.0" encoding="UTF-8"?>
<svg width="100pt" height="100pt" version="1.1" viewBox="0 0 100 100" xmlns="http://www.w3.org/2000/svg">
 <g>
  <path d="m12.5 6.25c-3.4531 0-6.25 2.7969-6.25 6.25v75c0 3.4531 2.7969 6.25 6.25 6.25h75c3.4531 0 6.25-2.7969 6.25-6.25v-43.75c0-1.6562-0.66016-3.2461-1.832-4.418s-2.7617-1.832-4.418-1.832c-3.4531 0-6.25 2.7969-6.25 6.25v37.5h-62.5v-62.5h37.5c1.6562 0 3.2461-0.66016 4.418-1.832s1.832-2.7617 1.832-4.418-0.66016-3.2461-1.832-4.418-2.7617-1.832-4.418-1.832z"/>
  <path d="m31.25 37.5c-3.4531 0-6.25 2.7969-6.25 6.25v25c0 3.4531 2.7969 6.25 6.25 6.25h25c1.6562 0 3.2461-0.66016 4.418-1.832s1.832-2.7617 1.832-4.418-0.66016-3.2461-1.832-4.418-2.7617-1.832-4.418-1.832h-18.75v-18.75c0-1.6562-0.66016-3.2461-1.832-4.418s-2.7617-1.832-4.418-1.832z"/>
  <path d="m81.434 12.5c-1.7227-0.050781-3.3867 0.61328-4.6016 1.832l-50 50c-2.4414 2.4414-2.4414 6.3945 0 8.8359 2.4414 2.4414 6.3945 2.4414 8.8359 0l50-50c2.4414-2.4414 2.4414-6.3945 0-8.8359-1.125-1.1289-2.6406-1.7852-4.2344-1.832z"/>
 </g>
</svg>
