<?xml version="1.0" encoding="UTF-8"?>
<svg width="100pt" height="100pt" version="1.1" viewBox="0 0 100 100" xmlns="http://www.w3.org/2000/svg">
 <g>
  <path d="m90.863 21.301c-0.16406 0.027344-5.0859-0.89844-9.2422 0.84766-1.3008 0.54687-4.2734 3.3203-6.793 0.98047-1.4219-1.3164-1.8984-6.0078-2.0859-6.4375-2.2383-4.9102-9.1094-4.7305-9.8945-7.7773-0.60156-2.3203 1.7578-4.7539 5.793-3.1016 8.8945 3.6172 10.07 3.7383 7.832 1.9297-0.35156-0.29297-0.91406-0.63281-1.5547-0.99219-0.16406-0.10547-0.32812-0.19531-0.46484-0.25781-0.14453-0.078126-0.29688-0.16406-0.44922-0.23828-7.1602-3.9492-15.344-6.2539-24.086-6.2539-16.176 0-30.508 7.6953-39.664 19.582 0.039063 0 0.070313 0.007813 0.10938 0.007813l-0.28516 0.27734c6.4336-5.1641 3.0586 0.4375 16.121-4.6836 0.46875-0.19141 4.1641-0.53125 4.9102-0.33594 13.438 3.5312 19.543-0.082031 20.043-0.42578 6.1953-4.2148 10.98-3.2266 11.012 0.38281 0.019532 2.2148 0.64063 4.7148-2.0625 4.0938-3.8906-0.89844-6.1367-4.9453-6.6914-0.52344-0.39844 3.2148-6.582 3.5391-5.5859 5.5859 0.64453 1.332 6.5039-1.1484 9.1562-2.6953 2.6523-1.5391 4.8828 1.3828 5.0547 1.7578 1.8984 4.1016 7.5078 5.8203 8.0898 6.0547 4.5039 1.7852-0.28125 4.2148-2.9141 5.5977-0.070313 0.035157-10.961 12.199-14.887 11.289-0.48828-0.11328-1.6758-2.0508-2.3242-2.2148-12.5-3.125-5.8672 14.566-2.6641 7.5664 1.3359-2.9141 1.1406 1.4453 1.1641 3.2109s2.6797 3.5117 2.6797 3.5117c0.10937 0.19922 2.957 0.51172 3.1797 1.2617l0.87109 0.53906s1.6289-2.7344 3.8984-2.4883c5.6172 0.60938 14.414 6.1055 15.355 6.5742 9.1016 4.5547 6.0352 12.715-2.5078 17.223-2.707 1.4414-2.5039 7.4062-5.6836 5.1602-1.8047-1.2695-6.3945 10.859-6.6641 12.898 19.664-3.8672 35.195-19.234 39.293-38.809-0.12109-0.15625-0.25-0.32422-0.37109-0.51172 0.035157-0.074219 0.066407-0.14062 0.085938-0.19141 0.19531-0.37891 0-1.4258-0.089844-1.707-0.09375-0.28906-0.19531-0.47656-0.23828-0.89844-0.050782-0.42969 0.046875-0.66406 0-1.2852-0.050782-0.60938 0.375-0.56641 0.57031-1.6562 0.19141-1.0898-0.14062-0.80078-0.28516-1.4141-0.054688-0.23047 0.066406-0.40234 0.23828-0.56641 0.070313-0.054688 0.15234-0.11719 0.24219-0.19531 0.19531-0.14453 0.40625-0.28516 0.50781-0.44531 0.1875-0.16797 0.27344-0.25781 0.35938-0.36719 0.015625-0.35547 0.058594-0.70312 0.058594-1.0742 0-10.723-3.3984-20.641-9.1367-28.785z"/>
  <path d="m54.668 62.996c1.0508-2.1016-2.3047-2.082-4.2188-3.6172-2.7969-2.2422-6.3008-3.7695-6.9492-4.0352-1.3906-0.57812-6.6055-5.418-7.8516-6.9648-1.0547-1.3281-0.30469-3.1055-2.1211-2.3086-0.039063 0.015626-0.039063-0.035156-0.050782-0.023437-1.207 0.80078-3.0078 0.33203-4.6016-6.0508-0.28906-1.1484-0.23438-1.2266 0.14062-1.7578 2.0039-2.7188-4.6914-11.211-6.1523-12.973-0.73828-0.88281-3.2773-0.19141-4.3555-0.039063-0.31641-0.1875-1.0781 0.039063-1.3672 0.039063-0.33594 0 0.042969-0.47266 0.23828-0.84766 0.1875-0.38281-0.19531-0.19531-0.47656-0.24219-0.28516-0.042969 0.09375-0.41797 0.28125-0.85156 0.33594-0.74219-2.6641 1.3516-3.4062 1.6992-0.90625 0.43359-0.52734 0.53125-0.80859 0.86328s-0.42578 1.0391-0.76172 1.3242c-0.32422 0.28906 0.66406 0.13672 0.94922 0.1875 0.36719 0.0625 0.14453 1.2891-0.66406 1.1406 0 0-1.2422 0.87109-2.6406 1.6211-0.23437 0.046875-0.25781-0.09375-0.23047-0.22656 0.38281-0.24609 0.59766-0.68359 1.0469-0.77734 0.61328-0.13281 0.35547-0.75781 0-0.85156-0.125-0.039063-0.17969-0.085938-0.19531-0.15234 0.007813-0.0625 0.007813-0.10547 0.019532-0.13672 0.027343-0.085937 0.097656-0.17969 0.16406-0.28125 0.16797-0.25-0.95703-0.42969-1.5703-0.42969-0.61328 0-0.46875-0.37891-0.61328-1.043-0.26953-1.2422 3.3398-1.7812 1.8945-2.6797-0.20313-0.80078-0.82813 0.29688-1.582 0.050781-0.20312-0.070312-0.54297 0.12891-0.80859 0.33203-0.23047 0.16797-0.58594 0.1875-0.85156 0.19531-4.6016 7.5664-7.293 16.414-7.293 25.922 0 27.664 22.422 50.086 50.086 50.086 2.0781 0 4.125-0.17188 6.1406-0.42188-0.019532-0.17969 0.31641-5.1953 0.89453-6.9062 0.625-1.8516 1.8359-12.746 1.3984-15.512-0.62891-4.043-0.68359-2.1641-3.6836-14.332z"/>
 </g>
</svg>
