<?xml version="1.0" encoding="UTF-8"?>
<svg width="100pt" height="100pt" version="1.1" viewBox="0 0 100 100" xmlns="http://www.w3.org/2000/svg">
 <g>
  <path d="m67.762 29.398c-1.9531 1.9531-1.9531 5.1172 0 7.0703 4.7109 4.7109 7.3594 11.102 7.3594 17.766 0 6.6602-2.6484 13.051-7.3594 17.762-4.7109 4.7109-11.098 7.3594-17.762 7.3594s-13.051-2.6484-17.762-7.3594c-4.7109-4.7109-7.3594-11.102-7.3594-17.762 0-6.6641 2.6484-13.055 7.3594-17.766 1.8984-1.9609 1.8711-5.0781-0.058593-7.0078-1.9297-1.9297-5.0469-1.957-7.0078-0.0625-6.5898 6.5859-10.289 15.52-10.293 24.836 0 9.3125 3.6992 18.25 10.285 24.836 6.5859 6.5859 15.52 10.285 24.836 10.285s18.25-3.6992 24.836-10.285c6.5859-6.5859 10.285-15.523 10.285-24.836-0.003906-9.3164-3.7031-18.25-10.293-24.836-1.9492-1.9492-5.1172-1.9492-7.0664 0z"/>
  <path d="m65.25 46.551h-10.16v-35.902h-10.18v35.902h-10.172l15.262 18.141z"/>
 </g>
</svg>
