<?xml version="1.0" encoding="UTF-8"?>
<svg width="100pt" height="100pt" version="1.1" viewBox="0 0 100 100" xmlns="http://www.w3.org/2000/svg">
 <g>
  <path d="m50 0c-27.5 0-50 22.5-50 50s22.5 50 50 50 50-22.5 50-50-22.5-50-50-50zm0 90c-22 0-40-18-40-40s18-40 40-40 40 18 40 40-18 40-40 40z"/>
  <path d="m40 62.5c0 4.1406-3.3594 7.5-7.5 7.5s-7.5-3.3594-7.5-7.5 3.3594-7.5 7.5-7.5 7.5 3.3594 7.5 7.5"/>
  <path d="m75 62.5c0 4.1406-3.3594 7.5-7.5 7.5s-7.5-3.3594-7.5-7.5 3.3594-7.5 7.5-7.5 7.5 3.3594 7.5 7.5"/>
  <path d="m50 20c-3 0-5 2-5 5v15c0 3 2 5 5 5s5-2 5-5v-15c0-3-2-5-5-5z"/>
 </g>
</svg>
