<?xml version="1.0" encoding="UTF-8"?>
<svg width="100pt" height="100pt" version="1.1" viewBox="0 0 100 100" xmlns="http://www.w3.org/2000/svg">
 <path d="m99.398 87.551l-17.469 10.242h-0.003907c-0.33594 0.20312-0.75 0.23047-1.1133 0.070312-0.35938-0.16016-0.61719-0.48828-0.69141-0.875v-6.625h-60.242v6.625c-0.074218 0.38672-0.33203 0.71484-0.69141 0.875-0.36328 0.16016-0.77734 0.13281-1.1133-0.070312l-17.469-10.242h-0.003907c-0.34375-0.16797-0.56641-0.51953-0.56641-0.90234 0-0.38672 0.22266-0.73828 0.56641-0.90625l17.469-10.242 0.003907 0.003906c0.33594-0.20703 0.75-0.23047 1.1133-0.074218 0.35938 0.16016 0.61719 0.48828 0.69141 0.875v8.0312h60.242v-7.832 0.003906c0.074218-0.39062 0.33203-0.71484 0.69141-0.875 0.36328-0.16016 0.77734-0.13281 1.1133 0.070313l17.469 10.242h0.003907c0.25391 0.1875 0.40234 0.48438 0.40234 0.80078s-0.14844 0.61328-0.40234 0.80469zm-5.2227-81.527c0.054688-1.0117-0.29297-2.0039-0.97266-2.7578s-1.6289-1.207-2.6406-1.2578h-81.125c-1.0117 0.050782-1.9609 0.50391-2.6406 1.2578s-1.0273 1.7461-0.97266 2.7578v4.0156c-0.054688 1.0117 0.29297 2.0039 0.97266 2.7578s1.6289 1.207 2.6406 1.2578h80.926c1.0117-0.050782 1.9609-0.50391 2.6406-1.2578 0.67578-0.75391 1.0273-1.7461 0.97266-2.7578v-4.0156zm0 48.191v0.003906c0.054688-1.0156-0.29297-2.0078-0.97266-2.7617-0.67969-0.75-1.6289-1.2031-2.6406-1.2578h-81.125c-1.0117 0.054687-1.9609 0.50781-2.6406 1.2578-0.67969 0.75391-1.0273 1.7461-0.97266 2.7617v4.0156c-0.054688 1.0117 0.29297 2.0039 0.97266 2.7578 0.67969 0.75391 1.6289 1.2031 2.6406 1.2578h80.926c1.0117-0.054688 1.9609-0.50391 2.6406-1.2578 0.67578-0.75391 1.0273-1.7461 0.97266-2.7578v-4.0156zm0-24.098v0.003906c0.054688-1.0117-0.29297-2.0039-0.97266-2.7578-0.67969-0.75391-1.6289-1.207-2.6406-1.2578h-81.125c-1.0117 0.050781-1.9609 0.50391-2.6406 1.2578-0.67969 0.75391-1.0273 1.7461-0.97266 2.7578v4.0156c-0.054688 1.0117 0.29297 2.0039 0.97266 2.7578 0.67969 0.75391 1.6289 1.207 2.6406 1.2578h80.926c1.0117-0.050782 1.9609-0.50391 2.6406-1.2578 0.67578-0.75391 1.0273-1.7461 0.97266-2.7578v-4.0156z"/>
</svg>
