<svg width="61" height="60" viewBox="0 0 61 60" fill="none" xmlns="http://www.w3.org/2000/svg">
<rect x="21" y="15" width="6" height="4" fill="#FF8080"/>
<rect x="30" y="15" width="3" height="4" fill="#8094FF"/>
<rect x="16" y="22" width="10" height="4" fill="#80FFB2"/>
<rect x="13" y="29" width="9" height="4" fill="#DE80FF"/>
<rect x="24" y="8" width="5" height="4" fill="#DE80FF"/>
<rect x="25" y="29" width="4" height="4" fill="#FFE380"/>
<rect x="11" y="36" width="8" height="4" fill="#8094FF"/>
<rect x="22" y="36" width="9" height="4" fill="#80FFB2"/>
<path d="M49.8376 33.3212L36.4142 10.0712C33.7199 5.40456 26.9841 5.40456 24.2898 10.0712L10.4334 34.0712C7.73914 38.7379 11.107 44.5712 16.4956 44.5712L28.2952 44.5712L34.195 44.5712M37.3424 11.6789L51.0924 35.4946C52.6112 38.1252 51.7099 41.489 49.0793 43.0078C46.4487 44.5265 43.0849 43.6252 41.5661 40.9946L31.9411 24.3236" stroke="#393939" stroke-width="4" stroke-linecap="round" stroke-linejoin="round"/>
<path d="M49.8376 33.3212L36.4142 10.0712C33.7199 5.40456 26.9841 5.40456 24.2898 10.0712L10.4334 34.0712C7.73914 38.7379 11.107 44.5712 16.4956 44.5712L28.2952 44.5712L34.195 44.5712M37.3424 11.6789L51.0924 35.4946C52.6112 38.1252 51.7099 41.489 49.0793 43.0078C46.4487 44.5265 43.0849 43.6252 41.5661 40.9946L31.9411 24.3236" stroke="white" stroke-width="4" stroke-linecap="round" stroke-linejoin="round"/>
</svg>
