<?xml version="1.0" encoding="UTF-8"?>
<svg width="100pt" height="100pt" version="1.1" viewBox="0 0 100 100" xmlns="http://www.w3.org/2000/svg">
 <path d="m50.234 98.91c-2.1523 0-4.1797-0.82422-5.6992-2.3242l-41.039-40.484c-1.5586-1.5391-2.4141-3.6055-2.4062-5.8164 0.011718-2.1953 0.87109-4.2695 2.4258-5.8477l40.289-40.84c1.5938-1.6172 3.7109-2.5078 5.9609-2.5078 2.1523 0 4.1797 0.82812 5.7031 2.3281l41.039 40.484c1.5625 1.5391 2.4141 3.6055 2.4062 5.8164-0.011718 2.1914-0.87109 4.2695-2.4258 5.8438l-40.289 40.84c-1.5977 1.6172-3.7148 2.5078-5.9648 2.5078zm-0.46875-93.82c-1.1719 0-2.2773 0.46484-3.1133 1.3125l-40.289 40.844c-0.8125 0.82422-1.2656 1.9102-1.2734 3.0547-0.003906 1.125 0.42578 2.1758 1.2148 2.9531l41.039 40.484c1.5898 1.5664 4.3828 1.5 6.0039-0.14062l40.289-40.84c0.81641-0.82812 1.2695-1.9102 1.2734-3.0547 0.007813-1.125-0.42578-2.1719-1.2148-2.9531l-41.039-40.484c-0.76953-0.75781-1.7969-1.1758-2.8906-1.1758z"/>
</svg>
