<svg width="97" height="107" viewBox="0 0 97 107" fill="none" xmlns="http://www.w3.org/2000/svg">
<path d="M1.31635 13.1406C1.20697 13.0703 1.12103 12.9805 1.05853 12.8711C0.98822 12.7617 0.933533 12.6445 0.89447 12.5195C0.847595 12.3945 0.812439 12.2656 0.789001 12.1328C0.757751 11.9922 0.726501 11.8594 0.695251 11.7344C0.695251 11.625 0.718689 11.5469 0.765564 11.5C0.812439 11.4453 0.86322 11.3945 0.917908 11.3477C1.10541 11.3398 1.27338 11.3242 1.42181 11.3008C1.57025 11.2773 1.71478 11.2539 1.85541 11.2305C1.99603 11.207 2.13666 11.1875 2.27728 11.1719C2.41791 11.1484 2.57025 11.1367 2.73431 11.1367C2.8515 10.8945 2.96088 10.6641 3.06244 10.4453C3.164 10.2188 3.26166 10.0039 3.35541 9.80078C3.40228 9.60547 3.46088 9.42578 3.53119 9.26172C3.60931 9.08984 3.68353 8.92969 3.75385 8.78125C3.82416 8.625 3.88666 8.47266 3.94135 8.32422C3.99603 8.16797 4.03119 8.00391 4.04681 7.83203C4.14056 7.55859 4.2226 7.30859 4.29291 7.08203C4.37103 6.84766 4.42963 6.57031 4.46869 6.25C4.17181 6.29688 3.93353 6.34375 3.75385 6.39062C3.57416 6.42969 3.44525 6.46875 3.36713 6.50781C3.21088 6.5 3.08588 6.46875 2.99213 6.41406C2.90619 6.35938 2.83588 6.29297 2.78119 6.21484C2.7265 6.13672 2.67963 6.04688 2.64056 5.94531C2.6015 5.84375 2.55463 5.73828 2.49994 5.62891C2.53119 5.55859 2.539 5.45703 2.52338 5.32422C2.50775 5.18359 2.46088 5.08203 2.38275 5.01953C2.44525 5.00391 2.49213 4.95312 2.52338 4.86719C2.55463 4.77344 2.55853 4.70312 2.5351 4.65625C2.66791 4.61719 2.80853 4.59375 2.95697 4.58594C3.10541 4.57031 3.24994 4.55859 3.39056 4.55078C3.539 4.53516 3.67963 4.51953 3.81244 4.50391C3.94525 4.48047 4.05853 4.4375 4.15228 4.375C4.55853 4.35938 4.98041 4.34375 5.41791 4.32812C5.86322 4.3125 6.27338 4.29297 6.64838 4.26953C6.789 4.31641 6.94916 4.33984 7.12885 4.33984C7.31635 4.33984 7.49994 4.35156 7.67963 4.375C7.86713 4.39844 8.03119 4.44922 8.17181 4.52734C8.32025 4.60547 8.42181 4.74219 8.4765 4.9375C8.59369 4.95312 8.67963 4.98438 8.73431 5.03125C8.79681 5.07812 8.83588 5.13672 8.8515 5.20703C8.86713 5.26953 8.87103 5.34375 8.86322 5.42969C8.86322 5.50781 8.86322 5.58594 8.86322 5.66406C8.73822 5.75781 8.57806 5.83594 8.38275 5.89844C8.19525 5.95312 7.98822 6 7.76166 6.03906C7.5351 6.07031 7.29681 6.09375 7.04681 6.10938C6.80463 6.11719 6.56635 6.125 6.33197 6.13281C6.29291 6.39062 6.2226 6.69531 6.12103 7.04688C6.02728 7.39062 5.92963 7.73047 5.82806 8.06641C5.7265 8.39453 5.63666 8.69141 5.55853 8.95703C5.48822 9.21484 5.45697 9.38281 5.46478 9.46094C5.38666 9.64062 5.32025 9.79297 5.26556 9.91797C5.21869 10.043 5.17181 10.1602 5.12494 10.2695C5.08588 10.3789 5.04291 10.4883 4.99603 10.5977C4.95697 10.6992 4.90619 10.8164 4.84369 10.9492H5.64056C5.65619 11.0352 5.69135 11.0938 5.74603 11.125C5.80072 11.1562 5.85931 11.1836 5.92181 11.207C5.98431 11.2305 6.039 11.2617 6.08588 11.3008C6.14056 11.332 6.16791 11.3867 6.16791 11.4648C6.31635 11.5039 6.4101 11.5625 6.44916 11.6406C6.48822 11.7188 6.49603 11.8047 6.4726 11.8984C6.45697 11.9844 6.41791 12.0742 6.35541 12.168C6.30072 12.2617 6.24603 12.3438 6.19135 12.4141C6.12103 12.3984 6.05463 12.418 5.99213 12.4727C5.92963 12.5195 5.87103 12.5742 5.81635 12.6367C5.58978 12.6055 5.36713 12.6016 5.14838 12.625C4.92963 12.6484 4.7265 12.668 4.539 12.6836C4.49994 12.6914 4.48431 12.7148 4.49213 12.7539C4.49994 12.7852 4.49213 12.8086 4.46869 12.8242C4.2265 12.7461 3.9765 12.7148 3.71869 12.7305C3.46869 12.7461 3.21088 12.7852 2.94525 12.8477C2.68744 12.9023 2.42181 12.9609 2.14838 13.0234C1.87494 13.0938 1.5976 13.1328 1.31635 13.1406ZM15.414 12.7891C15.3359 12.8281 15.2617 12.8633 15.1913 12.8945C15.1288 12.9258 15.0546 12.9414 14.9687 12.9414C14.664 12.7148 14.5038 12.3203 14.4882 11.7578C14.4804 11.1953 14.6015 10.4805 14.8515 9.61328C14.8906 9.58984 14.9101 9.54297 14.9101 9.47266L14.8046 9.35547C14.7734 9.35547 14.7421 9.35938 14.7109 9.36719C14.6874 9.375 14.6679 9.40234 14.6523 9.44922C14.4492 9.59766 14.2265 9.75391 13.9843 9.91797C13.7421 10.0742 13.4882 10.2227 13.2226 10.3633C12.9648 10.4961 12.6992 10.6055 12.4257 10.6914C12.1601 10.7773 11.8984 10.8203 11.6406 10.8203C10.9843 10.8203 10.4921 10.4883 10.164 9.82422L10.0703 9.64844L9.9765 9.80078C9.95306 9.83203 9.91791 9.89844 9.87103 10C9.82416 10.0938 9.77728 10.2031 9.73041 10.3281C9.68353 10.4531 9.64056 10.582 9.6015 10.7148C9.57025 10.8398 9.55853 10.9492 9.56635 11.043C9.49603 11.1133 9.42181 11.1953 9.34369 11.2891C9.26556 11.3828 9.20697 11.4883 9.16791 11.6055C9.15228 11.668 9.1601 11.7266 9.19135 11.7812C9.17572 11.8516 9.14056 11.9062 9.08588 11.9453C9.05463 11.9844 9.01947 12.0234 8.98041 12.0625C8.94916 12.0938 8.92181 12.1289 8.89838 12.168C8.88275 12.207 8.87103 12.2461 8.86322 12.2852C8.86322 12.3242 8.85931 12.3633 8.8515 12.4023C8.8515 12.457 8.84369 12.5078 8.82806 12.5547C8.69525 12.8281 8.58978 13.0039 8.51166 13.082C8.43353 13.168 8.32806 13.2109 8.19525 13.2109C8.13275 13.2109 8.03119 13.1992 7.89056 13.1758C7.789 13.0664 7.69525 12.918 7.60931 12.7305C7.53119 12.5352 7.46869 12.3281 7.42181 12.1094C7.38275 11.8906 7.36322 11.6719 7.36322 11.4531C7.37103 11.2266 7.4101 11.0312 7.48041 10.8672C7.48041 10.8594 7.51166 10.7812 7.57416 10.6328C7.63666 10.4844 7.71478 10.293 7.80853 10.0586C7.9101 9.82422 8.02338 9.56641 8.14838 9.28516C8.27338 8.99609 8.39838 8.71875 8.52338 8.45312C8.64838 8.17969 8.76556 7.92969 8.87494 7.70312C8.99213 7.47656 9.08978 7.30469 9.16791 7.1875C9.23041 7.09375 9.2851 7.00781 9.33197 6.92969C9.38666 6.84375 9.43744 6.76172 9.48431 6.68359C9.62494 6.44141 9.75775 6.24219 9.88275 6.08594C10.0156 5.92188 10.207 5.79297 10.457 5.69922C10.6288 5.76953 10.7538 5.85156 10.832 5.94531L10.8554 6.07422C10.8867 6.15234 10.9335 6.19141 10.996 6.19141C11.082 6.21484 11.1523 6.23828 11.207 6.26172C11.2695 6.27734 11.3359 6.29297 11.4062 6.30859C11.4609 6.37109 11.5117 6.44531 11.5585 6.53125C11.621 6.625 11.6796 6.71875 11.7343 6.8125C11.7968 6.89844 11.8437 6.98828 11.8749 7.08203C11.914 7.16797 11.9335 7.25781 11.9335 7.35156C11.9413 7.44531 11.9257 7.54297 11.8867 7.64453L11.8984 7.76172C11.9374 7.83203 11.9453 7.92969 11.9218 8.05469C11.914 8.10938 11.9101 8.16797 11.9101 8.23047C11.9101 8.28516 11.9179 8.34766 11.9335 8.41797C12.0742 8.52734 12.1992 8.58203 12.3085 8.58203C12.4335 8.58203 12.5468 8.55469 12.6484 8.5C12.7578 8.4375 12.8593 8.375 12.9531 8.3125C13.0156 8.26562 13.0781 8.22656 13.1406 8.19531C13.2031 8.15625 13.2656 8.13281 13.3281 8.125C13.4687 7.99219 13.5937 7.875 13.7031 7.77344C13.8203 7.67188 13.9413 7.57031 14.0663 7.46875C14.3007 7.28125 14.5273 7.07812 14.746 6.85938C14.9648 6.64062 15.1406 6.36719 15.2734 6.03906C15.3515 5.99219 15.4335 5.96875 15.5195 5.96875C15.6054 5.96875 15.6953 5.98828 15.789 6.02734C15.8828 6.06641 15.9726 6.10547 16.0585 6.14453C16.082 6.16016 16.1015 6.17188 16.1171 6.17969C16.1406 6.1875 16.1601 6.19531 16.1757 6.20312C16.1757 6.28125 16.207 6.34766 16.2695 6.40234C16.3007 6.42578 16.3203 6.44141 16.3281 6.44922C16.3359 6.45703 16.3476 6.46484 16.3632 6.47266C16.4804 6.53516 16.5546 6.59766 16.5859 6.66016C16.6406 6.83984 16.7382 6.97656 16.8788 7.07031C16.8632 7.14844 16.8632 7.22266 16.8788 7.29297C16.9023 7.35547 16.9296 7.42188 16.9609 7.49219C16.9687 7.51562 16.9765 7.53906 16.9843 7.5625C16.9921 7.58594 17.0038 7.61328 17.0195 7.64453L16.7968 7.62109L16.832 7.84375C16.8476 7.95312 16.8359 8.07422 16.7968 8.20703C16.7656 8.33984 16.7265 8.44531 16.6796 8.52344C16.6874 8.72656 16.6913 8.88672 16.6913 9.00391C16.6992 9.11328 16.6953 9.21875 16.6796 9.32031C16.664 9.41406 16.6406 9.50391 16.6093 9.58984C16.5859 9.67578 16.5507 9.76953 16.5038 9.87109C16.5351 10.3711 16.4765 10.8281 16.3281 11.2422C16.1874 11.6484 16.039 12.0312 15.8828 12.3906C15.8671 12.4297 15.8476 12.4688 15.8242 12.5078C15.8085 12.5469 15.7929 12.5859 15.7773 12.625C15.707 12.6484 15.6445 12.6758 15.5898 12.707C15.5351 12.7305 15.4765 12.7578 15.414 12.7891ZM21.496 5.73438C21.8242 5.77344 22.1171 5.83984 22.3749 5.93359C22.6328 6.02734 22.8515 6.15234 23.0312 6.30859C23.1562 6.50391 23.2734 6.71484 23.3828 6.94141C23.4999 7.16797 23.5859 7.40625 23.6406 7.65625C23.7031 7.89844 23.7304 8.14844 23.7226 8.40625C23.7226 8.66406 23.6679 8.92578 23.5585 9.19141C23.332 9.47266 23.0546 9.70312 22.7265 9.88281C22.4062 10.0547 22.0585 10.1953 21.6835 10.3047C21.3085 10.4141 20.9179 10.5078 20.5117 10.5859C20.1132 10.6641 19.7226 10.7422 19.3398 10.8203C19.3476 11 19.3476 11.1914 19.3398 11.3945C19.3398 11.5898 19.3203 11.7891 19.2812 11.9922C19.2499 12.1875 19.1992 12.3789 19.1288 12.5664C19.0585 12.7539 18.9648 12.9258 18.8476 13.082C18.7148 13.082 18.5781 13.0977 18.4374 13.1289C18.2968 13.168 18.1718 13.1992 18.0624 13.2227C18.0078 13.1914 17.957 13.1602 17.9101 13.1289C17.871 13.1055 17.8124 13.0898 17.7343 13.082C17.7499 13.0039 17.7304 12.9258 17.6757 12.8477C17.621 12.7617 17.5663 12.6758 17.5117 12.5898C17.457 12.5039 17.4179 12.4219 17.3945 12.3438C17.3788 12.2656 17.4179 12.1914 17.5117 12.1211C17.457 12.0664 17.4296 11.9961 17.4296 11.9102C17.4843 11.8164 17.5312 11.6875 17.5703 11.5234C17.6171 11.3594 17.6523 11.1992 17.6757 11.043C17.707 10.8789 17.7148 10.7305 17.6992 10.5977C17.6835 10.4648 17.6054 10.3672 17.4648 10.3047C17.4726 10.2891 17.4882 10.2812 17.5117 10.2812C17.5351 10.2812 17.5585 10.2773 17.582 10.2695C17.5195 10.2227 17.4804 10.1562 17.4648 10.0703C17.457 9.98438 17.4296 9.91016 17.3828 9.84766C17.3984 9.80859 17.4101 9.77344 17.4179 9.74219C17.4257 9.71094 17.4531 9.69922 17.4999 9.70703C17.4765 9.56641 17.4765 9.43359 17.4999 9.30859C17.5312 9.18359 17.5742 9.06641 17.6288 8.95703C17.6835 8.83984 17.7499 8.72656 17.8281 8.61719C17.9062 8.50781 17.9804 8.39844 18.0507 8.28906C18.1054 8.28125 18.1367 8.28906 18.1445 8.3125C18.1601 8.33594 18.1874 8.33203 18.2265 8.30078C18.3281 8.22266 18.3984 8.14062 18.4374 8.05469C18.4765 7.96875 18.496 7.87109 18.496 7.76172C18.5507 7.59766 18.6171 7.43359 18.6953 7.26953C18.7734 7.09766 18.8593 6.94141 18.9531 6.80078C19.0468 6.66016 19.1484 6.53516 19.2578 6.42578C19.3749 6.31641 19.496 6.23438 19.621 6.17969C19.7148 6.10156 19.832 6.03125 19.9726 5.96875C20.1132 5.89844 20.2656 5.84766 20.4296 5.81641C20.5937 5.77734 20.7578 5.75781 20.9218 5.75781C21.0937 5.75 21.2499 5.76562 21.3906 5.80469C21.4296 5.82031 21.4492 5.8125 21.4492 5.78125C21.457 5.75 21.4726 5.73438 21.496 5.73438ZM21.0156 8.53516C21.2109 8.44922 21.4179 8.38281 21.6367 8.33594C21.8632 8.28125 22.0507 8.18359 22.1992 8.04297C22.1054 7.95703 21.9687 7.88281 21.789 7.82031C21.6093 7.75 21.414 7.70703 21.2031 7.69141C20.9921 7.67578 20.7773 7.69531 20.5585 7.75C20.3476 7.79688 20.164 7.89062 20.0078 8.03125C19.9609 8.17188 19.9218 8.28516 19.8906 8.37109C19.8593 8.44922 19.8163 8.54688 19.7617 8.66406C19.7773 8.70312 19.8007 8.73438 19.832 8.75781C19.871 8.77344 19.8984 8.80078 19.914 8.83984C20.0937 8.74609 20.2734 8.69531 20.4531 8.6875C20.6406 8.67188 20.8281 8.62109 21.0156 8.53516ZM30.2031 9.48438C30.1953 9.57812 30.2031 9.66797 30.2265 9.75391C30.2499 9.83984 30.2773 9.92578 30.3085 10.0117C30.3476 10.0898 30.3828 10.1719 30.414 10.2578C30.4453 10.3438 30.4687 10.4297 30.4843 10.5156C30.4999 10.625 30.4999 10.7461 30.4843 10.8789C30.4687 11.0039 30.4413 11.1289 30.4023 11.2539C30.3632 11.3711 30.3124 11.4805 30.2499 11.582C30.1874 11.6758 30.1132 11.7461 30.0273 11.793C29.9179 11.9336 29.7851 12.043 29.6288 12.1211C29.4726 12.1992 29.3281 12.293 29.1953 12.4023C29.1093 12.457 29.0117 12.4961 28.9023 12.5195C28.8007 12.543 28.6953 12.5664 28.5859 12.5898C28.4999 12.6367 28.3984 12.6875 28.2812 12.7422C28.164 12.7891 28.0429 12.8359 27.9179 12.8828C27.7929 12.9219 27.6679 12.9531 27.5429 12.9766C27.4179 12.9922 27.3085 12.9961 27.2148 12.9883C26.9804 13.0742 26.7499 13.1289 26.5234 13.1523C26.3046 13.1836 26.0468 13.168 25.7499 13.1055C25.4687 13.1445 25.207 13.1328 24.9648 13.0703C24.7304 13.0078 24.5195 12.9102 24.332 12.7773C24.1523 12.6367 23.9921 12.4727 23.8515 12.2852C23.7187 12.0898 23.6093 11.8867 23.5234 11.6758C23.4609 11.2305 23.4765 10.8281 23.5703 10.4688C23.664 10.1016 23.7968 9.76562 23.9687 9.46094C24.1484 9.14844 24.3515 8.86328 24.5781 8.60547C24.8046 8.33984 25.0234 8.08203 25.2343 7.83203C25.2812 7.84766 25.3163 7.84766 25.3398 7.83203C25.371 7.80859 25.3984 7.78125 25.4218 7.75C25.4453 7.71094 25.4687 7.67578 25.4921 7.64453C25.5234 7.61328 25.5585 7.59375 25.5976 7.58594C25.6523 7.46875 25.7304 7.38281 25.832 7.32812C25.9413 7.26562 26.0273 7.17969 26.0898 7.07031C26.1601 7.05469 26.2187 7.03125 26.2656 7C26.3124 6.96875 26.3554 6.93359 26.3945 6.89453C26.4413 6.85547 26.4882 6.82031 26.5351 6.78906C26.582 6.75 26.6367 6.72266 26.6992 6.70703V6.57812C26.8398 6.51562 26.9413 6.44531 27.0038 6.36719C27.0742 6.28125 27.1562 6.17969 27.2499 6.0625C27.3203 6.05469 27.3749 6.05078 27.414 6.05078C27.4609 6.05078 27.5273 6.04297 27.6132 6.02734C27.6757 5.91797 27.7304 5.83594 27.7773 5.78125C27.832 5.72656 27.9101 5.66797 28.0117 5.60547C28.1054 5.65234 28.207 5.68359 28.3163 5.69922C28.4335 5.71484 28.5351 5.76562 28.621 5.85156C28.6288 5.92969 28.6523 5.99219 28.6913 6.03906C28.7304 6.07812 28.7734 6.11719 28.8203 6.15625C28.8671 6.1875 28.9101 6.22266 28.9492 6.26172C28.996 6.30078 29.0273 6.35547 29.0429 6.42578C29.0742 6.43359 29.0937 6.42969 29.1015 6.41406C29.1171 6.39844 29.1406 6.39453 29.1718 6.40234C29.1953 6.51172 29.2226 6.58594 29.2538 6.625C29.2851 6.65625 29.3163 6.72266 29.3476 6.82422C29.3085 6.90234 29.2773 6.98438 29.2538 7.07031C29.2382 7.14844 29.1913 7.20703 29.1132 7.24609C29.1054 7.30078 29.121 7.33203 29.1601 7.33984C29.1992 7.33984 29.2226 7.35938 29.2304 7.39844C29.2382 7.46875 29.2265 7.51953 29.1953 7.55078C29.3828 7.85547 29.5507 8.17969 29.6992 8.52344C29.8476 8.85938 30.0156 9.17969 30.2031 9.48438ZM28.7382 10.5977C28.7695 10.5117 28.8085 10.4414 28.8554 10.3867C28.9101 10.332 28.9413 10.25 28.9492 10.1406C28.9101 10.0781 28.8867 10.0312 28.8788 10C28.871 9.96094 28.8671 9.90234 28.8671 9.82422C28.6953 9.58203 28.5468 9.32422 28.4218 9.05078C28.2968 8.76953 28.1562 8.50781 27.9999 8.26562C27.9843 8.29688 27.957 8.32812 27.9179 8.35938C27.8788 8.39062 27.8359 8.38281 27.789 8.33594C27.7734 8.39844 27.746 8.44531 27.707 8.47656C27.6679 8.5 27.6249 8.51172 27.5781 8.51172C27.5312 8.50391 27.4804 8.49219 27.4257 8.47656C27.3788 8.45312 27.3359 8.42578 27.2968 8.39453C27.0703 8.57422 26.8437 8.75 26.6171 8.92188C26.3906 9.09375 26.1874 9.29297 26.0078 9.51953C25.9765 9.53516 25.957 9.54297 25.9492 9.54297C25.9413 9.53516 25.9179 9.53906 25.8788 9.55469C25.8163 9.70312 25.7382 9.83984 25.6445 9.96484C25.5585 10.082 25.4726 10.2031 25.3867 10.3281C25.3007 10.4531 25.2265 10.5859 25.164 10.7266C25.1015 10.8672 25.0663 11.0312 25.0585 11.2188C25.1913 11.3281 25.3476 11.3945 25.5273 11.418C25.707 11.4414 25.8906 11.4453 26.0781 11.4297C26.2734 11.4141 26.4609 11.3906 26.6406 11.3594C26.8281 11.3203 26.9999 11.3008 27.1562 11.3008C27.4843 11.2227 27.7656 11.1211 27.9999 10.9961C28.2343 10.8633 28.4804 10.7305 28.7382 10.5977ZM32.8046 11.7812C32.7187 12.0938 32.6406 12.332 32.5703 12.4961C32.5078 12.6523 32.4101 12.8164 32.2773 12.9883C32.1757 12.9727 32.1054 12.9844 32.0663 13.0234C32.0273 13.0625 31.9843 13.0977 31.9374 13.1289C31.8671 13.1445 31.8163 13.1445 31.7851 13.1289C31.7538 13.1133 31.7265 13.0938 31.7031 13.0703C31.6796 13.0547 31.6484 13.0352 31.6093 13.0117C31.5781 12.9961 31.5273 12.9883 31.457 12.9883C31.4413 12.9258 31.4218 12.8672 31.3984 12.8125C31.3828 12.7578 31.332 12.7383 31.246 12.7539C31.2617 12.6914 31.2656 12.6406 31.2578 12.6016C31.2499 12.5547 31.2382 12.5156 31.2226 12.4844C31.2148 12.4453 31.207 12.4102 31.1992 12.3789C31.1913 12.3398 31.1953 12.293 31.2109 12.2383C31.1718 12.2383 31.1406 12.2109 31.1171 12.1562C31.0937 12.1016 31.0663 12.0469 31.0351 11.9922C31.0585 11.8516 31.082 11.7188 31.1054 11.5938C31.1288 11.4688 31.1562 11.3516 31.1874 11.2422C31.2265 11.1328 31.2578 11.0234 31.2812 10.9141C31.3046 10.8047 31.2929 10.6914 31.246 10.5742C31.2773 10.5977 31.3007 10.5938 31.3163 10.5625C31.332 10.5234 31.3437 10.4766 31.3515 10.4219C31.3593 10.3594 31.3632 10.3008 31.3632 10.2461C31.3632 10.1836 31.3593 10.1328 31.3515 10.0938C31.4296 9.89062 31.4921 9.68359 31.539 9.47266C31.5937 9.25391 31.6406 9.03906 31.6796 8.82812C31.7265 8.61719 31.7734 8.41016 31.8203 8.20703C31.8671 8.00391 31.9296 7.81641 32.0078 7.64453C32.0937 7.62891 32.1874 7.64062 32.289 7.67969C32.3984 7.71094 32.4648 7.75391 32.4882 7.80859C32.6913 7.65234 32.871 7.46484 33.0273 7.24609C33.1835 7.01953 33.3437 6.80078 33.5078 6.58984C33.6718 6.37891 33.8515 6.19141 34.0468 6.02734C34.2499 5.86328 34.5038 5.76562 34.8085 5.73438C34.9648 5.85156 35.1367 5.97266 35.3242 6.09766C35.5195 6.21484 35.6796 6.37109 35.8046 6.56641C35.8671 6.59766 35.9179 6.63281 35.957 6.67188C36.0038 6.70312 36.0585 6.73828 36.121 6.77734V6.91797C36.2148 7.00391 36.289 7.10547 36.3437 7.22266C36.4062 7.33203 36.4609 7.45312 36.5078 7.58594C36.5546 7.71094 36.6015 7.83984 36.6484 7.97266C36.6953 8.09766 36.7499 8.21875 36.8124 8.33594C36.7968 8.375 36.789 8.41016 36.789 8.44141C36.789 8.46484 36.7929 8.49219 36.8007 8.52344C36.8163 8.55469 36.8281 8.58594 36.8359 8.61719C36.8437 8.64844 36.8437 8.69141 36.8359 8.74609C36.8124 9.08984 36.6992 9.36719 36.496 9.57812C36.3007 9.78906 36.0624 9.96484 35.7812 10.1055C35.4999 10.2383 35.1992 10.3516 34.8788 10.4453C34.5585 10.5391 34.2695 10.6406 34.0117 10.75C34.0117 10.7812 34.0234 10.7969 34.0468 10.7969C34.0781 10.7969 34.0898 10.8164 34.082 10.8555C34.2695 10.9727 34.4179 11.0664 34.5273 11.1367C34.6367 11.207 34.7382 11.2656 34.832 11.3125C34.9335 11.3594 35.039 11.4023 35.1484 11.4414C35.2656 11.4727 35.4257 11.5117 35.6288 11.5586C35.832 11.6055 35.9882 11.6445 36.0976 11.6758C36.2148 11.6992 36.3203 11.7227 36.414 11.7461C36.5078 11.7617 36.6015 11.7773 36.6953 11.793C36.7968 11.8008 36.9374 11.8125 37.1171 11.8281C37.1874 11.8984 37.246 11.9844 37.2929 12.0859C37.3476 12.1797 37.3828 12.2773 37.3984 12.3789C37.414 12.4727 37.4179 12.5664 37.4101 12.6602C37.4023 12.7461 37.3749 12.8164 37.3281 12.8711C37.3359 12.8945 37.3515 12.9062 37.3749 12.9062C37.4062 12.8984 37.4374 12.8984 37.4687 12.9062C37.4218 12.9375 37.3828 12.9766 37.3515 13.0234C37.3203 13.0703 37.289 13.1172 37.2578 13.1641C37.2265 13.2109 37.1913 13.25 37.1523 13.2812C37.1132 13.3203 37.0585 13.3438 36.9882 13.3516C36.746 13.4453 36.4413 13.4492 36.0742 13.3633C35.707 13.2852 35.2421 13.1367 34.6796 12.918C34.3984 12.8086 34.1679 12.7148 33.9882 12.6367C33.8163 12.5508 33.664 12.4688 33.5312 12.3906C33.4062 12.3047 33.289 12.2148 33.1796 12.1211C33.0781 12.0273 32.9531 11.9141 32.8046 11.7812ZM34.4804 7.76172C34.3945 7.88672 34.2968 8 34.1874 8.10156C34.0859 8.20312 33.9843 8.30859 33.8828 8.41797C33.789 8.51953 33.7031 8.63672 33.6249 8.76953C33.5468 8.89453 33.4921 9.04297 33.4609 9.21484C33.7343 9.18359 34.0195 9.10938 34.3163 8.99219C34.6132 8.86719 34.8945 8.75 35.1601 8.64062C35.1288 8.39844 35.0429 8.20312 34.9023 8.05469C34.7695 7.90625 34.6288 7.80859 34.4804 7.76172ZM43.7148 7.36328C43.5195 7.36328 43.3085 7.37891 43.082 7.41016C42.8554 7.43359 42.6328 7.46094 42.414 7.49219C42.2578 7.51562 42.1054 7.53516 41.957 7.55078C41.8163 7.56641 41.6874 7.57812 41.5703 7.58594C41.5156 7.75781 41.4609 7.91016 41.4062 8.04297C41.3515 8.17578 41.2929 8.30469 41.2304 8.42969C41.1679 8.5625 41.1093 8.69922 41.0546 8.83984C41.0078 8.97266 40.9609 9.11719 40.914 9.27344C40.8359 9.39844 40.7695 9.51562 40.7148 9.625C40.6679 9.72656 40.6288 9.84375 40.5976 9.97656C40.5038 10.0938 40.4335 10.2188 40.3867 10.3516C40.3398 10.4766 40.3046 10.5859 40.2812 10.6797L40.2343 10.8203C40.1874 10.8672 40.1601 10.9062 40.1523 10.9375C40.1445 10.9609 40.1249 10.9844 40.0937 11.0078C40.0859 11.0938 40.0585 11.1797 40.0117 11.2656C39.996 11.3047 39.9843 11.3438 39.9765 11.3828C39.9687 11.4141 39.9648 11.4375 39.9648 11.4531C39.9648 11.5312 39.9453 11.582 39.9062 11.6055C39.914 11.6445 39.914 11.6875 39.9062 11.7344C39.8984 11.7734 39.8906 11.8125 39.8828 11.8516C39.8593 11.9453 39.8515 12.0195 39.8593 12.0742C39.8828 12.1055 39.9023 12.1328 39.9179 12.1562C39.9413 12.1797 39.957 12.2109 39.9648 12.25C40.0117 12.2812 40.0468 12.3008 40.0703 12.3086C40.1015 12.332 40.1484 12.3594 40.2109 12.3906L40.3163 12.5078C40.3554 12.7344 40.3203 12.9141 40.2109 13.0469C40.0937 13.1953 39.8945 13.2695 39.6132 13.2695H39.4726C39.4335 13.2305 39.4101 13.1992 39.4023 13.1758C39.3398 13.1523 39.289 13.1328 39.2499 13.1172C39.2109 13.1016 39.1757 13.0703 39.1445 13.0234C39.0429 12.9766 38.9609 12.9375 38.8984 12.9062L38.7929 12.8477C38.7929 12.7617 38.7929 12.7148 38.7929 12.707C38.7382 12.6367 38.6953 12.5586 38.664 12.4727C38.6406 12.3867 38.621 12.3008 38.6054 12.2148C38.5898 12.1445 38.5703 12.0781 38.5468 12.0156C38.5312 11.9531 38.5078 11.8984 38.4765 11.8516C38.4609 11.3984 38.5038 11.0156 38.6054 10.7031C38.707 10.3906 38.8124 10.0898 38.9218 9.80078C38.9843 9.64453 39.0468 9.48828 39.1093 9.33203C39.1718 9.16797 39.2265 9 39.2734 8.82812L39.3788 8.71094C39.4335 8.58594 39.4765 8.48438 39.5078 8.40625C39.5468 8.32031 39.5859 8.23438 39.6249 8.14844C39.6484 8.09375 39.6679 8.04297 39.6835 7.99609C39.707 7.94141 39.7265 7.89453 39.7421 7.85547C39.6953 7.85547 39.6523 7.85938 39.6132 7.86719C39.5742 7.86719 39.5351 7.87109 39.496 7.87891C39.4492 7.88672 39.4062 7.89453 39.3671 7.90234C39.3281 7.90234 39.289 7.90234 39.2499 7.90234C39.1953 7.90234 39.1562 7.89844 39.1328 7.89062C39.0468 7.92969 38.9531 7.94922 38.8515 7.94922H38.7343C38.7109 7.94922 38.6874 7.94922 38.664 7.94922C38.6484 7.94141 38.6328 7.9375 38.6171 7.9375C38.539 7.9375 38.4765 7.94922 38.4296 7.97266C38.3359 7.97266 38.246 7.97266 38.1601 7.97266H38.0429C38.0273 7.97266 38.0078 7.97656 37.9843 7.98438C37.9609 7.98438 37.9413 7.98438 37.9257 7.98438C37.871 7.98438 37.8124 7.98047 37.7499 7.97266C37.6874 7.95703 37.621 7.92969 37.5507 7.89062C37.457 7.76562 37.3945 7.69922 37.3632 7.69141L37.2578 7.55078C37.2499 7.50391 37.2382 7.46094 37.2226 7.42188C37.207 7.375 37.1913 7.32422 37.1757 7.26953C37.1445 7.19141 37.1132 7.10938 37.082 7.02344C37.0585 6.92969 37.0468 6.82031 37.0468 6.69531C37.0546 6.63281 37.0703 6.58594 37.0937 6.55469C37.1171 6.52344 37.1367 6.49609 37.1523 6.47266L37.1874 6.29688L37.3398 6.30859H37.6679C37.9179 6.30859 38.1718 6.30078 38.4296 6.28516C38.6874 6.26172 38.9531 6.23828 39.2265 6.21484C39.3828 6.19922 39.539 6.18359 39.6953 6.16797C39.8593 6.15234 40.0273 6.13672 40.1992 6.12109C40.2304 6.05078 40.2617 5.98438 40.2929 5.92188L40.4101 5.86328C40.5507 5.85547 40.6484 5.875 40.7031 5.92188C40.7656 5.96094 40.8163 6 40.8554 6.03906C41.0273 6.02344 41.1992 6.00781 41.371 5.99219C41.5507 5.96875 41.7304 5.94141 41.9101 5.91016C42.1757 5.87109 42.4413 5.83594 42.707 5.80469C42.9804 5.77344 43.2421 5.75781 43.4921 5.75781C43.6015 5.75781 43.707 5.76172 43.8085 5.76953C43.9101 5.77734 44.0038 5.78906 44.0898 5.80469L44.207 5.88672C44.2304 5.93359 44.2617 5.97656 44.3007 6.01562C44.3476 6.05469 44.3945 6.09375 44.4413 6.13281C44.5351 6.21875 44.6288 6.32031 44.7226 6.4375C44.8163 6.55469 44.8515 6.72656 44.8281 6.95312C44.7656 7.04688 44.7187 7.10156 44.6874 7.11719L44.582 7.25781L44.4648 7.24609C44.4179 7.24609 44.3749 7.25391 44.3359 7.26953C44.2968 7.27734 44.2578 7.28906 44.2187 7.30469C44.1874 7.32031 44.1562 7.33594 44.1249 7.35156C44.0937 7.35938 44.0585 7.36719 44.0195 7.375C43.9492 7.375 43.8906 7.375 43.8437 7.375C43.8046 7.36719 43.7617 7.36328 43.7148 7.36328ZM53.0195 9.83594C53.0117 9.875 53.0038 9.91016 52.996 9.94141C52.9882 9.96484 52.9804 9.98828 52.9726 10.0117C52.9648 10.0352 52.9609 10.0664 52.9609 10.1055C52.9609 10.1367 52.9609 10.1797 52.9609 10.2344C52.7265 10.6484 52.4296 10.9961 52.0703 11.2773C51.7187 11.5586 51.3281 11.8086 50.8984 12.0273C50.4765 12.2383 50.0351 12.4336 49.5742 12.6133C49.1132 12.7852 48.664 12.9727 48.2265 13.1758C48.039 13.1289 47.8945 13.0508 47.7929 12.9414C47.6992 12.832 47.6249 12.707 47.5703 12.5664C47.5234 12.418 47.4882 12.2578 47.4648 12.0859C47.4492 11.9062 47.4335 11.7227 47.4179 11.5352C47.4413 11.4492 47.4726 11.3789 47.5117 11.3242C47.5585 11.2617 47.582 11.1758 47.582 11.0664C47.6445 10.8633 47.707 10.6641 47.7695 10.4688C47.832 10.2734 47.871 10.0742 47.8867 9.87109C47.9101 9.80859 47.9531 9.76562 48.0156 9.74219C48.0546 9.36719 48.0546 8.98828 48.0156 8.60547C47.9843 8.21484 47.9218 7.85156 47.8281 7.51562C47.8359 7.4375 47.8437 7.38281 47.8515 7.35156C47.8671 7.3125 47.8671 7.28516 47.8515 7.26953C47.8437 7.20703 47.8632 7.17578 47.9101 7.17578C47.9648 7.17578 48.0195 7.17578 48.0742 7.17578C48.0742 7.05859 48.0507 6.94141 48.0038 6.82422C47.9648 6.70703 47.9257 6.57422 47.8867 6.42578C47.9413 6.30859 47.9765 6.19531 47.9921 6.08594C48.0078 5.96875 48.0429 5.86719 48.0976 5.78125C48.5195 5.91406 48.9218 6.07422 49.3046 6.26172C49.6953 6.44922 50.0781 6.58594 50.4531 6.67188C50.7343 6.875 51.0234 7.07812 51.3203 7.28125C51.6171 7.47656 51.8867 7.69531 52.1288 7.9375C52.371 8.17188 52.5742 8.44141 52.7382 8.74609C52.9023 9.05078 52.996 9.41406 53.0195 9.83594ZM50.2421 10.4805C50.4062 10.418 50.5663 10.3516 50.7226 10.2812C50.8867 10.2109 51.0351 10.1328 51.1679 10.0469C51.3085 9.95312 51.4335 9.84766 51.5429 9.73047C51.6523 9.61328 51.7421 9.47266 51.8124 9.30859C51.7656 9.21484 51.7031 9.13281 51.6249 9.0625C51.5468 8.98438 51.4687 8.91406 51.3906 8.85156C51.3124 8.78125 51.2343 8.71094 51.1562 8.64062C51.0859 8.57031 51.0273 8.48438 50.9804 8.38281C50.8788 8.36719 50.789 8.33984 50.7109 8.30078C50.6328 8.25391 50.5546 8.21094 50.4765 8.17188C50.4062 8.125 50.3281 8.08203 50.2421 8.04297C50.164 8.00391 50.0703 7.98047 49.9609 7.97266C49.789 7.88672 49.6328 7.82422 49.4921 7.78516C49.3593 7.74609 49.2578 7.69531 49.1874 7.63281C49.1328 7.63281 49.0898 7.64453 49.0585 7.66797C49.1367 7.96484 49.1953 8.24609 49.2343 8.51172C49.2734 8.76953 49.2929 9.03125 49.2929 9.29688C49.3007 9.55469 49.289 9.82031 49.2578 10.0938C49.2265 10.3672 49.1835 10.6641 49.1288 10.9844C49.207 10.9766 49.2773 10.9609 49.3398 10.9375C49.4101 10.9062 49.4765 10.875 49.539 10.8438C49.6093 10.8125 49.6796 10.7852 49.7499 10.7617C49.8281 10.7305 49.9179 10.7109 50.0195 10.7031C50.0429 10.6562 50.0742 10.6172 50.1132 10.5859C50.1601 10.5547 50.2031 10.5195 50.2421 10.4805ZM55.6913 12.1797C55.7304 12.4141 55.7148 12.5977 55.6445 12.7305C55.582 12.8633 55.4882 12.9609 55.3632 13.0234C55.246 13.0938 55.1093 13.1328 54.9531 13.1406C54.7968 13.1484 54.6484 13.1406 54.5078 13.1172C54.4296 13.0078 54.3593 12.8711 54.2968 12.707C54.2343 12.543 54.1757 12.375 54.121 12.2031C54.0663 12.0234 54.0156 11.8477 53.9687 11.6758C53.9296 11.5039 53.8945 11.3516 53.8632 11.2188C53.9023 11.125 53.9257 11.0195 53.9335 10.9023C53.9492 10.7773 53.957 10.6523 53.957 10.5273C53.9648 10.4023 53.9687 10.2773 53.9687 10.1523C53.9765 10.0195 53.9882 9.89453 54.0038 9.77734C54.0585 9.44922 54.1367 9.13672 54.2382 8.83984C54.3476 8.54297 54.4335 8.23438 54.496 7.91406C54.5117 7.84375 54.5038 7.77734 54.4726 7.71484C54.4492 7.65234 54.4453 7.59375 54.4609 7.53906C54.4687 7.50781 54.4921 7.48828 54.5312 7.48047C54.5703 7.46484 54.5937 7.4375 54.6015 7.39844C54.6249 7.3125 54.6288 7.24219 54.6132 7.1875C54.6054 7.13281 54.621 7.06641 54.6601 6.98828C54.6992 6.92578 54.746 6.83594 54.8007 6.71875C54.8632 6.59375 54.8867 6.46484 54.871 6.33203C54.9413 6.28516 55.0078 6.23047 55.0703 6.16797C55.1328 6.10547 55.1953 6.05078 55.2578 6.00391C55.3281 5.94922 55.4023 5.90234 55.4804 5.86328C55.5663 5.82422 55.6679 5.80469 55.7851 5.80469C55.8476 5.88281 55.8867 5.96875 55.9023 6.0625C55.9257 6.15625 55.9453 6.25 55.9609 6.34375C55.9843 6.4375 56.0156 6.52734 56.0546 6.61328C56.0937 6.69141 56.1601 6.75391 56.2538 6.80078C56.2538 6.86328 56.2538 6.94141 56.2538 7.03516C56.2538 7.12891 56.2578 7.22266 56.2656 7.31641C56.2734 7.40234 56.289 7.48438 56.3124 7.5625C56.3437 7.63281 56.3906 7.67969 56.4531 7.70312C56.3124 8.07812 56.1796 8.44922 56.0546 8.81641C55.9374 9.18359 55.8398 9.55469 55.7617 9.92969C55.6835 10.2969 55.6328 10.668 55.6093 11.043C55.5937 11.418 55.621 11.7969 55.6913 12.1797ZM58.9374 11.7812C58.8515 12.0938 58.7734 12.332 58.7031 12.4961C58.6406 12.6523 58.5429 12.8164 58.4101 12.9883C58.3085 12.9727 58.2382 12.9844 58.1992 13.0234C58.1601 13.0625 58.1171 13.0977 58.0703 13.1289C57.9999 13.1445 57.9492 13.1445 57.9179 13.1289C57.8867 13.1133 57.8593 13.0938 57.8359 13.0703C57.8124 13.0547 57.7812 13.0352 57.7421 13.0117C57.7109 12.9961 57.6601 12.9883 57.5898 12.9883C57.5742 12.9258 57.5546 12.8672 57.5312 12.8125C57.5156 12.7578 57.4648 12.7383 57.3788 12.7539C57.3945 12.6914 57.3984 12.6406 57.3906 12.6016C57.3828 12.5547 57.371 12.5156 57.3554 12.4844C57.3476 12.4453 57.3398 12.4102 57.332 12.3789C57.3242 12.3398 57.3281 12.293 57.3437 12.2383C57.3046 12.2383 57.2734 12.2109 57.2499 12.1562C57.2265 12.1016 57.1992 12.0469 57.1679 11.9922C57.1913 11.8516 57.2148 11.7188 57.2382 11.5938C57.2617 11.4688 57.289 11.3516 57.3203 11.2422C57.3593 11.1328 57.3906 11.0234 57.414 10.9141C57.4374 10.8047 57.4257 10.6914 57.3788 10.5742C57.4101 10.5977 57.4335 10.5938 57.4492 10.5625C57.4648 10.5234 57.4765 10.4766 57.4843 10.4219C57.4921 10.3594 57.496 10.3008 57.496 10.2461C57.496 10.1836 57.4921 10.1328 57.4843 10.0938C57.5624 9.89062 57.6249 9.68359 57.6718 9.47266C57.7265 9.25391 57.7734 9.03906 57.8124 8.82812C57.8593 8.61719 57.9062 8.41016 57.9531 8.20703C57.9999 8.00391 58.0624 7.81641 58.1406 7.64453C58.2265 7.62891 58.3203 7.64062 58.4218 7.67969C58.5312 7.71094 58.5976 7.75391 58.621 7.80859C58.8242 7.65234 59.0038 7.46484 59.1601 7.24609C59.3163 7.01953 59.4765 6.80078 59.6406 6.58984C59.8046 6.37891 59.9843 6.19141 60.1796 6.02734C60.3828 5.86328 60.6367 5.76562 60.9413 5.73438C61.0976 5.85156 61.2695 5.97266 61.457 6.09766C61.6523 6.21484 61.8124 6.37109 61.9374 6.56641C61.9999 6.59766 62.0507 6.63281 62.0898 6.67188C62.1367 6.70312 62.1913 6.73828 62.2538 6.77734V6.91797C62.3476 7.00391 62.4218 7.10547 62.4765 7.22266C62.539 7.33203 62.5937 7.45312 62.6406 7.58594C62.6874 7.71094 62.7343 7.83984 62.7812 7.97266C62.8281 8.09766 62.8828 8.21875 62.9453 8.33594C62.9296 8.375 62.9218 8.41016 62.9218 8.44141C62.9218 8.46484 62.9257 8.49219 62.9335 8.52344C62.9492 8.55469 62.9609 8.58594 62.9687 8.61719C62.9765 8.64844 62.9765 8.69141 62.9687 8.74609C62.9453 9.08984 62.832 9.36719 62.6288 9.57812C62.4335 9.78906 62.1953 9.96484 61.914 10.1055C61.6328 10.2383 61.332 10.3516 61.0117 10.4453C60.6913 10.5391 60.4023 10.6406 60.1445 10.75C60.1445 10.7812 60.1562 10.7969 60.1796 10.7969C60.2109 10.7969 60.2226 10.8164 60.2148 10.8555C60.4023 10.9727 60.5507 11.0664 60.6601 11.1367C60.7695 11.207 60.871 11.2656 60.9648 11.3125C61.0663 11.3594 61.1718 11.4023 61.2812 11.4414C61.3984 11.4727 61.5585 11.5117 61.7617 11.5586C61.9648 11.6055 62.121 11.6445 62.2304 11.6758C62.3476 11.6992 62.4531 11.7227 62.5468 11.7461C62.6406 11.7617 62.7343 11.7773 62.8281 11.793C62.9296 11.8008 63.0703 11.8125 63.2499 11.8281C63.3203 11.8984 63.3788 11.9844 63.4257 12.0859C63.4804 12.1797 63.5156 12.2773 63.5312 12.3789C63.5468 12.4727 63.5507 12.5664 63.5429 12.6602C63.5351 12.7461 63.5078 12.8164 63.4609 12.8711C63.4687 12.8945 63.4843 12.9062 63.5078 12.9062C63.539 12.8984 63.5703 12.8984 63.6015 12.9062C63.5546 12.9375 63.5156 12.9766 63.4843 13.0234C63.4531 13.0703 63.4218 13.1172 63.3906 13.1641C63.3593 13.2109 63.3242 13.25 63.2851 13.2812C63.246 13.3203 63.1913 13.3438 63.121 13.3516C62.8788 13.4453 62.5742 13.4492 62.207 13.3633C61.8398 13.2852 61.3749 13.1367 60.8124 12.918C60.5312 12.8086 60.3007 12.7148 60.121 12.6367C59.9492 12.5508 59.7968 12.4688 59.664 12.3906C59.539 12.3047 59.4218 12.2148 59.3124 12.1211C59.2109 12.0273 59.0859 11.9141 58.9374 11.7812ZM60.6132 7.76172C60.5273 7.88672 60.4296 8 60.3203 8.10156C60.2187 8.20312 60.1171 8.30859 60.0156 8.41797C59.9218 8.51953 59.8359 8.63672 59.7578 8.76953C59.6796 8.89453 59.6249 9.04297 59.5937 9.21484C59.8671 9.18359 60.1523 9.10938 60.4492 8.99219C60.746 8.86719 61.0273 8.75 61.2929 8.64062C61.2617 8.39844 61.1757 8.20312 61.0351 8.05469C60.9023 7.90625 60.7617 7.80859 60.6132 7.76172ZM70.082 6.40234C70.0898 6.45703 70.0898 6.5 70.082 6.53125C70.082 6.55469 70.0781 6.57812 70.0703 6.60156C70.0703 6.625 70.0703 6.65234 70.0703 6.68359C70.0703 6.70703 70.0781 6.74609 70.0937 6.80078C69.9296 7.06641 69.7382 7.25 69.5195 7.35156C69.3085 7.44531 69.0781 7.51562 68.8281 7.5625C68.5781 7.60156 68.3203 7.64453 68.0546 7.69141C67.7968 7.73828 67.539 7.83984 67.2812 7.99609C67.1796 7.95703 67.0859 7.95703 66.9999 7.99609C66.9218 8.03516 66.8046 8.04688 66.6484 8.03125C66.6015 8.07812 66.5429 8.11328 66.4726 8.13672C66.4023 8.15234 66.332 8.17188 66.2617 8.19531C66.2929 8.26562 66.3046 8.33984 66.2968 8.41797C66.2968 8.48828 66.3085 8.54688 66.332 8.59375C66.6054 8.61719 66.9062 8.61328 67.2343 8.58203C67.5703 8.55078 67.8984 8.53125 68.2187 8.52344C68.2265 8.5625 68.2226 8.58984 68.207 8.60547C68.1913 8.61328 68.1874 8.63281 68.1953 8.66406C68.2499 8.70312 68.3046 8.75391 68.3593 8.81641C68.414 8.87109 68.4687 8.92578 68.5234 8.98047C68.5781 9.03516 68.6328 9.08203 68.6874 9.12109C68.7499 9.15234 68.8203 9.16406 68.8984 9.15625C68.9296 9.21875 68.9492 9.28906 68.957 9.36719C68.9726 9.4375 68.9648 9.51172 68.9335 9.58984C68.8085 9.67578 68.6835 9.76562 68.5585 9.85938C68.4335 9.94531 68.3007 10.0234 68.1601 10.0938C68.0273 10.1641 67.8828 10.2227 67.7265 10.2695C67.5781 10.3086 67.4101 10.3242 67.2226 10.3164C67.1835 10.3164 67.1523 10.3164 67.1288 10.3164C67.1132 10.3164 67.0898 10.3047 67.0585 10.2812C66.996 10.3203 66.9062 10.332 66.789 10.3164C66.6796 10.3008 66.5937 10.3125 66.5312 10.3516C66.4453 10.3125 66.3398 10.2969 66.2148 10.3047C66.0976 10.3047 65.9921 10.2891 65.8984 10.2578C65.7734 10.4219 65.6601 10.5977 65.5585 10.7852C65.457 10.9727 65.3671 11.1719 65.289 11.3828C65.5546 11.4219 65.7734 11.4375 65.9453 11.4297C66.1249 11.4219 66.2929 11.4102 66.4492 11.3945C66.6054 11.3711 66.7656 11.3516 66.9296 11.3359C67.0937 11.3125 67.3007 11.3047 67.5507 11.3125C67.707 11.2266 67.8906 11.1719 68.1015 11.1484C68.3203 11.1172 68.5195 11.0703 68.6992 11.0078C68.7617 11.0312 68.8163 11.0742 68.8632 11.1367C68.9101 11.1914 68.9531 11.2461 68.9921 11.3008C69.039 11.3477 69.0859 11.3906 69.1328 11.4297C69.1796 11.4688 69.2382 11.4844 69.3085 11.4766C69.3398 11.5078 69.3593 11.5469 69.3671 11.5938C69.3828 11.6328 69.3945 11.6719 69.4023 11.7109C69.4101 11.75 69.4218 11.7852 69.4374 11.8164C69.4609 11.8398 69.496 11.8477 69.5429 11.8398C69.4257 12.0977 69.289 12.2969 69.1328 12.4375C68.9843 12.5703 68.8124 12.6719 68.6171 12.7422C68.4218 12.8125 68.2031 12.8672 67.9609 12.9062C67.7265 12.9453 67.4648 12.9922 67.1757 13.0469C67.1054 13.0625 67.0468 13.0586 66.9999 13.0352C66.9531 13.0195 66.8984 13.0117 66.8359 13.0117C66.6562 13.0508 66.4413 13.0859 66.1913 13.1172C65.9413 13.1484 65.6874 13.1602 65.4296 13.1523C65.1718 13.1445 64.9257 13.1094 64.6913 13.0469C64.457 12.9922 64.2656 12.8906 64.1171 12.7422C64.0546 12.6875 64.0117 12.625 63.9882 12.5547C63.9726 12.4766 63.9218 12.418 63.8359 12.3789C63.8281 12.2773 63.8124 12.1641 63.789 12.0391C63.7656 11.9141 63.7421 11.7852 63.7187 11.6523C63.6953 11.5117 63.6757 11.375 63.6601 11.2422C63.6523 11.1094 63.6601 10.9883 63.6835 10.8789C63.707 10.7617 63.7538 10.6562 63.8242 10.5625C63.9023 10.4688 63.9296 10.3672 63.9062 10.2578C63.9453 10.25 63.9687 10.2305 63.9765 10.1992C63.9843 10.1602 64.0156 10.1445 64.0703 10.1523C64.1171 10.0117 64.1679 9.87891 64.2226 9.75391C64.2773 9.62891 64.332 9.50781 64.3867 9.39062C64.4492 9.27344 64.5078 9.15625 64.5624 9.03906C64.6249 8.91406 64.6835 8.77734 64.7382 8.62891C64.6288 8.52734 64.5468 8.41797 64.4921 8.30078C64.4453 8.17578 64.4101 8.05469 64.3867 7.9375C64.3632 7.8125 64.3437 7.6875 64.3281 7.5625C64.3124 7.42969 64.2851 7.29688 64.246 7.16406C64.3242 7.04688 64.4179 6.95312 64.5273 6.88281C64.6445 6.80469 64.7695 6.74219 64.9023 6.69531C65.0351 6.64844 65.1796 6.60938 65.3359 6.57812C65.4921 6.54688 65.6562 6.51172 65.8281 6.47266C66.1406 6.37109 66.4179 6.29297 66.6601 6.23828C66.9101 6.18359 67.1523 6.14062 67.3867 6.10938C67.6288 6.07031 67.8788 6.03516 68.1367 6.00391C68.3945 5.97266 68.6874 5.92578 69.0156 5.86328C69.0859 5.93359 69.1523 5.96875 69.2148 5.96875C69.246 5.89844 69.2812 5.87891 69.3203 5.91016C69.3671 5.93359 69.3867 5.91016 69.3788 5.83984C69.457 5.97266 69.5546 6.08594 69.6718 6.17969C69.7968 6.26562 69.9335 6.33984 70.082 6.40234ZM74.5585 13.0234C74.4335 13.0312 74.2773 13.0273 74.0898 13.0117C73.9101 12.9961 73.7421 13.0234 73.5859 13.0938C73.1718 13.0781 72.7499 13.0273 72.3203 12.9414C71.8906 12.8555 71.496 12.75 71.1367 12.625C71.0585 12.5391 70.9804 12.4609 70.9023 12.3906C70.8242 12.3125 70.7187 12.2578 70.5859 12.2266C70.3984 12.0781 70.246 11.8984 70.1288 11.6875C70.0117 11.4688 69.9179 11.2383 69.8476 10.9961C69.7773 10.7539 69.7304 10.5078 69.707 10.2578C69.6835 10 69.6757 9.75391 69.6835 9.51953C69.8007 9.16797 69.9648 8.86719 70.1757 8.61719C70.3945 8.35938 70.6171 8.10547 70.8437 7.85547C70.9453 7.80859 71.0195 7.76172 71.0663 7.71484C71.121 7.66016 71.1757 7.61328 71.2304 7.57422C71.2929 7.52734 71.3515 7.48438 71.4062 7.44531C71.4687 7.39844 71.5234 7.34375 71.5703 7.28125C71.7343 7.24219 71.8749 7.1875 71.9921 7.11719C72.1171 7.03906 72.2382 6.96094 72.3554 6.88281C72.4726 6.79688 72.5937 6.71875 72.7187 6.64844C72.8437 6.57812 72.9882 6.52344 73.1523 6.48438C73.2148 6.41406 73.289 6.35938 73.3749 6.32031C73.4609 6.27344 73.5468 6.23047 73.6328 6.19141C73.7265 6.14453 73.8124 6.09766 73.8906 6.05078C73.9765 6.00391 74.0429 5.94141 74.0898 5.86328C74.1288 5.92578 74.1835 5.94922 74.2538 5.93359C74.3242 5.91016 74.3906 5.88672 74.4531 5.86328C74.4921 5.85547 74.5234 5.86328 74.5468 5.88672C74.5781 5.91016 74.6054 5.93359 74.6288 5.95703C74.6523 5.98047 74.6718 5.99609 74.6874 6.00391C74.7109 6.00391 74.7304 5.98438 74.746 5.94531C74.7851 5.94531 74.7968 5.96484 74.7812 6.00391C74.7656 6.04297 74.7538 6.07031 74.746 6.08594C74.8085 6.07812 74.8593 6.09375 74.8984 6.13281C74.9453 6.16406 75.0156 6.18359 75.1093 6.19141C75.1406 6.23047 75.1484 6.26172 75.1328 6.28516C75.1171 6.30078 75.1093 6.33203 75.1093 6.37891C75.3437 6.44922 75.4921 6.5625 75.5546 6.71875C75.6171 6.86719 75.621 7.02344 75.5663 7.1875C75.5117 7.35156 75.414 7.50391 75.2734 7.64453C75.1328 7.78516 74.9804 7.87891 74.8163 7.92578C74.4413 8.02734 74.0859 8.14062 73.7499 8.26562C73.4218 8.38281 73.1523 8.55859 72.9413 8.79297C72.7538 8.84766 72.5859 8.92188 72.4374 9.01562C72.2968 9.10156 72.1601 9.20312 72.0273 9.32031C71.9023 9.42969 71.7812 9.54688 71.664 9.67188C71.5546 9.78906 71.4374 9.90625 71.3124 10.0234C71.3203 10.1328 71.3007 10.2188 71.2538 10.2812C71.2148 10.3359 71.1757 10.3945 71.1367 10.457C71.1523 10.5742 71.1796 10.6797 71.2187 10.7734C71.2578 10.8594 71.3007 10.9453 71.3476 11.0312C71.8632 11.1875 72.4101 11.2852 72.9882 11.3242C73.5742 11.3633 74.1601 11.3867 74.746 11.3945C74.8007 11.4727 74.8632 11.5469 74.9335 11.6172C75.0117 11.6797 75.082 11.75 75.1445 11.8281C75.207 11.8984 75.2578 11.9805 75.2968 12.0742C75.3359 12.1602 75.3437 12.2695 75.3203 12.4023C75.2109 12.5195 75.0898 12.6289 74.957 12.7305C74.8242 12.8242 74.6913 12.9219 74.5585 13.0234ZM82.5156 7.36328C82.3203 7.36328 82.1093 7.37891 81.8828 7.41016C81.6562 7.43359 81.4335 7.46094 81.2148 7.49219C81.0585 7.51562 80.9062 7.53516 80.7578 7.55078C80.6171 7.56641 80.4882 7.57812 80.371 7.58594C80.3163 7.75781 80.2617 7.91016 80.207 8.04297C80.1523 8.17578 80.0937 8.30469 80.0312 8.42969C79.9687 8.5625 79.9101 8.69922 79.8554 8.83984C79.8085 8.97266 79.7617 9.11719 79.7148 9.27344C79.6367 9.39844 79.5703 9.51562 79.5156 9.625C79.4687 9.72656 79.4296 9.84375 79.3984 9.97656C79.3046 10.0938 79.2343 10.2188 79.1874 10.3516C79.1406 10.4766 79.1054 10.5859 79.082 10.6797L79.0351 10.8203C78.9882 10.8672 78.9609 10.9062 78.9531 10.9375C78.9453 10.9609 78.9257 10.9844 78.8945 11.0078C78.8867 11.0938 78.8593 11.1797 78.8124 11.2656C78.7968 11.3047 78.7851 11.3438 78.7773 11.3828C78.7695 11.4141 78.7656 11.4375 78.7656 11.4531C78.7656 11.5312 78.746 11.582 78.707 11.6055C78.7148 11.6445 78.7148 11.6875 78.707 11.7344C78.6992 11.7734 78.6913 11.8125 78.6835 11.8516C78.6601 11.9453 78.6523 12.0195 78.6601 12.0742C78.6835 12.1055 78.7031 12.1328 78.7187 12.1562C78.7421 12.1797 78.7578 12.2109 78.7656 12.25C78.8124 12.2812 78.8476 12.3008 78.871 12.3086C78.9023 12.332 78.9492 12.3594 79.0117 12.3906L79.1171 12.5078C79.1562 12.7344 79.121 12.9141 79.0117 13.0469C78.8945 13.1953 78.6953 13.2695 78.414 13.2695H78.2734C78.2343 13.2305 78.2109 13.1992 78.2031 13.1758C78.1406 13.1523 78.0898 13.1328 78.0507 13.1172C78.0117 13.1016 77.9765 13.0703 77.9453 13.0234C77.8437 12.9766 77.7617 12.9375 77.6992 12.9062L77.5937 12.8477C77.5937 12.7617 77.5937 12.7148 77.5937 12.707C77.539 12.6367 77.496 12.5586 77.4648 12.4727C77.4413 12.3867 77.4218 12.3008 77.4062 12.2148C77.3906 12.1445 77.371 12.0781 77.3476 12.0156C77.332 11.9531 77.3085 11.8984 77.2773 11.8516C77.2617 11.3984 77.3046 11.0156 77.4062 10.7031C77.5078 10.3906 77.6132 10.0898 77.7226 9.80078C77.7851 9.64453 77.8476 9.48828 77.9101 9.33203C77.9726 9.16797 78.0273 9 78.0742 8.82812L78.1796 8.71094C78.2343 8.58594 78.2773 8.48438 78.3085 8.40625C78.3476 8.32031 78.3867 8.23438 78.4257 8.14844C78.4492 8.09375 78.4687 8.04297 78.4843 7.99609C78.5078 7.94141 78.5273 7.89453 78.5429 7.85547C78.496 7.85547 78.4531 7.85938 78.414 7.86719C78.3749 7.86719 78.3359 7.87109 78.2968 7.87891C78.2499 7.88672 78.207 7.89453 78.1679 7.90234C78.1288 7.90234 78.0898 7.90234 78.0507 7.90234C77.996 7.90234 77.957 7.89844 77.9335 7.89062C77.8476 7.92969 77.7538 7.94922 77.6523 7.94922H77.5351C77.5117 7.94922 77.4882 7.94922 77.4648 7.94922C77.4492 7.94141 77.4335 7.9375 77.4179 7.9375C77.3398 7.9375 77.2773 7.94922 77.2304 7.97266C77.1367 7.97266 77.0468 7.97266 76.9609 7.97266H76.8437C76.8281 7.97266 76.8085 7.97656 76.7851 7.98438C76.7617 7.98438 76.7421 7.98438 76.7265 7.98438C76.6718 7.98438 76.6132 7.98047 76.5507 7.97266C76.4882 7.95703 76.4218 7.92969 76.3515 7.89062C76.2578 7.76562 76.1953 7.69922 76.164 7.69141L76.0585 7.55078C76.0507 7.50391 76.039 7.46094 76.0234 7.42188C76.0078 7.375 75.9921 7.32422 75.9765 7.26953C75.9453 7.19141 75.914 7.10938 75.8828 7.02344C75.8593 6.92969 75.8476 6.82031 75.8476 6.69531C75.8554 6.63281 75.871 6.58594 75.8945 6.55469C75.9179 6.52344 75.9374 6.49609 75.9531 6.47266L75.9882 6.29688L76.1406 6.30859H76.4687C76.7187 6.30859 76.9726 6.30078 77.2304 6.28516C77.4882 6.26172 77.7538 6.23828 78.0273 6.21484C78.1835 6.19922 78.3398 6.18359 78.496 6.16797C78.6601 6.15234 78.8281 6.13672 78.9999 6.12109C79.0312 6.05078 79.0624 5.98438 79.0937 5.92188L79.2109 5.86328C79.3515 5.85547 79.4492 5.875 79.5038 5.92188C79.5663 5.96094 79.6171 6 79.6562 6.03906C79.8281 6.02344 79.9999 6.00781 80.1718 5.99219C80.3515 5.96875 80.5312 5.94141 80.7109 5.91016C80.9765 5.87109 81.2421 5.83594 81.5078 5.80469C81.7812 5.77344 82.0429 5.75781 82.2929 5.75781C82.4023 5.75781 82.5078 5.76172 82.6093 5.76953C82.7109 5.77734 82.8046 5.78906 82.8906 5.80469L83.0078 5.88672C83.0312 5.93359 83.0624 5.97656 83.1015 6.01562C83.1484 6.05469 83.1953 6.09375 83.2421 6.13281C83.3359 6.21875 83.4296 6.32031 83.5234 6.4375C83.6171 6.55469 83.6523 6.72656 83.6288 6.95312C83.5663 7.04688 83.5195 7.10156 83.4882 7.11719L83.3828 7.25781L83.2656 7.24609C83.2187 7.24609 83.1757 7.25391 83.1367 7.26953C83.0976 7.27734 83.0585 7.28906 83.0195 7.30469C82.9882 7.32031 82.957 7.33594 82.9257 7.35156C82.8945 7.35938 82.8593 7.36719 82.8203 7.375C82.7499 7.375 82.6913 7.375 82.6445 7.375C82.6054 7.36719 82.5624 7.36328 82.5156 7.36328ZM84.6953 12.8711C84.4765 12.9414 84.2382 13.0117 83.9804 13.082C83.7226 13.1523 83.4648 13.1875 83.207 13.1875C82.8163 13.1875 82.5078 13.0898 82.2812 12.8945C82.2421 12.8086 82.207 12.75 82.1757 12.7188C82.1523 12.6875 82.1288 12.6562 82.1054 12.625C82.0898 12.5859 82.0781 12.5352 82.0703 12.4727C81.9765 12.3633 81.9023 12.2383 81.8476 12.0977C81.7929 11.9492 81.7538 11.8008 81.7304 11.6523C81.7148 11.4961 81.7109 11.3398 81.7187 11.1836C81.7343 11.0273 81.7617 10.8789 81.8007 10.7383C81.8163 10.707 81.8242 10.6758 81.8242 10.6445C81.832 10.6133 81.8398 10.5781 81.8476 10.5391C81.8788 10.4141 81.9101 10.293 81.9413 10.1758C81.9804 10.0586 82.0312 9.95703 82.0937 9.87109C82.0624 9.80078 82.0624 9.72266 82.0937 9.63672C82.1249 9.55078 82.1601 9.47266 82.1992 9.40234C82.3085 9.10547 82.3984 8.85547 82.4687 8.65234C82.5468 8.44141 82.6249 8.23438 82.7031 8.03125C82.8359 7.67969 82.9609 7.33203 83.0781 6.98828C83.1953 6.64453 83.3007 6.27344 83.3945 5.875C83.457 5.83594 83.5038 5.80859 83.5351 5.79297C83.582 5.77734 83.621 5.76562 83.6523 5.75781C83.7929 5.82812 83.957 5.89844 84.1445 5.96875C84.332 6.03125 84.4882 6.0625 84.6132 6.0625C84.6757 6.10156 84.7148 6.13281 84.7304 6.15625C84.746 6.17188 84.7617 6.1875 84.7773 6.20312C84.8632 6.30469 84.9374 6.41016 84.9999 6.51953C85.0624 6.62109 85.082 6.75781 85.0585 6.92969C85.0117 7 84.9765 7.03516 84.9531 7.03516C84.914 7.19141 84.871 7.32422 84.8242 7.43359C84.7851 7.54297 84.7421 7.65234 84.6953 7.76172C84.6406 7.87891 84.5898 7.99609 84.5429 8.11328C84.496 8.23047 84.457 8.375 84.4257 8.54688C84.3945 8.58594 84.371 8.62109 84.3554 8.65234C84.3476 8.68359 84.3359 8.71875 84.3203 8.75781C84.3046 8.79688 84.2851 8.83984 84.2617 8.88672C84.246 8.92578 84.2187 8.96094 84.1796 8.99219C84.1562 9.19531 84.1171 9.35938 84.0624 9.48438C84.0156 9.60938 83.9648 9.73438 83.9101 9.85938C83.8163 10.0859 83.7304 10.3125 83.6523 10.5391C83.582 10.7656 83.539 11.0234 83.5234 11.3125C83.5624 11.2969 83.5976 11.2891 83.6288 11.2891C83.6679 11.2891 83.7031 11.2891 83.7343 11.2891C83.8046 11.2891 83.8867 11.3008 83.9804 11.3242C84.2148 11.1992 84.4687 11.125 84.7421 11.1016C85.0234 11.0781 85.3007 11.0625 85.5742 11.0547C85.6835 11.0547 85.7929 11.0547 85.9023 11.0547C86.0117 11.0547 86.1132 11.0469 86.207 11.0312C86.2773 11.0703 86.3203 11.0938 86.3359 11.1016C86.3593 11.1016 86.3906 11.1016 86.4296 11.1016C86.4843 11.1016 86.5312 11.1055 86.5703 11.1133C86.664 11.1992 86.7538 11.2617 86.8398 11.3008C86.9257 11.3398 87.0156 11.375 87.1093 11.4062C87.1953 11.4375 87.2773 11.4727 87.3554 11.5117C87.4413 11.543 87.5234 11.5898 87.6015 11.6523L87.6835 12.1562C87.7382 12.2266 87.7617 12.2734 87.7538 12.2969C87.7538 12.3594 87.7382 12.4062 87.707 12.4375L87.7304 12.5664C87.6132 12.5898 87.5312 12.6172 87.4843 12.6484C87.4453 12.6797 87.4062 12.7148 87.3671 12.7539C87.3046 12.7617 87.2578 12.7656 87.2265 12.7656C87.2031 12.7656 87.1796 12.7656 87.1562 12.7656C87.0468 12.7656 86.914 12.7852 86.7578 12.8242C86.5468 12.7539 86.3281 12.7188 86.1015 12.7188C86.0156 12.7188 85.9257 12.7227 85.832 12.7305C85.7382 12.7383 85.6445 12.7461 85.5507 12.7539C85.457 12.7695 85.3593 12.7812 85.2578 12.7891C85.164 12.7969 85.0663 12.8008 84.9648 12.8008L84.6953 12.8711ZM91.3867 9.92969C91.332 9.97656 91.2851 10.0352 91.246 10.1055C91.207 10.168 91.1679 10.2344 91.1288 10.3047C91.0898 10.3906 91.0468 10.4727 90.9999 10.5508C90.9531 10.6289 90.8945 10.6992 90.8242 10.7617C90.7851 10.8789 90.746 10.9727 90.707 11.043C90.6679 11.1055 90.6054 11.1797 90.5195 11.2656C90.4413 11.5781 90.2578 11.918 89.9687 12.2852C89.9609 12.3555 89.9374 12.4258 89.8984 12.4961C89.8671 12.5586 89.832 12.6211 89.7929 12.6836C89.7773 12.707 89.7617 12.7344 89.746 12.7656C89.7304 12.7891 89.7187 12.8086 89.7109 12.8242L89.6874 12.9414C89.6484 13.0039 89.6054 13.0586 89.5585 13.1055C89.5117 13.1523 89.4687 13.1953 89.4296 13.2344C89.414 13.2578 89.3867 13.2891 89.3476 13.3281L89.1718 13.3984C88.6015 13.3203 88.2538 13.0156 88.1288 12.4844L88.1406 12.3672C88.1562 12.3281 88.1679 12.2891 88.1757 12.25C88.1913 12.2031 88.207 12.1562 88.2226 12.1094C88.2538 12 88.289 11.8906 88.3281 11.7812C88.3749 11.6719 88.4413 11.5742 88.5273 11.4883C88.5429 11.4336 88.5781 11.3477 88.6328 11.2305C88.6874 11.1055 88.7812 10.9219 88.914 10.6797C89.0234 10.4922 89.1093 10.3438 89.1718 10.2344C89.2343 10.125 89.2851 10.0391 89.3242 9.97656C89.246 9.85156 89.1523 9.73828 89.0429 9.63672C88.9413 9.44141 88.8515 9.25391 88.7734 9.07422C88.7031 8.89453 88.6484 8.73438 88.6093 8.59375C88.6015 8.49219 88.5898 8.40625 88.5742 8.33594C88.5585 8.26562 88.5429 8.19141 88.5273 8.11328C88.5038 8.02734 88.4843 7.94141 88.4687 7.85547C88.4531 7.76953 88.4453 7.67969 88.4453 7.58594C88.4062 7.53125 88.3828 7.47656 88.3749 7.42188L88.3984 7.30469C88.4218 7.25 88.4257 7.17969 88.4101 7.09375C88.3945 7 88.3749 6.90625 88.3515 6.8125C88.3359 6.73438 88.3163 6.64844 88.2929 6.55469C88.2773 6.46094 88.2734 6.36719 88.2812 6.27344C88.289 6.17969 88.3124 6.09375 88.3515 6.01562C88.3984 5.92969 88.4726 5.85547 88.5742 5.79297L88.7734 5.78125C88.8437 5.82031 88.9101 5.85938 88.9726 5.89844C89.0429 5.92969 89.1093 5.96484 89.1718 6.00391C89.2578 6.04297 89.3398 6.08203 89.4179 6.12109C89.496 6.16016 89.5781 6.21094 89.664 6.27344L89.746 6.4375L89.8984 6.56641V6.69531C89.9062 6.72656 89.9101 6.76953 89.9101 6.82422C89.9101 6.92578 89.9257 6.98828 89.957 7.01172L90.0038 7.15234C90.0038 7.26172 90.0156 7.36719 90.039 7.46875C90.0624 7.5625 90.0859 7.65234 90.1093 7.73828C90.1328 7.82422 90.1562 7.91406 90.1796 8.00781C90.2031 8.10156 90.207 8.20312 90.1913 8.3125C90.2382 8.28906 90.2773 8.26172 90.3085 8.23047C90.3242 8.21484 90.3398 8.20312 90.3554 8.19531C90.371 8.1875 90.3867 8.17578 90.4023 8.16016L91.0937 7.22266L91.0703 7.10547L91.3163 6.87109C91.3788 6.80859 91.4374 6.75 91.4921 6.69531C91.5546 6.64062 91.6054 6.58203 91.6445 6.51953L91.7734 6.42578C92.0234 6.03516 92.3788 5.79297 92.8398 5.69922L93.0038 5.67578L93.0507 5.82812C93.082 5.91406 93.1445 5.99219 93.2382 6.0625C93.3398 6.13281 93.4453 6.19922 93.5546 6.26172L93.6601 6.33203C93.6992 6.41016 93.7187 6.46875 93.7187 6.50781C93.7187 6.54688 93.7148 6.58203 93.707 6.61328L93.7538 6.73047C93.6913 6.91797 93.6132 7.05469 93.5195 7.14062C93.4335 7.22656 93.3476 7.30469 93.2617 7.375C93.1913 7.4375 93.1249 7.49609 93.0624 7.55078C93.0078 7.59766 92.9648 7.66016 92.9335 7.73828L92.8515 7.83203C92.6874 7.92578 92.582 8.05078 92.5351 8.20703L92.4999 8.34766H92.3593C92.3515 8.34766 92.332 8.36328 92.3007 8.39453C92.2773 8.41797 92.2382 8.48438 92.1835 8.59375C92.1288 8.67188 92.0898 8.72266 92.0663 8.74609C92.0429 8.76953 92.0234 8.78906 92.0078 8.80469C91.9999 8.83594 91.9882 8.86719 91.9726 8.89844C91.9648 8.92188 91.9531 8.95312 91.9374 8.99219C91.8359 9.09375 91.7734 9.17188 91.7499 9.22656C91.7265 9.27344 91.6992 9.32812 91.6679 9.39062C91.6367 9.45312 91.6054 9.51562 91.5742 9.57812C91.5507 9.63281 91.5078 9.69141 91.4453 9.75391L91.3867 9.92969ZM24.5781 29.1797C24.6171 29.4141 24.6015 29.5977 24.5312 29.7305C24.4687 29.8633 24.3749 29.9609 24.2499 30.0234C24.1328 30.0938 23.996 30.1328 23.8398 30.1406C23.6835 30.1484 23.5351 30.1406 23.3945 30.1172C23.3163 30.0078 23.246 29.8711 23.1835 29.707C23.121 29.543 23.0624 29.375 23.0078 29.2031C22.9531 29.0234 22.9023 28.8477 22.8554 28.6758C22.8163 28.5039 22.7812 28.3516 22.7499 28.2188C22.789 28.125 22.8124 28.0195 22.8203 27.9023C22.8359 27.7773 22.8437 27.6523 22.8437 27.5273C22.8515 27.4023 22.8554 27.2773 22.8554 27.1523C22.8632 27.0195 22.8749 26.8945 22.8906 26.7773C22.9453 26.4492 23.0234 26.1367 23.1249 25.8398C23.2343 25.543 23.3203 25.2344 23.3828 24.9141C23.3984 24.8438 23.3906 24.7773 23.3593 24.7148C23.3359 24.6523 23.332 24.5938 23.3476 24.5391C23.3554 24.5078 23.3788 24.4883 23.4179 24.4805C23.457 24.4648 23.4804 24.4375 23.4882 24.3984C23.5117 24.3125 23.5156 24.2422 23.4999 24.1875C23.4921 24.1328 23.5078 24.0664 23.5468 23.9883C23.5859 23.9258 23.6328 23.8359 23.6874 23.7188C23.7499 23.5938 23.7734 23.4648 23.7578 23.332C23.8281 23.2852 23.8945 23.2305 23.957 23.168C24.0195 23.1055 24.082 23.0508 24.1445 23.0039C24.2148 22.9492 24.289 22.9023 24.3671 22.8633C24.4531 22.8242 24.5546 22.8047 24.6718 22.8047C24.7343 22.8828 24.7734 22.9688 24.789 23.0625C24.8124 23.1562 24.832 23.25 24.8476 23.3438C24.871 23.4375 24.9023 23.5273 24.9413 23.6133C24.9804 23.6914 25.0468 23.7539 25.1406 23.8008C25.1406 23.8633 25.1406 23.9414 25.1406 24.0352C25.1406 24.1289 25.1445 24.2227 25.1523 24.3164C25.1601 24.4023 25.1757 24.4844 25.1992 24.5625C25.2304 24.6328 25.2773 24.6797 25.3398 24.7031C25.1992 25.0781 25.0663 25.4492 24.9413 25.8164C24.8242 26.1836 24.7265 26.5547 24.6484 26.9297C24.5703 27.2969 24.5195 27.668 24.496 28.043C24.4804 28.418 24.5078 28.7969 24.5781 29.1797ZM28.3398 27.8672C28.2695 27.8828 28.2187 27.9258 28.1874 27.9961C28.1562 28.0586 28.1249 28.125 28.0937 28.1953C28.0703 28.2656 28.0429 28.332 28.0117 28.3945C27.9882 28.4492 27.9492 28.4766 27.8945 28.4766C27.8867 28.5391 27.8632 28.5938 27.8242 28.6406C27.7929 28.6875 27.7617 28.7383 27.7304 28.793C27.6992 28.8398 27.6757 28.8945 27.6601 28.957C27.6445 29.0117 27.6523 29.0781 27.6835 29.1562C27.621 29.2031 27.582 29.2695 27.5663 29.3555C27.5507 29.4414 27.5312 29.5234 27.5078 29.6016C27.4921 29.6797 27.4609 29.7461 27.414 29.8008C27.3671 29.8555 27.2812 29.8789 27.1562 29.8711C27.1328 29.9023 27.1288 29.9219 27.1445 29.9297C27.1601 29.9375 27.1718 29.9648 27.1796 30.0117C27.0937 29.9961 27.0273 30 26.9804 30.0234C26.9413 30.0547 26.8906 30.0742 26.8281 30.082C26.6796 30.0352 26.5546 29.9531 26.4531 29.8359C26.3593 29.7188 26.2734 29.5898 26.1953 29.4492C26.1249 29.3008 26.0585 29.1523 25.996 29.0039C25.9413 28.8555 25.8867 28.7266 25.832 28.6172C25.8554 28.5312 25.8593 28.4492 25.8437 28.3711C25.8281 28.2852 25.8007 28.2148 25.7617 28.1602C26.1445 27.3477 26.5624 26.4805 27.0156 25.5586C27.4687 24.6367 27.8984 23.7266 28.3046 22.8281C28.4843 22.8984 28.6601 22.9805 28.832 23.0742C29.0117 23.1602 29.1718 23.2617 29.3124 23.3789C29.4609 23.4961 29.5859 23.6328 29.6874 23.7891C29.789 23.9375 29.8554 24.1055 29.8867 24.293C29.871 24.3398 29.8515 24.3594 29.8281 24.3516C29.8124 24.3359 29.7968 24.3398 29.7812 24.3633C29.8124 24.4023 29.8281 24.4297 29.8281 24.4453C29.8359 24.4609 29.8359 24.4766 29.8281 24.4922C29.8281 24.5078 29.8281 24.5312 29.8281 24.5625C29.8281 24.5859 29.8398 24.6211 29.8632 24.668C29.832 24.6602 29.8085 24.6641 29.7929 24.6797C29.7851 24.6953 29.7617 24.6953 29.7226 24.6797C29.7538 24.7656 29.7617 24.8359 29.746 24.8906C29.7382 24.9453 29.7226 24.9961 29.6992 25.043C29.6757 25.082 29.6562 25.1289 29.6406 25.1836C29.6249 25.2305 29.6288 25.293 29.6523 25.3711C29.6288 25.3711 29.6093 25.3789 29.5937 25.3945C29.5859 25.4023 29.5781 25.4141 29.5703 25.4297C29.5624 25.4375 29.5507 25.4492 29.5351 25.4648C29.5273 25.4727 29.5117 25.4727 29.4882 25.4648C29.5117 25.6367 29.5195 25.8086 29.5117 25.9805C29.5038 26.1523 29.496 26.3281 29.4882 26.5078C29.4882 26.6797 29.4921 26.8633 29.4999 27.0586C29.5078 27.2461 29.5351 27.4414 29.582 27.6445C29.8632 27.4805 30.0859 27.2695 30.2499 27.0117C30.4218 26.7539 30.5585 26.4648 30.6601 26.1445C30.7695 25.8242 30.8515 25.4805 30.9062 25.1133C30.9609 24.7461 31.0195 24.3711 31.082 23.9883C31.1523 23.918 31.207 23.832 31.246 23.7305C31.2851 23.6289 31.3203 23.5234 31.3515 23.4141C31.3828 23.2969 31.414 23.1836 31.4453 23.0742C31.4765 22.957 31.5156 22.8516 31.5624 22.7578C31.6796 22.7734 31.7773 22.8125 31.8554 22.875C31.9413 22.9297 32.0195 22.9922 32.0898 23.0625C32.1601 23.125 32.2343 23.1875 32.3124 23.25C32.3906 23.3047 32.4882 23.3398 32.6054 23.3555C32.6992 23.4883 32.7851 23.6172 32.8632 23.7422C32.9413 23.8672 32.9921 24 33.0156 24.1406C32.9765 24.2031 32.9453 24.2734 32.9218 24.3516C32.9062 24.4297 32.8867 24.5078 32.8632 24.5859C32.8398 24.6641 32.8085 24.7383 32.7695 24.8086C32.7304 24.8711 32.6757 24.9258 32.6054 24.9727C32.582 25.1758 32.5507 25.3633 32.5117 25.5352C32.4804 25.6992 32.4453 25.8633 32.4062 26.0273C32.3749 26.1914 32.3476 26.3633 32.3242 26.543C32.3007 26.7148 32.2929 26.9062 32.3007 27.1172C32.2382 27.2969 32.1718 27.4883 32.1015 27.6914C32.0312 27.8945 31.9765 28.0781 31.9374 28.2422C31.8124 28.3438 31.7148 28.4648 31.6445 28.6055C31.5742 28.7461 31.4999 28.8867 31.4218 29.0273C31.3906 29.0586 31.371 29.0664 31.3632 29.0508C31.3554 29.0352 31.3281 29.0234 31.2812 29.0156C31.289 29.0469 31.289 29.0703 31.2812 29.0859C31.2734 29.1016 31.2617 29.1172 31.246 29.1328C31.2382 29.1406 31.2304 29.1562 31.2226 29.1797C31.2226 29.2031 31.2304 29.2344 31.246 29.2734C31.1367 29.3203 31.039 29.3867 30.9531 29.4727C30.8671 29.5586 30.7734 29.6367 30.6718 29.707C30.5781 29.7773 30.4609 29.8242 30.3203 29.8477C30.1874 29.8711 30.0117 29.8438 29.7929 29.7656C29.4726 29.5312 29.1874 29.2617 28.9374 28.957C28.6953 28.6523 28.496 28.2891 28.3398 27.8672ZM39.3788 24.3633C39.1835 24.3633 38.9726 24.3789 38.746 24.4102C38.5195 24.4336 38.2968 24.4609 38.0781 24.4922C37.9218 24.5156 37.7695 24.5352 37.621 24.5508C37.4804 24.5664 37.3515 24.5781 37.2343 24.5859C37.1796 24.7578 37.1249 24.9102 37.0703 25.043C37.0156 25.1758 36.957 25.3047 36.8945 25.4297C36.832 25.5625 36.7734 25.6992 36.7187 25.8398C36.6718 25.9727 36.6249 26.1172 36.5781 26.2734C36.4999 26.3984 36.4335 26.5156 36.3788 26.625C36.332 26.7266 36.2929 26.8438 36.2617 26.9766C36.1679 27.0938 36.0976 27.2188 36.0507 27.3516C36.0038 27.4766 35.9687 27.5859 35.9453 27.6797L35.8984 27.8203C35.8515 27.8672 35.8242 27.9062 35.8163 27.9375C35.8085 27.9609 35.789 27.9844 35.7578 28.0078C35.7499 28.0938 35.7226 28.1797 35.6757 28.2656C35.6601 28.3047 35.6484 28.3438 35.6406 28.3828C35.6328 28.4141 35.6288 28.4375 35.6288 28.4531C35.6288 28.5312 35.6093 28.582 35.5703 28.6055C35.5781 28.6445 35.5781 28.6875 35.5703 28.7344C35.5624 28.7734 35.5546 28.8125 35.5468 28.8516C35.5234 28.9453 35.5156 29.0195 35.5234 29.0742C35.5468 29.1055 35.5663 29.1328 35.582 29.1562C35.6054 29.1797 35.621 29.2109 35.6288 29.25C35.6757 29.2812 35.7109 29.3008 35.7343 29.3086C35.7656 29.332 35.8124 29.3594 35.8749 29.3906L35.9804 29.5078C36.0195 29.7344 35.9843 29.9141 35.8749 30.0469C35.7578 30.1953 35.5585 30.2695 35.2773 30.2695H35.1367C35.0976 30.2305 35.0742 30.1992 35.0663 30.1758C35.0038 30.1523 34.9531 30.1328 34.914 30.1172C34.8749 30.1016 34.8398 30.0703 34.8085 30.0234C34.707 29.9766 34.6249 29.9375 34.5624 29.9062L34.457 29.8477C34.457 29.7617 34.457 29.7148 34.457 29.707C34.4023 29.6367 34.3593 29.5586 34.3281 29.4727C34.3046 29.3867 34.2851 29.3008 34.2695 29.2148C34.2538 29.1445 34.2343 29.0781 34.2109 29.0156C34.1953 28.9531 34.1718 28.8984 34.1406 28.8516C34.1249 28.3984 34.1679 28.0156 34.2695 27.7031C34.371 27.3906 34.4765 27.0898 34.5859 26.8008C34.6484 26.6445 34.7109 26.4883 34.7734 26.332C34.8359 26.168 34.8906 26 34.9374 25.8281L35.0429 25.7109C35.0976 25.5859 35.1406 25.4844 35.1718 25.4062C35.2109 25.3203 35.2499 25.2344 35.289 25.1484C35.3124 25.0938 35.332 25.043 35.3476 24.9961C35.371 24.9414 35.3906 24.8945 35.4062 24.8555C35.3593 24.8555 35.3163 24.8594 35.2773 24.8672C35.2382 24.8672 35.1992 24.8711 35.1601 24.8789C35.1132 24.8867 35.0703 24.8945 35.0312 24.9023C34.9921 24.9023 34.9531 24.9023 34.914 24.9023C34.8593 24.9023 34.8203 24.8984 34.7968 24.8906C34.7109 24.9297 34.6171 24.9492 34.5156 24.9492H34.3984C34.3749 24.9492 34.3515 24.9492 34.3281 24.9492C34.3124 24.9414 34.2968 24.9375 34.2812 24.9375C34.2031 24.9375 34.1406 24.9492 34.0937 24.9727C33.9999 24.9727 33.9101 24.9727 33.8242 24.9727H33.707C33.6913 24.9727 33.6718 24.9766 33.6484 24.9844C33.6249 24.9844 33.6054 24.9844 33.5898 24.9844C33.5351 24.9844 33.4765 24.9805 33.414 24.9727C33.3515 24.957 33.2851 24.9297 33.2148 24.8906C33.121 24.7656 33.0585 24.6992 33.0273 24.6914L32.9218 24.5508C32.914 24.5039 32.9023 24.4609 32.8867 24.4219C32.871 24.375 32.8554 24.3242 32.8398 24.2695C32.8085 24.1914 32.7773 24.1094 32.746 24.0234C32.7226 23.9297 32.7109 23.8203 32.7109 23.6953C32.7187 23.6328 32.7343 23.5859 32.7578 23.5547C32.7812 23.5234 32.8007 23.4961 32.8163 23.4727L32.8515 23.2969L33.0038 23.3086H33.332C33.582 23.3086 33.8359 23.3008 34.0937 23.2852C34.3515 23.2617 34.6171 23.2383 34.8906 23.2148C35.0468 23.1992 35.2031 23.1836 35.3593 23.168C35.5234 23.1523 35.6913 23.1367 35.8632 23.1211C35.8945 23.0508 35.9257 22.9844 35.957 22.9219L36.0742 22.8633C36.2148 22.8555 36.3124 22.875 36.3671 22.9219C36.4296 22.9609 36.4804 23 36.5195 23.0391C36.6913 23.0234 36.8632 23.0078 37.0351 22.9922C37.2148 22.9688 37.3945 22.9414 37.5742 22.9102C37.8398 22.8711 38.1054 22.8359 38.371 22.8047C38.6445 22.7734 38.9062 22.7578 39.1562 22.7578C39.2656 22.7578 39.371 22.7617 39.4726 22.7695C39.5742 22.7773 39.6679 22.7891 39.7538 22.8047L39.871 22.8867C39.8945 22.9336 39.9257 22.9766 39.9648 23.0156C40.0117 23.0547 40.0585 23.0938 40.1054 23.1328C40.1992 23.2188 40.2929 23.3203 40.3867 23.4375C40.4804 23.5547 40.5156 23.7266 40.4921 23.9531C40.4296 24.0469 40.3828 24.1016 40.3515 24.1172L40.246 24.2578L40.1288 24.2461C40.082 24.2461 40.039 24.2539 39.9999 24.2695C39.9609 24.2773 39.9218 24.2891 39.8828 24.3047C39.8515 24.3203 39.8203 24.3359 39.789 24.3516C39.7578 24.3594 39.7226 24.3672 39.6835 24.375C39.6132 24.375 39.5546 24.375 39.5078 24.375C39.4687 24.3672 39.4257 24.3633 39.3788 24.3633ZM44.9335 26.4844C44.9257 26.5781 44.9335 26.668 44.957 26.7539C44.9804 26.8398 45.0078 26.9258 45.039 27.0117C45.0781 27.0898 45.1132 27.1719 45.1445 27.2578C45.1757 27.3438 45.1992 27.4297 45.2148 27.5156C45.2304 27.625 45.2304 27.7461 45.2148 27.8789C45.1992 28.0039 45.1718 28.1289 45.1328 28.2539C45.0937 28.3711 45.0429 28.4805 44.9804 28.582C44.9179 28.6758 44.8437 28.7461 44.7578 28.793C44.6484 28.9336 44.5156 29.043 44.3593 29.1211C44.2031 29.1992 44.0585 29.293 43.9257 29.4023C43.8398 29.457 43.7421 29.4961 43.6328 29.5195C43.5312 29.543 43.4257 29.5664 43.3163 29.5898C43.2304 29.6367 43.1288 29.6875 43.0117 29.7422C42.8945 29.7891 42.7734 29.8359 42.6484 29.8828C42.5234 29.9219 42.3984 29.9531 42.2734 29.9766C42.1484 29.9922 42.039 29.9961 41.9453 29.9883C41.7109 30.0742 41.4804 30.1289 41.2538 30.1523C41.0351 30.1836 40.7773 30.168 40.4804 30.1055C40.1992 30.1445 39.9374 30.1328 39.6953 30.0703C39.4609 30.0078 39.2499 29.9102 39.0624 29.7773C38.8828 29.6367 38.7226 29.4727 38.582 29.2852C38.4492 29.0898 38.3398 28.8867 38.2538 28.6758C38.1913 28.2305 38.207 27.8281 38.3007 27.4688C38.3945 27.1016 38.5273 26.7656 38.6992 26.4609C38.8788 26.1484 39.082 25.8633 39.3085 25.6055C39.5351 25.3398 39.7538 25.082 39.9648 24.832C40.0117 24.8477 40.0468 24.8477 40.0703 24.832C40.1015 24.8086 40.1288 24.7812 40.1523 24.75C40.1757 24.7109 40.1992 24.6758 40.2226 24.6445C40.2538 24.6133 40.289 24.5938 40.3281 24.5859C40.3828 24.4688 40.4609 24.3828 40.5624 24.3281C40.6718 24.2656 40.7578 24.1797 40.8203 24.0703C40.8906 24.0547 40.9492 24.0312 40.996 24C41.0429 23.9688 41.0859 23.9336 41.1249 23.8945C41.1718 23.8555 41.2187 23.8203 41.2656 23.7891C41.3124 23.75 41.3671 23.7227 41.4296 23.707V23.5781C41.5703 23.5156 41.6718 23.4453 41.7343 23.3672C41.8046 23.2812 41.8867 23.1797 41.9804 23.0625C42.0507 23.0547 42.1054 23.0508 42.1445 23.0508C42.1913 23.0508 42.2578 23.043 42.3437 23.0273C42.4062 22.918 42.4609 22.8359 42.5078 22.7812C42.5624 22.7266 42.6406 22.668 42.7421 22.6055C42.8359 22.6523 42.9374 22.6836 43.0468 22.6992C43.164 22.7148 43.2656 22.7656 43.3515 22.8516C43.3593 22.9297 43.3828 22.9922 43.4218 23.0391C43.4609 23.0781 43.5038 23.1172 43.5507 23.1562C43.5976 23.1875 43.6406 23.2227 43.6796 23.2617C43.7265 23.3008 43.7578 23.3555 43.7734 23.4258C43.8046 23.4336 43.8242 23.4297 43.832 23.4141C43.8476 23.3984 43.871 23.3945 43.9023 23.4023C43.9257 23.5117 43.9531 23.5859 43.9843 23.625C44.0156 23.6562 44.0468 23.7227 44.0781 23.8242C44.039 23.9023 44.0078 23.9844 43.9843 24.0703C43.9687 24.1484 43.9218 24.207 43.8437 24.2461C43.8359 24.3008 43.8515 24.332 43.8906 24.3398C43.9296 24.3398 43.9531 24.3594 43.9609 24.3984C43.9687 24.4688 43.957 24.5195 43.9257 24.5508C44.1132 24.8555 44.2812 25.1797 44.4296 25.5234C44.5781 25.8594 44.746 26.1797 44.9335 26.4844ZM43.4687 27.5977C43.4999 27.5117 43.539 27.4414 43.5859 27.3867C43.6406 27.332 43.6718 27.25 43.6796 27.1406C43.6406 27.0781 43.6171 27.0312 43.6093 27C43.6015 26.9609 43.5976 26.9023 43.5976 26.8242C43.4257 26.582 43.2773 26.3242 43.1523 26.0508C43.0273 25.7695 42.8867 25.5078 42.7304 25.2656C42.7148 25.2969 42.6874 25.3281 42.6484 25.3594C42.6093 25.3906 42.5663 25.3828 42.5195 25.3359C42.5038 25.3984 42.4765 25.4453 42.4374 25.4766C42.3984 25.5 42.3554 25.5117 42.3085 25.5117C42.2617 25.5039 42.2109 25.4922 42.1562 25.4766C42.1093 25.4531 42.0663 25.4258 42.0273 25.3945C41.8007 25.5742 41.5742 25.75 41.3476 25.9219C41.121 26.0938 40.9179 26.293 40.7382 26.5195C40.707 26.5352 40.6874 26.543 40.6796 26.543C40.6718 26.5352 40.6484 26.5391 40.6093 26.5547C40.5468 26.7031 40.4687 26.8398 40.3749 26.9648C40.289 27.082 40.2031 27.2031 40.1171 27.3281C40.0312 27.4531 39.957 27.5859 39.8945 27.7266C39.832 27.8672 39.7968 28.0312 39.789 28.2188C39.9218 28.3281 40.0781 28.3945 40.2578 28.418C40.4374 28.4414 40.621 28.4453 40.8085 28.4297C41.0038 28.4141 41.1913 28.3906 41.371 28.3594C41.5585 28.3203 41.7304 28.3008 41.8867 28.3008C42.2148 28.2227 42.496 28.1211 42.7304 27.9961C42.9648 27.8633 43.2109 27.7305 43.4687 27.5977ZM54.9648 30.0234C54.8398 30.0312 54.6835 30.0273 54.496 30.0117C54.3163 29.9961 54.1484 30.0234 53.9921 30.0938C53.5781 30.0781 53.1562 30.0273 52.7265 29.9414C52.2968 29.8555 51.9023 29.75 51.5429 29.625C51.4648 29.5391 51.3867 29.4609 51.3085 29.3906C51.2304 29.3125 51.1249 29.2578 50.9921 29.2266C50.8046 29.0781 50.6523 28.8984 50.5351 28.6875C50.4179 28.4688 50.3242 28.2383 50.2538 27.9961C50.1835 27.7539 50.1367 27.5078 50.1132 27.2578C50.0898 27 50.082 26.7539 50.0898 26.5195C50.207 26.168 50.371 25.8672 50.582 25.6172C50.8007 25.3594 51.0234 25.1055 51.2499 24.8555C51.3515 24.8086 51.4257 24.7617 51.4726 24.7148C51.5273 24.6602 51.582 24.6133 51.6367 24.5742C51.6992 24.5273 51.7578 24.4844 51.8124 24.4453C51.8749 24.3984 51.9296 24.3438 51.9765 24.2812C52.1406 24.2422 52.2812 24.1875 52.3984 24.1172C52.5234 24.0391 52.6445 23.9609 52.7617 23.8828C52.8788 23.7969 52.9999 23.7188 53.1249 23.6484C53.2499 23.5781 53.3945 23.5234 53.5585 23.4844C53.621 23.4141 53.6953 23.3594 53.7812 23.3203C53.8671 23.2734 53.9531 23.2305 54.039 23.1914C54.1328 23.1445 54.2187 23.0977 54.2968 23.0508C54.3828 23.0039 54.4492 22.9414 54.496 22.8633C54.5351 22.9258 54.5898 22.9492 54.6601 22.9336C54.7304 22.9102 54.7968 22.8867 54.8593 22.8633C54.8984 22.8555 54.9296 22.8633 54.9531 22.8867C54.9843 22.9102 55.0117 22.9336 55.0351 22.957C55.0585 22.9805 55.0781 22.9961 55.0937 23.0039C55.1171 23.0039 55.1367 22.9844 55.1523 22.9453C55.1913 22.9453 55.2031 22.9648 55.1874 23.0039C55.1718 23.043 55.1601 23.0703 55.1523 23.0859C55.2148 23.0781 55.2656 23.0938 55.3046 23.1328C55.3515 23.1641 55.4218 23.1836 55.5156 23.1914C55.5468 23.2305 55.5546 23.2617 55.539 23.2852C55.5234 23.3008 55.5156 23.332 55.5156 23.3789C55.7499 23.4492 55.8984 23.5625 55.9609 23.7188C56.0234 23.8672 56.0273 24.0234 55.9726 24.1875C55.9179 24.3516 55.8203 24.5039 55.6796 24.6445C55.539 24.7852 55.3867 24.8789 55.2226 24.9258C54.8476 25.0273 54.4921 25.1406 54.1562 25.2656C53.8281 25.3828 53.5585 25.5586 53.3476 25.793C53.1601 25.8477 52.9921 25.9219 52.8437 26.0156C52.7031 26.1016 52.5663 26.2031 52.4335 26.3203C52.3085 26.4297 52.1874 26.5469 52.0703 26.6719C51.9609 26.7891 51.8437 26.9062 51.7187 27.0234C51.7265 27.1328 51.707 27.2188 51.6601 27.2812C51.621 27.3359 51.582 27.3945 51.5429 27.457C51.5585 27.5742 51.5859 27.6797 51.6249 27.7734C51.664 27.8594 51.707 27.9453 51.7538 28.0312C52.2695 28.1875 52.8163 28.2852 53.3945 28.3242C53.9804 28.3633 54.5663 28.3867 55.1523 28.3945C55.207 28.4727 55.2695 28.5469 55.3398 28.6172C55.4179 28.6797 55.4882 28.75 55.5507 28.8281C55.6132 28.8984 55.664 28.9805 55.7031 29.0742C55.7421 29.1602 55.7499 29.2695 55.7265 29.4023C55.6171 29.5195 55.496 29.6289 55.3632 29.7305C55.2304 29.8242 55.0976 29.9219 54.9648 30.0234ZM63.0859 26.4844C63.0781 26.5781 63.0859 26.668 63.1093 26.7539C63.1328 26.8398 63.1601 26.9258 63.1913 27.0117C63.2304 27.0898 63.2656 27.1719 63.2968 27.2578C63.3281 27.3438 63.3515 27.4297 63.3671 27.5156C63.3828 27.625 63.3828 27.7461 63.3671 27.8789C63.3515 28.0039 63.3242 28.1289 63.2851 28.2539C63.246 28.3711 63.1953 28.4805 63.1328 28.582C63.0703 28.6758 62.996 28.7461 62.9101 28.793C62.8007 28.9336 62.6679 29.043 62.5117 29.1211C62.3554 29.1992 62.2109 29.293 62.0781 29.4023C61.9921 29.457 61.8945 29.4961 61.7851 29.5195C61.6835 29.543 61.5781 29.5664 61.4687 29.5898C61.3828 29.6367 61.2812 29.6875 61.164 29.7422C61.0468 29.7891 60.9257 29.8359 60.8007 29.8828C60.6757 29.9219 60.5507 29.9531 60.4257 29.9766C60.3007 29.9922 60.1913 29.9961 60.0976 29.9883C59.8632 30.0742 59.6328 30.1289 59.4062 30.1523C59.1874 30.1836 58.9296 30.168 58.6328 30.1055C58.3515 30.1445 58.0898 30.1328 57.8476 30.0703C57.6132 30.0078 57.4023 29.9102 57.2148 29.7773C57.0351 29.6367 56.8749 29.4727 56.7343 29.2852C56.6015 29.0898 56.4921 28.8867 56.4062 28.6758C56.3437 28.2305 56.3593 27.8281 56.4531 27.4688C56.5468 27.1016 56.6796 26.7656 56.8515 26.4609C57.0312 26.1484 57.2343 25.8633 57.4609 25.6055C57.6874 25.3398 57.9062 25.082 58.1171 24.832C58.164 24.8477 58.1992 24.8477 58.2226 24.832C58.2538 24.8086 58.2812 24.7812 58.3046 24.75C58.3281 24.7109 58.3515 24.6758 58.3749 24.6445C58.4062 24.6133 58.4413 24.5938 58.4804 24.5859C58.5351 24.4688 58.6132 24.3828 58.7148 24.3281C58.8242 24.2656 58.9101 24.1797 58.9726 24.0703C59.0429 24.0547 59.1015 24.0312 59.1484 24C59.1953 23.9688 59.2382 23.9336 59.2773 23.8945C59.3242 23.8555 59.371 23.8203 59.4179 23.7891C59.4648 23.75 59.5195 23.7227 59.582 23.707V23.5781C59.7226 23.5156 59.8242 23.4453 59.8867 23.3672C59.957 23.2812 60.039 23.1797 60.1328 23.0625C60.2031 23.0547 60.2578 23.0508 60.2968 23.0508C60.3437 23.0508 60.4101 23.043 60.496 23.0273C60.5585 22.918 60.6132 22.8359 60.6601 22.7812C60.7148 22.7266 60.7929 22.668 60.8945 22.6055C60.9882 22.6523 61.0898 22.6836 61.1992 22.6992C61.3163 22.7148 61.4179 22.7656 61.5038 22.8516C61.5117 22.9297 61.5351 22.9922 61.5742 23.0391C61.6132 23.0781 61.6562 23.1172 61.7031 23.1562C61.7499 23.1875 61.7929 23.2227 61.832 23.2617C61.8788 23.3008 61.9101 23.3555 61.9257 23.4258C61.957 23.4336 61.9765 23.4297 61.9843 23.4141C61.9999 23.3984 62.0234 23.3945 62.0546 23.4023C62.0781 23.5117 62.1054 23.5859 62.1367 23.625C62.1679 23.6562 62.1992 23.7227 62.2304 23.8242C62.1913 23.9023 62.1601 23.9844 62.1367 24.0703C62.121 24.1484 62.0742 24.207 61.996 24.2461C61.9882 24.3008 62.0038 24.332 62.0429 24.3398C62.082 24.3398 62.1054 24.3594 62.1132 24.3984C62.121 24.4688 62.1093 24.5195 62.0781 24.5508C62.2656 24.8555 62.4335 25.1797 62.582 25.5234C62.7304 25.8594 62.8984 26.1797 63.0859 26.4844ZM61.621 27.5977C61.6523 27.5117 61.6913 27.4414 61.7382 27.3867C61.7929 27.332 61.8242 27.25 61.832 27.1406C61.7929 27.0781 61.7695 27.0312 61.7617 27C61.7538 26.9609 61.7499 26.9023 61.7499 26.8242C61.5781 26.582 61.4296 26.3242 61.3046 26.0508C61.1796 25.7695 61.039 25.5078 60.8828 25.2656C60.8671 25.2969 60.8398 25.3281 60.8007 25.3594C60.7617 25.3906 60.7187 25.3828 60.6718 25.3359C60.6562 25.3984 60.6288 25.4453 60.5898 25.4766C60.5507 25.5 60.5078 25.5117 60.4609 25.5117C60.414 25.5039 60.3632 25.4922 60.3085 25.4766C60.2617 25.4531 60.2187 25.4258 60.1796 25.3945C59.9531 25.5742 59.7265 25.75 59.4999 25.9219C59.2734 26.0938 59.0703 26.293 58.8906 26.5195C58.8593 26.5352 58.8398 26.543 58.832 26.543C58.8242 26.5352 58.8007 26.5391 58.7617 26.5547C58.6992 26.7031 58.621 26.8398 58.5273 26.9648C58.4413 27.082 58.3554 27.2031 58.2695 27.3281C58.1835 27.4531 58.1093 27.5859 58.0468 27.7266C57.9843 27.8672 57.9492 28.0312 57.9413 28.2188C58.0742 28.3281 58.2304 28.3945 58.4101 28.418C58.5898 28.4414 58.7734 28.4453 58.9609 28.4297C59.1562 28.4141 59.3437 28.3906 59.5234 28.3594C59.7109 28.3203 59.8828 28.3008 60.039 28.3008C60.3671 28.2227 60.6484 28.1211 60.8828 27.9961C61.1171 27.8633 61.3632 27.7305 61.621 27.5977ZM69.5781 26.8359C69.5703 26.875 69.5624 26.9102 69.5546 26.9414C69.5468 26.9648 69.539 26.9883 69.5312 27.0117C69.5234 27.0352 69.5195 27.0664 69.5195 27.1055C69.5195 27.1367 69.5195 27.1797 69.5195 27.2344C69.2851 27.6484 68.9882 27.9961 68.6288 28.2773C68.2773 28.5586 67.8867 28.8086 67.457 29.0273C67.0351 29.2383 66.5937 29.4336 66.1328 29.6133C65.6718 29.7852 65.2226 29.9727 64.7851 30.1758C64.5976 30.1289 64.4531 30.0508 64.3515 29.9414C64.2578 29.832 64.1835 29.707 64.1288 29.5664C64.082 29.418 64.0468 29.2578 64.0234 29.0859C64.0078 28.9062 63.9921 28.7227 63.9765 28.5352C63.9999 28.4492 64.0312 28.3789 64.0703 28.3242C64.1171 28.2617 64.1406 28.1758 64.1406 28.0664C64.2031 27.8633 64.2656 27.6641 64.3281 27.4688C64.3906 27.2734 64.4296 27.0742 64.4453 26.8711C64.4687 26.8086 64.5117 26.7656 64.5742 26.7422C64.6132 26.3672 64.6132 25.9883 64.5742 25.6055C64.5429 25.2148 64.4804 24.8516 64.3867 24.5156C64.3945 24.4375 64.4023 24.3828 64.4101 24.3516C64.4257 24.3125 64.4257 24.2852 64.4101 24.2695C64.4023 24.207 64.4218 24.1758 64.4687 24.1758C64.5234 24.1758 64.5781 24.1758 64.6328 24.1758C64.6328 24.0586 64.6093 23.9414 64.5624 23.8242C64.5234 23.707 64.4843 23.5742 64.4453 23.4258C64.4999 23.3086 64.5351 23.1953 64.5507 23.0859C64.5663 22.9688 64.6015 22.8672 64.6562 22.7812C65.0781 22.9141 65.4804 23.0742 65.8632 23.2617C66.2538 23.4492 66.6367 23.5859 67.0117 23.6719C67.2929 23.875 67.582 24.0781 67.8788 24.2812C68.1757 24.4766 68.4453 24.6953 68.6874 24.9375C68.9296 25.1719 69.1328 25.4414 69.2968 25.7461C69.4609 26.0508 69.5546 26.4141 69.5781 26.8359ZM66.8007 27.4805C66.9648 27.418 67.1249 27.3516 67.2812 27.2812C67.4453 27.2109 67.5937 27.1328 67.7265 27.0469C67.8671 26.9531 67.9921 26.8477 68.1015 26.7305C68.2109 26.6133 68.3007 26.4727 68.371 26.3086C68.3242 26.2148 68.2617 26.1328 68.1835 26.0625C68.1054 25.9844 68.0273 25.9141 67.9492 25.8516C67.871 25.7812 67.7929 25.7109 67.7148 25.6406C67.6445 25.5703 67.5859 25.4844 67.539 25.3828C67.4374 25.3672 67.3476 25.3398 67.2695 25.3008C67.1913 25.2539 67.1132 25.2109 67.0351 25.1719C66.9648 25.125 66.8867 25.082 66.8007 25.043C66.7226 25.0039 66.6288 24.9805 66.5195 24.9727C66.3476 24.8867 66.1913 24.8242 66.0507 24.7852C65.9179 24.7461 65.8163 24.6953 65.746 24.6328C65.6913 24.6328 65.6484 24.6445 65.6171 24.668C65.6953 24.9648 65.7538 25.2461 65.7929 25.5117C65.832 25.7695 65.8515 26.0312 65.8515 26.2969C65.8593 26.5547 65.8476 26.8203 65.8163 27.0938C65.7851 27.3672 65.7421 27.6641 65.6874 27.9844C65.7656 27.9766 65.8359 27.9609 65.8984 27.9375C65.9687 27.9062 66.0351 27.875 66.0976 27.8438C66.1679 27.8125 66.2382 27.7852 66.3085 27.7617C66.3867 27.7305 66.4765 27.7109 66.5781 27.7031C66.6015 27.6562 66.6328 27.6172 66.6718 27.5859C66.7187 27.5547 66.7617 27.5195 66.8007 27.4805ZM76.1874 23.4023C76.1953 23.457 76.1953 23.5 76.1874 23.5312C76.1874 23.5547 76.1835 23.5781 76.1757 23.6016C76.1757 23.625 76.1757 23.6523 76.1757 23.6836C76.1757 23.707 76.1835 23.7461 76.1992 23.8008C76.0351 24.0664 75.8437 24.25 75.6249 24.3516C75.414 24.4453 75.1835 24.5156 74.9335 24.5625C74.6835 24.6016 74.4257 24.6445 74.1601 24.6914C73.9023 24.7383 73.6445 24.8398 73.3867 24.9961C73.2851 24.957 73.1913 24.957 73.1054 24.9961C73.0273 25.0352 72.9101 25.0469 72.7538 25.0312C72.707 25.0781 72.6484 25.1133 72.5781 25.1367C72.5078 25.1523 72.4374 25.1719 72.3671 25.1953C72.3984 25.2656 72.4101 25.3398 72.4023 25.418C72.4023 25.4883 72.414 25.5469 72.4374 25.5938C72.7109 25.6172 73.0117 25.6133 73.3398 25.582C73.6757 25.5508 74.0038 25.5312 74.3242 25.5234C74.332 25.5625 74.3281 25.5898 74.3124 25.6055C74.2968 25.6133 74.2929 25.6328 74.3007 25.6641C74.3554 25.7031 74.4101 25.7539 74.4648 25.8164C74.5195 25.8711 74.5742 25.9258 74.6288 25.9805C74.6835 26.0352 74.7382 26.082 74.7929 26.1211C74.8554 26.1523 74.9257 26.1641 75.0038 26.1562C75.0351 26.2188 75.0546 26.2891 75.0624 26.3672C75.0781 26.4375 75.0703 26.5117 75.039 26.5898C74.914 26.6758 74.789 26.7656 74.664 26.8594C74.539 26.9453 74.4062 27.0234 74.2656 27.0938C74.1328 27.1641 73.9882 27.2227 73.832 27.2695C73.6835 27.3086 73.5156 27.3242 73.3281 27.3164C73.289 27.3164 73.2578 27.3164 73.2343 27.3164C73.2187 27.3164 73.1953 27.3047 73.164 27.2812C73.1015 27.3203 73.0117 27.332 72.8945 27.3164C72.7851 27.3008 72.6992 27.3125 72.6367 27.3516C72.5507 27.3125 72.4453 27.2969 72.3203 27.3047C72.2031 27.3047 72.0976 27.2891 72.0038 27.2578C71.8788 27.4219 71.7656 27.5977 71.664 27.7852C71.5624 27.9727 71.4726 28.1719 71.3945 28.3828C71.6601 28.4219 71.8788 28.4375 72.0507 28.4297C72.2304 28.4219 72.3984 28.4102 72.5546 28.3945C72.7109 28.3711 72.871 28.3516 73.0351 28.3359C73.1992 28.3125 73.4062 28.3047 73.6562 28.3125C73.8124 28.2266 73.996 28.1719 74.207 28.1484C74.4257 28.1172 74.6249 28.0703 74.8046 28.0078C74.8671 28.0312 74.9218 28.0742 74.9687 28.1367C75.0156 28.1914 75.0585 28.2461 75.0976 28.3008C75.1445 28.3477 75.1913 28.3906 75.2382 28.4297C75.2851 28.4688 75.3437 28.4844 75.414 28.4766C75.4453 28.5078 75.4648 28.5469 75.4726 28.5938C75.4882 28.6328 75.4999 28.6719 75.5078 28.7109C75.5156 28.75 75.5273 28.7852 75.5429 28.8164C75.5663 28.8398 75.6015 28.8477 75.6484 28.8398C75.5312 29.0977 75.3945 29.2969 75.2382 29.4375C75.0898 29.5703 74.9179 29.6719 74.7226 29.7422C74.5273 29.8125 74.3085 29.8672 74.0663 29.9062C73.832 29.9453 73.5703 29.9922 73.2812 30.0469C73.2109 30.0625 73.1523 30.0586 73.1054 30.0352C73.0585 30.0195 73.0038 30.0117 72.9413 30.0117C72.7617 30.0508 72.5468 30.0859 72.2968 30.1172C72.0468 30.1484 71.7929 30.1602 71.5351 30.1523C71.2773 30.1445 71.0312 30.1094 70.7968 30.0469C70.5624 29.9922 70.371 29.8906 70.2226 29.7422C70.1601 29.6875 70.1171 29.625 70.0937 29.5547C70.0781 29.4766 70.0273 29.418 69.9413 29.3789C69.9335 29.2773 69.9179 29.1641 69.8945 29.0391C69.871 28.9141 69.8476 28.7852 69.8242 28.6523C69.8007 28.5117 69.7812 28.375 69.7656 28.2422C69.7578 28.1094 69.7656 27.9883 69.789 27.8789C69.8124 27.7617 69.8593 27.6562 69.9296 27.5625C70.0078 27.4688 70.0351 27.3672 70.0117 27.2578C70.0507 27.25 70.0742 27.2305 70.082 27.1992C70.0898 27.1602 70.121 27.1445 70.1757 27.1523C70.2226 27.0117 70.2734 26.8789 70.3281 26.7539C70.3828 26.6289 70.4374 26.5078 70.4921 26.3906C70.5546 26.2734 70.6132 26.1562 70.6679 26.0391C70.7304 25.9141 70.789 25.7773 70.8437 25.6289C70.7343 25.5273 70.6523 25.418 70.5976 25.3008C70.5507 25.1758 70.5156 25.0547 70.4921 24.9375C70.4687 24.8125 70.4492 24.6875 70.4335 24.5625C70.4179 24.4297 70.3906 24.2969 70.3515 24.1641C70.4296 24.0469 70.5234 23.9531 70.6328 23.8828C70.7499 23.8047 70.8749 23.7422 71.0078 23.6953C71.1406 23.6484 71.2851 23.6094 71.4413 23.5781C71.5976 23.5469 71.7617 23.5117 71.9335 23.4727C72.246 23.3711 72.5234 23.293 72.7656 23.2383C73.0156 23.1836 73.2578 23.1406 73.4921 23.1094C73.7343 23.0703 73.9843 23.0352 74.2421 23.0039C74.4999 22.9727 74.7929 22.9258 75.121 22.8633C75.1913 22.9336 75.2578 22.9688 75.3203 22.9688C75.3515 22.8984 75.3867 22.8789 75.4257 22.9102C75.4726 22.9336 75.4921 22.9102 75.4843 22.8398C75.5624 22.9727 75.6601 23.0859 75.7773 23.1797C75.9023 23.2656 76.039 23.3398 76.1874 23.4023Z" fill="white"/>
<g clip-path="url(#clip0_526_154)">
<path fill-rule="evenodd" clip-rule="evenodd" d="M7.3125 66.9661C28.6873 45.5639 58.9112 49.9315 83.3769 64.0151C83.7976 64.2562 84.3362 64.1122 84.5773 63.6915C84.8184 63.2709 84.6744 62.7323 84.2537 62.4912C59.1036 48.0117 28.0414 43.7228 6.06806 65.7249C5.72505 66.067 5.72586 66.6234 6.06971 66.9678C6.41179 67.3108 6.96817 67.31 7.3125 66.9661Z" fill="white"/>
<path fill-rule="evenodd" clip-rule="evenodd" d="M83.3564 62.9885C81.8118 62.9757 79.8735 62.9383 79.6534 62.9405C73.6893 62.9991 68.054 63.9799 62.3669 65.8181C61.9051 65.9668 61.6514 66.4638 61.8001 66.9256C61.9487 67.3874 62.4457 67.641 62.9075 67.4924C68.4217 65.7081 73.8868 64.7554 79.6721 64.6992C80.0093 64.6957 84.3665 64.7825 85.2488 64.7339C85.6108 64.7156 85.81 64.5928 85.8542 64.5594C86.0958 64.3907 86.1824 64.1814 86.2173 64.0083C86.2551 63.8124 86.2388 63.474 85.9837 63.1182C85.7151 62.747 84.9726 62.117 84.798 61.9429C82.171 59.3079 79.0094 56.596 76.5998 53.4979C74.3016 50.5436 72.6855 47.234 73.024 43.2633C73.0656 42.7799 72.705 42.354 72.2217 42.3124C71.7383 42.2707 71.3123 42.6313 71.2707 43.1146C70.8932 47.554 72.6428 51.2755 75.2107 54.5771C77.6065 57.6566 80.7218 60.3673 83.3564 62.9885Z" fill="white"/>
</g>
<defs>
<clipPath id="clip0_526_154">
<rect width="63.6549" height="63.6549" fill="white" transform="translate(55.0692 106.068) rotate(-143.349)"/>
</clipPath>
</defs>
</svg>
