<?xml version="1.0" encoding="UTF-8"?>
<svg width="100pt" height="100pt" version="1.1" viewBox="0 0 100 100" xmlns="http://www.w3.org/2000/svg">
 <g>
  <path d="m72.363 40.625h-44.727c-6.6289-0.007812-12.004-5.3828-12.012-12.012v-13.477c0.007812-6.6289 5.3828-12.004 12.012-12.012h44.727c6.6289 0.007812 12.004 5.3828 12.012 12.012v13.477c-0.007812 6.6289-5.3828 12.004-12.012 12.012zm-44.727-31.25c-3.1797 0.003906-5.7578 2.582-5.7617 5.7617v13.477c0.003906 3.1797 2.582 5.7578 5.7617 5.7617h44.727c3.1797-0.003906 5.7578-2.582 5.7617-5.7617v-13.477c-0.003906-3.1797-2.582-5.7578-5.7617-5.7617z"/>
  <path d="m53.125 63.086h-6.25v-9.9609h-43.75v-34.375h15.625v6.25h-9.375v21.875h43.75z"/>
  <path d="m50 96.875c-5.1758 0-9.375-4.1992-9.375-9.375v-18.75c0-5.1758 4.1992-9.375 9.375-9.375s9.375 4.1992 9.375 9.375v18.75c0 5.1758-4.1992 9.375-9.375 9.375zm0-31.25c-1.7266 0-3.125 1.3984-3.125 3.125v18.75c0 1.7266 1.3984 3.125 3.125 3.125s3.125-1.3984 3.125-3.125v-18.75c0-0.82812-0.32812-1.625-0.91406-2.2109-0.58594-0.58594-1.3828-0.91406-2.2109-0.91406z"/>
 </g>
</svg>
