<?xml version="1.0" encoding="UTF-8"?>
<svg width="100pt" height="100pt" version="1.1" viewBox="0 0 100 100" xmlns="http://www.w3.org/2000/svg">
 <g>
  <path d="m89.984 80.891-6.332 6.293c-2 1.9805-5.5703 1.5312-7.8633-0.96094l-34.98-38.215 9.7852-9.7266c10.707 9.6875 29.352 26.59 38.43 34.805 2.5078 2.2578 2.9414 5.8438 0.96094 7.8047z"/>
  <path d="m26.887 52.203c1.5117 1.5078 1.5117 3.9609 0 5.4688l-2.9805 2.9609c-1.5117 1.4883-3.9414 1.4883-5.4492 0l-8.5508-8.5117c-1.5078-1.5117-1.5078-3.9609 0-5.4688l2.9609-2.9609c1.5117-1.4883 3.9609-1.4883 5.4492 0l0.72656 0.72656 2.3906-2.3711 7.1562 7.0977-2.3906 2.3711z"/>
  <path d="m65.375 16.285c-8.2539-6.7656-20.195-6.1758-27.766 1.3711-0.35156 0.35156-15.449 15.449-15.449 15.449-1.9609 1.9609-1.8438 5.0391 0 6.8828l8.5508 8.4922c1.8438 1.8438 4.8633 1.9219 6.8438-0.019531l12.766-12.688c1.9023-1.9023 1.9023-4.9805 0-6.8828l-1.0195-1.0391c1.332-7.2148 9.2539-11.707 15.156-9.8633 0.44922 0.13672 0.94141-0.058593 1.1562-0.46875 0.21484-0.41406 0.11719-0.92188-0.23828-1.2344zm-19.605 2.625c-1.4883 0.70703-2.8438 1.6875-4.0391 2.8633-0.41797 0.41797-1.0273 0.36719-1.3906 0-0.37109-0.39063-0.37109-1 0-1.3906 1.3516-1.332 2.8828-2.4297 4.5703-3.2344 0.48828-0.23438 1.0781-0.039063 1.3125 0.44922 0.23047 0.48828 0.015625 1.0781-0.45312 1.3125z"/>
 </g>
</svg>
