<?xml version="1.0" encoding="UTF-8"?>
<svg width="100pt" height="100pt" version="1.1" viewBox="0 0 100 100" xmlns="http://www.w3.org/2000/svg">
 <path d="m70.832 37.5h4.168c4.6016 0 8.332 3.7305 8.332 8.332v41.668c0 4.6016-3.7305 8.332-8.332 8.332h-50c-4.6016 0-8.332-3.7305-8.332-8.332v-41.668c0-4.6016 3.7305-8.332 8.332-8.332h4.168c2.3008 0 4.1641 1.8672 4.1641 4.168s-1.8633 4.1641-4.1641 4.1641h-4.168v41.668h50v-41.668h-4.168c-2.3008 0-4.1641-1.8633-4.1641-4.1641s1.8633-4.168 4.1641-4.168zm-23.996-27.711c0.76172-0.89062 1.8984-1.457 3.1641-1.457s2.4023 0.56641 3.1641 1.457l11.566 11.566c1.6289 1.6289 1.6289 4.2656 0 5.8945-1.625 1.625-4.2656 1.625-5.8906 0l-4.6719-4.6719v39.922c0 2.3008-1.8672 4.168-4.168 4.168s-4.168-1.8672-4.168-4.168v-39.922l-4.6719 4.6719c-1.625 1.625-4.2656 1.625-5.8906 0-1.6289-1.6289-1.6289-4.2656 0-5.8945z"/>
</svg>
