<svg width="11" height="12" viewBox="0 0 11 12" fill="none" xmlns="http://www.w3.org/2000/svg">
<path d="M0.533486 11.3333H8.5334C8.6749 11.3333 8.8104 11.2768 8.91039 11.1768C9.01038 11.0768 9.06689 10.9413 9.06689 10.7998V6.53337C9.06689 6.23887 8.8279 5.99987 8.5334 5.99987C8.2389 5.99987 7.9999 6.23887 7.9999 6.53337V10.2668L1.06698 10.2663V3.33341H4.80045H4.79995C5.09445 3.33341 5.33344 3.09442 5.33344 2.79992C5.33344 2.50542 5.09445 2.26642 4.79995 2.26642H0.533498C0.238999 2.26642 0 2.50542 0 2.79992V10.7998C0 10.9413 0.0564999 11.0768 0.156504 11.1768C0.256508 11.2768 0.391996 11.3333 0.533498 11.3333L0.533486 11.3333Z" fill="#1E1E1E"/>
<path d="M10.6029 0.965503C10.5859 0.923004 10.5604 0.885004 10.5279 0.853505L10.4959 0.811005V0.810505C10.4524 0.772505 10.4039 0.740505 10.3519 0.714506C10.2844 0.680507 10.2094 0.664007 10.1335 0.666507H7.46699C7.17249 0.666507 6.93349 0.905506 6.93349 1.2C6.93349 1.4945 7.17249 1.7335 7.46699 1.7335H8.84847L3.88853 6.68794H3.88803C3.78703 6.78794 3.73053 6.92444 3.73053 7.06643C3.73053 7.20893 3.78703 7.34493 3.88803 7.44542C3.98853 7.54642 4.12453 7.60293 4.26702 7.60293C4.40902 7.60293 4.54552 7.54643 4.64551 7.44542L9.59995 2.48548V3.86646C9.59995 4.16096 9.83895 4.39996 10.1335 4.39996C10.428 4.39996 10.6669 4.16096 10.6669 3.86646V1.19999C10.6654 1.13599 10.6529 1.07299 10.6294 1.0135C10.6224 0.996499 10.6134 0.979998 10.603 0.965499L10.6029 0.965503Z" fill="#1E1E1E"/>
</svg>
