<?xml version="1.0" encoding="UTF-8"?>
<svg width="100pt" height="100pt" version="1.1" viewBox="0 0 100 100" xmlns="http://www.w3.org/2000/svg">
 <path d="m58.387 95h-46.773c-0.17578 0-0.33984-0.09375-0.42969-0.25-0.089844-0.15234-0.089844-0.34375 0-0.49609l23.387-40.504-0.003906-0.003906c0.089844-0.15234 0.25391-0.24609 0.43359-0.24609s0.34375 0.09375 0.43359 0.24609l23.387 40.504-0.003906 0.003906c0.089844 0.15234 0.089844 0.34375 0 0.49609-0.089844 0.15625-0.25391 0.25-0.42969 0.25zm-52.383-50h37.992c0.26562 0 0.52344-0.10547 0.71094-0.29297s0.29297-0.44531 0.29297-0.71094v-37.992c0-0.26562-0.10547-0.52344-0.29297-0.71094s-0.44531-0.29297-0.71094-0.29297h-37.992c-0.26562 0-0.52344 0.10547-0.71094 0.29297s-0.29297 0.44531-0.29297 0.71094v37.992c0 0.26562 0.10547 0.52344 0.29297 0.71094s0.44531 0.29297 0.71094 0.29297zm67.996 30c5.5703 0 10.91-2.2109 14.848-6.1523 3.9414-3.9375 6.1523-9.2773 6.1523-14.848s-2.2109-10.91-6.1523-14.848c-3.9375-3.9414-9.2773-6.1523-14.848-6.1523s-10.91 2.2109-14.848 6.1523c-3.9414 3.9375-6.1523 9.2773-6.1523 14.848s2.2109 10.91 6.1523 14.848c3.9375 3.9414 9.2773 6.1523 14.848 6.1523z"/>
</svg>
