<?xml version="1.0" encoding="UTF-8"?>
<svg width="100pt" height="100pt" version="1.1" viewBox="0 0 100 100" xmlns="http://www.w3.org/2000/svg">
 <g>
  <path d="m84.375 6.25h-68.75c-5.1758 0.003906-9.3711 4.1992-9.375 9.375v68.75c0.003906 5.1758 4.1992 9.3711 9.375 9.375h68.75c5.1758-0.003906 9.3711-4.1992 9.375-9.375v-68.75c-0.003906-5.1758-4.1992-9.3711-9.375-9.375zm-68.75 6.25h68.75c1.7266 0 3.125 1.3984 3.125 3.125v66.785l-14.641-18.828c-1.7422-2.2422-4.4062-3.5742-7.2461-3.6133-0.054687-0.003906-0.10547-0.003906-0.16016-0.003906-2.7812-0.003906-5.4219 1.2305-7.1992 3.3711l-5.4219 6.5078v0.003906c-0.60547 0.76953-1.5547 1.1914-2.5312 1.1211-0.97266-0.039062-1.875-0.53125-2.4297-1.332l-12.566-17.949c-1.6562-2.3828-4.3242-3.8594-7.2227-3.9883-2.8906-0.125-5.6758 1.0781-7.5703 3.2617l-8.0117 9.3398v-44.676c0-1.7266 1.3984-3.125 3.125-3.125zm-3.125 71.875v-14.473l12.758-14.879v0.003906c0.62109-0.74219 1.5547-1.1445 2.5234-1.0859 0.96484 0.042969 1.8555 0.53125 2.4062 1.3242l12.566 17.953c1.6719 2.3906 4.3672 3.8672 7.2852 3.9922 2.918 0.12109 5.7266-1.1211 7.5977-3.3633l5.4219-6.5078c0.59375-0.74219 1.5039-1.1562 2.4492-1.125 0.94922 0.015625 1.8359 0.46094 2.418 1.207l15.617 20.078h-67.918c-1.7266 0-3.125-1.3984-3.125-3.125z"/>
  <path d="m62.5 50c5.0547 0 9.6133-3.0469 11.547-7.7148 1.9375-4.6719 0.86719-10.051-2.707-13.625-3.5742-3.5742-8.9531-4.6445-13.625-2.707-4.668 1.9336-7.7148 6.4922-7.7148 11.547 0.007812 6.9023 5.5977 12.492 12.5 12.5zm0-18.75c2.5273 0 4.8086 1.5234 5.7734 3.8594 0.96875 2.3359 0.43359 5.0234-1.3555 6.8086-1.7852 1.7891-4.4727 2.3242-6.8086 1.3555-2.3359-0.96484-3.8594-3.2461-3.8594-5.7734 0.003906-3.4492 2.8008-6.2461 6.25-6.25z"/>
 </g>
</svg>
