<?xml version="1.0" encoding="UTF-8"?>
<svg width="100pt" height="100pt" version="1.1" viewBox="0 0 100 100" xmlns="http://www.w3.org/2000/svg">
 <g fill-rule="evenodd">
  <path d="m44.387 25.949c1.7031 0 3.1094 1.4062 3.1094 3.1094s-1.4062 3.1094-3.1094 3.1094-3.1094-1.4062-3.1094-3.1094 1.4062-3.1094 3.1094-3.1094z"/>
  <path d="m36.855 25.949c1.7031 0 3.1094 1.4062 3.1094 3.1094s-1.4062 3.1094-3.1094 3.1094-3.0977-1.4297-3.0977-3.1094c0-1.6797 1.3984-3.1094 3.0977-3.1094z"/>
  <path d="m29.328 25.949c1.6953 0 3.1094 1.4297 3.1094 3.1094 0 1.6797-1.4141 3.1094-3.1094 3.1094-1.7031 0-3.0977-1.4297-3.0977-3.1094 0-1.6797 1.3984-3.1094 3.0977-3.1094z"/>
  <path d="m21.809 25.949c1.7031 0 3.1016 1.4297 3.1016 3.1094 0 1.6797-1.3984 3.1094-3.1016 3.1094s-3.1094-1.4062-3.1094-3.1094 1.4062-3.1094 3.1094-3.1094z"/>
  <path d="m14.277 25.949c1.7031 0 3.1016 1.4297 3.1016 3.1094 0 1.6797-1.3984 3.1094-3.1016 3.1094s-3.1094-1.4062-3.1094-3.1094 1.4062-3.1094 3.1094-3.1094z"/>
  <path d="m86.125 20.141c4.332 0 7.875 3.582 7.875 7.9062v43.938c0 4.332-3.543 7.875-7.875 7.875h-72.25c-4.332 0-7.875-3.5469-7.875-7.875v-43.938c0-4.3203 3.543-7.9062 7.875-7.9062zm0 4h-72.25c-2.1484 0-3.875 1.7656-3.875 3.9062v5.5625h80v-5.5625c0-2.1367-1.7266-3.9062-3.875-3.9062z"/>
 </g>
</svg>
