<?xml version="1.0" encoding="UTF-8"?>
<svg width="100pt" height="100pt" version="1.1" viewBox="0 0 100 100" xmlns="http://www.w3.org/2000/svg">
 <path d="m50 3.9414-25.371 44.059-1.8906 3.2305-0.12109 0.21094h0.003906c-2.1797 4.3086-3.3398 9.0586-3.3828 13.887 0.019531 8.1523 3.2656 15.965 9.0312 21.723 5.7656 5.7617 13.578 9 21.73 9.0078 10.586 0.011718 20.434-5.4297 26.059-14.398 5.625-8.9727 6.2344-20.203 1.6133-29.73zm16 77.441v-0.003906c-4.2266 4.2773-9.9883 6.6836-16 6.6914-6.0195-0.011718-11.793-2.4023-16.059-6.6523-4.2617-4.2539-6.6719-10.016-6.7031-16.039 0.023438-3.5547 0.86328-7.0547 2.4609-10.23l20.301-35.148 18.469 32 2.0898 3.6094c2.0117 4.2305 2.6602 8.9805 1.8555 13.594-0.80469 4.6172-3.0195 8.8672-6.3438 12.168z"/>
</svg>
