<?xml version="1.0" encoding="UTF-8"?>
<svg width="100pt" height="100pt" version="1.1" viewBox="0 0 100 100" xmlns="http://www.w3.org/2000/svg">
 <g>
  <path d="m34.809 0c1.707 0.58203 3.3594 1.3047 4.9414 2.1602 3.3203 2.1484 4.6602 5.4883 4.6914 9.3281 0.058594 7.1602 0.058594 14.316 0 21.469 0 4.6992-2.1094 8.3281-6.4102 10.34v0.003906c-1.6289 0.70312-3.3867 1.0703-5.1602 1.0703-7.0703 0.12109-14.148 0.078125-21.219 0-5.9102 0-10-3.3086-11.41-9.0586l-0.003907-0.003906c-0.070312-0.17969-0.14844-0.35547-0.23828-0.52734v-25.09c0.10938-0.23047 0.19922-0.46094 0.26172-0.69141 0.67188-2.7305 1.8711-5.1914 4.3203-6.6992h-0.003906c1.6602-0.88672 3.3789-1.6562 5.1406-2.3008z"/>
  <path d="m0 65.09c0.66016-1.7617 1.4648-3.4648 2.4102-5.0898 1.8203-2.7539 4.9258-4.3906 8.2305-4.3281 7.6211-0.078125 15.23-0.050781 22.852 0h-0.003907c2.9688-0.003906 5.8086 1.1953 7.8789 3.3164 2.0742 2.125 3.1992 4.9961 3.1211 7.9609 0.050781 7.2383 0.089844 14.488 0 21.73-0.089843 6.4883-4.4883 11.09-10.941 11.238-7.4883 0.17188-15 0.16016-22.48 0-5.5977-0.13672-9.3672-3.3867-10.797-8.7969-0.058593-0.24219-0.16016-0.46094-0.26953-0.67969v-25.352z"/>
  <path d="m90.219 0c2.0273 0.41406 3.9414 1.2656 5.6094 2.4883 2.4141 1.8242 3.8828 4.6328 4 7.6523 0.14062 6.1602 0.089844 12.328 0.10938 18.5v4.7188h0.003906c-0.003906 2.9961-1.2227 5.8633-3.375 7.9453-2.1484 2.082-5.0547 3.207-8.0469 3.1172-7.1602 0-14.32 0.058594-21.48 0-6.5195-0.082031-11.18-4.4219-11.34-10.852-0.19141-7.5703-0.17188-15.148 0-22.719 0.10938-5.5234 3.4727-9.3125 8.8711-10.633 0.1875-0.058594 0.37109-0.13281 0.55078-0.21875z"/>
  <path d="m99.898 77.762c0 4 0.14062 8 0 11.922v-0.003906c-0.19141 5.5234-4.625 9.9531-10.148 10.141-8 0.1875-16 0.1875-24 0-5.4609-0.21094-9.832-4.6094-10.012-10.07-0.17969-8-0.17969-16 0-24 0.16797-5.4648 4.5352-9.8711 10-10.078 8-0.17969 16.027-0.17969 24.078 0h0.003906c5.4141 0.25 9.7461 4.582 10 10 0.17969 4 0 8 0 12z"/>
 </g>
</svg>
