<?xml version="1.0" encoding="UTF-8"?>
<svg width="100pt" height="100pt" version="1.1" viewBox="0 0 100 100" xmlns="http://www.w3.org/2000/svg">
 <path d="m68.703 62.598c-2.8281 0-5.4531 0.875-7.6211 2.3672l-16.68-11.539c0.25391-1.0312 0.40234-2.1016 0.40234-3.2148 0-1.1094-0.14844-2.1797-0.40234-3.2109l16.676-11.543c2.168 1.4883 4.7891 2.3672 7.6211 2.3672 7.4414 0 13.473-6.0312 13.473-13.473 0-7.4414-6.0312-13.473-13.473-13.473-7.4414 0-13.473 6.0312-13.473 13.473 0 1.1094 0.14844 2.1797 0.40234 3.2109l-16.672 11.547c-2.168-1.4883-4.7891-2.3672-7.6211-2.3672-7.4414 0-13.473 6.0312-13.473 13.473s6.0312 13.473 13.473 13.473c2.8281 0 5.4531-0.875 7.6211-2.3672l16.68 11.539c-0.25391 1.0312-0.40234 2.1016-0.40234 3.2148 0 7.4414 6.0312 13.473 13.473 13.473 7.4414 0 13.473-6.0312 13.473-13.473-0.003907-7.4453-6.0391-13.477-13.477-13.477z"/>
</svg>
