<?xml version="1.0" encoding="UTF-8"?>
<svg width="100pt" height="100pt" version="1.1" viewBox="0 0 100 100" xmlns="http://www.w3.org/2000/svg">
 <g>
  <path d="m37.562 0-37.562 21.875 13.062 7.8125 37-22.188z"/>
  <path d="m50.062 51.875 12.562 7.5 37.375-21.875-13-7.8125z"/>
  <path d="m0 37.5 37.562 21.875 12.5-7.5-37-22.188z"/>
  <path d="m62.605 66.133c-0.55469 0-1.1133-0.14453-1.6055-0.4375l-10.93-6.5312-10.875 6.5234c-0.98047 0.58594-2.207 0.59375-3.1797 0.019531l-23.516-13.695v26.113c0 1.3125 0.82031 2.4883 2.0547 2.9375l34.375 18.75c0.34375 0.125 0.70703 0.1875 1.0703 0.1875s0.72656-0.0625 1.0703-0.1875l34.375-18.75c1.2305-0.44922 2.0547-1.625 2.0547-2.9375v-26.062l-23.312 13.645c-0.49219 0.28516-1.0391 0.42578-1.582 0.42578z"/>
  <path d="m100 21.875-37.375-21.875-12.562 7.5 36.938 22.188z"/>
 </g>
</svg>
