<?xml version="1.0" encoding="UTF-8"?>
<svg width="100pt" height="100pt" version="1.1" viewBox="0 0 100 100" xmlns="http://www.w3.org/2000/svg">
 <path d="m85.207 79.375l-21.664-21.668c3.332-4.375 5.207-10 5.207-16.043 0-15-12.082-27.082-27.082-27.082s-27.086 12.086-27.086 27.086 12.082 27.082 27.082 27.082c6.043 0 11.457-1.875 16.043-5.207l21.668 21.668c0.83203 0.83203 1.875 1.25 2.918 1.25s2.082-0.41797 2.918-1.25c1.6641-1.668 1.6641-4.168-0.003907-5.8359zm-43.539-18.957c-10.418 0-18.75-8.332-18.75-18.75s8.332-18.75 18.75-18.75 18.75 8.332 18.75 18.75c0 10.414-8.3359 18.75-18.75 18.75z"/>
</svg>
