<?xml version="1.0" encoding="UTF-8"?>
<svg width="100pt" height="100pt" version="1.1" viewBox="0 0 100 100" xmlns="http://www.w3.org/2000/svg">
 <g fill-rule="evenodd">
  <path d="m7.9531 0c2.5117 0 4.5469 2.5117 4.5469 4.5469v90.91c0 2.5117-2.0352 4.5469-4.5469 4.5469s-4.5469-2.5117-4.5469-4.5469v-90.91c0-2.5117 2.0352-4.5469 4.5469-4.5469z"/>
  <path d="m7.9648 9.0898c-2.5156 0-4.5547-2.0156-4.5547-4.543 0-2.5117 2.0391-4.5469 4.5547-4.5469h45.434c2.5156 0 4.5547 2.0156 4.5547 4.5469 0 2.5078-2.0391 4.543-4.5547 4.543z"/>
  <path d="m3.4102 95.453c0-2.5117 2.5117-4.5469 4.5469-4.5469h45.453c2.5117 0 4.5469 2.0352 4.5469 4.5469s-2.5117 4.5469-4.5469 4.5469h-45.453c-2.5117 0-4.5469-2.0352-4.5469-4.5469z"/>
  <path d="m28.395 54.547c-2.5039 0-4.5312-2.0195-4.5312-4.5469 0-2.5117 2.0469-4.5469 4.5312-4.5469h56.848c2.5039 0 4.5312 2.0195 4.5312 4.5469 0 2.5117-2.0469 4.5469-4.5312 4.5469z"/>
  <path d="m95.031 53.215-22.5 22.5c-1.7734 1.7734-4.6523 1.7734-6.4258 0-1.7773-1.7773-1.7773-4.6562 0-6.4297l19.285-19.285-19.285-19.285c-1.7773-1.7734-1.7773-4.6523 0-6.4297 1.7734-1.7734 4.6523-1.7734 6.4258 0l22.5 22.5c1.7734 1.7773 1.7734 4.6523 0 6.4297z"/>
 </g>
</svg>
