<?xml version="1.0" encoding="UTF-8"?>
<svg width="100pt" height="100pt" version="1.1" viewBox="0 0 100 100" xmlns="http://www.w3.org/2000/svg">
 <path d="m91.668 68.043v20.852c0 1.1445-0.46484 2.1797-1.2148 2.9297-0.76172 0.75391-1.8008 1.2188-2.9492 1.2188h-75.008c-1.1484 0-2.1836-0.46094-2.9375-1.2109-0.75781-0.76562-1.2266-1.8008-1.2266-2.9375v-33.371c0-2.293 1.8516-4.1484 4.168-4.1484 2.3008 0 4.168 1.8711 4.168 4.1484v29.184h66.664v-29.168c0-2.3008 1.8516-4.1641 4.168-4.1641 2.3008 0 4.168 1.8477 4.168 4.1641zm-14.234-50l-4.7031-4.707c-1.6133-1.6133-1.6133-4.2266 0.027343-5.8672 1.625-1.625 4.2734-1.6172 5.8633-0.027344l11.84 11.84c0.80078 0.80469 1.2031 1.8516 1.207 2.9062l-0.015625 0.03125c0 1.0586-0.39844 2.1094-1.1914 2.9023l-11.84 11.84c-1.6133 1.6133-4.2266 1.6094-5.8633-0.027344-1.6289-1.6289-1.6172-4.2773-0.027343-5.8672l4.6914-4.6914h-14.559c-4.6953 0-8.5078 3.7266-8.5078 8.3164v12.516h-0.023438v14.52c0 2.3359-1.8867 4.2305-4.25 4.2305-2.3477 0-4.25-1.9023-4.25-4.2305v-27.035c0-9.1953 7.6289-16.648 17.031-16.648zm-14.562 50h8.5391-8.5312v-4.168 4.168z" fill-rule="evenodd"/>
</svg>
