<?xml version="1.0" encoding="UTF-8"?>
<svg width="100pt" height="100pt" version="1.1" viewBox="0 0 100 100" xmlns="http://www.w3.org/2000/svg">
 <g>
  <path d="m54 62c0 5.332-8 5.332-8 0s8-5.332 8 0"/>
  <path d="m46 36h8v16h-8z"/>
  <path d="m65.66 20.34c-1.5-1.5-3.5391-2.3398-5.6602-2.3398h-20c-2.1211 0-4.1602 0.83984-5.6602 2.3398l-14 14c-1.5 1.5-2.3398 3.5391-2.3398 5.6602v20c0 2.1211 0.83984 4.1602 2.3398 5.6602l14 14c1.5 1.5 3.5391 2.3398 5.6602 2.3398h20c2.1211 0 4.1602-0.83984 5.6602-2.3398l14-14c1.5-1.5 2.3398-3.5391 2.3398-5.6602v-20c0-2.1211-0.83984-4.1602-2.3398-5.6602zm8.3398 39.66-14 14h-20l-14-14v-20l14-14h20l14 14z"/>
 </g>
</svg>
