<?xml version="1.0" encoding="UTF-8"?>
<svg width="100pt" height="100pt" version="1.1" viewBox="0 0 100 100" xmlns="http://www.w3.org/2000/svg">
 <g>
  <path d="m50 0c-13.262 0-25.98 5.2695-35.355 14.645s-14.645 22.094-14.645 35.355 5.2695 25.98 14.645 35.355 22.094 14.645 35.355 14.645 25.98-5.2695 35.355-14.645 14.645-22.094 14.645-35.355-5.2695-25.98-14.645-35.355-22.094-14.645-35.355-14.645zm0 90c-10.609 0-20.781-4.2148-28.285-11.715-7.5-7.5039-11.715-17.676-11.715-28.285s4.2148-20.781 11.715-28.285c7.5039-7.5 17.676-11.715 28.285-11.715s20.781 4.2148 28.285 11.715c7.5 7.5039 11.715 17.676 11.715 28.285s-4.2148 20.781-11.715 28.285c-7.5039 7.5-17.676 11.715-28.285 11.715z"/>
  <path d="m72.5 27.5-32.5 32.5-12.5-12.5-7.5 7.5 20 20 40-40z"/>
 </g>
</svg>
