<?xml version="1.0" encoding="UTF-8"?>
<svg width="100pt" height="100pt" version="1.1" viewBox="0 0 100 100" xmlns="http://www.w3.org/2000/svg">
 <path d="m84 25c0.55078 0 1 0.44922 1 1v8c0 0.55078-0.44922 1-1 1h-68c-0.55078 0-1-0.44922-1-1v-13c0-0.55078 0.44922-1 1-1h17.277c0.23438 0 0.46094 0.082031 0.64062 0.23047l5.4414 4.5391c0.17969 0.14844 0.40625 0.23047 0.64062 0.23047zm0 55h-68c-0.55078 0-1-0.44922-1-1v-42c0-0.55078 0.44922-1 1-1h68c0.55078 0 1 0.44922 1 1v42c0 0.55078-0.44922 1-1 1z"/>
</svg>
