<?xml version="1.0" encoding="UTF-8"?>
<svg width="100pt" height="100pt" version="1.1" viewBox="0 0 100 100" xmlns="http://www.w3.org/2000/svg">
 <path d="m94.699 81.602l-39.801-68.898c-2.1992-3.8008-7.6992-3.8008-9.8984 0l-39.801 68.898c-2.1992 3.8008 0.5 8.6016 4.8984 8.6016h79.602c4.5-0.003906 7.1992-4.8047 5-8.6016zm-46-47.801c2.3984-0.60156 4.8008 0.60156 5.8984 2.8008 0.39844 0.80078 0.5 1.6992 0.39844 2.5-0.19922 2.5-0.30078 5-0.39844 7.6016-0.19922 3.8984-0.5 7.8984-0.69922 11.801-0.10156 1.1992-0.10156 2.3984-0.19922 3.6992-0.10156 2.1016-1.6992 3.6992-3.8008 3.6992-2 0-3.6992-1.6016-3.8008-3.6016-0.30078-6.1016-0.69922-12.199-1-18.301-0.10156-1.6016-0.19922-3.3008-0.30078-4.8984 0.003906-2.4023 1.6016-4.7031 3.9023-5.3008zm1.3008 45.801c-2.8008 0-5-2.3008-5-5.1016s2.3008-5.1016 5.1016-5.1016c2.8008 0 5 2.3008 5 5.1992-0.10156 2.7031-2.4023 5.0039-5.1016 5.0039z"/>
</svg>
