<?xml version="1.0" encoding="UTF-8"?>
<svg width="100pt" height="100pt" version="1.1" viewBox="0 0 100 100" xmlns="http://www.w3.org/2000/svg">
 <g>
  <path d="m16.426 42.809h35.504c2.207 0 4-1.793 4-4 0-2.207-1.793-4-4-4h-35.504c-2.207 0-4 1.793-4 4 0 2.2109 1.793 4 4 4z"/>
  <path d="m16.426 65.191h67.145c2.207 0 4-1.793 4-4 0-2.207-1.793-4-4-4h-67.145c-2.207 0-4 1.793-4 4 0 2.207 1.793 4 4 4z"/>
  <path d="m16.426 20.426h67.145c2.207 0 4-1.793 4-4s-1.793-4-4-4h-67.145c-2.207 0-4 1.793-4 4 0 2.2109 1.793 4 4 4z"/>
  <path d="m16.426 87.574h35.504c2.207 0 4-1.793 4-4s-1.793-4-4-4h-35.504c-2.207 0-4 1.793-4 4s1.793 4 4 4z"/>
 </g>
</svg>
