<svg height='100px' width='100px'  fill="#000000" xmlns="http://www.w3.org/2000/svg" data-name="Layer 1" viewBox="0 0 100 100" x="0px" y="0px"><title>Artboard 41 copy 73</title><path d="M30.72,28H69.28a1.5,1.5,0,0,0,0-3H30.72a1.5,1.5,0,0,0,0,3Z"></path><path d="M22,39.75H78a1.5,1.5,0,0,0,0-3H22a1.5,1.5,0,0,0,0,3Z"></path><path d="M30.72,48.5a1.5,1.5,0,0,0,0,3H69.28a1.5,1.5,0,0,0,0-3Z"></path><path d="M78,60.25H22a1.5,1.5,0,0,0,0,3H78a1.5,1.5,0,0,0,0-3Z"></path><path d="M69.28,72H30.72a1.5,1.5,0,0,0,0,3H69.28a1.5,1.5,0,0,0,0-3Z"></path></svg>