<?xml version="1.0" encoding="UTF-8"?>
<svg width="100pt" height="100pt" version="1.1" viewBox="0 0 100 100" xmlns="http://www.w3.org/2000/svg">
 <g>
  <path d="m22 28h38.559c0.82812 0 1.5-0.67188 1.5-1.5s-0.67188-1.5-1.5-1.5h-38.559c-0.82812 0-1.5 0.67188-1.5 1.5s0.67188 1.5 1.5 1.5z"/>
  <path d="m22 39.75h56c0.82812 0 1.5-0.67188 1.5-1.5s-0.67188-1.5-1.5-1.5h-56c-0.82812 0-1.5 0.67188-1.5 1.5s0.67188 1.5 1.5 1.5z"/>
  <path d="m22 51.5h38.559c0.82812 0 1.5-0.67188 1.5-1.5s-0.67188-1.5-1.5-1.5h-38.559c-0.82812 0-1.5 0.67188-1.5 1.5s0.67188 1.5 1.5 1.5z"/>
  <path d="m78 60.25h-56c-0.82812 0-1.5 0.67188-1.5 1.5s0.67188 1.5 1.5 1.5h56c0.82812 0 1.5-0.67188 1.5-1.5s-0.67188-1.5-1.5-1.5z"/>
  <path d="m60.559 72h-38.559c-0.82812 0-1.5 0.67188-1.5 1.5s0.67188 1.5 1.5 1.5h38.559c0.82812 0 1.5-0.67188 1.5-1.5s-0.67188-1.5-1.5-1.5z"/>
 </g>
</svg>
