<svg height='100px' width='100px'  fill="#000000" xmlns="http://www.w3.org/2000/svg" data-name="Layer 1" viewBox="0 0 100 100" x="0px" y="0px"><title>Artboard 41 copy 75</title><path d="M22,28H78a1.5,1.5,0,0,0,0-3H22a1.5,1.5,0,0,0,0,3Z"></path><path d="M78,36.75H22a1.5,1.5,0,0,0,0,3H78a1.5,1.5,0,0,0,0-3Z"></path><path d="M78,48.5H22a1.5,1.5,0,0,0,0,3H78a1.5,1.5,0,0,0,0-3Z"></path><path d="M78,60.25H22a1.5,1.5,0,0,0,0,3H78a1.5,1.5,0,0,0,0-3Z"></path><path d="M78,72H22a1.5,1.5,0,0,0,0,3H78a1.5,1.5,0,0,0,0-3Z"></path></svg>