<?xml version="1.0" encoding="UTF-8"?>
<svg width="100pt" height="100pt" version="1.1" viewBox="0 0 100 100" xmlns="http://www.w3.org/2000/svg">
 <path d="m27.941 47.059h35.293c4.875 0 8.8242-3.9492 8.8242-8.8242v-12.09c-5.8945-1.3398-10.293-6.6094-10.293-12.91 0-7.3086 5.9258-13.234 13.234-13.234s13.234 5.9258 13.234 13.234c0 6.3008-4.3984 11.57-10.293 12.91v12.09c0 8.1211-6.5859 14.707-14.707 14.707h-35.293v20.914c5.8945 1.3398 10.293 6.6094 10.293 12.91 0 7.3086-5.9258 13.234-13.234 13.234s-13.234-5.9258-13.234-13.234c0-6.3008 4.3984-11.57 10.293-12.91v-47.711c-5.8945-1.3398-10.293-6.6094-10.293-12.91 0-7.3086 5.9258-13.234 13.234-13.234s13.234 5.9258 13.234 13.234c0 6.3008-4.3984 11.57-10.293 12.91zm-2.9414-26.469c4.0625 0 7.3516-3.293 7.3516-7.3555 0-4.0586-3.2891-7.3516-7.3516-7.3516s-7.3516 3.293-7.3516 7.3516c0 4.0625 3.2891 7.3555 7.3516 7.3555zm0 73.527c4.0625 0 7.3516-3.293 7.3516-7.3516 0-4.0625-3.2891-7.3555-7.3516-7.3555s-7.3516 3.293-7.3516 7.3555c0 4.0586 3.2891 7.3516 7.3516 7.3516zm50-73.527c4.0625 0 7.3516-3.293 7.3516-7.3555 0-4.0586-3.2891-7.3516-7.3516-7.3516s-7.3516 3.293-7.3516 7.3516c0 4.0625 3.2891 7.3555 7.3516 7.3555z"/>
</svg>
