<?xml version="1.0" encoding="UTF-8"?>
<svg width="100pt" height="100pt" version="1.1" viewBox="0 0 100 100" xmlns="http://www.w3.org/2000/svg">
 <g>
  <path d="m99.965 7.7148v-0.24219c0-2.1055-1.0547-3.8945-2.5898-5.0977-1.2109-1.4258-2.9453-2.375-4.9531-2.375h-47.852c-3.6406 0-6.582 2.9453-6.582 6.5781v1.8828c0 3.6328 2.9414 6.5781 6.582 6.5781l29.812 0.003907-34.172 34.168c-2.5703 2.5664-2.5703 6.7383 0 9.3047l1.3281 1.3242c2.5703 2.5703 6.7344 2.5703 9.3047 0l34.082-34.078v29.562c0 3.6328 2.9453 6.5781 6.5781 6.5781h1.8789c3.6328 0 6.5859-2.9453 6.5859-6.5781l-0.007812-47.137c0.007812-0.16016 0.007812-0.3125 0.003906-0.47266z" fill-rule="evenodd"/>
  <path d="m84.918 79.652v-2.2734c0-3.625 2.9453-6.5781 6.5781-6.5781h1.8789c3.6328 0 6.5781 2.9492 6.5781 6.5781v15.34c0.054687 0.55078 0 1.0312-0.097656 1.5-0.26172 1.5703-1.0859 2.9492-2.2422 3.9297-1.2852 1.1562-2.9805 1.8555-4.8359 1.8555l-85.52-0.003906c-3.9922 0-7.2305-3.2344-7.2305-7.2305v-85.516c0-0.61328 0.078125-1.2109 0.22266-1.7773 0.51953-3.1094 3.2266-5.4766 6.4805-5.4766h15.738c3.6328 0 6.5742 2.9453 6.5742 6.582v1.8789c0 3.6367-2.9453 6.5781-6.5742 6.5781h-1.7852c-3.3477 0.66406-5.7812 3.5859-5.7812 7.0859v55.77c0 3.9922 3.2344 7.2305 7.2305 7.2305h55.77c3.3828 0.003906 6.2266-2.3281 7.0156-5.4727z"/>
 </g>
</svg>
