<?xml version="1.0" encoding="UTF-8"?>
<svg width="100pt" height="100pt" version="1.1" viewBox="0 0 100 100" xmlns="http://www.w3.org/2000/svg">
 <path d="m12 32h76c2.207 0 4-1.793 4-4s-1.793-4-4-4h-76c-2.207 0-4 1.793-4 4s1.793 4 4 4zm76 36h-76c-2.207 0-4 1.793-4 4s1.793 4 4 4h76c2.207 0 4-1.793 4-4s-1.793-4-4-4zm-30.348-20c1.707 0 2.6289-2.0039 1.5195-3.3008l-7.6523-8.9258c-0.79688-0.93359-2.2383-0.93359-3.0391 0l-7.6523 8.9258c-1.1094 1.2969-0.1875 3.3008 1.5195 3.3008zm-9.1719 16.227c0.79688 0.93359 2.2383 0.93359 3.0391 0l7.6523-8.9258c1.1094-1.2969 0.1875-3.3008-1.5195-3.3008h-15.305c-1.707 0-2.6289 2.0039-1.5195 3.3008z"/>
</svg>
