<?xml version="1.0" encoding="UTF-8"?>
<svg width="100pt" height="100pt" version="1.1" viewBox="0 0 100 100" xmlns="http://www.w3.org/2000/svg">
 <g>
  <path d="m57.516 64.621-8.8438-14.223 2.6523-1.6523 7.5 12.059 34.07-12.594-7.2891-10.664-35.605-13.91-37.234 14.543-10.469-15.859 40.184-14.855 8.1133 13.047 37.047 14.469 10.09 14.77zm-50.438-40.734 6.9062 10.461 33.418-13.055-6.2266-10.016z"/>
  <path d="m50.438 50.844h-0.875l-36.719-13.289 1.0625-2.9375 36.094 13.059 36.094-13.059 1.0625 2.9375z"/>
  <path d="m48.273 50.031h3.125v40.594h-3.125z"/>
  <path d="m50.395 92.188h-0.78906l-37.75-13.656-0.042969-42.441 3.125-0.003906 0.039062 40.25 35.023 12.672 35.02-12.672v-24.125h3.125v26.316z"/>
 </g>
</svg>
