<?xml version="1.0" encoding="UTF-8"?>
<svg width="100pt" height="100pt" version="1.1" viewBox="0 0 100 100" xmlns="http://www.w3.org/2000/svg">
 <path d="m49.75 9.0156c-0.33594 0.027344-0.66406 0.11328-0.96875 0.25l-36 16c-1.0859 0.48438-1.7852 1.5625-1.7812 2.75v44c0.007812 1.1758 0.70703 2.2383 1.7812 2.7188l36 16c0.77734 0.34375 1.6602 0.34375 2.4375 0l36-16c1.0742-0.47656 1.7734-1.543 1.7812-2.7188v-44c0.003906-1.1875-0.69531-2.2656-1.7812-2.75l-36-16c-0.46094-0.20312-0.96484-0.28906-1.4688-0.25zm0.25 6.25 28.625 12.75-28.625 12.719-28.625-12.719zm-33 17.344 30 13.344v37.438l-30-13.344zm66 0v37.438l-30 13.344v-37.438z"/>
</svg>
