<?xml version="1.0" encoding="UTF-8"?>
<svg width="100pt" height="100pt" version="1.1" viewBox="0 0 100 100" xmlns="http://www.w3.org/2000/svg">
 <path d="m55 8c-26.754 0-39 22.965-39 41 0 9.8633 1 21 10 32 4 6 11.355 11 19.375 11 6.0938 0 12.625-3 16.625-19 6-22 22-16 22-36 0-13-10.773-29-29-29zm-2 9c3.8672 0 7 3.1328 7 7s-3.1328 7-7 7-7-3.1328-7-7 3.1328-7 7-7zm-19 12c3.8672 0 7 3.1328 7 7s-3.1328 7-7 7-7-3.1328-7-7 3.1328-7 7-7zm-2.5 23c3.5898 0 6.5 2.9102 6.5 6.5s-2.9102 6.5-6.5 6.5-6.5-2.9102-6.5-6.5 2.9102-6.5 6.5-6.5zm10.5 19c3.3125 0 6 2.6875 6 6s-2.6875 6-6 6-6-2.6875-6-6 2.6875-6 6-6z"/>
</svg>
