<?xml version="1.0" encoding="UTF-8"?>
<svg width="100pt" height="100pt" version="1.1" viewBox="0 0 100 100" xmlns="http://www.w3.org/2000/svg">
 <path d="m8.0195 2.9102h84.027l0.6875 30.594h-8.207l-0.6875-8.7305c-0.42188-4.9688-1.8945-8.5039-4.4219-10.59-2.5312-2.082-6.5859-3.125-12.168-3.125-4.0547 0-6.8086 0.71484-8.2695 2.1523-1.4531 1.4336-2.1797 4.4258-2.1797 8.9766l-0.17188 55.848c0 4.4375 0.73438 7.375 2.207 8.8125 1.4727 1.4375 4.3555 2.1523 8.6406 2.1523h5.9688v8.0898h-46.891v-8.0898h6.9453c3.6797 0 6.2344-0.75391 7.6953-2.2695 1.4531-1.5117 2.1797-4.4023 2.1797-8.6953l-0.003906-56.07c0-4.3281-0.74219-7.2305-2.2344-8.6992-1.4922-1.4727-4.2695-2.2109-8.3242-2.2109-5.5859 0-9.6406 1.043-12.168 3.125-2.5234 2.0859-4 5.6211-4.4219 10.59l-0.6875 8.7305h-8.2656z"/>
</svg>
