<?xml version="1.0" encoding="UTF-8"?>
<svg width="100pt" height="100pt" version="1.1" viewBox="0 0 100 100" xmlns="http://www.w3.org/2000/svg">
 <path d="m73.195 0.69531h-71.25c-0.69531 0-1.25 0.55469-1.25 1.25v22.082c0 0.69531 0.55469 1.25 1.25 1.25h14.305c0.55469 0 0.97266-0.27734 1.25-0.83203l1.9453-5c0.14063-0.55469 0.69531-0.83203 1.25-0.83203h19.027c0.69531 0 1.25 0.55469 1.25 1.25v77.918c0 0.69531 0.55469 1.25 1.25 1.25h15.555c0.69531 0 1.25-0.55469 1.25-1.25v-77.641c0-0.69531 0.55469-1.25 1.25-1.25h19.027c0.55469 0 0.97266 0.27734 1.25 0.83203l1.9453 5c0.14062 0.55469 0.69531 0.83203 1.25 0.83203h14.305c0.69531 0 1.25-0.55469 1.25-1.25v-22.359c0-0.69531-0.55469-1.25-1.25-1.25z"/>
</svg>
