<?xml version="1.0" encoding="iso-8859-1"?>
<!-- Generator: Adobe Illustrator 18.0.0, SVG Export Plug-In . SVG Version: 6.00 Build 0)  -->
<!DOCTYPE svg PUBLIC "-//W3C//DTD SVG 1.1//EN" "http://www.w3.org/Graphics/SVG/1.1/DTD/svg11.dtd">
<svg version="1.1" id="Capa_1" xmlns="http://www.w3.org/2000/svg" xmlns:xlink="http://www.w3.org/1999/xlink" x="0px" y="0px"
	 viewBox="0 0 488.189 488.189" style="enable-background:new 0 0 488.189 488.189;" xml:space="preserve">
<g>
	<path d="M446.995,40.484h-405.8C18.48,40.484,0,58.968,0,81.682v324.826c0,22.715,18.48,41.196,41.194,41.196h405.8
		c22.714,0,41.194-18.482,41.194-41.196V81.682C488.189,58.968,469.709,40.484,446.995,40.484z M41.194,75.391h405.8
		c3.466,0,6.298,2.822,6.298,6.291v83.88H34.897v-83.88C34.897,78.213,37.728,75.391,41.194,75.391z M446.995,412.798h-405.8
		c-3.467,0-6.298-2.823-6.298-6.289v-206.04h418.396v206.04C453.293,409.974,450.46,412.798,446.995,412.798z"/>
	<path d="M85.988,142.229c12.82,0,23.224-10.395,23.224-23.208c0-12.813-10.404-23.207-23.224-23.207
		c-12.806,0-23.192,10.395-23.192,23.207C62.796,131.834,73.182,142.229,85.988,142.229z"/>
	<path d="M148.119,142.229c12.801,0,23.187-10.395,23.187-23.208c0-12.813-10.385-23.207-23.187-23.207
		c-12.82,0-23.225,10.395-23.225,23.207C124.895,131.834,135.299,142.229,148.119,142.229z"/>
	<path d="M210.212,142.229c12.82,0,23.224-10.395,23.224-23.208c0-12.813-10.404-23.207-23.224-23.207
		c-12.802,0-23.188,10.395-23.188,23.207C187.025,131.834,197.41,142.229,210.212,142.229z"/>
</g>
<g>
</g>
<g>
</g>
<g>
</g>
<g>
</g>
<g>
</g>
<g>
</g>
<g>
</g>
<g>
</g>
<g>
</g>
<g>
</g>
<g>
</g>
<g>
</g>
<g>
</g>
<g>
</g>
<g>
</g>
</svg>
