<svg width="20" height="20" viewBox="0 0 20 20" fill="none" xmlns="http://www.w3.org/2000/svg">
<path d="M18.9997 5.60495e-05L4.00034 5.47383e-05C3.73503 5.47151e-05 3.48098 0.105989 3.2935 0.293492C3.10601 0.480994 3.00006 0.735025 3.00006 1.00033L3.00006 8.9997C3.00006 9.55187 3.44817 9.99998 4.00034 9.99998C4.55251 9.99998 5.00062 9.55187 5.00062 8.9997L5.00062 1.99966L17.9995 2.00059L17.9995 14.9994L10.9994 14.9994L11.0004 14.9994C10.4482 14.9994 10.0001 15.4475 10.0001 15.9997C10.0001 16.5519 10.4482 17 11.0004 17L18.9997 17C19.5519 17 20 16.5519 20 15.9997L20 1.00031C20 0.735005 19.8941 0.48095 19.7066 0.293469C19.5191 0.105989 19.265 3.4101e-05 18.9997 3.40778e-05L18.9997 5.60495e-05Z" fill="#767676"/>
<path d="M0.120055 19.4389C0.151928 19.5186 0.199738 19.5899 0.260674 19.6489L0.320672 19.7286L0.320672 19.7295C0.40223 19.8008 0.493165 19.8608 0.590661 19.9095C0.717217 19.9733 0.857842 20.0042 1.00032 19.9995L5.9998 19.9995C6.55197 19.9995 7.00008 19.5514 7.00008 18.9993C7.00009 18.4471 6.55198 17.999 5.99981 17.999L3.40959 17.999L12.7092 8.70967L12.7102 8.70967C12.8995 8.52217 13.0055 8.26624 13.0055 8.00002C13.0055 7.73283 12.8995 7.47785 12.7102 7.28943C12.5217 7.10006 12.2667 6.99412 11.9996 6.99412C11.7333 6.99412 11.4774 7.10005 11.2899 7.28943L2.00061 16.5891L2.00061 13.9998C2.00061 13.4476 1.5525 12.9995 1.00033 12.9995C0.448157 12.9995 4.70731e-05 13.4476 4.70248e-05 13.9998L4.65877e-05 18.9993C0.00285902 19.1193 0.0262964 19.2374 0.0703562 19.3489C0.0834808 19.3808 0.100355 19.4118 0.120042 19.4389L0.120055 19.4389Z" fill="#767676"/>
</svg>
