<svg width="22" height="22" viewBox="0 0 22 22" fill="none" xmlns="http://www.w3.org/2000/svg">
<g clip-path="url(#clip0)">
<path d="M10.0218 1.76172C10.0218 0.788898 9.26953 0 8.34192 0H2.37799C1.45039 0 0.698151 0.788898 0.698151 1.76172V8.01632C0.698151 8.98913 1.45039 9.77803 2.37799 9.77803H8.34192C9.26953 9.77803 10.0218 8.98913 10.0218 8.01632V1.76172Z" fill="#767676"/>
<path d="M21.6764 1.76172C21.6764 0.788898 20.9241 0 19.9965 0H14.0326C13.105 0 12.3528 0.788898 12.3528 1.76172V8.01632C12.3528 8.98913 13.105 9.77803 14.0326 9.77803H19.9965C20.9241 9.77803 21.6764 8.98913 21.6764 8.01632V1.76172Z" fill="#767676"/>
<path d="M10.0222 13.9836C10.0222 13.0108 9.26999 12.2219 8.34238 12.2219H2.37845C1.45084 12.2219 0.698608 13.0108 0.698608 13.9836V20.2382C0.698608 21.2111 1.45084 22 2.37845 22H8.34238C9.26999 22 10.0222 21.2111 10.0222 20.2382V13.9836Z" fill="#767676"/>
<path d="M21.6764 13.9836C21.6764 13.0108 20.9241 12.2219 19.9965 12.2219H14.0326C13.105 12.2219 12.3528 13.0108 12.3528 13.9836V20.2382C12.3528 21.2111 13.105 22 14.0326 22H19.9965C20.9241 22 21.6764 21.2111 21.6764 20.2382V13.9836Z" fill="#767676"/>
</g>
<defs>
<clipPath id="clip0">
<rect width="20.9776" height="22" fill="white" transform="translate(0.698761)"/>
</clipPath>
</defs>
</svg>
