<svg width="100" height="100" viewBox="0 0 100 100" fill="none" xmlns="http://www.w3.org/2000/svg">
<path fill-rule="evenodd" clip-rule="evenodd" d="M37.9909 54.187L37.9909 54.4292C37.9909 56.5347 39.0456 58.3237 40.5807 59.5269C41.7916 60.9527 43.526 61.9019 45.5338 61.9019L93.3858 61.9019C97.0264 61.9019 99.9678 58.9566 99.9678 55.3238L99.9678 53.441C99.9678 49.8082 97.0264 46.8629 93.3858 46.8629L63.5738 46.859L97.7458 12.6909C100.316 10.1245 100.316 5.95265 97.7458 3.38625L96.4177 2.06205C93.8474 -0.508254 89.6833 -0.508253 87.113 2.06205L53.031 36.1401L53.031 6.57805C53.031 2.94525 50.0857 -4.90449e-05 46.4529 -4.87273e-05L44.574 -4.85631e-05C40.9412 -4.82455e-05 37.9881 2.94525 37.9881 6.57805L37.9959 53.7151C37.9881 53.8752 37.9881 54.0276 37.992 54.1877L37.9909 54.187Z" fill="black"/>
<path d="M84.918 79.652V77.3786C84.918 73.7536 87.8633 70.8005 91.4961 70.8005H93.375C97.0078 70.8005 99.9531 73.7497 99.9531 77.3786V92.7186C100.008 93.2694 99.9531 93.7498 99.8555 94.2186C99.5937 95.7889 98.7696 97.1678 97.6133 98.1483C96.3281 99.3045 94.6328 100.004 92.7774 100.004L7.25736 99.9999C3.26516 99.9999 0.0268555 96.7655 0.0268555 92.7694V7.25341C0.0268555 6.64013 0.10498 6.04251 0.249515 5.47611C0.769045 2.36671 3.47612 -0.000488281 6.73002 -0.000488281H22.468C26.1008 -0.000488281 29.0422 2.94481 29.0422 6.58151V8.46041C29.0422 12.0971 26.0969 15.0385 22.468 15.0385H20.6828C17.3351 15.7026 14.9016 18.6244 14.9016 22.1244V77.8944C14.9016 81.8866 18.136 85.1249 22.1321 85.1249H77.9021C81.2849 85.1288 84.1287 82.7968 84.9177 79.6522L84.918 79.652Z" fill="black"/>
</svg>
