<?xml version="1.0" encoding="UTF-8"?>
<svg width="100pt" height="100pt" version="1.1" viewBox="0 0 100 100" xmlns="http://www.w3.org/2000/svg">
 <g>
  <path d="m48.91 8.8594c-10.719 0.28516-20.906 4.75-28.379 12.445-7.4688 7.6914-11.637 18.004-11.605 28.73 0 14.672 7.832 28.227 20.539 35.562 12.707 7.3359 28.363 7.3359 41.07 0 12.707-7.3359 20.539-20.891 20.539-35.562 0.03125-11.102-4.4336-21.746-12.375-29.504-7.9453-7.7539-18.688-11.965-29.789-11.672zm1.082 7.418c0.33203-0.003906 0.60937 0.25 0.63672 0.57812v3.5117c-0.027344 0.32812-0.30078 0.57812-0.62891 0.57812s-0.60156-0.25-0.62891-0.57812v-3.5117c0.027344-0.32422 0.29688-0.57422 0.62109-0.57812zm-14.418 3.2617c0.24609-0.015624 0.48047 0.11328 0.60156 0.33203l1.5234 3.1602c0.14453 0.3125 0.011719 0.6875-0.30078 0.83594-0.3125 0.15234-0.6875 0.023437-0.83984-0.28906l-1.5195-3.1602h-0.003906c-0.078125-0.1875-0.0625-0.40234 0.042969-0.57812 0.10938-0.17188 0.29297-0.28516 0.49609-0.30078zm28.793 0c0.21484-0.003906 0.41797 0.097657 0.53906 0.27344 0.12109 0.17969 0.14453 0.40625 0.0625 0.60547l-1.5234 3.1602h-0.003906c-0.15234 0.3125-0.52734 0.44141-0.83984 0.28906-0.3125-0.14844-0.44531-0.52344-0.30078-0.83594l1.5234-3.1602c0.10938-0.19922 0.31641-0.32422 0.54297-0.33203zm14.988 6.2031h-0.003907 0.023438c0.33203-0.011719 0.64062 0.17187 0.78516 0.47266 0.14844 0.29688 0.10547 0.65234-0.10547 0.91016l-24.859 29.418-34.219 17.695c-0.35547 0.1875-0.79687 0.09375-1.0508-0.22266-0.25-0.3125-0.24219-0.76172 0.015625-1.0703l24.863-29.418 34.223-17.695v-0.003906c0.10156-0.050781 0.21484-0.078125 0.32812-0.085937zm-55.309 2.9727h-0.003906c0.14844-0.003906 0.29688 0.046875 0.41406 0.14062l2.7461 2.1875h-0.003906c0.25 0.22266 0.28516 0.60547 0.074219 0.86719-0.20703 0.26172-0.58594 0.31641-0.85938 0.12109l-2.75-2.1875c-0.20703-0.16406-0.29297-0.44531-0.20703-0.69922 0.085938-0.25 0.32031-0.42578 0.58594-0.42969zm-6.4336 13.301h-0.003906 0.0625c0.042969 0.003906 0.082031 0.011719 0.125 0.023437l3.4219 0.78516c0.32422 0.09375 0.51953 0.42578 0.44141 0.75391s-0.39844 0.53906-0.73047 0.47656l-3.4219-0.78125v0.003906c-0.3125-0.066406-0.52344-0.35156-0.5-0.67188 0.023438-0.31641 0.28125-0.56641 0.60156-0.58203zm64.746 0h-0.003906c0.32422 0 0.59375 0.24219 0.62891 0.56641 0.035156 0.32031-0.17578 0.61719-0.49219 0.6875l-3.4219 0.78125c-0.33203 0.058594-0.65234-0.15234-0.73047-0.48047-0.078125-0.32812 0.11719-0.66016 0.44141-0.75391l3.4258-0.78516v0.003906c0.046875-0.015625 0.097657-0.023437 0.14844-0.027344zm-61.266 13.984-0.003906 0.003906c0.31641 0.007813 0.57812 0.24609 0.61328 0.5625s-0.16797 0.60938-0.47656 0.68359l-3.4258 0.78516c-0.34375 0.078125-0.68359-0.13672-0.76172-0.47656-0.078124-0.33984 0.13672-0.67969 0.47656-0.76172l3.4219-0.77734c0.046875-0.015625 0.10156-0.023437 0.15234-0.023437zm57.789 0-0.003906 0.003906c0.0625-0.003906 0.12891 0.003906 0.19141 0.023438l3.4219 0.77734c0.33984 0.078124 0.55078 0.41797 0.47266 0.76172-0.078125 0.33984-0.41797 0.55469-0.75781 0.47656l-3.4258-0.78516c-0.30469-0.070312-0.51172-0.35547-0.48828-0.66797 0.027343-0.3125 0.27344-0.55859 0.58594-0.58203zm-5.7031 11.895-0.003907 0.003907c0.14844-0.003907 0.29297 0.042968 0.41016 0.13672l2.75 2.1875c0.27344 0.21875 0.31641 0.61719 0.097656 0.89062-0.21875 0.27344-0.61328 0.32031-0.89062 0.10156l-2.7461-2.1875h0.003906c-0.21094-0.16406-0.29297-0.44141-0.21094-0.69531 0.085937-0.25391 0.31641-0.42578 0.58594-0.43359zm-36.074 8.2617-0.007813 0.003906c0.21484-0.007812 0.41797 0.097656 0.53906 0.27344 0.125 0.17969 0.14453 0.40625 0.0625 0.60547l-1.5234 3.1602c-0.16797 0.28906-0.52734 0.39844-0.82422 0.25391-0.30078-0.14453-0.4375-0.49219-0.31641-0.80078l1.5195-3.1602 0.003906-0.003907c0.10938-0.19531 0.3125-0.32422 0.53906-0.32812zm25.77 0-0.007812 0.003906c0.23828-0.007812 0.46094 0.12109 0.57422 0.32812l1.5234 3.1602 0.003906 0.003906c0.14453 0.3125 0.011719 0.6875-0.30078 0.83594-0.3125 0.14844-0.6875 0.019531-0.84375-0.28906l-1.5234-3.1602c-0.082031-0.19531-0.0625-0.41406 0.050781-0.58984 0.11328-0.17578 0.30859-0.28516 0.51563-0.28906zm-12.879 2.9609-0.003906 0.003906c0.33203-0.007813 0.60937 0.24609 0.63672 0.57812v3.5117c-0.027344 0.32812-0.30078 0.57812-0.62891 0.57812s-0.60156-0.25-0.62891-0.57812v-3.5117c0.023437-0.32422 0.29297-0.57422 0.62109-0.57812z"/>
  <path d="m48.73 4.1836c-11.934 0.33203-23.266 5.3086-31.586 13.875-8.3164 8.5625-12.961 20.035-12.945 31.977-0.003907 12.148 4.8203 23.801 13.41 32.391 8.5898 8.5938 20.242 13.418 32.391 13.418s23.801-4.8242 32.391-13.418c8.5898-8.5898 13.414-20.242 13.41-32.391 0.015625-12.379-4.9766-24.238-13.844-32.875-8.8672-8.6367-20.852-13.32-33.227-12.977zm0.46484 3.082v0.003906c11.441-0.21875 22.484 4.2031 30.613 12.262 8.125 8.0547 12.645 19.059 12.527 30.504 0.12109 11.305-4.2891 22.188-12.242 30.223-7.9531 8.0352-18.789 12.559-30.094 12.559s-22.141-4.5234-30.094-12.559c-7.9531-8.0352-12.363-18.918-12.242-30.223-0.11719-11.164 4.1836-21.922 11.965-29.934 7.7773-8.0078 18.402-12.621 29.566-12.832z"/>
  <path d="m53.812 55.832-31.527 16.305 22.91-27.109z"/>
 </g>
</svg>
