<?xml version="1.0" encoding="UTF-8"?>
<svg width="250px" height="250px" viewBox="0 0 250 250" version="1.1" xmlns="http://www.w3.org/2000/svg" xmlns:xlink="http://www.w3.org/1999/xlink">
    <!-- Generator: Sketch 61 (89581) - https://sketch.com -->
    <title>Square</title>
    <desc>Created with Sketch.</desc>
    <g id="Square" stroke="none" stroke-width="1" fill="none" fill-rule="evenodd">
        <rect id="Rectangle" fill="#2E3B4E" x="0" y="0" width="250" height="250"></rect>
        <g id="square" transform="translate(45.000000, 45.000000)" fill="#FFFFFF" fill-rule="nonzero">
            <path d="M133.108337,-9.89698936e-07 L26.7088324,-9.89698936e-07 C11.9579516,-9.89698936e-07 0,11.9579516 0,26.7088324 L0,133.108337 C0,147.859218 11.9579516,159.817169 26.7088324,159.817169 L133.108337,159.817169 C140.192255,159.817169 146.986311,157.004484 151.995397,151.995397 C157.004484,146.986311 159.81717,140.192255 159.81717,133.108337 L159.81717,26.7088324 C159.819097,19.6246189 157.005757,12.830003 151.996462,7.82070741 C146.987166,2.81141183 140.19255,-0.00192741501 133.108337,-9.89698936e-07 Z M130.762143,122.34345 C130.760138,126.995559 126.988296,130.765776 122.336186,130.765776 L37.4991426,130.765776 C35.2644397,130.765776 33.1208817,129.87993 31.540027,128.300438 C29.9591723,126.720945 29.0695525,124.578153 29.0695525,122.34345 L29.0695525,37.5027745 C29.0695525,35.266813 29.9563946,33.1221538 31.5374583,31.5410902 C33.118522,29.9600265 35.2631811,29.0731844 37.4991426,29.0731844 L122.332554,29.0731844 C124.567886,29.0731844 126.711612,29.9614157 128.29189,31.5423749 C129.872168,33.123334 130.759475,35.2674424 130.758512,37.5027745 L130.758512,122.34345 L130.762143,122.34345 Z" id="Shape"></path>
            <path d="M62.9513452,101.703486 C60.272972,101.695473 58.1076571,99.5187793 58.1136708,96.8404008 L58.1136708,62.9767683 C58.1136708,60.2928103 60.2782828,58.1136834 62.9513452,58.1136834 L96.865824,58.1136834 C99.5461501,58.1136834 101.703486,60.2928103 101.703486,62.9767683 L101.703486,96.8404008 C101.703486,99.520727 99.5461501,101.703486 96.865824,101.703486 L62.9513452,101.703486 Z" id="Path"></path>
        </g>
    </g>
</svg>