<?xml version="1.0" encoding="UTF-8"?>
<svg width="100pt" height="100pt" version="1.1" viewBox="0 0 100 100" xmlns="http://www.w3.org/2000/svg">
 <path d="m80.516 90.781h-61.031c-6.1445 0-10.777-2.168-13.051-6.1016-2.2734-3.9375-1.832-9.0352 1.2383-14.355l30.516-52.852c3.0703-5.3203 7.2656-8.25 11.812-8.25s8.7422 2.9297 11.812 8.25l30.516 52.852c3.0703 5.3203 3.5117 10.418 1.2383 14.355-2.2734 3.9336-6.9062 6.1016-13.051 6.1016zm-24.289-18.602c0-3.1719-2.5703-5.7422-5.7422-5.7422s-5.7422 2.5703-5.7422 5.7422c0 3.1719 2.5703 5.7422 5.7422 5.7422 3.1719 0.003906 5.7422-2.5703 5.7422-5.7422zm0.15625-34.566c0-3.2578-2.6406-5.8984-5.8984-5.8984s-5.8984 2.6406-5.8984 5.8984l1.3945 20.934h0.019531c0.20312 2.3125 2.1211 4.1328 4.4844 4.1328 2.1875 0 4.0117-1.5508 4.4336-3.6133 0.035156-0.16797 0.035156-0.34375 0.050781-0.51953h0.039062z"/>
</svg>
