<svg height='100px' width='100px'  fill="#000000" xmlns="http://www.w3.org/2000/svg" viewBox="0 0 52 49.8" x="0px" y="0px"><title>leading</title><path d="M138,493v2a1.8,1.8,0,0,1-1.4,2H105.4a1.8,1.8,0,0,1-1.4-2v-2a1.8,1.8,0,0,1,1.4-2h31.2A1.8,1.8,0,0,1,138,493Zm0,24v2a1.8,1.8,0,0,1-1.4,2H105.4a1.8,1.8,0,0,1-1.4-2v-2a1.8,1.8,0,0,1,1.4-2h31.2A1.8,1.8,0,0,1,138,517Zm0-12v2a1.8,1.8,0,0,1-1.4,2H105.4a1.8,1.8,0,0,1-1.4-2v-2a1.8,1.8,0,0,1,1.4-2h31.2A1.8,1.8,0,0,1,138,505Zm0,24v2a1.8,1.8,0,0,1-1.4,2H105.4a1.8,1.8,0,0,1-1.4-2v-2a1.8,1.8,0,0,1,1.4-2h31.2A1.8,1.8,0,0,1,138,529ZM93,493H90v36h3V493Zm-6.5,4H96.8a0.6,0.6,0,0,0,.4-0.9l-5.1-8.7a0.5,0.5,0,0,0-.9,0l-5.1,8.7A0.6,0.6,0,0,0,86.5,497Zm-0.4,30.9,5.1,8.7a0.5,0.5,0,0,0,.9,0l5.1-8.7a0.6,0.6,0,0,0-.4-0.9H86.5A0.6,0.6,0,0,0,86.1,527.9Z" transform="translate(-86 -487.1)"></path></svg>