<?xml version="1.0" encoding="UTF-8"?>
<svg width="100pt" height="100pt" version="1.1" viewBox="0 0 100 100" xmlns="http://www.w3.org/2000/svg">
 <path d="m50 3.332c-25.734 0-46.668 20.934-46.668 46.668s20.934 46.668 46.668 46.668 46.668-20.934 46.668-46.668-20.934-46.668-46.668-46.668zm-11.508 84.391c-2.9727-1.543-7.8125-4.9961-6.8516-10.785 0.42969-2.5781 1.6836-5.3438 3.4727-8.207 5.125 5.9883 11.758 10.039 19.41 11.605 4.3477 0.89062 8.668 0.83984 12.594-0.027344 0.21094 2.6211-0.55859 4.8047-2.3164 6.5352-4.9688 4.8945-17.758 5.3242-26.309 0.87891zm23.66-73.211c4.8516 4.8516 3.4688 10.852-0.80859 17.484-2.3984-0.59375-4.9023-0.73047-7.4844-0.40625-5.8359 0.73047-11.609 3.8438-16.949 8.2383-2.6094-3.7031-5.7734-6.1445-9.4648-7.2852 1.0859-11.477 6.9336-18.789 12.809-21.934 7.3398-3.9336 15.527-2.4727 21.898 3.9023zm-19.16 44c3.6602 4.0508 8.8438 6.5352 15.203 7.1914 1.2891 0.125 2.5938 0.17969 3.9258 0.16406 0.72266 2.8086 1.7305 5.5742 3.0547 8.2148 0.51953 1.043 0.94141 2.0352 1.2539 2.9883-3.4727 0.76172-7.332 0.80469-11.234 0.007813-7.1914-1.4727-13.398-5.3984-18.129-11.23 1.7305-2.4062 3.7617-4.8594 5.9258-7.3359zm-1.4141-9.0391c-0.84375-2.5352-1.8086-4.7969-2.8984-6.793 4.9648-4.168 10.289-7.1211 15.598-7.7852 1.7031-0.21094 3.3633-0.18359 4.9844 0.09375-3.3086 4.4453-7.6367 9.1328-12.055 13.918-1.3242 1.4336-2.6523 2.875-3.9648 4.3164-0.63672-1.1133-1.1992-2.3594-1.6641-3.75zm23.152 12.898c-1.6562-8.7305-0.36719-17.426 2.3906-23.93 2.8906 2.1289 5.6055 5.1719 8.1406 9.125 2.2422 3.5039 3.7227 6.8906 4.4258 10.07-4.4727 2.5117-9.7539 4.2188-14.957 4.7344zm-3.3281 0.16406c-0.96484-0.003906-1.9258-0.054687-2.8672-0.14844-4.3008-0.44141-9.5352-1.9844-13.324-6.3672 1.4609-1.6172 2.957-3.2383 4.4414-4.8477 4.6875-5.0742 9.4336-10.211 13.008-15.227 0.51953 0.20703 1.0352 0.4375 1.5469 0.69531-3.1641 7.1953-4.4414 16.645-2.8047 25.895zm-27.02-20.512c-1.9922 1.832-3.9141 3.8281-5.7383 5.9219-0.125-0.53125-0.23828-1.0664-0.34766-1.6016-0.74219-3.7227-1.0586-7.168-1.0312-10.34 2.7227 1.0508 5.0977 3.0664 7.1172 6.0195zm1.7383 2.9414c0.84766 1.6484 1.6133 3.5039 2.3008 5.5625 0.64062 1.9258 1.4844 3.6914 2.5078 5.2852-2.1289 2.4219-4.1523 4.832-5.9336 7.2305-2.1875-3.2734-3.9688-7.0234-5.2812-11.18 2.0195-2.4492 4.1641-4.7852 6.4062-6.8984zm29.371 20.684c5.0859-0.55469 10.184-2.1328 14.66-4.4609 0.11719 3.2852-0.69922 6.2852-2.4648 8.8516-1.8633 2.7148-4.6875 4.7852-8.0664 6.0742-0.35938-1.1055-0.84375-2.2852-1.4648-3.5352-1.1328-2.2539-2.0078-4.5859-2.6641-6.9297zm12.578-19.883c-2.9062-4.5312-6.0586-7.9922-9.4492-10.383 1.6719-2.9766 3.6758-5.2578 5.8086-6.5391 5.9648-3.5859 11.027 0.98438 14.219 5.4609 3.3125 4.6406 3.6094 9.6016 0.85156 14.348-1.5312 2.6367-3.9141 5.0547-6.8164 7.1016-0.80859-2.9805-2.2578-6.3125-4.6133-9.9883zm8.9609-18.188c-6.2969-5.2734-11.91-3.0469-14.328-1.5898-2.7031 1.625-5.0781 4.2852-6.9883 7.6406-0.37891-0.19141-0.76172-0.375-1.1484-0.53906 4.6914-7.5586 6.125-14.754-0.058594-20.934-2.0156-2.0195-4.2383-3.5703-6.5586-4.7266 12.336 2.2891 22.797 9.7969 29.082 20.148zm-49.832-18.984c-6.0898 3.9062-11.836 11.656-13.035 23.289-5.8906-0.55859-11.523 1.9648-15.137 4.1016 4.4648-13.051 14.949-23.309 28.172-27.391zm-29.566 32.332c1.8398-1.3945 9.0742-6.4492 16.316-5.7148-0.09375 3.6016 0.23047 7.5312 1.082 11.781 0.28125 1.4062 0.60938 2.7812 0.98047 4.1172-5.707 7.1914-10.25 15.102-12.922 21.516-4.0469-6.5898-6.4219-14.32-6.4219-22.625 0-3.1133 0.34375-6.1484 0.96484-9.0742zm7.7305 35.039c2.1602-5.8672 6.4062-13.691 11.887-20.973 1.4727 4.0625 3.3945 7.7383 5.6914 10.969-2.3516 3.5703-4.0312 7.0742-4.5898 10.434-0.95703 5.7461 2.1758 10.953 8.6016 14.289 1.3789 0.71484 2.9258 1.293 4.5312 1.8047-10.637-2.1211-19.836-8.1602-26.121-16.523zm50.543 14.316c0.43359-0.32812 0.85156-0.67578 1.2383-1.0547 2.0117-1.9805 3.8398-5.1289 3.2344-9.8477 4.1953-1.5156 7.7383-4.0586 10.062-7.4453 1.6914-2.4648 3.6094-6.6836 2.9297-12.602 3.8398-2.4922 7.0117-5.5703 9.0117-9.0039 0.33984-0.58594 0.61719-1.1836 0.88281-1.7812 0.011719 0.48438 0.066406 0.96094 0.066406 1.4531 0 18.309-11.371 33.934-27.426 40.281z"/>
</svg>
