<?xml version="1.0" encoding="UTF-8"?>
<svg width="100pt" height="100pt" version="1.1" viewBox="0 0 100 100" xmlns="http://www.w3.org/2000/svg">
 <g>
  <path d="m37.918 41.875l3.75 2.707 2.918-2.918-2.707-3.75c0.625-1.043 1.25-2.5 1.457-3.75l4.582-0.83203v-4.168l-4.582-0.83203c-0.41797-1.25-0.83203-2.707-1.457-3.75l2.707-3.75-2.918-2.918-3.75 2.707c-1.043-0.625-2.5-1.25-3.75-1.457l-0.83594-4.582h-4.168l-0.83203 4.582c-1.25 0.41797-2.707 0.83203-3.75 1.457l-3.75-2.707-2.918 2.918 2.707 3.75c-0.625 1.043-1.25 2.5-1.457 3.75l-4.582 0.83594v4.168l4.582 0.83203c0.41797 1.25 0.83203 2.707 1.457 3.75l-2.707 3.75 2.918 2.918 3.75-2.707c1.043 0.625 2.5 1.25 3.75 1.457l0.83594 4.582h4.168l0.83203-4.582c1.25-0.21094 2.5-0.83594 3.75-1.4609zm-12.918-10.625c0-3.543 2.707-6.25 6.25-6.25s6.25 2.707 6.25 6.25-2.707 6.25-6.25 6.25-6.25-2.707-6.25-6.25z"/>
  <path d="m73.332 68.957l7.5 2.082 2.293-5.832-6.457-3.543c0.20703-1.457 0.41797-3.125 0.20703-4.582l6.25-3.543-2.5-5.832-6.25 1.668c-1.043-1.668-2.293-2.918-3.543-3.957l1.668-6.043-5.832-2.293-2.918 5c-1.875-0.41797-3.957-0.41797-6.043-0.20703l-2.918-5-5.6211 2.707 1.457 5.418c-1.668 1.25-3.125 2.707-4.168 4.375l-5.625-1.457-2.293 5.832 5.418 3.125c-0.20703 1.875 0 3.543 0.20703 5.418l-5.625 3.332 2.5 5.832 6.875-1.875c1.043 1.25 2.082 2.293 3.543 3.125l-1.875 7.082 5.832 2.293 3.75-6.668c1.25 0.20703 2.707 0 3.957-0.20703l3.957 6.875 5.832-2.5-2.082-7.5c0.62891-1.0391 1.6719-2.082 2.5039-3.125zm-21.25-10.625c0-4.582 3.75-8.332 8.332-8.332 4.582 0 8.332 3.75 8.332 8.332s-3.75 8.332-8.332 8.332c-4.582 0.003907-8.332-3.7461-8.332-8.332z"/>
 </g>
</svg>
