<?xml version="1.0" encoding="UTF-8"?>
<svg width="100pt" height="100pt" version="1.1" viewBox="0 0 100 100" xmlns="http://www.w3.org/2000/svg">
 <path d="m51.406 74.281v-27.156c0.57812 0.10156 1.1641 0.15234 1.75 0.15625 2.1484-0.042969 4.2734-0.5 6.25-1.3438 5.0195-2.1367 9.5586-5.2617 13.344-9.1875 8.875-8.9375 9.125-22.719 9.125-23.312 0-0.82812-0.32812-1.625-0.91406-2.2109-0.58594-0.58594-1.3828-0.91406-2.2109-0.91406-0.59375 0-14.375 0.25-23.281 9.1875-5.0195 4.6289-8.6211 10.59-10.375 17.188-1.1797-1.5742-2.4609-3.0664-3.8438-4.4688-5.5273-4.8828-12.594-7.6719-19.969-7.875-0.84766-0.050781-1.6719 0.28516-2.25 0.90625-0.59375 0.59766-0.91797 1.4102-0.90625 2.25 0.20312 7.3594 2.9766 14.414 7.8438 19.938 5.1562 5.1562 11.688 9.0312 16.812 9.0312 0.80469-0.011719 1.6055-0.13672 2.375-0.375v18.344c-8.4336 0.82422-16.445 4.082-23.062 9.375-0.73438 0.48438-1.2266 1.2578-1.3633 2.1289-0.13281 0.86719 0.10547 1.7539 0.65625 2.4375s1.3672 1.1055 2.2461 1.1602c0.87891 0.050782 1.7383-0.26953 2.3672-0.88281 6.7539-5.375 15.145-8.2734 23.773-8.2188 8.6328 0.058594 16.98 3.0703 23.664 8.5312 0.63672 0.53125 1.4609 0.78906 2.2891 0.71094 0.82422-0.074219 1.5859-0.47656 2.1172-1.1172 0.53125-0.63672 0.78906-1.4609 0.71094-2.2891-0.074219-0.82422-0.47656-1.5859-1.1172-2.1172-7.3711-6.0391-16.512-9.5039-26.031-9.875zm8.4375-50.406c4.3047-3.8672 9.6953-6.3086 15.438-7-0.69141 5.7422-3.1328 11.133-7 15.438-3.1797 3.3281-6.9922 5.9844-11.219 7.8125-2.9375 1.1562-4.9062 1.0312-5.5 0.46875 0 0 0-0.25-0.15625-0.34375v-1.0625c-0.015625-0.35938-0.078125-0.71875-0.1875-1.0625 1.3828-5.5078 4.3867-10.473 8.625-14.25zm-16.094 26.125c-0.84375 0.8125-6.6875-0.3125-13.344-6.9688-3.043-3.3672-5.0117-7.5703-5.6562-12.062 4.4883 0.63281 8.6797 2.6055 12.031 5.6562 6.6562 6.6562 7.7812 12.5 6.9688 13.375z"/>
</svg>
