<?xml version="1.0" encoding="UTF-8"?>
<svg width="100pt" height="100pt" version="1.1" viewBox="0 0 100 100" xmlns="http://www.w3.org/2000/svg">
 <path d="m41.516 81.113c-6.2305 6.2305-16.395 6.2305-22.629 0-6.2305-6.2305-6.2305-16.395 0-22.629l14.141-14.141c5.9414-5.9414 15.438-6.2695 21.723-0.86328 1.2656 1.0781 1.4141 2.9805 0.33203 4.2422-1.0781 1.2617-2.9805 1.4102-4.2422 0.33203-3.9531-3.4023-9.7969-3.2422-13.566 0.53125l-14.141 14.141c-3.9531 3.9531-3.9531 10.188 0 14.141 3.9531 3.9531 10.188 3.9531 14.141 0l13.434-13.434c0.55859-0.57422 1.3281-0.89844 2.1289-0.90234 0.80078-0.007812 1.5742 0.30859 2.1406 0.87891 0.56641 0.56641 0.88281 1.3359 0.87891 2.1367-0.003907 0.80469-0.33203 1.5703-0.90625 2.1289l-13.434 13.434zm25.457-25.457c-5.9414 5.9414-15.438 6.2695-21.723 0.86328v-0.003906c-0.61328-0.51562-0.99219-1.2539-1.0547-2.0508-0.0625-0.80078 0.19141-1.5898 0.71094-2.1992 0.52344-0.60547 1.2617-0.98438 2.0625-1.043 0.79688-0.0625 1.5859 0.19922 2.1914 0.72266 3.9531 3.4023 9.7969 3.2422 13.566-0.53125l14.141-14.141c3.9531-3.9531 3.9531-10.188 0-14.141-3.9531-3.9531-10.188-3.9531-14.141 0l-13.434 13.434v-0.003906c-0.55859 0.57812-1.3281 0.90625-2.1289 0.91016-0.80469 0.007813-1.5742-0.30859-2.1445-0.87891-0.56641-0.56641-0.88281-1.3398-0.87891-2.1406 0.007813-0.80469 0.33203-1.5703 0.91016-2.1328l13.434-13.434c6.2305-6.2305 16.395-6.2305 22.629 0 6.2305 6.2305 6.2305 16.395 0 22.629z"/>
</svg>
