<?xml version="1.0" encoding="UTF-8"?>
<svg width="100pt" height="100pt" version="1.1" viewBox="0 0 100 100" xmlns="http://www.w3.org/2000/svg">
 <g>
  <path d="m74.602 94.898-20.301-11.797v-23.5l20.398-11.801 20.301 11.801v23.5zm-16.902-13.797 16.898 9.8008 16.898-9.8008 0.003906-19.5-16.898-9.8008-16.898 9.8008z"/>
  <path d="m25.398 94.898-20.398-11.797v-23.5l20.398-11.801 20.398 11.801v23.5zm-16.898-13.797 16.898 9.8008 16.898-9.8008 0.003906-19.5-16.898-9.8008-16.902 9.8008z"/>
  <path d="m50 52.199-20.398-11.801v-23.5l20.398-11.797 20.398 11.801v23.5zm-16.898-13.801 16.898 9.8008 16.898-9.8008v-19.5l-16.898-9.6992-16.898 9.8008z"/>
  <path d="m25.398 94.898-20.398-11.797v-23.5l20.398-11.801 20.398 11.801v23.5zm-16.898-13.797 16.898 9.8008 16.898-9.8008 0.003906-19.5-16.898-9.8008-16.902 9.8008z"/>
 </g>
</svg>
