<?xml version="1.0" encoding="UTF-8"?>
<svg width="100pt" height="100pt" version="1.1" viewBox="0 0 100 100" xmlns="http://www.w3.org/2000/svg">
 <path d="m34.719 4.5977c-4.2578 0-7.7031 3.4453-7.7031 7.7031v16.758h-4.5273c-0.89453 0-1.5859 0.69141-1.5859 1.5859v26.492c0 6.6875 4.7578 12.254 11.055 13.535l1.1758 0.24219v4.5664c0 4.2578 3.4375 7.6953 7.6953 7.6953h7.582v10.645c0 0.89453 0.69141 1.5859 1.5859 1.5859 0.89453 0 1.5859-0.69141 1.5859-1.5859v-10.645h7.5898c4.2578-0.003906 7.6953-3.4375 7.6953-7.6953v-4.5742l1.1758-0.24219c6.293-1.2852 11.055-6.8477 11.055-13.527v-26.492c0-0.89453-0.69141-1.5859-1.5859-1.5859h-4.5273v-16.758c0-4.2578-3.4453-7.7031-7.7031-7.7031s-7.6953 3.4453-7.6953 7.7031v16.758h-15.172v-16.758c0-4.2578-3.4414-7.7031-7.6953-7.7031zm0 3.1758c2.4844 0 4.5273 2.0469 4.5273 4.5273v16.758h-9.0547v-16.758c0-2.4805 2.043-4.5273 4.5273-4.5273zm30.57 0c2.4844 0 4.5273 2.043 4.5273 4.5273v16.758h-9.0586l0.003907-16.758c0-2.4844 2.043-4.5273 4.5273-4.5273zm-41.215 24.453h51.855v24.91c0 5.8555-4.7891 10.645-10.645 10.645h-30.566c-5.8555 0-10.645-4.7891-10.645-10.645zm12.23 38.719h27.395v4.5312c0 2.4844-2.043 4.5273-4.5273 4.5273h-18.344c-2.4844 0-4.5273-2.043-4.5273-4.5273v-3.0625z"/>
</svg>
