<?xml version="1.0" encoding="UTF-8"?>
<svg width="100pt" height="100pt" version="1.1" viewBox="0 0 100 100" xmlns="http://www.w3.org/2000/svg">
 <g>
  <path d="m54.586 4.5859c-1.9297 0-3.4922 1.5625-3.4961 3.4922 0.007812 0.14844 0.023437 0.29297 0.046875 0.4375-0.023438 0.14453-0.039063 0.28906-0.046875 0.4375v6.9883-0.003906c0.003906 1.9297 1.5664 3.4883 3.4961 3.4883 1.9258 0 3.4883-1.5586 3.4922-3.4883v-4.1992c12.844 1.1719 24.246 8.707 30.355 20.066 6.1055 11.363 6.1055 25.027 0 36.391-6.1094 11.359-17.512 18.895-30.355 20.066v-4.1992c-0.003906-1.9297-1.5664-3.4883-3.4922-3.4883-1.9297 0-3.4922 1.5586-3.4961 3.4883v6.9883-0.003906c0.0625 0.28906 0.0625 0.58594 0 0.875 0.003906 1.9297 1.5664 3.4922 3.4961 3.4922 16.223 0 31.219-8.6562 39.328-22.707 8.1133-14.051 8.1133-31.363 0-45.414-8.1094-14.051-23.105-22.707-39.328-22.707z"/>
  <path d="m38.09 50c0-1.9297-1.5625-3.4922-3.4922-3.4922h-31.105c-1.9297 0-3.4922 1.5625-3.4922 3.4922s1.5625 3.4922 3.4922 3.4922h31.105c1.9297 0 3.4922-1.5625 3.4922-3.4922z"/>
  <path d="m34.934 24.672h-22.988c-1.9258 0.003906-3.4883 1.5664-3.4883 3.4922 0 1.9297 1.5625 3.4922 3.4883 3.4961h22.988c1.9297-0.003906 3.4883-1.5664 3.4883-3.4961 0-1.9258-1.5586-3.4883-3.4883-3.4922z"/>
  <path d="m34.934 68.34h-22.988c-1.9258 0.003906-3.4883 1.5664-3.4883 3.4961 0 1.9258 1.5625 3.4883 3.4883 3.4922h22.988c1.9297-0.003906 3.4883-1.5664 3.4883-3.4922 0-1.9297-1.5586-3.4922-3.4883-3.4961z"/>
  <path d="m57.309 55.211 22.109-18.707c1.375-1.1641 1.6445-3.1875 0.62109-4.6719-1.0273-1.4883-3.0117-1.9531-4.5898-1.0781l-25.332 14.035h-0.003907c-0.36328 0.20313-0.70312 0.44141-1.0234 0.70703-1.2891 1.0898-2.0898 2.6484-2.2305 4.3281-0.14062 1.6836 0.39062 3.3516 1.4805 4.6406 2.2734 2.6836 6.2852 3.0156 8.9688 0.74609zm-6.4727-3.2266c-0.80078-1.1641-0.82422-2.6953-0.058594-3.8828 0.76953-1.1836 2.1758-1.793 3.5625-1.5391 1.3906 0.25781 2.4922 1.3242 2.7891 2.7031 0.29688 1.3828-0.26953 2.8086-1.4336 3.6094-1.5859 1.0977-3.7617 0.69531-4.8594-0.89062z"/>
 </g>
</svg>
