<?xml version="1.0" encoding="UTF-8"?>
<svg width="100pt" height="100pt" version="1.1" viewBox="0 0 100 100" xmlns="http://www.w3.org/2000/svg">
 <path d="m85.375 85.375c9.0508-9.0508 14.625-21.57 14.625-35.375 0-13.801-5.5742-26.324-14.625-35.375s-21.57-14.625-35.375-14.625c-13.801 0-26.324 5.5742-35.375 14.625s-14.625 21.57-14.625 35.375c0 13.801 5.5742 26.324 14.625 35.375s21.57 14.625 35.375 14.625c13.801 0 26.324-5.5742 35.375-14.625zm-28.609-16.086c0-3.7461-3.0156-6.7656-6.7656-6.7656-3.7461 0-6.8555 3.0156-6.8555 6.7656 0 3.7461 3.1094 6.8555 6.8555 6.8555s6.7656-3.1094 6.7656-6.8555zm-6.7656-13.621c-2.4688 0-4.2969-2.0117-4.5703-4.5703l-2.2852-20.383c-0.36719-3.5664 3.3828-6.8555 6.8555-6.8555s7.2227 3.2891 6.7656 6.8555l-2.1953 20.383c-0.27344 2.5586-2.1016 4.5703-4.5703 4.5703z" fill-rule="evenodd"/>
</svg>
