<svg width="151" height="119" viewBox="0 0 151 119" fill="none" xmlns="http://www.w3.org/2000/svg">
<path d="M1.19922 20.1406C1.08984 20.0703 1.00391 19.9805 0.941406 19.8711C0.871094 19.7617 0.816406 19.6445 0.777344 19.5195C0.730469 19.3945 0.695312 19.2656 0.671875 19.1328C0.640625 18.9922 0.609375 18.8594 0.578125 18.7344C0.578125 18.625 0.601562 18.5469 0.648438 18.5C0.695312 18.4453 0.746094 18.3945 0.800781 18.3477C0.988281 18.3398 1.15625 18.3242 1.30469 18.3008C1.45312 18.2773 1.59766 18.2539 1.73828 18.2305C1.87891 18.207 2.01953 18.1875 2.16016 18.1719C2.30078 18.1484 2.45312 18.1367 2.61719 18.1367C2.73438 17.8945 2.84375 17.6641 2.94531 17.4453C3.04688 17.2188 3.14453 17.0039 3.23828 16.8008C3.28516 16.6055 3.34375 16.4258 3.41406 16.2617C3.49219 16.0898 3.56641 15.9297 3.63672 15.7812C3.70703 15.625 3.76953 15.4727 3.82422 15.3242C3.87891 15.168 3.91406 15.0039 3.92969 14.832C4.02344 14.5586 4.10547 14.3086 4.17578 14.082C4.25391 13.8477 4.3125 13.5703 4.35156 13.25C4.05469 13.2969 3.81641 13.3438 3.63672 13.3906C3.45703 13.4297 3.32812 13.4688 3.25 13.5078C3.09375 13.5 2.96875 13.4688 2.875 13.4141C2.78906 13.3594 2.71875 13.293 2.66406 13.2148C2.60938 13.1367 2.5625 13.0469 2.52344 12.9453C2.48438 12.8438 2.4375 12.7383 2.38281 12.6289C2.41406 12.5586 2.42188 12.457 2.40625 12.3242C2.39062 12.1836 2.34375 12.082 2.26562 12.0195C2.32812 12.0039 2.375 11.9531 2.40625 11.8672C2.4375 11.7734 2.44141 11.7031 2.41797 11.6562C2.55078 11.6172 2.69141 11.5938 2.83984 11.5859C2.98828 11.5703 3.13281 11.5586 3.27344 11.5508C3.42188 11.5352 3.5625 11.5195 3.69531 11.5039C3.82812 11.4805 3.94141 11.4375 4.03516 11.375C4.44141 11.3594 4.86328 11.3438 5.30078 11.3281C5.74609 11.3125 6.15625 11.293 6.53125 11.2695C6.67188 11.3164 6.83203 11.3398 7.01172 11.3398C7.19922 11.3398 7.38281 11.3516 7.5625 11.375C7.75 11.3984 7.91406 11.4492 8.05469 11.5273C8.20312 11.6055 8.30469 11.7422 8.35938 11.9375C8.47656 11.9531 8.5625 11.9844 8.61719 12.0312C8.67969 12.0781 8.71875 12.1367 8.73438 12.207C8.75 12.2695 8.75391 12.3438 8.74609 12.4297C8.74609 12.5078 8.74609 12.5859 8.74609 12.6641C8.62109 12.7578 8.46094 12.8359 8.26562 12.8984C8.07812 12.9531 7.87109 13 7.64453 13.0391C7.41797 13.0703 7.17969 13.0938 6.92969 13.1094C6.6875 13.1172 6.44922 13.125 6.21484 13.1328C6.17578 13.3906 6.10547 13.6953 6.00391 14.0469C5.91016 14.3906 5.8125 14.7305 5.71094 15.0664C5.60938 15.3945 5.51953 15.6914 5.44141 15.957C5.37109 16.2148 5.33984 16.3828 5.34766 16.4609C5.26953 16.6406 5.20312 16.793 5.14844 16.918C5.10156 17.043 5.05469 17.1602 5.00781 17.2695C4.96875 17.3789 4.92578 17.4883 4.87891 17.5977C4.83984 17.6992 4.78906 17.8164 4.72656 17.9492H5.52344C5.53906 18.0352 5.57422 18.0938 5.62891 18.125C5.68359 18.1562 5.74219 18.1836 5.80469 18.207C5.86719 18.2305 5.92188 18.2617 5.96875 18.3008C6.02344 18.332 6.05078 18.3867 6.05078 18.4648C6.19922 18.5039 6.29297 18.5625 6.33203 18.6406C6.37109 18.7188 6.37891 18.8047 6.35547 18.8984C6.33984 18.9844 6.30078 19.0742 6.23828 19.168C6.18359 19.2617 6.12891 19.3438 6.07422 19.4141C6.00391 19.3984 5.9375 19.418 5.875 19.4727C5.8125 19.5195 5.75391 19.5742 5.69922 19.6367C5.47266 19.6055 5.25 19.6016 5.03125 19.625C4.8125 19.6484 4.60938 19.668 4.42188 19.6836C4.38281 19.6914 4.36719 19.7148 4.375 19.7539C4.38281 19.7852 4.375 19.8086 4.35156 19.8242C4.10938 19.7461 3.85938 19.7148 3.60156 19.7305C3.35156 19.7461 3.09375 19.7852 2.82812 19.8477C2.57031 19.9023 2.30469 19.9609 2.03125 20.0234C1.75781 20.0938 1.48047 20.1328 1.19922 20.1406ZM15.2969 19.7891C15.2188 19.8281 15.1445 19.8633 15.0742 19.8945C15.0117 19.9258 14.9375 19.9414 14.8516 19.9414C14.5469 19.7148 14.3867 19.3203 14.3711 18.7578C14.3633 18.1953 14.4844 17.4805 14.7344 16.6133C14.7734 16.5898 14.793 16.543 14.793 16.4727L14.6875 16.3555C14.6562 16.3555 14.625 16.3594 14.5938 16.3672C14.5703 16.375 14.5508 16.4023 14.5352 16.4492C14.332 16.5977 14.1094 16.7539 13.8672 16.918C13.625 17.0742 13.3711 17.2227 13.1055 17.3633C12.8477 17.4961 12.582 17.6055 12.3086 17.6914C12.043 17.7773 11.7812 17.8203 11.5234 17.8203C10.8672 17.8203 10.375 17.4883 10.0469 16.8242L9.95312 16.6484L9.85938 16.8008C9.83594 16.832 9.80078 16.8984 9.75391 17C9.70703 17.0938 9.66016 17.2031 9.61328 17.3281C9.56641 17.4531 9.52344 17.582 9.48438 17.7148C9.45312 17.8398 9.44141 17.9492 9.44922 18.043C9.37891 18.1133 9.30469 18.1953 9.22656 18.2891C9.14844 18.3828 9.08984 18.4883 9.05078 18.6055C9.03516 18.668 9.04297 18.7266 9.07422 18.7812C9.05859 18.8516 9.02344 18.9062 8.96875 18.9453C8.9375 18.9844 8.90234 19.0234 8.86328 19.0625C8.83203 19.0938 8.80469 19.1289 8.78125 19.168C8.76562 19.207 8.75391 19.2461 8.74609 19.2852C8.74609 19.3242 8.74219 19.3633 8.73438 19.4023C8.73438 19.457 8.72656 19.5078 8.71094 19.5547C8.57812 19.8281 8.47266 20.0039 8.39453 20.082C8.31641 20.168 8.21094 20.2109 8.07812 20.2109C8.01562 20.2109 7.91406 20.1992 7.77344 20.1758C7.67188 20.0664 7.57812 19.918 7.49219 19.7305C7.41406 19.5352 7.35156 19.3281 7.30469 19.1094C7.26562 18.8906 7.24609 18.6719 7.24609 18.4531C7.25391 18.2266 7.29297 18.0312 7.36328 17.8672C7.36328 17.8594 7.39453 17.7812 7.45703 17.6328C7.51953 17.4844 7.59766 17.293 7.69141 17.0586C7.79297 16.8242 7.90625 16.5664 8.03125 16.2852C8.15625 15.9961 8.28125 15.7188 8.40625 15.4531C8.53125 15.1797 8.64844 14.9297 8.75781 14.7031C8.875 14.4766 8.97266 14.3047 9.05078 14.1875C9.11328 14.0938 9.16797 14.0078 9.21484 13.9297C9.26953 13.8438 9.32031 13.7617 9.36719 13.6836C9.50781 13.4414 9.64062 13.2422 9.76562 13.0859C9.89844 12.9219 10.0898 12.793 10.3398 12.6992C10.5117 12.7695 10.6367 12.8516 10.7148 12.9453L10.7383 13.0742C10.7695 13.1523 10.8164 13.1914 10.8789 13.1914C10.9648 13.2148 11.0352 13.2383 11.0898 13.2617C11.1523 13.2773 11.2188 13.293 11.2891 13.3086C11.3438 13.3711 11.3945 13.4453 11.4414 13.5312C11.5039 13.625 11.5625 13.7188 11.6172 13.8125C11.6797 13.8984 11.7266 13.9883 11.7578 14.082C11.7969 14.168 11.8164 14.2578 11.8164 14.3516C11.8242 14.4453 11.8086 14.543 11.7695 14.6445L11.7812 14.7617C11.8203 14.832 11.8281 14.9297 11.8047 15.0547C11.7969 15.1094 11.793 15.168 11.793 15.2305C11.793 15.2852 11.8008 15.3477 11.8164 15.418C11.957 15.5273 12.082 15.582 12.1914 15.582C12.3164 15.582 12.4297 15.5547 12.5312 15.5C12.6406 15.4375 12.7422 15.375 12.8359 15.3125C12.8984 15.2656 12.9609 15.2266 13.0234 15.1953C13.0859 15.1562 13.1484 15.1328 13.2109 15.125C13.3516 14.9922 13.4766 14.875 13.5859 14.7734C13.7031 14.6719 13.8242 14.5703 13.9492 14.4688C14.1836 14.2812 14.4102 14.0781 14.6289 13.8594C14.8477 13.6406 15.0234 13.3672 15.1562 13.0391C15.2344 12.9922 15.3164 12.9688 15.4023 12.9688C15.4883 12.9688 15.5781 12.9883 15.6719 13.0273C15.7656 13.0664 15.8555 13.1055 15.9414 13.1445C15.9648 13.1602 15.9844 13.1719 16 13.1797C16.0234 13.1875 16.043 13.1953 16.0586 13.2031C16.0586 13.2812 16.0898 13.3477 16.1523 13.4023C16.1836 13.4258 16.2031 13.4414 16.2109 13.4492C16.2188 13.457 16.2305 13.4648 16.2461 13.4727C16.3633 13.5352 16.4375 13.5977 16.4688 13.6602C16.5234 13.8398 16.6211 13.9766 16.7617 14.0703C16.7461 14.1484 16.7461 14.2227 16.7617 14.293C16.7852 14.3555 16.8125 14.4219 16.8438 14.4922C16.8516 14.5156 16.8594 14.5391 16.8672 14.5625C16.875 14.5859 16.8867 14.6133 16.9023 14.6445L16.6797 14.6211L16.7148 14.8438C16.7305 14.9531 16.7188 15.0742 16.6797 15.207C16.6484 15.3398 16.6094 15.4453 16.5625 15.5234C16.5703 15.7266 16.5742 15.8867 16.5742 16.0039C16.582 16.1133 16.5781 16.2188 16.5625 16.3203C16.5469 16.4141 16.5234 16.5039 16.4922 16.5898C16.4688 16.6758 16.4336 16.7695 16.3867 16.8711C16.418 17.3711 16.3594 17.8281 16.2109 18.2422C16.0703 18.6484 15.9219 19.0312 15.7656 19.3906C15.75 19.4297 15.7305 19.4688 15.707 19.5078C15.6914 19.5469 15.6758 19.5859 15.6602 19.625C15.5898 19.6484 15.5273 19.6758 15.4727 19.707C15.418 19.7305 15.3594 19.7578 15.2969 19.7891ZM21.3789 12.7344C21.707 12.7734 22 12.8398 22.2578 12.9336C22.5156 13.0273 22.7344 13.1523 22.9141 13.3086C23.0391 13.5039 23.1562 13.7148 23.2656 13.9414C23.3828 14.168 23.4688 14.4062 23.5234 14.6562C23.5859 14.8984 23.6133 15.1484 23.6055 15.4062C23.6055 15.6641 23.5508 15.9258 23.4414 16.1914C23.2148 16.4727 22.9375 16.7031 22.6094 16.8828C22.2891 17.0547 21.9414 17.1953 21.5664 17.3047C21.1914 17.4141 20.8008 17.5078 20.3945 17.5859C19.9961 17.6641 19.6055 17.7422 19.2227 17.8203C19.2305 18 19.2305 18.1914 19.2227 18.3945C19.2227 18.5898 19.2031 18.7891 19.1641 18.9922C19.1328 19.1875 19.082 19.3789 19.0117 19.5664C18.9414 19.7539 18.8477 19.9258 18.7305 20.082C18.5977 20.082 18.4609 20.0977 18.3203 20.1289C18.1797 20.168 18.0547 20.1992 17.9453 20.2227C17.8906 20.1914 17.8398 20.1602 17.793 20.1289C17.7539 20.1055 17.6953 20.0898 17.6172 20.082C17.6328 20.0039 17.6133 19.9258 17.5586 19.8477C17.5039 19.7617 17.4492 19.6758 17.3945 19.5898C17.3398 19.5039 17.3008 19.4219 17.2773 19.3438C17.2617 19.2656 17.3008 19.1914 17.3945 19.1211C17.3398 19.0664 17.3125 18.9961 17.3125 18.9102C17.3672 18.8164 17.4141 18.6875 17.4531 18.5234C17.5 18.3594 17.5352 18.1992 17.5586 18.043C17.5898 17.8789 17.5977 17.7305 17.582 17.5977C17.5664 17.4648 17.4883 17.3672 17.3477 17.3047C17.3555 17.2891 17.3711 17.2812 17.3945 17.2812C17.418 17.2812 17.4414 17.2773 17.4648 17.2695C17.4023 17.2227 17.3633 17.1562 17.3477 17.0703C17.3398 16.9844 17.3125 16.9102 17.2656 16.8477C17.2812 16.8086 17.293 16.7734 17.3008 16.7422C17.3086 16.7109 17.3359 16.6992 17.3828 16.707C17.3594 16.5664 17.3594 16.4336 17.3828 16.3086C17.4141 16.1836 17.457 16.0664 17.5117 15.957C17.5664 15.8398 17.6328 15.7266 17.7109 15.6172C17.7891 15.5078 17.8633 15.3984 17.9336 15.2891C17.9883 15.2812 18.0195 15.2891 18.0273 15.3125C18.043 15.3359 18.0703 15.332 18.1094 15.3008C18.2109 15.2227 18.2812 15.1406 18.3203 15.0547C18.3594 14.9688 18.3789 14.8711 18.3789 14.7617C18.4336 14.5977 18.5 14.4336 18.5781 14.2695C18.6562 14.0977 18.7422 13.9414 18.8359 13.8008C18.9297 13.6602 19.0312 13.5352 19.1406 13.4258C19.2578 13.3164 19.3789 13.2344 19.5039 13.1797C19.5977 13.1016 19.7148 13.0312 19.8555 12.9688C19.9961 12.8984 20.1484 12.8477 20.3125 12.8164C20.4766 12.7773 20.6406 12.7578 20.8047 12.7578C20.9766 12.75 21.1328 12.7656 21.2734 12.8047C21.3125 12.8203 21.332 12.8125 21.332 12.7812C21.3398 12.75 21.3555 12.7344 21.3789 12.7344ZM20.8984 15.5352C21.0938 15.4492 21.3008 15.3828 21.5195 15.3359C21.7461 15.2812 21.9336 15.1836 22.082 15.043C21.9883 14.957 21.8516 14.8828 21.6719 14.8203C21.4922 14.75 21.2969 14.707 21.0859 14.6914C20.875 14.6758 20.6602 14.6953 20.4414 14.75C20.2305 14.7969 20.0469 14.8906 19.8906 15.0312C19.8438 15.1719 19.8047 15.2852 19.7734 15.3711C19.7422 15.4492 19.6992 15.5469 19.6445 15.6641C19.6602 15.7031 19.6836 15.7344 19.7148 15.7578C19.7539 15.7734 19.7812 15.8008 19.7969 15.8398C19.9766 15.7461 20.1562 15.6953 20.3359 15.6875C20.5234 15.6719 20.7109 15.6211 20.8984 15.5352ZM30.0859 16.4844C30.0781 16.5781 30.0859 16.668 30.1094 16.7539C30.1328 16.8398 30.1602 16.9258 30.1914 17.0117C30.2305 17.0898 30.2656 17.1719 30.2969 17.2578C30.3281 17.3438 30.3516 17.4297 30.3672 17.5156C30.3828 17.625 30.3828 17.7461 30.3672 17.8789C30.3516 18.0039 30.3242 18.1289 30.2852 18.2539C30.2461 18.3711 30.1953 18.4805 30.1328 18.582C30.0703 18.6758 29.9961 18.7461 29.9102 18.793C29.8008 18.9336 29.668 19.043 29.5117 19.1211C29.3555 19.1992 29.2109 19.293 29.0781 19.4023C28.9922 19.457 28.8945 19.4961 28.7852 19.5195C28.6836 19.543 28.5781 19.5664 28.4688 19.5898C28.3828 19.6367 28.2812 19.6875 28.1641 19.7422C28.0469 19.7891 27.9258 19.8359 27.8008 19.8828C27.6758 19.9219 27.5508 19.9531 27.4258 19.9766C27.3008 19.9922 27.1914 19.9961 27.0977 19.9883C26.8633 20.0742 26.6328 20.1289 26.4062 20.1523C26.1875 20.1836 25.9297 20.168 25.6328 20.1055C25.3516 20.1445 25.0898 20.1328 24.8477 20.0703C24.6133 20.0078 24.4023 19.9102 24.2148 19.7773C24.0352 19.6367 23.875 19.4727 23.7344 19.2852C23.6016 19.0898 23.4922 18.8867 23.4062 18.6758C23.3438 18.2305 23.3594 17.8281 23.4531 17.4688C23.5469 17.1016 23.6797 16.7656 23.8516 16.4609C24.0312 16.1484 24.2344 15.8633 24.4609 15.6055C24.6875 15.3398 24.9062 15.082 25.1172 14.832C25.1641 14.8477 25.1992 14.8477 25.2227 14.832C25.2539 14.8086 25.2812 14.7812 25.3047 14.75C25.3281 14.7109 25.3516 14.6758 25.375 14.6445C25.4062 14.6133 25.4414 14.5938 25.4805 14.5859C25.5352 14.4688 25.6133 14.3828 25.7148 14.3281C25.8242 14.2656 25.9102 14.1797 25.9727 14.0703C26.043 14.0547 26.1016 14.0312 26.1484 14C26.1953 13.9688 26.2383 13.9336 26.2773 13.8945C26.3242 13.8555 26.3711 13.8203 26.418 13.7891C26.4648 13.75 26.5195 13.7227 26.582 13.707V13.5781C26.7227 13.5156 26.8242 13.4453 26.8867 13.3672C26.957 13.2812 27.0391 13.1797 27.1328 13.0625C27.2031 13.0547 27.2578 13.0508 27.2969 13.0508C27.3438 13.0508 27.4102 13.043 27.4961 13.0273C27.5586 12.918 27.6133 12.8359 27.6602 12.7812C27.7148 12.7266 27.793 12.668 27.8945 12.6055C27.9883 12.6523 28.0898 12.6836 28.1992 12.6992C28.3164 12.7148 28.418 12.7656 28.5039 12.8516C28.5117 12.9297 28.5352 12.9922 28.5742 13.0391C28.6133 13.0781 28.6562 13.1172 28.7031 13.1562C28.75 13.1875 28.793 13.2227 28.832 13.2617C28.8789 13.3008 28.9102 13.3555 28.9258 13.4258C28.957 13.4336 28.9766 13.4297 28.9844 13.4141C29 13.3984 29.0234 13.3945 29.0547 13.4023C29.0781 13.5117 29.1055 13.5859 29.1367 13.625C29.168 13.6562 29.1992 13.7227 29.2305 13.8242C29.1914 13.9023 29.1602 13.9844 29.1367 14.0703C29.1211 14.1484 29.0742 14.207 28.9961 14.2461C28.9883 14.3008 29.0039 14.332 29.043 14.3398C29.082 14.3398 29.1055 14.3594 29.1133 14.3984C29.1211 14.4688 29.1094 14.5195 29.0781 14.5508C29.2656 14.8555 29.4336 15.1797 29.582 15.5234C29.7305 15.8594 29.8984 16.1797 30.0859 16.4844ZM28.6211 17.5977C28.6523 17.5117 28.6914 17.4414 28.7383 17.3867C28.793 17.332 28.8242 17.25 28.832 17.1406C28.793 17.0781 28.7695 17.0312 28.7617 17C28.7539 16.9609 28.75 16.9023 28.75 16.8242C28.5781 16.582 28.4297 16.3242 28.3047 16.0508C28.1797 15.7695 28.0391 15.5078 27.8828 15.2656C27.8672 15.2969 27.8398 15.3281 27.8008 15.3594C27.7617 15.3906 27.7188 15.3828 27.6719 15.3359C27.6562 15.3984 27.6289 15.4453 27.5898 15.4766C27.5508 15.5 27.5078 15.5117 27.4609 15.5117C27.4141 15.5039 27.3633 15.4922 27.3086 15.4766C27.2617 15.4531 27.2188 15.4258 27.1797 15.3945C26.9531 15.5742 26.7266 15.75 26.5 15.9219C26.2734 16.0938 26.0703 16.293 25.8906 16.5195C25.8594 16.5352 25.8398 16.543 25.832 16.543C25.8242 16.5352 25.8008 16.5391 25.7617 16.5547C25.6992 16.7031 25.6211 16.8398 25.5273 16.9648C25.4414 17.082 25.3555 17.2031 25.2695 17.3281C25.1836 17.4531 25.1094 17.5859 25.0469 17.7266C24.9844 17.8672 24.9492 18.0312 24.9414 18.2188C25.0742 18.3281 25.2305 18.3945 25.4102 18.418C25.5898 18.4414 25.7734 18.4453 25.9609 18.4297C26.1562 18.4141 26.3438 18.3906 26.5234 18.3594C26.7109 18.3203 26.8828 18.3008 27.0391 18.3008C27.3672 18.2227 27.6484 18.1211 27.8828 17.9961C28.1172 17.8633 28.3633 17.7305 28.6211 17.5977ZM32.6875 18.7812C32.6016 19.0938 32.5234 19.332 32.4531 19.4961C32.3906 19.6523 32.293 19.8164 32.1602 19.9883C32.0586 19.9727 31.9883 19.9844 31.9492 20.0234C31.9102 20.0625 31.8672 20.0977 31.8203 20.1289C31.75 20.1445 31.6992 20.1445 31.668 20.1289C31.6367 20.1133 31.6094 20.0938 31.5859 20.0703C31.5625 20.0547 31.5312 20.0352 31.4922 20.0117C31.4609 19.9961 31.4102 19.9883 31.3398 19.9883C31.3242 19.9258 31.3047 19.8672 31.2812 19.8125C31.2656 19.7578 31.2148 19.7383 31.1289 19.7539C31.1445 19.6914 31.1484 19.6406 31.1406 19.6016C31.1328 19.5547 31.1211 19.5156 31.1055 19.4844C31.0977 19.4453 31.0898 19.4102 31.082 19.3789C31.0742 19.3398 31.0781 19.293 31.0938 19.2383C31.0547 19.2383 31.0234 19.2109 31 19.1562C30.9766 19.1016 30.9492 19.0469 30.918 18.9922C30.9414 18.8516 30.9648 18.7188 30.9883 18.5938C31.0117 18.4688 31.0391 18.3516 31.0703 18.2422C31.1094 18.1328 31.1406 18.0234 31.1641 17.9141C31.1875 17.8047 31.1758 17.6914 31.1289 17.5742C31.1602 17.5977 31.1836 17.5938 31.1992 17.5625C31.2148 17.5234 31.2266 17.4766 31.2344 17.4219C31.2422 17.3594 31.2461 17.3008 31.2461 17.2461C31.2461 17.1836 31.2422 17.1328 31.2344 17.0938C31.3125 16.8906 31.375 16.6836 31.4219 16.4727C31.4766 16.2539 31.5234 16.0391 31.5625 15.8281C31.6094 15.6172 31.6562 15.4102 31.7031 15.207C31.75 15.0039 31.8125 14.8164 31.8906 14.6445C31.9766 14.6289 32.0703 14.6406 32.1719 14.6797C32.2812 14.7109 32.3477 14.7539 32.3711 14.8086C32.5742 14.6523 32.7539 14.4648 32.9102 14.2461C33.0664 14.0195 33.2266 13.8008 33.3906 13.5898C33.5547 13.3789 33.7344 13.1914 33.9297 13.0273C34.1328 12.8633 34.3867 12.7656 34.6914 12.7344C34.8477 12.8516 35.0195 12.9727 35.207 13.0977C35.4023 13.2148 35.5625 13.3711 35.6875 13.5664C35.75 13.5977 35.8008 13.6328 35.8398 13.6719C35.8867 13.7031 35.9414 13.7383 36.0039 13.7773V13.918C36.0977 14.0039 36.1719 14.1055 36.2266 14.2227C36.2891 14.332 36.3438 14.4531 36.3906 14.5859C36.4375 14.7109 36.4844 14.8398 36.5312 14.9727C36.5781 15.0977 36.6328 15.2188 36.6953 15.3359C36.6797 15.375 36.6719 15.4102 36.6719 15.4414C36.6719 15.4648 36.6758 15.4922 36.6836 15.5234C36.6992 15.5547 36.7109 15.5859 36.7188 15.6172C36.7266 15.6484 36.7266 15.6914 36.7188 15.7461C36.6953 16.0898 36.582 16.3672 36.3789 16.5781C36.1836 16.7891 35.9453 16.9648 35.6641 17.1055C35.3828 17.2383 35.082 17.3516 34.7617 17.4453C34.4414 17.5391 34.1523 17.6406 33.8945 17.75C33.8945 17.7812 33.9062 17.7969 33.9297 17.7969C33.9609 17.7969 33.9727 17.8164 33.9648 17.8555C34.1523 17.9727 34.3008 18.0664 34.4102 18.1367C34.5195 18.207 34.6211 18.2656 34.7148 18.3125C34.8164 18.3594 34.9219 18.4023 35.0312 18.4414C35.1484 18.4727 35.3086 18.5117 35.5117 18.5586C35.7148 18.6055 35.8711 18.6445 35.9805 18.6758C36.0977 18.6992 36.2031 18.7227 36.2969 18.7461C36.3906 18.7617 36.4844 18.7773 36.5781 18.793C36.6797 18.8008 36.8203 18.8125 37 18.8281C37.0703 18.8984 37.1289 18.9844 37.1758 19.0859C37.2305 19.1797 37.2656 19.2773 37.2812 19.3789C37.2969 19.4727 37.3008 19.5664 37.293 19.6602C37.2852 19.7461 37.2578 19.8164 37.2109 19.8711C37.2188 19.8945 37.2344 19.9062 37.2578 19.9062C37.2891 19.8984 37.3203 19.8984 37.3516 19.9062C37.3047 19.9375 37.2656 19.9766 37.2344 20.0234C37.2031 20.0703 37.1719 20.1172 37.1406 20.1641C37.1094 20.2109 37.0742 20.25 37.0352 20.2812C36.9961 20.3203 36.9414 20.3438 36.8711 20.3516C36.6289 20.4453 36.3242 20.4492 35.957 20.3633C35.5898 20.2852 35.125 20.1367 34.5625 19.918C34.2812 19.8086 34.0508 19.7148 33.8711 19.6367C33.6992 19.5508 33.5469 19.4688 33.4141 19.3906C33.2891 19.3047 33.1719 19.2148 33.0625 19.1211C32.9609 19.0273 32.8359 18.9141 32.6875 18.7812ZM34.3633 14.7617C34.2773 14.8867 34.1797 15 34.0703 15.1016C33.9688 15.2031 33.8672 15.3086 33.7656 15.418C33.6719 15.5195 33.5859 15.6367 33.5078 15.7695C33.4297 15.8945 33.375 16.043 33.3438 16.2148C33.6172 16.1836 33.9023 16.1094 34.1992 15.9922C34.4961 15.8672 34.7773 15.75 35.043 15.6406C35.0117 15.3984 34.9258 15.2031 34.7852 15.0547C34.6523 14.9062 34.5117 14.8086 34.3633 14.7617ZM43.5977 14.3633C43.4023 14.3633 43.1914 14.3789 42.9648 14.4102C42.7383 14.4336 42.5156 14.4609 42.2969 14.4922C42.1406 14.5156 41.9883 14.5352 41.8398 14.5508C41.6992 14.5664 41.5703 14.5781 41.4531 14.5859C41.3984 14.7578 41.3438 14.9102 41.2891 15.043C41.2344 15.1758 41.1758 15.3047 41.1133 15.4297C41.0508 15.5625 40.9922 15.6992 40.9375 15.8398C40.8906 15.9727 40.8438 16.1172 40.7969 16.2734C40.7188 16.3984 40.6523 16.5156 40.5977 16.625C40.5508 16.7266 40.5117 16.8438 40.4805 16.9766C40.3867 17.0938 40.3164 17.2188 40.2695 17.3516C40.2227 17.4766 40.1875 17.5859 40.1641 17.6797L40.1172 17.8203C40.0703 17.8672 40.043 17.9062 40.0352 17.9375C40.0273 17.9609 40.0078 17.9844 39.9766 18.0078C39.9688 18.0938 39.9414 18.1797 39.8945 18.2656C39.8789 18.3047 39.8672 18.3438 39.8594 18.3828C39.8516 18.4141 39.8477 18.4375 39.8477 18.4531C39.8477 18.5312 39.8281 18.582 39.7891 18.6055C39.7969 18.6445 39.7969 18.6875 39.7891 18.7344C39.7812 18.7734 39.7734 18.8125 39.7656 18.8516C39.7422 18.9453 39.7344 19.0195 39.7422 19.0742C39.7656 19.1055 39.7852 19.1328 39.8008 19.1562C39.8242 19.1797 39.8398 19.2109 39.8477 19.25C39.8945 19.2812 39.9297 19.3008 39.9531 19.3086C39.9844 19.332 40.0312 19.3594 40.0938 19.3906L40.1992 19.5078C40.2383 19.7344 40.2031 19.9141 40.0938 20.0469C39.9766 20.1953 39.7773 20.2695 39.4961 20.2695H39.3555C39.3164 20.2305 39.293 20.1992 39.2852 20.1758C39.2227 20.1523 39.1719 20.1328 39.1328 20.1172C39.0938 20.1016 39.0586 20.0703 39.0273 20.0234C38.9258 19.9766 38.8438 19.9375 38.7812 19.9062L38.6758 19.8477C38.6758 19.7617 38.6758 19.7148 38.6758 19.707C38.6211 19.6367 38.5781 19.5586 38.5469 19.4727C38.5234 19.3867 38.5039 19.3008 38.4883 19.2148C38.4727 19.1445 38.4531 19.0781 38.4297 19.0156C38.4141 18.9531 38.3906 18.8984 38.3594 18.8516C38.3438 18.3984 38.3867 18.0156 38.4883 17.7031C38.5898 17.3906 38.6953 17.0898 38.8047 16.8008C38.8672 16.6445 38.9297 16.4883 38.9922 16.332C39.0547 16.168 39.1094 16 39.1562 15.8281L39.2617 15.7109C39.3164 15.5859 39.3594 15.4844 39.3906 15.4062C39.4297 15.3203 39.4688 15.2344 39.5078 15.1484C39.5312 15.0938 39.5508 15.043 39.5664 14.9961C39.5898 14.9414 39.6094 14.8945 39.625 14.8555C39.5781 14.8555 39.5352 14.8594 39.4961 14.8672C39.457 14.8672 39.418 14.8711 39.3789 14.8789C39.332 14.8867 39.2891 14.8945 39.25 14.9023C39.2109 14.9023 39.1719 14.9023 39.1328 14.9023C39.0781 14.9023 39.0391 14.8984 39.0156 14.8906C38.9297 14.9297 38.8359 14.9492 38.7344 14.9492H38.6172C38.5938 14.9492 38.5703 14.9492 38.5469 14.9492C38.5312 14.9414 38.5156 14.9375 38.5 14.9375C38.4219 14.9375 38.3594 14.9492 38.3125 14.9727C38.2188 14.9727 38.1289 14.9727 38.043 14.9727H37.9258C37.9102 14.9727 37.8906 14.9766 37.8672 14.9844C37.8438 14.9844 37.8242 14.9844 37.8086 14.9844C37.7539 14.9844 37.6953 14.9805 37.6328 14.9727C37.5703 14.957 37.5039 14.9297 37.4336 14.8906C37.3398 14.7656 37.2773 14.6992 37.2461 14.6914L37.1406 14.5508C37.1328 14.5039 37.1211 14.4609 37.1055 14.4219C37.0898 14.375 37.0742 14.3242 37.0586 14.2695C37.0273 14.1914 36.9961 14.1094 36.9648 14.0234C36.9414 13.9297 36.9297 13.8203 36.9297 13.6953C36.9375 13.6328 36.9531 13.5859 36.9766 13.5547C37 13.5234 37.0195 13.4961 37.0352 13.4727L37.0703 13.2969L37.2227 13.3086H37.5508C37.8008 13.3086 38.0547 13.3008 38.3125 13.2852C38.5703 13.2617 38.8359 13.2383 39.1094 13.2148C39.2656 13.1992 39.4219 13.1836 39.5781 13.168C39.7422 13.1523 39.9102 13.1367 40.082 13.1211C40.1133 13.0508 40.1445 12.9844 40.1758 12.9219L40.293 12.8633C40.4336 12.8555 40.5312 12.875 40.5859 12.9219C40.6484 12.9609 40.6992 13 40.7383 13.0391C40.9102 13.0234 41.082 13.0078 41.2539 12.9922C41.4336 12.9688 41.6133 12.9414 41.793 12.9102C42.0586 12.8711 42.3242 12.8359 42.5898 12.8047C42.8633 12.7734 43.125 12.7578 43.375 12.7578C43.4844 12.7578 43.5898 12.7617 43.6914 12.7695C43.793 12.7773 43.8867 12.7891 43.9727 12.8047L44.0898 12.8867C44.1133 12.9336 44.1445 12.9766 44.1836 13.0156C44.2305 13.0547 44.2773 13.0938 44.3242 13.1328C44.418 13.2188 44.5117 13.3203 44.6055 13.4375C44.6992 13.5547 44.7344 13.7266 44.7109 13.9531C44.6484 14.0469 44.6016 14.1016 44.5703 14.1172L44.4648 14.2578L44.3477 14.2461C44.3008 14.2461 44.2578 14.2539 44.2188 14.2695C44.1797 14.2773 44.1406 14.2891 44.1016 14.3047C44.0703 14.3203 44.0391 14.3359 44.0078 14.3516C43.9766 14.3594 43.9414 14.3672 43.9023 14.375C43.832 14.375 43.7734 14.375 43.7266 14.375C43.6875 14.3672 43.6445 14.3633 43.5977 14.3633ZM52.9023 16.8359C52.8945 16.875 52.8867 16.9102 52.8789 16.9414C52.8711 16.9648 52.8633 16.9883 52.8555 17.0117C52.8477 17.0352 52.8438 17.0664 52.8438 17.1055C52.8438 17.1367 52.8438 17.1797 52.8438 17.2344C52.6094 17.6484 52.3125 17.9961 51.9531 18.2773C51.6016 18.5586 51.2109 18.8086 50.7812 19.0273C50.3594 19.2383 49.918 19.4336 49.457 19.6133C48.9961 19.7852 48.5469 19.9727 48.1094 20.1758C47.9219 20.1289 47.7773 20.0508 47.6758 19.9414C47.582 19.832 47.5078 19.707 47.4531 19.5664C47.4062 19.418 47.3711 19.2578 47.3477 19.0859C47.332 18.9062 47.3164 18.7227 47.3008 18.5352C47.3242 18.4492 47.3555 18.3789 47.3945 18.3242C47.4414 18.2617 47.4648 18.1758 47.4648 18.0664C47.5273 17.8633 47.5898 17.6641 47.6523 17.4688C47.7148 17.2734 47.7539 17.0742 47.7695 16.8711C47.793 16.8086 47.8359 16.7656 47.8984 16.7422C47.9375 16.3672 47.9375 15.9883 47.8984 15.6055C47.8672 15.2148 47.8047 14.8516 47.7109 14.5156C47.7188 14.4375 47.7266 14.3828 47.7344 14.3516C47.75 14.3125 47.75 14.2852 47.7344 14.2695C47.7266 14.207 47.7461 14.1758 47.793 14.1758C47.8477 14.1758 47.9023 14.1758 47.957 14.1758C47.957 14.0586 47.9336 13.9414 47.8867 13.8242C47.8477 13.707 47.8086 13.5742 47.7695 13.4258C47.8242 13.3086 47.8594 13.1953 47.875 13.0859C47.8906 12.9688 47.9258 12.8672 47.9805 12.7812C48.4023 12.9141 48.8047 13.0742 49.1875 13.2617C49.5781 13.4492 49.9609 13.5859 50.3359 13.6719C50.6172 13.875 50.9062 14.0781 51.2031 14.2812C51.5 14.4766 51.7695 14.6953 52.0117 14.9375C52.2539 15.1719 52.457 15.4414 52.6211 15.7461C52.7852 16.0508 52.8789 16.4141 52.9023 16.8359ZM50.125 17.4805C50.2891 17.418 50.4492 17.3516 50.6055 17.2812C50.7695 17.2109 50.918 17.1328 51.0508 17.0469C51.1914 16.9531 51.3164 16.8477 51.4258 16.7305C51.5352 16.6133 51.625 16.4727 51.6953 16.3086C51.6484 16.2148 51.5859 16.1328 51.5078 16.0625C51.4297 15.9844 51.3516 15.9141 51.2734 15.8516C51.1953 15.7812 51.1172 15.7109 51.0391 15.6406C50.9688 15.5703 50.9102 15.4844 50.8633 15.3828C50.7617 15.3672 50.6719 15.3398 50.5938 15.3008C50.5156 15.2539 50.4375 15.2109 50.3594 15.1719C50.2891 15.125 50.2109 15.082 50.125 15.043C50.0469 15.0039 49.9531 14.9805 49.8438 14.9727C49.6719 14.8867 49.5156 14.8242 49.375 14.7852C49.2422 14.7461 49.1406 14.6953 49.0703 14.6328C49.0156 14.6328 48.9727 14.6445 48.9414 14.668C49.0195 14.9648 49.0781 15.2461 49.1172 15.5117C49.1562 15.7695 49.1758 16.0312 49.1758 16.2969C49.1836 16.5547 49.1719 16.8203 49.1406 17.0938C49.1094 17.3672 49.0664 17.6641 49.0117 17.9844C49.0898 17.9766 49.1602 17.9609 49.2227 17.9375C49.293 17.9062 49.3594 17.875 49.4219 17.8438C49.4922 17.8125 49.5625 17.7852 49.6328 17.7617C49.7109 17.7305 49.8008 17.7109 49.9023 17.7031C49.9258 17.6562 49.957 17.6172 49.9961 17.5859C50.043 17.5547 50.0859 17.5195 50.125 17.4805ZM55.5742 19.1797C55.6133 19.4141 55.5977 19.5977 55.5273 19.7305C55.4648 19.8633 55.3711 19.9609 55.2461 20.0234C55.1289 20.0938 54.9922 20.1328 54.8359 20.1406C54.6797 20.1484 54.5312 20.1406 54.3906 20.1172C54.3125 20.0078 54.2422 19.8711 54.1797 19.707C54.1172 19.543 54.0586 19.375 54.0039 19.2031C53.9492 19.0234 53.8984 18.8477 53.8516 18.6758C53.8125 18.5039 53.7773 18.3516 53.7461 18.2188C53.7852 18.125 53.8086 18.0195 53.8164 17.9023C53.832 17.7773 53.8398 17.6523 53.8398 17.5273C53.8477 17.4023 53.8516 17.2773 53.8516 17.1523C53.8594 17.0195 53.8711 16.8945 53.8867 16.7773C53.9414 16.4492 54.0195 16.1367 54.1211 15.8398C54.2305 15.543 54.3164 15.2344 54.3789 14.9141C54.3945 14.8438 54.3867 14.7773 54.3555 14.7148C54.332 14.6523 54.3281 14.5938 54.3438 14.5391C54.3516 14.5078 54.375 14.4883 54.4141 14.4805C54.4531 14.4648 54.4766 14.4375 54.4844 14.3984C54.5078 14.3125 54.5117 14.2422 54.4961 14.1875C54.4883 14.1328 54.5039 14.0664 54.543 13.9883C54.582 13.9258 54.6289 13.8359 54.6836 13.7188C54.7461 13.5938 54.7695 13.4648 54.7539 13.332C54.8242 13.2852 54.8906 13.2305 54.9531 13.168C55.0156 13.1055 55.0781 13.0508 55.1406 13.0039C55.2109 12.9492 55.2852 12.9023 55.3633 12.8633C55.4492 12.8242 55.5508 12.8047 55.668 12.8047C55.7305 12.8828 55.7695 12.9688 55.7852 13.0625C55.8086 13.1562 55.8281 13.25 55.8438 13.3438C55.8672 13.4375 55.8984 13.5273 55.9375 13.6133C55.9766 13.6914 56.043 13.7539 56.1367 13.8008C56.1367 13.8633 56.1367 13.9414 56.1367 14.0352C56.1367 14.1289 56.1406 14.2227 56.1484 14.3164C56.1562 14.4023 56.1719 14.4844 56.1953 14.5625C56.2266 14.6328 56.2734 14.6797 56.3359 14.7031C56.1953 15.0781 56.0625 15.4492 55.9375 15.8164C55.8203 16.1836 55.7227 16.5547 55.6445 16.9297C55.5664 17.2969 55.5156 17.668 55.4922 18.043C55.4766 18.418 55.5039 18.7969 55.5742 19.1797ZM58.8203 18.7812C58.7344 19.0938 58.6562 19.332 58.5859 19.4961C58.5234 19.6523 58.4258 19.8164 58.293 19.9883C58.1914 19.9727 58.1211 19.9844 58.082 20.0234C58.043 20.0625 58 20.0977 57.9531 20.1289C57.8828 20.1445 57.832 20.1445 57.8008 20.1289C57.7695 20.1133 57.7422 20.0938 57.7188 20.0703C57.6953 20.0547 57.6641 20.0352 57.625 20.0117C57.5938 19.9961 57.543 19.9883 57.4727 19.9883C57.457 19.9258 57.4375 19.8672 57.4141 19.8125C57.3984 19.7578 57.3477 19.7383 57.2617 19.7539C57.2773 19.6914 57.2812 19.6406 57.2734 19.6016C57.2656 19.5547 57.2539 19.5156 57.2383 19.4844C57.2305 19.4453 57.2227 19.4102 57.2148 19.3789C57.207 19.3398 57.2109 19.293 57.2266 19.2383C57.1875 19.2383 57.1562 19.2109 57.1328 19.1562C57.1094 19.1016 57.082 19.0469 57.0508 18.9922C57.0742 18.8516 57.0977 18.7188 57.1211 18.5938C57.1445 18.4688 57.1719 18.3516 57.2031 18.2422C57.2422 18.1328 57.2734 18.0234 57.2969 17.9141C57.3203 17.8047 57.3086 17.6914 57.2617 17.5742C57.293 17.5977 57.3164 17.5938 57.332 17.5625C57.3477 17.5234 57.3594 17.4766 57.3672 17.4219C57.375 17.3594 57.3789 17.3008 57.3789 17.2461C57.3789 17.1836 57.375 17.1328 57.3672 17.0938C57.4453 16.8906 57.5078 16.6836 57.5547 16.4727C57.6094 16.2539 57.6562 16.0391 57.6953 15.8281C57.7422 15.6172 57.7891 15.4102 57.8359 15.207C57.8828 15.0039 57.9453 14.8164 58.0234 14.6445C58.1094 14.6289 58.2031 14.6406 58.3047 14.6797C58.4141 14.7109 58.4805 14.7539 58.5039 14.8086C58.707 14.6523 58.8867 14.4648 59.043 14.2461C59.1992 14.0195 59.3594 13.8008 59.5234 13.5898C59.6875 13.3789 59.8672 13.1914 60.0625 13.0273C60.2656 12.8633 60.5195 12.7656 60.8242 12.7344C60.9805 12.8516 61.1523 12.9727 61.3398 13.0977C61.5352 13.2148 61.6953 13.3711 61.8203 13.5664C61.8828 13.5977 61.9336 13.6328 61.9727 13.6719C62.0195 13.7031 62.0742 13.7383 62.1367 13.7773V13.918C62.2305 14.0039 62.3047 14.1055 62.3594 14.2227C62.4219 14.332 62.4766 14.4531 62.5234 14.5859C62.5703 14.7109 62.6172 14.8398 62.6641 14.9727C62.7109 15.0977 62.7656 15.2188 62.8281 15.3359C62.8125 15.375 62.8047 15.4102 62.8047 15.4414C62.8047 15.4648 62.8086 15.4922 62.8164 15.5234C62.832 15.5547 62.8438 15.5859 62.8516 15.6172C62.8594 15.6484 62.8594 15.6914 62.8516 15.7461C62.8281 16.0898 62.7148 16.3672 62.5117 16.5781C62.3164 16.7891 62.0781 16.9648 61.7969 17.1055C61.5156 17.2383 61.2148 17.3516 60.8945 17.4453C60.5742 17.5391 60.2852 17.6406 60.0273 17.75C60.0273 17.7812 60.0391 17.7969 60.0625 17.7969C60.0938 17.7969 60.1055 17.8164 60.0977 17.8555C60.2852 17.9727 60.4336 18.0664 60.543 18.1367C60.6523 18.207 60.7539 18.2656 60.8477 18.3125C60.9492 18.3594 61.0547 18.4023 61.1641 18.4414C61.2812 18.4727 61.4414 18.5117 61.6445 18.5586C61.8477 18.6055 62.0039 18.6445 62.1133 18.6758C62.2305 18.6992 62.3359 18.7227 62.4297 18.7461C62.5234 18.7617 62.6172 18.7773 62.7109 18.793C62.8125 18.8008 62.9531 18.8125 63.1328 18.8281C63.2031 18.8984 63.2617 18.9844 63.3086 19.0859C63.3633 19.1797 63.3984 19.2773 63.4141 19.3789C63.4297 19.4727 63.4336 19.5664 63.4258 19.6602C63.418 19.7461 63.3906 19.8164 63.3438 19.8711C63.3516 19.8945 63.3672 19.9062 63.3906 19.9062C63.4219 19.8984 63.4531 19.8984 63.4844 19.9062C63.4375 19.9375 63.3984 19.9766 63.3672 20.0234C63.3359 20.0703 63.3047 20.1172 63.2734 20.1641C63.2422 20.2109 63.207 20.25 63.168 20.2812C63.1289 20.3203 63.0742 20.3438 63.0039 20.3516C62.7617 20.4453 62.457 20.4492 62.0898 20.3633C61.7227 20.2852 61.2578 20.1367 60.6953 19.918C60.4141 19.8086 60.1836 19.7148 60.0039 19.6367C59.832 19.5508 59.6797 19.4688 59.5469 19.3906C59.4219 19.3047 59.3047 19.2148 59.1953 19.1211C59.0938 19.0273 58.9688 18.9141 58.8203 18.7812ZM60.4961 14.7617C60.4102 14.8867 60.3125 15 60.2031 15.1016C60.1016 15.2031 60 15.3086 59.8984 15.418C59.8047 15.5195 59.7188 15.6367 59.6406 15.7695C59.5625 15.8945 59.5078 16.043 59.4766 16.2148C59.75 16.1836 60.0352 16.1094 60.332 15.9922C60.6289 15.8672 60.9102 15.75 61.1758 15.6406C61.1445 15.3984 61.0586 15.2031 60.918 15.0547C60.7852 14.9062 60.6445 14.8086 60.4961 14.7617ZM69.9648 13.4023C69.9727 13.457 69.9727 13.5 69.9648 13.5312C69.9648 13.5547 69.9609 13.5781 69.9531 13.6016C69.9531 13.625 69.9531 13.6523 69.9531 13.6836C69.9531 13.707 69.9609 13.7461 69.9766 13.8008C69.8125 14.0664 69.6211 14.25 69.4023 14.3516C69.1914 14.4453 68.9609 14.5156 68.7109 14.5625C68.4609 14.6016 68.2031 14.6445 67.9375 14.6914C67.6797 14.7383 67.4219 14.8398 67.1641 14.9961C67.0625 14.957 66.9688 14.957 66.8828 14.9961C66.8047 15.0352 66.6875 15.0469 66.5312 15.0312C66.4844 15.0781 66.4258 15.1133 66.3555 15.1367C66.2852 15.1523 66.2148 15.1719 66.1445 15.1953C66.1758 15.2656 66.1875 15.3398 66.1797 15.418C66.1797 15.4883 66.1914 15.5469 66.2148 15.5938C66.4883 15.6172 66.7891 15.6133 67.1172 15.582C67.4531 15.5508 67.7812 15.5312 68.1016 15.5234C68.1094 15.5625 68.1055 15.5898 68.0898 15.6055C68.0742 15.6133 68.0703 15.6328 68.0781 15.6641C68.1328 15.7031 68.1875 15.7539 68.2422 15.8164C68.2969 15.8711 68.3516 15.9258 68.4062 15.9805C68.4609 16.0352 68.5156 16.082 68.5703 16.1211C68.6328 16.1523 68.7031 16.1641 68.7812 16.1562C68.8125 16.2188 68.832 16.2891 68.8398 16.3672C68.8555 16.4375 68.8477 16.5117 68.8164 16.5898C68.6914 16.6758 68.5664 16.7656 68.4414 16.8594C68.3164 16.9453 68.1836 17.0234 68.043 17.0938C67.9102 17.1641 67.7656 17.2227 67.6094 17.2695C67.4609 17.3086 67.293 17.3242 67.1055 17.3164C67.0664 17.3164 67.0352 17.3164 67.0117 17.3164C66.9961 17.3164 66.9727 17.3047 66.9414 17.2812C66.8789 17.3203 66.7891 17.332 66.6719 17.3164C66.5625 17.3008 66.4766 17.3125 66.4141 17.3516C66.3281 17.3125 66.2227 17.2969 66.0977 17.3047C65.9805 17.3047 65.875 17.2891 65.7812 17.2578C65.6562 17.4219 65.543 17.5977 65.4414 17.7852C65.3398 17.9727 65.25 18.1719 65.1719 18.3828C65.4375 18.4219 65.6562 18.4375 65.8281 18.4297C66.0078 18.4219 66.1758 18.4102 66.332 18.3945C66.4883 18.3711 66.6484 18.3516 66.8125 18.3359C66.9766 18.3125 67.1836 18.3047 67.4336 18.3125C67.5898 18.2266 67.7734 18.1719 67.9844 18.1484C68.2031 18.1172 68.4023 18.0703 68.582 18.0078C68.6445 18.0312 68.6992 18.0742 68.7461 18.1367C68.793 18.1914 68.8359 18.2461 68.875 18.3008C68.9219 18.3477 68.9688 18.3906 69.0156 18.4297C69.0625 18.4688 69.1211 18.4844 69.1914 18.4766C69.2227 18.5078 69.2422 18.5469 69.25 18.5938C69.2656 18.6328 69.2773 18.6719 69.2852 18.7109C69.293 18.75 69.3047 18.7852 69.3203 18.8164C69.3438 18.8398 69.3789 18.8477 69.4258 18.8398C69.3086 19.0977 69.1719 19.2969 69.0156 19.4375C68.8672 19.5703 68.6953 19.6719 68.5 19.7422C68.3047 19.8125 68.0859 19.8672 67.8438 19.9062C67.6094 19.9453 67.3477 19.9922 67.0586 20.0469C66.9883 20.0625 66.9297 20.0586 66.8828 20.0352C66.8359 20.0195 66.7812 20.0117 66.7188 20.0117C66.5391 20.0508 66.3242 20.0859 66.0742 20.1172C65.8242 20.1484 65.5703 20.1602 65.3125 20.1523C65.0547 20.1445 64.8086 20.1094 64.5742 20.0469C64.3398 19.9922 64.1484 19.8906 64 19.7422C63.9375 19.6875 63.8945 19.625 63.8711 19.5547C63.8555 19.4766 63.8047 19.418 63.7188 19.3789C63.7109 19.2773 63.6953 19.1641 63.6719 19.0391C63.6484 18.9141 63.625 18.7852 63.6016 18.6523C63.5781 18.5117 63.5586 18.375 63.543 18.2422C63.5352 18.1094 63.543 17.9883 63.5664 17.8789C63.5898 17.7617 63.6367 17.6562 63.707 17.5625C63.7852 17.4688 63.8125 17.3672 63.7891 17.2578C63.8281 17.25 63.8516 17.2305 63.8594 17.1992C63.8672 17.1602 63.8984 17.1445 63.9531 17.1523C64 17.0117 64.0508 16.8789 64.1055 16.7539C64.1602 16.6289 64.2148 16.5078 64.2695 16.3906C64.332 16.2734 64.3906 16.1562 64.4453 16.0391C64.5078 15.9141 64.5664 15.7773 64.6211 15.6289C64.5117 15.5273 64.4297 15.418 64.375 15.3008C64.3281 15.1758 64.293 15.0547 64.2695 14.9375C64.2461 14.8125 64.2266 14.6875 64.2109 14.5625C64.1953 14.4297 64.168 14.2969 64.1289 14.1641C64.207 14.0469 64.3008 13.9531 64.4102 13.8828C64.5273 13.8047 64.6523 13.7422 64.7852 13.6953C64.918 13.6484 65.0625 13.6094 65.2188 13.5781C65.375 13.5469 65.5391 13.5117 65.7109 13.4727C66.0234 13.3711 66.3008 13.293 66.543 13.2383C66.793 13.1836 67.0352 13.1406 67.2695 13.1094C67.5117 13.0703 67.7617 13.0352 68.0195 13.0039C68.2773 12.9727 68.5703 12.9258 68.8984 12.8633C68.9688 12.9336 69.0352 12.9688 69.0977 12.9688C69.1289 12.8984 69.1641 12.8789 69.2031 12.9102C69.25 12.9336 69.2695 12.9102 69.2617 12.8398C69.3398 12.9727 69.4375 13.0859 69.5547 13.1797C69.6797 13.2656 69.8164 13.3398 69.9648 13.4023ZM74.4414 20.0234C74.3164 20.0312 74.1602 20.0273 73.9727 20.0117C73.793 19.9961 73.625 20.0234 73.4688 20.0938C73.0547 20.0781 72.6328 20.0273 72.2031 19.9414C71.7734 19.8555 71.3789 19.75 71.0195 19.625C70.9414 19.5391 70.8633 19.4609 70.7852 19.3906C70.707 19.3125 70.6016 19.2578 70.4688 19.2266C70.2812 19.0781 70.1289 18.8984 70.0117 18.6875C69.8945 18.4688 69.8008 18.2383 69.7305 17.9961C69.6602 17.7539 69.6133 17.5078 69.5898 17.2578C69.5664 17 69.5586 16.7539 69.5664 16.5195C69.6836 16.168 69.8477 15.8672 70.0586 15.6172C70.2773 15.3594 70.5 15.1055 70.7266 14.8555C70.8281 14.8086 70.9023 14.7617 70.9492 14.7148C71.0039 14.6602 71.0586 14.6133 71.1133 14.5742C71.1758 14.5273 71.2344 14.4844 71.2891 14.4453C71.3516 14.3984 71.4062 14.3438 71.4531 14.2812C71.6172 14.2422 71.7578 14.1875 71.875 14.1172C72 14.0391 72.1211 13.9609 72.2383 13.8828C72.3555 13.7969 72.4766 13.7188 72.6016 13.6484C72.7266 13.5781 72.8711 13.5234 73.0352 13.4844C73.0977 13.4141 73.1719 13.3594 73.2578 13.3203C73.3438 13.2734 73.4297 13.2305 73.5156 13.1914C73.6094 13.1445 73.6953 13.0977 73.7734 13.0508C73.8594 13.0039 73.9258 12.9414 73.9727 12.8633C74.0117 12.9258 74.0664 12.9492 74.1367 12.9336C74.207 12.9102 74.2734 12.8867 74.3359 12.8633C74.375 12.8555 74.4062 12.8633 74.4297 12.8867C74.4609 12.9102 74.4883 12.9336 74.5117 12.957C74.5352 12.9805 74.5547 12.9961 74.5703 13.0039C74.5938 13.0039 74.6133 12.9844 74.6289 12.9453C74.668 12.9453 74.6797 12.9648 74.6641 13.0039C74.6484 13.043 74.6367 13.0703 74.6289 13.0859C74.6914 13.0781 74.7422 13.0938 74.7812 13.1328C74.8281 13.1641 74.8984 13.1836 74.9922 13.1914C75.0234 13.2305 75.0312 13.2617 75.0156 13.2852C75 13.3008 74.9922 13.332 74.9922 13.3789C75.2266 13.4492 75.375 13.5625 75.4375 13.7188C75.5 13.8672 75.5039 14.0234 75.4492 14.1875C75.3945 14.3516 75.2969 14.5039 75.1562 14.6445C75.0156 14.7852 74.8633 14.8789 74.6992 14.9258C74.3242 15.0273 73.9688 15.1406 73.6328 15.2656C73.3047 15.3828 73.0352 15.5586 72.8242 15.793C72.6367 15.8477 72.4688 15.9219 72.3203 16.0156C72.1797 16.1016 72.043 16.2031 71.9102 16.3203C71.7852 16.4297 71.6641 16.5469 71.5469 16.6719C71.4375 16.7891 71.3203 16.9062 71.1953 17.0234C71.2031 17.1328 71.1836 17.2188 71.1367 17.2812C71.0977 17.3359 71.0586 17.3945 71.0195 17.457C71.0352 17.5742 71.0625 17.6797 71.1016 17.7734C71.1406 17.8594 71.1836 17.9453 71.2305 18.0312C71.7461 18.1875 72.293 18.2852 72.8711 18.3242C73.457 18.3633 74.043 18.3867 74.6289 18.3945C74.6836 18.4727 74.7461 18.5469 74.8164 18.6172C74.8945 18.6797 74.9648 18.75 75.0273 18.8281C75.0898 18.8984 75.1406 18.9805 75.1797 19.0742C75.2188 19.1602 75.2266 19.2695 75.2031 19.4023C75.0938 19.5195 74.9727 19.6289 74.8398 19.7305C74.707 19.8242 74.5742 19.9219 74.4414 20.0234ZM82.3984 14.3633C82.2031 14.3633 81.9922 14.3789 81.7656 14.4102C81.5391 14.4336 81.3164 14.4609 81.0977 14.4922C80.9414 14.5156 80.7891 14.5352 80.6406 14.5508C80.5 14.5664 80.3711 14.5781 80.2539 14.5859C80.1992 14.7578 80.1445 14.9102 80.0898 15.043C80.0352 15.1758 79.9766 15.3047 79.9141 15.4297C79.8516 15.5625 79.793 15.6992 79.7383 15.8398C79.6914 15.9727 79.6445 16.1172 79.5977 16.2734C79.5195 16.3984 79.4531 16.5156 79.3984 16.625C79.3516 16.7266 79.3125 16.8438 79.2812 16.9766C79.1875 17.0938 79.1172 17.2188 79.0703 17.3516C79.0234 17.4766 78.9883 17.5859 78.9648 17.6797L78.918 17.8203C78.8711 17.8672 78.8438 17.9062 78.8359 17.9375C78.8281 17.9609 78.8086 17.9844 78.7773 18.0078C78.7695 18.0938 78.7422 18.1797 78.6953 18.2656C78.6797 18.3047 78.668 18.3438 78.6602 18.3828C78.6523 18.4141 78.6484 18.4375 78.6484 18.4531C78.6484 18.5312 78.6289 18.582 78.5898 18.6055C78.5977 18.6445 78.5977 18.6875 78.5898 18.7344C78.582 18.7734 78.5742 18.8125 78.5664 18.8516C78.543 18.9453 78.5352 19.0195 78.543 19.0742C78.5664 19.1055 78.5859 19.1328 78.6016 19.1562C78.625 19.1797 78.6406 19.2109 78.6484 19.25C78.6953 19.2812 78.7305 19.3008 78.7539 19.3086C78.7852 19.332 78.832 19.3594 78.8945 19.3906L79 19.5078C79.0391 19.7344 79.0039 19.9141 78.8945 20.0469C78.7773 20.1953 78.5781 20.2695 78.2969 20.2695H78.1562C78.1172 20.2305 78.0938 20.1992 78.0859 20.1758C78.0234 20.1523 77.9727 20.1328 77.9336 20.1172C77.8945 20.1016 77.8594 20.0703 77.8281 20.0234C77.7266 19.9766 77.6445 19.9375 77.582 19.9062L77.4766 19.8477C77.4766 19.7617 77.4766 19.7148 77.4766 19.707C77.4219 19.6367 77.3789 19.5586 77.3477 19.4727C77.3242 19.3867 77.3047 19.3008 77.2891 19.2148C77.2734 19.1445 77.2539 19.0781 77.2305 19.0156C77.2148 18.9531 77.1914 18.8984 77.1602 18.8516C77.1445 18.3984 77.1875 18.0156 77.2891 17.7031C77.3906 17.3906 77.4961 17.0898 77.6055 16.8008C77.668 16.6445 77.7305 16.4883 77.793 16.332C77.8555 16.168 77.9102 16 77.957 15.8281L78.0625 15.7109C78.1172 15.5859 78.1602 15.4844 78.1914 15.4062C78.2305 15.3203 78.2695 15.2344 78.3086 15.1484C78.332 15.0938 78.3516 15.043 78.3672 14.9961C78.3906 14.9414 78.4102 14.8945 78.4258 14.8555C78.3789 14.8555 78.3359 14.8594 78.2969 14.8672C78.2578 14.8672 78.2188 14.8711 78.1797 14.8789C78.1328 14.8867 78.0898 14.8945 78.0508 14.9023C78.0117 14.9023 77.9727 14.9023 77.9336 14.9023C77.8789 14.9023 77.8398 14.8984 77.8164 14.8906C77.7305 14.9297 77.6367 14.9492 77.5352 14.9492H77.418C77.3945 14.9492 77.3711 14.9492 77.3477 14.9492C77.332 14.9414 77.3164 14.9375 77.3008 14.9375C77.2227 14.9375 77.1602 14.9492 77.1133 14.9727C77.0195 14.9727 76.9297 14.9727 76.8438 14.9727H76.7266C76.7109 14.9727 76.6914 14.9766 76.668 14.9844C76.6445 14.9844 76.625 14.9844 76.6094 14.9844C76.5547 14.9844 76.4961 14.9805 76.4336 14.9727C76.3711 14.957 76.3047 14.9297 76.2344 14.8906C76.1406 14.7656 76.0781 14.6992 76.0469 14.6914L75.9414 14.5508C75.9336 14.5039 75.9219 14.4609 75.9062 14.4219C75.8906 14.375 75.875 14.3242 75.8594 14.2695C75.8281 14.1914 75.7969 14.1094 75.7656 14.0234C75.7422 13.9297 75.7305 13.8203 75.7305 13.6953C75.7383 13.6328 75.7539 13.5859 75.7773 13.5547C75.8008 13.5234 75.8203 13.4961 75.8359 13.4727L75.8711 13.2969L76.0234 13.3086H76.3516C76.6016 13.3086 76.8555 13.3008 77.1133 13.2852C77.3711 13.2617 77.6367 13.2383 77.9102 13.2148C78.0664 13.1992 78.2227 13.1836 78.3789 13.168C78.543 13.1523 78.7109 13.1367 78.8828 13.1211C78.9141 13.0508 78.9453 12.9844 78.9766 12.9219L79.0938 12.8633C79.2344 12.8555 79.332 12.875 79.3867 12.9219C79.4492 12.9609 79.5 13 79.5391 13.0391C79.7109 13.0234 79.8828 13.0078 80.0547 12.9922C80.2344 12.9688 80.4141 12.9414 80.5938 12.9102C80.8594 12.8711 81.125 12.8359 81.3906 12.8047C81.6641 12.7734 81.9258 12.7578 82.1758 12.7578C82.2852 12.7578 82.3906 12.7617 82.4922 12.7695C82.5938 12.7773 82.6875 12.7891 82.7734 12.8047L82.8906 12.8867C82.9141 12.9336 82.9453 12.9766 82.9844 13.0156C83.0312 13.0547 83.0781 13.0938 83.125 13.1328C83.2188 13.2188 83.3125 13.3203 83.4062 13.4375C83.5 13.5547 83.5352 13.7266 83.5117 13.9531C83.4492 14.0469 83.4023 14.1016 83.3711 14.1172L83.2656 14.2578L83.1484 14.2461C83.1016 14.2461 83.0586 14.2539 83.0195 14.2695C82.9805 14.2773 82.9414 14.2891 82.9023 14.3047C82.8711 14.3203 82.8398 14.3359 82.8086 14.3516C82.7773 14.3594 82.7422 14.3672 82.7031 14.375C82.6328 14.375 82.5742 14.375 82.5273 14.375C82.4883 14.3672 82.4453 14.3633 82.3984 14.3633ZM84.5781 19.8711C84.3594 19.9414 84.1211 20.0117 83.8633 20.082C83.6055 20.1523 83.3477 20.1875 83.0898 20.1875C82.6992 20.1875 82.3906 20.0898 82.1641 19.8945C82.125 19.8086 82.0898 19.75 82.0586 19.7188C82.0352 19.6875 82.0117 19.6562 81.9883 19.625C81.9727 19.5859 81.9609 19.5352 81.9531 19.4727C81.8594 19.3633 81.7852 19.2383 81.7305 19.0977C81.6758 18.9492 81.6367 18.8008 81.6133 18.6523C81.5977 18.4961 81.5938 18.3398 81.6016 18.1836C81.6172 18.0273 81.6445 17.8789 81.6836 17.7383C81.6992 17.707 81.707 17.6758 81.707 17.6445C81.7148 17.6133 81.7227 17.5781 81.7305 17.5391C81.7617 17.4141 81.793 17.293 81.8242 17.1758C81.8633 17.0586 81.9141 16.957 81.9766 16.8711C81.9453 16.8008 81.9453 16.7227 81.9766 16.6367C82.0078 16.5508 82.043 16.4727 82.082 16.4023C82.1914 16.1055 82.2812 15.8555 82.3516 15.6523C82.4297 15.4414 82.5078 15.2344 82.5859 15.0312C82.7188 14.6797 82.8438 14.332 82.9609 13.9883C83.0781 13.6445 83.1836 13.2734 83.2773 12.875C83.3398 12.8359 83.3867 12.8086 83.418 12.793C83.4648 12.7773 83.5039 12.7656 83.5352 12.7578C83.6758 12.8281 83.8398 12.8984 84.0273 12.9688C84.2148 13.0312 84.3711 13.0625 84.4961 13.0625C84.5586 13.1016 84.5977 13.1328 84.6133 13.1562C84.6289 13.1719 84.6445 13.1875 84.6602 13.2031C84.7461 13.3047 84.8203 13.4102 84.8828 13.5195C84.9453 13.6211 84.9648 13.7578 84.9414 13.9297C84.8945 14 84.8594 14.0352 84.8359 14.0352C84.7969 14.1914 84.7539 14.3242 84.707 14.4336C84.668 14.543 84.625 14.6523 84.5781 14.7617C84.5234 14.8789 84.4727 14.9961 84.4258 15.1133C84.3789 15.2305 84.3398 15.375 84.3086 15.5469C84.2773 15.5859 84.2539 15.6211 84.2383 15.6523C84.2305 15.6836 84.2188 15.7188 84.2031 15.7578C84.1875 15.7969 84.168 15.8398 84.1445 15.8867C84.1289 15.9258 84.1016 15.9609 84.0625 15.9922C84.0391 16.1953 84 16.3594 83.9453 16.4844C83.8984 16.6094 83.8477 16.7344 83.793 16.8594C83.6992 17.0859 83.6133 17.3125 83.5352 17.5391C83.4648 17.7656 83.4219 18.0234 83.4062 18.3125C83.4453 18.2969 83.4805 18.2891 83.5117 18.2891C83.5508 18.2891 83.5859 18.2891 83.6172 18.2891C83.6875 18.2891 83.7695 18.3008 83.8633 18.3242C84.0977 18.1992 84.3516 18.125 84.625 18.1016C84.9062 18.0781 85.1836 18.0625 85.457 18.0547C85.5664 18.0547 85.6758 18.0547 85.7852 18.0547C85.8945 18.0547 85.9961 18.0469 86.0898 18.0312C86.1602 18.0703 86.2031 18.0938 86.2188 18.1016C86.2422 18.1016 86.2734 18.1016 86.3125 18.1016C86.3672 18.1016 86.4141 18.1055 86.4531 18.1133C86.5469 18.1992 86.6367 18.2617 86.7227 18.3008C86.8086 18.3398 86.8984 18.375 86.9922 18.4062C87.0781 18.4375 87.1602 18.4727 87.2383 18.5117C87.3242 18.543 87.4062 18.5898 87.4844 18.6523L87.5664 19.1562C87.6211 19.2266 87.6445 19.2734 87.6367 19.2969C87.6367 19.3594 87.6211 19.4062 87.5898 19.4375L87.6133 19.5664C87.4961 19.5898 87.4141 19.6172 87.3672 19.6484C87.3281 19.6797 87.2891 19.7148 87.25 19.7539C87.1875 19.7617 87.1406 19.7656 87.1094 19.7656C87.0859 19.7656 87.0625 19.7656 87.0391 19.7656C86.9297 19.7656 86.7969 19.7852 86.6406 19.8242C86.4297 19.7539 86.2109 19.7188 85.9844 19.7188C85.8984 19.7188 85.8086 19.7227 85.7148 19.7305C85.6211 19.7383 85.5273 19.7461 85.4336 19.7539C85.3398 19.7695 85.2422 19.7812 85.1406 19.7891C85.0469 19.7969 84.9492 19.8008 84.8477 19.8008L84.5781 19.8711ZM91.2695 16.9297C91.2148 16.9766 91.168 17.0352 91.1289 17.1055C91.0898 17.168 91.0508 17.2344 91.0117 17.3047C90.9727 17.3906 90.9297 17.4727 90.8828 17.5508C90.8359 17.6289 90.7773 17.6992 90.707 17.7617C90.668 17.8789 90.6289 17.9727 90.5898 18.043C90.5508 18.1055 90.4883 18.1797 90.4023 18.2656C90.3242 18.5781 90.1406 18.918 89.8516 19.2852C89.8438 19.3555 89.8203 19.4258 89.7812 19.4961C89.75 19.5586 89.7148 19.6211 89.6758 19.6836C89.6602 19.707 89.6445 19.7344 89.6289 19.7656C89.6133 19.7891 89.6016 19.8086 89.5938 19.8242L89.5703 19.9414C89.5312 20.0039 89.4883 20.0586 89.4414 20.1055C89.3945 20.1523 89.3516 20.1953 89.3125 20.2344C89.2969 20.2578 89.2695 20.2891 89.2305 20.3281L89.0547 20.3984C88.4844 20.3203 88.1367 20.0156 88.0117 19.4844L88.0234 19.3672C88.0391 19.3281 88.0508 19.2891 88.0586 19.25C88.0742 19.2031 88.0898 19.1562 88.1055 19.1094C88.1367 19 88.1719 18.8906 88.2109 18.7812C88.2578 18.6719 88.3242 18.5742 88.4102 18.4883C88.4258 18.4336 88.4609 18.3477 88.5156 18.2305C88.5703 18.1055 88.6641 17.9219 88.7969 17.6797C88.9062 17.4922 88.9922 17.3438 89.0547 17.2344C89.1172 17.125 89.168 17.0391 89.207 16.9766C89.1289 16.8516 89.0352 16.7383 88.9258 16.6367C88.8242 16.4414 88.7344 16.2539 88.6562 16.0742C88.5859 15.8945 88.5312 15.7344 88.4922 15.5938C88.4844 15.4922 88.4727 15.4062 88.457 15.3359C88.4414 15.2656 88.4258 15.1914 88.4102 15.1133C88.3867 15.0273 88.3672 14.9414 88.3516 14.8555C88.3359 14.7695 88.3281 14.6797 88.3281 14.5859C88.2891 14.5312 88.2656 14.4766 88.2578 14.4219L88.2812 14.3047C88.3047 14.25 88.3086 14.1797 88.293 14.0938C88.2773 14 88.2578 13.9062 88.2344 13.8125C88.2188 13.7344 88.1992 13.6484 88.1758 13.5547C88.1602 13.4609 88.1562 13.3672 88.1641 13.2734C88.1719 13.1797 88.1953 13.0938 88.2344 13.0156C88.2812 12.9297 88.3555 12.8555 88.457 12.793L88.6562 12.7812C88.7266 12.8203 88.793 12.8594 88.8555 12.8984C88.9258 12.9297 88.9922 12.9648 89.0547 13.0039C89.1406 13.043 89.2227 13.082 89.3008 13.1211C89.3789 13.1602 89.4609 13.2109 89.5469 13.2734L89.6289 13.4375L89.7812 13.5664V13.6953C89.7891 13.7266 89.793 13.7695 89.793 13.8242C89.793 13.9258 89.8086 13.9883 89.8398 14.0117L89.8867 14.1523C89.8867 14.2617 89.8984 14.3672 89.9219 14.4688C89.9453 14.5625 89.9688 14.6523 89.9922 14.7383C90.0156 14.8242 90.0391 14.9141 90.0625 15.0078C90.0859 15.1016 90.0898 15.2031 90.0742 15.3125C90.1211 15.2891 90.1602 15.2617 90.1914 15.2305C90.207 15.2148 90.2227 15.2031 90.2383 15.1953C90.2539 15.1875 90.2695 15.1758 90.2852 15.1602L90.9766 14.2227L90.9531 14.1055L91.1992 13.8711C91.2617 13.8086 91.3203 13.75 91.375 13.6953C91.4375 13.6406 91.4883 13.582 91.5273 13.5195L91.6562 13.4258C91.9062 13.0352 92.2617 12.793 92.7227 12.6992L92.8867 12.6758L92.9336 12.8281C92.9648 12.9141 93.0273 12.9922 93.1211 13.0625C93.2227 13.1328 93.3281 13.1992 93.4375 13.2617L93.543 13.332C93.582 13.4102 93.6016 13.4688 93.6016 13.5078C93.6016 13.5469 93.5977 13.582 93.5898 13.6133L93.6367 13.7305C93.5742 13.918 93.4961 14.0547 93.4023 14.1406C93.3164 14.2266 93.2305 14.3047 93.1445 14.375C93.0742 14.4375 93.0078 14.4961 92.9453 14.5508C92.8906 14.5977 92.8477 14.6602 92.8164 14.7383L92.7344 14.832C92.5703 14.9258 92.4648 15.0508 92.418 15.207L92.3828 15.3477H92.2422C92.2344 15.3477 92.2148 15.3633 92.1836 15.3945C92.1602 15.418 92.1211 15.4844 92.0664 15.5938C92.0117 15.6719 91.9727 15.7227 91.9492 15.7461C91.9258 15.7695 91.9062 15.7891 91.8906 15.8047C91.8828 15.8359 91.8711 15.8672 91.8555 15.8984C91.8477 15.9219 91.8359 15.9531 91.8203 15.9922C91.7188 16.0938 91.6562 16.1719 91.6328 16.2266C91.6094 16.2734 91.582 16.3281 91.5508 16.3906C91.5195 16.4531 91.4883 16.5156 91.457 16.5781C91.4336 16.6328 91.3906 16.6914 91.3281 16.7539L91.2695 16.9297ZM99.25 19.1797C99.2891 19.4141 99.2734 19.5977 99.2031 19.7305C99.1406 19.8633 99.0469 19.9609 98.9219 20.0234C98.8047 20.0938 98.668 20.1328 98.5117 20.1406C98.3555 20.1484 98.207 20.1406 98.0664 20.1172C97.9883 20.0078 97.918 19.8711 97.8555 19.707C97.793 19.543 97.7344 19.375 97.6797 19.2031C97.625 19.0234 97.5742 18.8477 97.5273 18.6758C97.4883 18.5039 97.4531 18.3516 97.4219 18.2188C97.4609 18.125 97.4844 18.0195 97.4922 17.9023C97.5078 17.7773 97.5156 17.6523 97.5156 17.5273C97.5234 17.4023 97.5273 17.2773 97.5273 17.1523C97.5352 17.0195 97.5469 16.8945 97.5625 16.7773C97.6172 16.4492 97.6953 16.1367 97.7969 15.8398C97.9062 15.543 97.9922 15.2344 98.0547 14.9141C98.0703 14.8438 98.0625 14.7773 98.0312 14.7148C98.0078 14.6523 98.0039 14.5938 98.0195 14.5391C98.0273 14.5078 98.0508 14.4883 98.0898 14.4805C98.1289 14.4648 98.1523 14.4375 98.1602 14.3984C98.1836 14.3125 98.1875 14.2422 98.1719 14.1875C98.1641 14.1328 98.1797 14.0664 98.2188 13.9883C98.2578 13.9258 98.3047 13.8359 98.3594 13.7188C98.4219 13.5938 98.4453 13.4648 98.4297 13.332C98.5 13.2852 98.5664 13.2305 98.6289 13.168C98.6914 13.1055 98.7539 13.0508 98.8164 13.0039C98.8867 12.9492 98.9609 12.9023 99.0391 12.8633C99.125 12.8242 99.2266 12.8047 99.3438 12.8047C99.4062 12.8828 99.4453 12.9688 99.4609 13.0625C99.4844 13.1562 99.5039 13.25 99.5195 13.3438C99.543 13.4375 99.5742 13.5273 99.6133 13.6133C99.6523 13.6914 99.7188 13.7539 99.8125 13.8008C99.8125 13.8633 99.8125 13.9414 99.8125 14.0352C99.8125 14.1289 99.8164 14.2227 99.8242 14.3164C99.832 14.4023 99.8477 14.4844 99.8711 14.5625C99.9023 14.6328 99.9492 14.6797 100.012 14.7031C99.8711 15.0781 99.7383 15.4492 99.6133 15.8164C99.4961 16.1836 99.3984 16.5547 99.3203 16.9297C99.2422 17.2969 99.1914 17.668 99.168 18.043C99.1523 18.418 99.1797 18.7969 99.25 19.1797ZM103.012 17.8672C102.941 17.8828 102.891 17.9258 102.859 17.9961C102.828 18.0586 102.797 18.125 102.766 18.1953C102.742 18.2656 102.715 18.332 102.684 18.3945C102.66 18.4492 102.621 18.4766 102.566 18.4766C102.559 18.5391 102.535 18.5938 102.496 18.6406C102.465 18.6875 102.434 18.7383 102.402 18.793C102.371 18.8398 102.348 18.8945 102.332 18.957C102.316 19.0117 102.324 19.0781 102.355 19.1562C102.293 19.2031 102.254 19.2695 102.238 19.3555C102.223 19.4414 102.203 19.5234 102.18 19.6016C102.164 19.6797 102.133 19.7461 102.086 19.8008C102.039 19.8555 101.953 19.8789 101.828 19.8711C101.805 19.9023 101.801 19.9219 101.816 19.9297C101.832 19.9375 101.844 19.9648 101.852 20.0117C101.766 19.9961 101.699 20 101.652 20.0234C101.613 20.0547 101.562 20.0742 101.5 20.082C101.352 20.0352 101.227 19.9531 101.125 19.8359C101.031 19.7188 100.945 19.5898 100.867 19.4492C100.797 19.3008 100.73 19.1523 100.668 19.0039C100.613 18.8555 100.559 18.7266 100.504 18.6172C100.527 18.5312 100.531 18.4492 100.516 18.3711C100.5 18.2852 100.473 18.2148 100.434 18.1602C100.816 17.3477 101.234 16.4805 101.688 15.5586C102.141 14.6367 102.57 13.7266 102.977 12.8281C103.156 12.8984 103.332 12.9805 103.504 13.0742C103.684 13.1602 103.844 13.2617 103.984 13.3789C104.133 13.4961 104.258 13.6328 104.359 13.7891C104.461 13.9375 104.527 14.1055 104.559 14.293C104.543 14.3398 104.523 14.3594 104.5 14.3516C104.484 14.3359 104.469 14.3398 104.453 14.3633C104.484 14.4023 104.5 14.4297 104.5 14.4453C104.508 14.4609 104.508 14.4766 104.5 14.4922C104.5 14.5078 104.5 14.5312 104.5 14.5625C104.5 14.5859 104.512 14.6211 104.535 14.668C104.504 14.6602 104.48 14.6641 104.465 14.6797C104.457 14.6953 104.434 14.6953 104.395 14.6797C104.426 14.7656 104.434 14.8359 104.418 14.8906C104.41 14.9453 104.395 14.9961 104.371 15.043C104.348 15.082 104.328 15.1289 104.312 15.1836C104.297 15.2305 104.301 15.293 104.324 15.3711C104.301 15.3711 104.281 15.3789 104.266 15.3945C104.258 15.4023 104.25 15.4141 104.242 15.4297C104.234 15.4375 104.223 15.4492 104.207 15.4648C104.199 15.4727 104.184 15.4727 104.16 15.4648C104.184 15.6367 104.191 15.8086 104.184 15.9805C104.176 16.1523 104.168 16.3281 104.16 16.5078C104.16 16.6797 104.164 16.8633 104.172 17.0586C104.18 17.2461 104.207 17.4414 104.254 17.6445C104.535 17.4805 104.758 17.2695 104.922 17.0117C105.094 16.7539 105.23 16.4648 105.332 16.1445C105.441 15.8242 105.523 15.4805 105.578 15.1133C105.633 14.7461 105.691 14.3711 105.754 13.9883C105.824 13.918 105.879 13.832 105.918 13.7305C105.957 13.6289 105.992 13.5234 106.023 13.4141C106.055 13.2969 106.086 13.1836 106.117 13.0742C106.148 12.957 106.188 12.8516 106.234 12.7578C106.352 12.7734 106.449 12.8125 106.527 12.875C106.613 12.9297 106.691 12.9922 106.762 13.0625C106.832 13.125 106.906 13.1875 106.984 13.25C107.062 13.3047 107.16 13.3398 107.277 13.3555C107.371 13.4883 107.457 13.6172 107.535 13.7422C107.613 13.8672 107.664 14 107.688 14.1406C107.648 14.2031 107.617 14.2734 107.594 14.3516C107.578 14.4297 107.559 14.5078 107.535 14.5859C107.512 14.6641 107.48 14.7383 107.441 14.8086C107.402 14.8711 107.348 14.9258 107.277 14.9727C107.254 15.1758 107.223 15.3633 107.184 15.5352C107.152 15.6992 107.117 15.8633 107.078 16.0273C107.047 16.1914 107.02 16.3633 106.996 16.543C106.973 16.7148 106.965 16.9062 106.973 17.1172C106.91 17.2969 106.844 17.4883 106.773 17.6914C106.703 17.8945 106.648 18.0781 106.609 18.2422C106.484 18.3438 106.387 18.4648 106.316 18.6055C106.246 18.7461 106.172 18.8867 106.094 19.0273C106.062 19.0586 106.043 19.0664 106.035 19.0508C106.027 19.0352 106 19.0234 105.953 19.0156C105.961 19.0469 105.961 19.0703 105.953 19.0859C105.945 19.1016 105.934 19.1172 105.918 19.1328C105.91 19.1406 105.902 19.1562 105.895 19.1797C105.895 19.2031 105.902 19.2344 105.918 19.2734C105.809 19.3203 105.711 19.3867 105.625 19.4727C105.539 19.5586 105.445 19.6367 105.344 19.707C105.25 19.7773 105.133 19.8242 104.992 19.8477C104.859 19.8711 104.684 19.8438 104.465 19.7656C104.145 19.5312 103.859 19.2617 103.609 18.957C103.367 18.6523 103.168 18.2891 103.012 17.8672ZM114.051 14.3633C113.855 14.3633 113.645 14.3789 113.418 14.4102C113.191 14.4336 112.969 14.4609 112.75 14.4922C112.594 14.5156 112.441 14.5352 112.293 14.5508C112.152 14.5664 112.023 14.5781 111.906 14.5859C111.852 14.7578 111.797 14.9102 111.742 15.043C111.688 15.1758 111.629 15.3047 111.566 15.4297C111.504 15.5625 111.445 15.6992 111.391 15.8398C111.344 15.9727 111.297 16.1172 111.25 16.2734C111.172 16.3984 111.105 16.5156 111.051 16.625C111.004 16.7266 110.965 16.8438 110.934 16.9766C110.84 17.0938 110.77 17.2188 110.723 17.3516C110.676 17.4766 110.641 17.5859 110.617 17.6797L110.57 17.8203C110.523 17.8672 110.496 17.9062 110.488 17.9375C110.48 17.9609 110.461 17.9844 110.43 18.0078C110.422 18.0938 110.395 18.1797 110.348 18.2656C110.332 18.3047 110.32 18.3438 110.312 18.3828C110.305 18.4141 110.301 18.4375 110.301 18.4531C110.301 18.5312 110.281 18.582 110.242 18.6055C110.25 18.6445 110.25 18.6875 110.242 18.7344C110.234 18.7734 110.227 18.8125 110.219 18.8516C110.195 18.9453 110.188 19.0195 110.195 19.0742C110.219 19.1055 110.238 19.1328 110.254 19.1562C110.277 19.1797 110.293 19.2109 110.301 19.25C110.348 19.2812 110.383 19.3008 110.406 19.3086C110.438 19.332 110.484 19.3594 110.547 19.3906L110.652 19.5078C110.691 19.7344 110.656 19.9141 110.547 20.0469C110.43 20.1953 110.23 20.2695 109.949 20.2695H109.809C109.77 20.2305 109.746 20.1992 109.738 20.1758C109.676 20.1523 109.625 20.1328 109.586 20.1172C109.547 20.1016 109.512 20.0703 109.48 20.0234C109.379 19.9766 109.297 19.9375 109.234 19.9062L109.129 19.8477C109.129 19.7617 109.129 19.7148 109.129 19.707C109.074 19.6367 109.031 19.5586 109 19.4727C108.977 19.3867 108.957 19.3008 108.941 19.2148C108.926 19.1445 108.906 19.0781 108.883 19.0156C108.867 18.9531 108.844 18.8984 108.812 18.8516C108.797 18.3984 108.84 18.0156 108.941 17.7031C109.043 17.3906 109.148 17.0898 109.258 16.8008C109.32 16.6445 109.383 16.4883 109.445 16.332C109.508 16.168 109.562 16 109.609 15.8281L109.715 15.7109C109.77 15.5859 109.812 15.4844 109.844 15.4062C109.883 15.3203 109.922 15.2344 109.961 15.1484C109.984 15.0938 110.004 15.043 110.02 14.9961C110.043 14.9414 110.062 14.8945 110.078 14.8555C110.031 14.8555 109.988 14.8594 109.949 14.8672C109.91 14.8672 109.871 14.8711 109.832 14.8789C109.785 14.8867 109.742 14.8945 109.703 14.9023C109.664 14.9023 109.625 14.9023 109.586 14.9023C109.531 14.9023 109.492 14.8984 109.469 14.8906C109.383 14.9297 109.289 14.9492 109.188 14.9492H109.07C109.047 14.9492 109.023 14.9492 109 14.9492C108.984 14.9414 108.969 14.9375 108.953 14.9375C108.875 14.9375 108.812 14.9492 108.766 14.9727C108.672 14.9727 108.582 14.9727 108.496 14.9727H108.379C108.363 14.9727 108.344 14.9766 108.32 14.9844C108.297 14.9844 108.277 14.9844 108.262 14.9844C108.207 14.9844 108.148 14.9805 108.086 14.9727C108.023 14.957 107.957 14.9297 107.887 14.8906C107.793 14.7656 107.73 14.6992 107.699 14.6914L107.594 14.5508C107.586 14.5039 107.574 14.4609 107.559 14.4219C107.543 14.375 107.527 14.3242 107.512 14.2695C107.48 14.1914 107.449 14.1094 107.418 14.0234C107.395 13.9297 107.383 13.8203 107.383 13.6953C107.391 13.6328 107.406 13.5859 107.43 13.5547C107.453 13.5234 107.473 13.4961 107.488 13.4727L107.523 13.2969L107.676 13.3086H108.004C108.254 13.3086 108.508 13.3008 108.766 13.2852C109.023 13.2617 109.289 13.2383 109.562 13.2148C109.719 13.1992 109.875 13.1836 110.031 13.168C110.195 13.1523 110.363 13.1367 110.535 13.1211C110.566 13.0508 110.598 12.9844 110.629 12.9219L110.746 12.8633C110.887 12.8555 110.984 12.875 111.039 12.9219C111.102 12.9609 111.152 13 111.191 13.0391C111.363 13.0234 111.535 13.0078 111.707 12.9922C111.887 12.9688 112.066 12.9414 112.246 12.9102C112.512 12.8711 112.777 12.8359 113.043 12.8047C113.316 12.7734 113.578 12.7578 113.828 12.7578C113.938 12.7578 114.043 12.7617 114.145 12.7695C114.246 12.7773 114.34 12.7891 114.426 12.8047L114.543 12.8867C114.566 12.9336 114.598 12.9766 114.637 13.0156C114.684 13.0547 114.73 13.0938 114.777 13.1328C114.871 13.2188 114.965 13.3203 115.059 13.4375C115.152 13.5547 115.188 13.7266 115.164 13.9531C115.102 14.0469 115.055 14.1016 115.023 14.1172L114.918 14.2578L114.801 14.2461C114.754 14.2461 114.711 14.2539 114.672 14.2695C114.633 14.2773 114.594 14.2891 114.555 14.3047C114.523 14.3203 114.492 14.3359 114.461 14.3516C114.43 14.3594 114.395 14.3672 114.355 14.375C114.285 14.375 114.227 14.375 114.18 14.375C114.141 14.3672 114.098 14.3633 114.051 14.3633ZM119.605 16.4844C119.598 16.5781 119.605 16.668 119.629 16.7539C119.652 16.8398 119.68 16.9258 119.711 17.0117C119.75 17.0898 119.785 17.1719 119.816 17.2578C119.848 17.3438 119.871 17.4297 119.887 17.5156C119.902 17.625 119.902 17.7461 119.887 17.8789C119.871 18.0039 119.844 18.1289 119.805 18.2539C119.766 18.3711 119.715 18.4805 119.652 18.582C119.59 18.6758 119.516 18.7461 119.43 18.793C119.32 18.9336 119.188 19.043 119.031 19.1211C118.875 19.1992 118.73 19.293 118.598 19.4023C118.512 19.457 118.414 19.4961 118.305 19.5195C118.203 19.543 118.098 19.5664 117.988 19.5898C117.902 19.6367 117.801 19.6875 117.684 19.7422C117.566 19.7891 117.445 19.8359 117.32 19.8828C117.195 19.9219 117.07 19.9531 116.945 19.9766C116.82 19.9922 116.711 19.9961 116.617 19.9883C116.383 20.0742 116.152 20.1289 115.926 20.1523C115.707 20.1836 115.449 20.168 115.152 20.1055C114.871 20.1445 114.609 20.1328 114.367 20.0703C114.133 20.0078 113.922 19.9102 113.734 19.7773C113.555 19.6367 113.395 19.4727 113.254 19.2852C113.121 19.0898 113.012 18.8867 112.926 18.6758C112.863 18.2305 112.879 17.8281 112.973 17.4688C113.066 17.1016 113.199 16.7656 113.371 16.4609C113.551 16.1484 113.754 15.8633 113.98 15.6055C114.207 15.3398 114.426 15.082 114.637 14.832C114.684 14.8477 114.719 14.8477 114.742 14.832C114.773 14.8086 114.801 14.7812 114.824 14.75C114.848 14.7109 114.871 14.6758 114.895 14.6445C114.926 14.6133 114.961 14.5938 115 14.5859C115.055 14.4688 115.133 14.3828 115.234 14.3281C115.344 14.2656 115.43 14.1797 115.492 14.0703C115.562 14.0547 115.621 14.0312 115.668 14C115.715 13.9688 115.758 13.9336 115.797 13.8945C115.844 13.8555 115.891 13.8203 115.938 13.7891C115.984 13.75 116.039 13.7227 116.102 13.707V13.5781C116.242 13.5156 116.344 13.4453 116.406 13.3672C116.477 13.2812 116.559 13.1797 116.652 13.0625C116.723 13.0547 116.777 13.0508 116.816 13.0508C116.863 13.0508 116.93 13.043 117.016 13.0273C117.078 12.918 117.133 12.8359 117.18 12.7812C117.234 12.7266 117.312 12.668 117.414 12.6055C117.508 12.6523 117.609 12.6836 117.719 12.6992C117.836 12.7148 117.938 12.7656 118.023 12.8516C118.031 12.9297 118.055 12.9922 118.094 13.0391C118.133 13.0781 118.176 13.1172 118.223 13.1562C118.27 13.1875 118.312 13.2227 118.352 13.2617C118.398 13.3008 118.43 13.3555 118.445 13.4258C118.477 13.4336 118.496 13.4297 118.504 13.4141C118.52 13.3984 118.543 13.3945 118.574 13.4023C118.598 13.5117 118.625 13.5859 118.656 13.625C118.688 13.6562 118.719 13.7227 118.75 13.8242C118.711 13.9023 118.68 13.9844 118.656 14.0703C118.641 14.1484 118.594 14.207 118.516 14.2461C118.508 14.3008 118.523 14.332 118.562 14.3398C118.602 14.3398 118.625 14.3594 118.633 14.3984C118.641 14.4688 118.629 14.5195 118.598 14.5508C118.785 14.8555 118.953 15.1797 119.102 15.5234C119.25 15.8594 119.418 16.1797 119.605 16.4844ZM118.141 17.5977C118.172 17.5117 118.211 17.4414 118.258 17.3867C118.312 17.332 118.344 17.25 118.352 17.1406C118.312 17.0781 118.289 17.0312 118.281 17C118.273 16.9609 118.27 16.9023 118.27 16.8242C118.098 16.582 117.949 16.3242 117.824 16.0508C117.699 15.7695 117.559 15.5078 117.402 15.2656C117.387 15.2969 117.359 15.3281 117.32 15.3594C117.281 15.3906 117.238 15.3828 117.191 15.3359C117.176 15.3984 117.148 15.4453 117.109 15.4766C117.07 15.5 117.027 15.5117 116.98 15.5117C116.934 15.5039 116.883 15.4922 116.828 15.4766C116.781 15.4531 116.738 15.4258 116.699 15.3945C116.473 15.5742 116.246 15.75 116.02 15.9219C115.793 16.0938 115.59 16.293 115.41 16.5195C115.379 16.5352 115.359 16.543 115.352 16.543C115.344 16.5352 115.32 16.5391 115.281 16.5547C115.219 16.7031 115.141 16.8398 115.047 16.9648C114.961 17.082 114.875 17.2031 114.789 17.3281C114.703 17.4531 114.629 17.5859 114.566 17.7266C114.504 17.8672 114.469 18.0312 114.461 18.2188C114.594 18.3281 114.75 18.3945 114.93 18.418C115.109 18.4414 115.293 18.4453 115.48 18.4297C115.676 18.4141 115.863 18.3906 116.043 18.3594C116.23 18.3203 116.402 18.3008 116.559 18.3008C116.887 18.2227 117.168 18.1211 117.402 17.9961C117.637 17.8633 117.883 17.7305 118.141 17.5977ZM129.637 20.0234C129.512 20.0312 129.355 20.0273 129.168 20.0117C128.988 19.9961 128.82 20.0234 128.664 20.0938C128.25 20.0781 127.828 20.0273 127.398 19.9414C126.969 19.8555 126.574 19.75 126.215 19.625C126.137 19.5391 126.059 19.4609 125.98 19.3906C125.902 19.3125 125.797 19.2578 125.664 19.2266C125.477 19.0781 125.324 18.8984 125.207 18.6875C125.09 18.4688 124.996 18.2383 124.926 17.9961C124.855 17.7539 124.809 17.5078 124.785 17.2578C124.762 17 124.754 16.7539 124.762 16.5195C124.879 16.168 125.043 15.8672 125.254 15.6172C125.473 15.3594 125.695 15.1055 125.922 14.8555C126.023 14.8086 126.098 14.7617 126.145 14.7148C126.199 14.6602 126.254 14.6133 126.309 14.5742C126.371 14.5273 126.43 14.4844 126.484 14.4453C126.547 14.3984 126.602 14.3438 126.648 14.2812C126.812 14.2422 126.953 14.1875 127.07 14.1172C127.195 14.0391 127.316 13.9609 127.434 13.8828C127.551 13.7969 127.672 13.7188 127.797 13.6484C127.922 13.5781 128.066 13.5234 128.23 13.4844C128.293 13.4141 128.367 13.3594 128.453 13.3203C128.539 13.2734 128.625 13.2305 128.711 13.1914C128.805 13.1445 128.891 13.0977 128.969 13.0508C129.055 13.0039 129.121 12.9414 129.168 12.8633C129.207 12.9258 129.262 12.9492 129.332 12.9336C129.402 12.9102 129.469 12.8867 129.531 12.8633C129.57 12.8555 129.602 12.8633 129.625 12.8867C129.656 12.9102 129.684 12.9336 129.707 12.957C129.73 12.9805 129.75 12.9961 129.766 13.0039C129.789 13.0039 129.809 12.9844 129.824 12.9453C129.863 12.9453 129.875 12.9648 129.859 13.0039C129.844 13.043 129.832 13.0703 129.824 13.0859C129.887 13.0781 129.938 13.0938 129.977 13.1328C130.023 13.1641 130.094 13.1836 130.188 13.1914C130.219 13.2305 130.227 13.2617 130.211 13.2852C130.195 13.3008 130.188 13.332 130.188 13.3789C130.422 13.4492 130.57 13.5625 130.633 13.7188C130.695 13.8672 130.699 14.0234 130.645 14.1875C130.59 14.3516 130.492 14.5039 130.352 14.6445C130.211 14.7852 130.059 14.8789 129.895 14.9258C129.52 15.0273 129.164 15.1406 128.828 15.2656C128.5 15.3828 128.23 15.5586 128.02 15.793C127.832 15.8477 127.664 15.9219 127.516 16.0156C127.375 16.1016 127.238 16.2031 127.105 16.3203C126.98 16.4297 126.859 16.5469 126.742 16.6719C126.633 16.7891 126.516 16.9062 126.391 17.0234C126.398 17.1328 126.379 17.2188 126.332 17.2812C126.293 17.3359 126.254 17.3945 126.215 17.457C126.23 17.5742 126.258 17.6797 126.297 17.7734C126.336 17.8594 126.379 17.9453 126.426 18.0312C126.941 18.1875 127.488 18.2852 128.066 18.3242C128.652 18.3633 129.238 18.3867 129.824 18.3945C129.879 18.4727 129.941 18.5469 130.012 18.6172C130.09 18.6797 130.16 18.75 130.223 18.8281C130.285 18.8984 130.336 18.9805 130.375 19.0742C130.414 19.1602 130.422 19.2695 130.398 19.4023C130.289 19.5195 130.168 19.6289 130.035 19.7305C129.902 19.8242 129.77 19.9219 129.637 20.0234ZM137.758 16.4844C137.75 16.5781 137.758 16.668 137.781 16.7539C137.805 16.8398 137.832 16.9258 137.863 17.0117C137.902 17.0898 137.938 17.1719 137.969 17.2578C138 17.3438 138.023 17.4297 138.039 17.5156C138.055 17.625 138.055 17.7461 138.039 17.8789C138.023 18.0039 137.996 18.1289 137.957 18.2539C137.918 18.3711 137.867 18.4805 137.805 18.582C137.742 18.6758 137.668 18.7461 137.582 18.793C137.473 18.9336 137.34 19.043 137.184 19.1211C137.027 19.1992 136.883 19.293 136.75 19.4023C136.664 19.457 136.566 19.4961 136.457 19.5195C136.355 19.543 136.25 19.5664 136.141 19.5898C136.055 19.6367 135.953 19.6875 135.836 19.7422C135.719 19.7891 135.598 19.8359 135.473 19.8828C135.348 19.9219 135.223 19.9531 135.098 19.9766C134.973 19.9922 134.863 19.9961 134.77 19.9883C134.535 20.0742 134.305 20.1289 134.078 20.1523C133.859 20.1836 133.602 20.168 133.305 20.1055C133.023 20.1445 132.762 20.1328 132.52 20.0703C132.285 20.0078 132.074 19.9102 131.887 19.7773C131.707 19.6367 131.547 19.4727 131.406 19.2852C131.273 19.0898 131.164 18.8867 131.078 18.6758C131.016 18.2305 131.031 17.8281 131.125 17.4688C131.219 17.1016 131.352 16.7656 131.523 16.4609C131.703 16.1484 131.906 15.8633 132.133 15.6055C132.359 15.3398 132.578 15.082 132.789 14.832C132.836 14.8477 132.871 14.8477 132.895 14.832C132.926 14.8086 132.953 14.7812 132.977 14.75C133 14.7109 133.023 14.6758 133.047 14.6445C133.078 14.6133 133.113 14.5938 133.152 14.5859C133.207 14.4688 133.285 14.3828 133.387 14.3281C133.496 14.2656 133.582 14.1797 133.645 14.0703C133.715 14.0547 133.773 14.0312 133.82 14C133.867 13.9688 133.91 13.9336 133.949 13.8945C133.996 13.8555 134.043 13.8203 134.09 13.7891C134.137 13.75 134.191 13.7227 134.254 13.707V13.5781C134.395 13.5156 134.496 13.4453 134.559 13.3672C134.629 13.2812 134.711 13.1797 134.805 13.0625C134.875 13.0547 134.93 13.0508 134.969 13.0508C135.016 13.0508 135.082 13.043 135.168 13.0273C135.23 12.918 135.285 12.8359 135.332 12.7812C135.387 12.7266 135.465 12.668 135.566 12.6055C135.66 12.6523 135.762 12.6836 135.871 12.6992C135.988 12.7148 136.09 12.7656 136.176 12.8516C136.184 12.9297 136.207 12.9922 136.246 13.0391C136.285 13.0781 136.328 13.1172 136.375 13.1562C136.422 13.1875 136.465 13.2227 136.504 13.2617C136.551 13.3008 136.582 13.3555 136.598 13.4258C136.629 13.4336 136.648 13.4297 136.656 13.4141C136.672 13.3984 136.695 13.3945 136.727 13.4023C136.75 13.5117 136.777 13.5859 136.809 13.625C136.84 13.6562 136.871 13.7227 136.902 13.8242C136.863 13.9023 136.832 13.9844 136.809 14.0703C136.793 14.1484 136.746 14.207 136.668 14.2461C136.66 14.3008 136.676 14.332 136.715 14.3398C136.754 14.3398 136.777 14.3594 136.785 14.3984C136.793 14.4688 136.781 14.5195 136.75 14.5508C136.938 14.8555 137.105 15.1797 137.254 15.5234C137.402 15.8594 137.57 16.1797 137.758 16.4844ZM136.293 17.5977C136.324 17.5117 136.363 17.4414 136.41 17.3867C136.465 17.332 136.496 17.25 136.504 17.1406C136.465 17.0781 136.441 17.0312 136.434 17C136.426 16.9609 136.422 16.9023 136.422 16.8242C136.25 16.582 136.102 16.3242 135.977 16.0508C135.852 15.7695 135.711 15.5078 135.555 15.2656C135.539 15.2969 135.512 15.3281 135.473 15.3594C135.434 15.3906 135.391 15.3828 135.344 15.3359C135.328 15.3984 135.301 15.4453 135.262 15.4766C135.223 15.5 135.18 15.5117 135.133 15.5117C135.086 15.5039 135.035 15.4922 134.98 15.4766C134.934 15.4531 134.891 15.4258 134.852 15.3945C134.625 15.5742 134.398 15.75 134.172 15.9219C133.945 16.0938 133.742 16.293 133.562 16.5195C133.531 16.5352 133.512 16.543 133.504 16.543C133.496 16.5352 133.473 16.5391 133.434 16.5547C133.371 16.7031 133.293 16.8398 133.199 16.9648C133.113 17.082 133.027 17.2031 132.941 17.3281C132.855 17.4531 132.781 17.5859 132.719 17.7266C132.656 17.8672 132.621 18.0312 132.613 18.2188C132.746 18.3281 132.902 18.3945 133.082 18.418C133.262 18.4414 133.445 18.4453 133.633 18.4297C133.828 18.4141 134.016 18.3906 134.195 18.3594C134.383 18.3203 134.555 18.3008 134.711 18.3008C135.039 18.2227 135.32 18.1211 135.555 17.9961C135.789 17.8633 136.035 17.7305 136.293 17.5977ZM144.25 16.8359C144.242 16.875 144.234 16.9102 144.227 16.9414C144.219 16.9648 144.211 16.9883 144.203 17.0117C144.195 17.0352 144.191 17.0664 144.191 17.1055C144.191 17.1367 144.191 17.1797 144.191 17.2344C143.957 17.6484 143.66 17.9961 143.301 18.2773C142.949 18.5586 142.559 18.8086 142.129 19.0273C141.707 19.2383 141.266 19.4336 140.805 19.6133C140.344 19.7852 139.895 19.9727 139.457 20.1758C139.27 20.1289 139.125 20.0508 139.023 19.9414C138.93 19.832 138.855 19.707 138.801 19.5664C138.754 19.418 138.719 19.2578 138.695 19.0859C138.68 18.9062 138.664 18.7227 138.648 18.5352C138.672 18.4492 138.703 18.3789 138.742 18.3242C138.789 18.2617 138.812 18.1758 138.812 18.0664C138.875 17.8633 138.938 17.6641 139 17.4688C139.062 17.2734 139.102 17.0742 139.117 16.8711C139.141 16.8086 139.184 16.7656 139.246 16.7422C139.285 16.3672 139.285 15.9883 139.246 15.6055C139.215 15.2148 139.152 14.8516 139.059 14.5156C139.066 14.4375 139.074 14.3828 139.082 14.3516C139.098 14.3125 139.098 14.2852 139.082 14.2695C139.074 14.207 139.094 14.1758 139.141 14.1758C139.195 14.1758 139.25 14.1758 139.305 14.1758C139.305 14.0586 139.281 13.9414 139.234 13.8242C139.195 13.707 139.156 13.5742 139.117 13.4258C139.172 13.3086 139.207 13.1953 139.223 13.0859C139.238 12.9688 139.273 12.8672 139.328 12.7812C139.75 12.9141 140.152 13.0742 140.535 13.2617C140.926 13.4492 141.309 13.5859 141.684 13.6719C141.965 13.875 142.254 14.0781 142.551 14.2812C142.848 14.4766 143.117 14.6953 143.359 14.9375C143.602 15.1719 143.805 15.4414 143.969 15.7461C144.133 16.0508 144.227 16.4141 144.25 16.8359ZM141.473 17.4805C141.637 17.418 141.797 17.3516 141.953 17.2812C142.117 17.2109 142.266 17.1328 142.398 17.0469C142.539 16.9531 142.664 16.8477 142.773 16.7305C142.883 16.6133 142.973 16.4727 143.043 16.3086C142.996 16.2148 142.934 16.1328 142.855 16.0625C142.777 15.9844 142.699 15.9141 142.621 15.8516C142.543 15.7812 142.465 15.7109 142.387 15.6406C142.316 15.5703 142.258 15.4844 142.211 15.3828C142.109 15.3672 142.02 15.3398 141.941 15.3008C141.863 15.2539 141.785 15.2109 141.707 15.1719C141.637 15.125 141.559 15.082 141.473 15.043C141.395 15.0039 141.301 14.9805 141.191 14.9727C141.02 14.8867 140.863 14.8242 140.723 14.7852C140.59 14.7461 140.488 14.6953 140.418 14.6328C140.363 14.6328 140.32 14.6445 140.289 14.668C140.367 14.9648 140.426 15.2461 140.465 15.5117C140.504 15.7695 140.523 16.0312 140.523 16.2969C140.531 16.5547 140.52 16.8203 140.488 17.0938C140.457 17.3672 140.414 17.6641 140.359 17.9844C140.438 17.9766 140.508 17.9609 140.57 17.9375C140.641 17.9062 140.707 17.875 140.77 17.8438C140.84 17.8125 140.91 17.7852 140.98 17.7617C141.059 17.7305 141.148 17.7109 141.25 17.7031C141.273 17.6562 141.305 17.6172 141.344 17.5859C141.391 17.5547 141.434 17.5195 141.473 17.4805ZM150.859 13.4023C150.867 13.457 150.867 13.5 150.859 13.5312C150.859 13.5547 150.855 13.5781 150.848 13.6016C150.848 13.625 150.848 13.6523 150.848 13.6836C150.848 13.707 150.855 13.7461 150.871 13.8008C150.707 14.0664 150.516 14.25 150.297 14.3516C150.086 14.4453 149.855 14.5156 149.605 14.5625C149.355 14.6016 149.098 14.6445 148.832 14.6914C148.574 14.7383 148.316 14.8398 148.059 14.9961C147.957 14.957 147.863 14.957 147.777 14.9961C147.699 15.0352 147.582 15.0469 147.426 15.0312C147.379 15.0781 147.32 15.1133 147.25 15.1367C147.18 15.1523 147.109 15.1719 147.039 15.1953C147.07 15.2656 147.082 15.3398 147.074 15.418C147.074 15.4883 147.086 15.5469 147.109 15.5938C147.383 15.6172 147.684 15.6133 148.012 15.582C148.348 15.5508 148.676 15.5312 148.996 15.5234C149.004 15.5625 149 15.5898 148.984 15.6055C148.969 15.6133 148.965 15.6328 148.973 15.6641C149.027 15.7031 149.082 15.7539 149.137 15.8164C149.191 15.8711 149.246 15.9258 149.301 15.9805C149.355 16.0352 149.41 16.082 149.465 16.1211C149.527 16.1523 149.598 16.1641 149.676 16.1562C149.707 16.2188 149.727 16.2891 149.734 16.3672C149.75 16.4375 149.742 16.5117 149.711 16.5898C149.586 16.6758 149.461 16.7656 149.336 16.8594C149.211 16.9453 149.078 17.0234 148.938 17.0938C148.805 17.1641 148.66 17.2227 148.504 17.2695C148.355 17.3086 148.188 17.3242 148 17.3164C147.961 17.3164 147.93 17.3164 147.906 17.3164C147.891 17.3164 147.867 17.3047 147.836 17.2812C147.773 17.3203 147.684 17.332 147.566 17.3164C147.457 17.3008 147.371 17.3125 147.309 17.3516C147.223 17.3125 147.117 17.2969 146.992 17.3047C146.875 17.3047 146.77 17.2891 146.676 17.2578C146.551 17.4219 146.438 17.5977 146.336 17.7852C146.234 17.9727 146.145 18.1719 146.066 18.3828C146.332 18.4219 146.551 18.4375 146.723 18.4297C146.902 18.4219 147.07 18.4102 147.227 18.3945C147.383 18.3711 147.543 18.3516 147.707 18.3359C147.871 18.3125 148.078 18.3047 148.328 18.3125C148.484 18.2266 148.668 18.1719 148.879 18.1484C149.098 18.1172 149.297 18.0703 149.477 18.0078C149.539 18.0312 149.594 18.0742 149.641 18.1367C149.688 18.1914 149.73 18.2461 149.77 18.3008C149.816 18.3477 149.863 18.3906 149.91 18.4297C149.957 18.4688 150.016 18.4844 150.086 18.4766C150.117 18.5078 150.137 18.5469 150.145 18.5938C150.16 18.6328 150.172 18.6719 150.18 18.7109C150.188 18.75 150.199 18.7852 150.215 18.8164C150.238 18.8398 150.273 18.8477 150.32 18.8398C150.203 19.0977 150.066 19.2969 149.91 19.4375C149.762 19.5703 149.59 19.6719 149.395 19.7422C149.199 19.8125 148.98 19.8672 148.738 19.9062C148.504 19.9453 148.242 19.9922 147.953 20.0469C147.883 20.0625 147.824 20.0586 147.777 20.0352C147.73 20.0195 147.676 20.0117 147.613 20.0117C147.434 20.0508 147.219 20.0859 146.969 20.1172C146.719 20.1484 146.465 20.1602 146.207 20.1523C145.949 20.1445 145.703 20.1094 145.469 20.0469C145.234 19.9922 145.043 19.8906 144.895 19.7422C144.832 19.6875 144.789 19.625 144.766 19.5547C144.75 19.4766 144.699 19.418 144.613 19.3789C144.605 19.2773 144.59 19.1641 144.566 19.0391C144.543 18.9141 144.52 18.7852 144.496 18.6523C144.473 18.5117 144.453 18.375 144.438 18.2422C144.43 18.1094 144.438 17.9883 144.461 17.8789C144.484 17.7617 144.531 17.6562 144.602 17.5625C144.68 17.4688 144.707 17.3672 144.684 17.2578C144.723 17.25 144.746 17.2305 144.754 17.1992C144.762 17.1602 144.793 17.1445 144.848 17.1523C144.895 17.0117 144.945 16.8789 145 16.7539C145.055 16.6289 145.109 16.5078 145.164 16.3906C145.227 16.2734 145.285 16.1562 145.34 16.0391C145.402 15.9141 145.461 15.7773 145.516 15.6289C145.406 15.5273 145.324 15.418 145.27 15.3008C145.223 15.1758 145.188 15.0547 145.164 14.9375C145.141 14.8125 145.121 14.6875 145.105 14.5625C145.09 14.4297 145.062 14.2969 145.023 14.1641C145.102 14.0469 145.195 13.9531 145.305 13.8828C145.422 13.8047 145.547 13.7422 145.68 13.6953C145.812 13.6484 145.957 13.6094 146.113 13.5781C146.27 13.5469 146.434 13.5117 146.605 13.4727C146.918 13.3711 147.195 13.293 147.438 13.2383C147.688 13.1836 147.93 13.1406 148.164 13.1094C148.406 13.0703 148.656 13.0352 148.914 13.0039C149.172 12.9727 149.465 12.9258 149.793 12.8633C149.863 12.9336 149.93 12.9688 149.992 12.9688C150.023 12.8984 150.059 12.8789 150.098 12.9102C150.145 12.9336 150.164 12.9102 150.156 12.8398C150.234 12.9727 150.332 13.0859 150.449 13.1797C150.574 13.2656 150.711 13.3398 150.859 13.4023Z" fill="white"/>
<g clip-path="url(#clip0_526_154)">
<path fill-rule="evenodd" clip-rule="evenodd" d="M19.9374 74.4768C51.7976 42.5759 96.8478 49.0859 133.315 70.0783C133.942 70.4377 134.745 70.223 135.104 69.5959C135.464 68.9689 135.249 68.1662 134.622 67.8068C97.1346 46.2244 50.8348 39.8316 18.0825 72.6268C17.5713 73.1367 17.5725 73.9661 18.085 74.4793C18.5949 74.9906 19.4242 74.9894 19.9374 74.4768Z" fill="white"/>
<path fill-rule="evenodd" clip-rule="evenodd" d="M133.284 68.548C130.982 68.529 128.093 68.4732 127.765 68.4764C118.875 68.5639 110.475 70.0258 101.999 72.7657C101.31 72.9873 100.932 73.7282 101.154 74.4165C101.375 75.1048 102.116 75.4828 102.804 75.2613C111.024 72.6017 119.17 71.1817 127.793 71.0979C128.295 71.0927 134.79 71.2221 136.105 71.1496C136.645 71.1224 136.942 70.9394 137.008 70.8895C137.368 70.6381 137.497 70.3262 137.549 70.068C137.605 69.7762 137.581 69.2716 137.201 68.7414C136.8 68.188 135.693 67.249 135.433 66.9895C131.518 63.062 126.805 59.0198 123.213 54.4019C119.788 49.9983 117.379 45.0652 117.883 39.1466C117.946 38.4262 117.408 37.7913 116.688 37.7293C115.967 37.6672 115.332 38.2046 115.27 38.9251C114.707 45.5422 117.315 51.0892 121.143 56.0104C124.714 60.6006 129.358 64.641 133.284 68.548Z" fill="white"/>
</g>
<defs>
<clipPath id="clip0_526_154">
<rect width="94.8807" height="94.8807" fill="white" transform="translate(91.1211 132.76) rotate(-143.349)"/>
</clipPath>
</defs>
</svg>
