<?xml version="1.0" encoding="UTF-8"?>
<svg width="100pt" height="100pt" version="1.1" viewBox="0 0 100 100" xmlns="http://www.w3.org/2000/svg">
 <path d="m7.6914 15.383c-4.2617 0-7.6914 3.4297-7.6914 7.6914v53.848c0 4.2617 3.4297 7.6914 7.6914 7.6914h84.617c4.2617 0 7.6914-3.4297 7.6914-7.6914v-53.848c0-4.2617-3.4297-7.6914-7.6914-7.6914zm0 7.6914h84.617v53.848h-4.207l-27.406-35.383-12.234 15.789-14.617-18.867-26.152 33.766zm69.184 7.5977c-4.3281 0-7.8359 3.5078-7.8359 7.8359 0 4.3281 3.5078 7.8359 7.8359 7.8359s7.8359-3.5078 7.8359-7.8359c0-4.3281-3.5078-7.8359-7.8359-7.8359z"/>
</svg>
