<?xml version="1.0" encoding="UTF-8"?>
<svg width="100pt" height="100pt" version="1.1" viewBox="0 0 100 100" xmlns="http://www.w3.org/2000/svg">
 <path d="m67.539 43.461-14-14c-0.9375-0.9375-2.2109-1.4648-3.5391-1.4609h-14c-2.7617 0-5 2.2383-5 5v34c0 1.3242 0.52734 2.5977 1.4648 3.5352s2.2109 1.4648 3.5352 1.4648h28c1.3242 0 2.5977-0.52734 3.5352-1.4648s1.4648-2.2109 1.4648-3.5352v-20c0.003906-1.3281-0.52344-2.6016-1.4609-3.5391zm-31.539 22.539v-32c0-0.55078 0.44922-1 1-1h12c0.26562 0 0.51953 0.10547 0.70703 0.29297s0.29297 0.44141 0.29297 0.70703v9c0 1.3242 0.52734 2.5977 1.4648 3.5352s2.2109 1.4648 3.5352 1.4648h8c0.26562 0 0.51953 0.10547 0.70703 0.29297s0.29297 0.44141 0.29297 0.70703v17c0 0.26562-0.10547 0.51953-0.29297 0.70703s-0.44141 0.29297-0.70703 0.29297h-26c-0.55078 0-1-0.44922-1-1z"/>
</svg>
