<?xml version="1.0" encoding="UTF-8"?>
<svg width="100pt" height="100pt" version="1.1" viewBox="0 0 100 100" xmlns="http://www.w3.org/2000/svg">
 <path d="m67.539 43.461-14-14c-0.9375-0.9375-2.2109-1.4648-3.5391-1.4609h-14c-2.7617 0-5 2.2383-5 5v34c0 1.3242 0.52734 2.5977 1.4648 3.5352s2.2109 1.4648 3.5352 1.4648h28c1.3242 0 2.5977-0.52734 3.5352-1.4648s1.4648-2.2109 1.4648-3.5352v-20c0.003906-1.3281-0.52344-2.6016-1.4609-3.5391zm-6.75 1.5391h-7.7891c-0.55078 0-1-0.44922-1-1v-7.7891c0-0.20313 0.11719-0.38672 0.30469-0.46484s0.40234-0.039063 0.54687 0.10547l8.3008 8.3008-0.003906-0.003906c0.14453 0.14453 0.18359 0.35937 0.10547 0.54687s-0.26172 0.30469-0.46484 0.30469zm-24.789 21v-32c0-0.55078 0.44922-1 1-1h9c0.26562 0 0.51953 0.10547 0.70703 0.29297s0.29297 0.44141 0.29297 0.70703v11c0 1.3242 0.52734 2.5977 1.4648 3.5352s2.2109 1.4648 3.5352 1.4648h11c0.26562 0 0.51953 0.10547 0.70703 0.29297s0.29297 0.44141 0.29297 0.70703v15c0 0.26562-0.10547 0.51953-0.29297 0.70703s-0.44141 0.29297-0.70703 0.29297h-26c-0.55078 0-1-0.44922-1-1z"/>
</svg>
