<?xml version="1.0" encoding="UTF-8"?>
<svg width="100pt" height="100pt" version="1.1" viewBox="0 0 100 100" xmlns="http://www.w3.org/2000/svg">
 <path d="m39 6c-18.191 0-33 14.809-33 33 0 17.398 12.812 31.887 30 32.938v19.062c0 1.6562 1.3438 3 3 3h52c1.6562 0 3-1.3438 3-3v-52c0-1.6562-1.3438-3-3-3h-19.062c-1.0508-17.188-15.539-30-32.938-30zm0 6c14.383 0 25.918 10.082 26.938 24h-26.938c-0.10547-0.007812-0.20703-0.007812-0.3125 0-1.5352 0.16016-2.6953 1.457-2.6875 3v26.938c-13.918-1.0195-24-12.555-24-26.938 0-14.949 12.055-27 27-27zm3 30h46v46h-46z"/>
</svg>
