<?xml version="1.0" encoding="UTF-8"?>
<svg width="100pt" height="100pt" version="1.1" viewBox="0 0 100 100" xmlns="http://www.w3.org/2000/svg">
 <path d="m50 19c6.3984 0 12.805 2.4297 17.688 7.3125 4.1445 4.1445 6.5312 9.3789 7.1562 14.781 10.188 0.92578 18.156 9.4766 18.156 19.906 0 11.047-8.9531 20-20 20h-49c-9.418 0-17-7.582-17-17s7.582-17 17-17h1.1875c-0.88281-7.3555 1.5117-15.043 7.1562-20.688 4.8828-4.8828 11.258-7.3125 17.656-7.3125zm0 21c-0.53125-0.003906-0.90234 0.097656-1.3438 0.5l-11 10c-0.78125 0.70312-0.92578 2.0742-0.15625 2.8438 0.74219 0.74219 2.0664 0.83203 2.8438 0.125l7.6562-6.9688v21.5c0 1.1055 0.89453 2 2 2s2-0.89453 2-2v-21.5l7.6562 6.9688c0.77734 0.70703 2.1367 0.65625 2.8438-0.125s0.66406-2.1289-0.15625-2.8438l-11-10c-0.28516-0.26172-0.80859-0.48828-1.3438-0.5z"/>
</svg>
