<?xml version="1.0" encoding="UTF-8"?>
<svg width="100pt" height="100pt" version="1.1" viewBox="0 0 100 100" xmlns="http://www.w3.org/2000/svg">
 <path d="m50 16c-7.1562 0-14.355 2.7305-19.812 8.1875-4.0586 4.0586-6.5195 9.0938-7.5625 14.344-10.59 2.0547-18.625 11.305-18.625 22.469 0 12.668 10.332 23 23 23h49c11.027 0 20-8.9727 20-20 0-10.406-8.0195-18.883-18.188-19.812 0.046875-7.2383-2.5234-14.492-8.0312-20-5.4531-5.4531-12.625-8.1875-19.781-8.1875zm0 6c5.6367 0 11.223 2.0977 15.531 6.4062 4.9805 4.9805 7.0898 11.746 6.3125 18.219-0.10547 0.85156 0.15625 1.7109 0.72266 2.3555 0.57031 0.64453 1.3867 1.0156 2.2461 1.0195h1.1875c7.8086 0 14 6.1914 14 14s-6.1914 14-14 14h-49c-9.4258 0-17-7.5742-17-17 0-8.8984 6.7695-16.152 15.438-16.938 1.4023-0.13672 2.5195-1.2305 2.6875-2.625 0.55078-4.7539 2.6562-9.375 6.3125-13.031 4.3047-4.3047 9.9258-6.4062 15.562-6.4062zm0 18c-1 0-1.5273 0.32031-2.0312 0.78125l-11 10c-1.2695 1.1797-1.2461 3.0938-0.1875 4.25s3.0859 1.2422 4.25 0.1875l5.9688-5.4375v19.219c0 1.6562 1.3438 3 3 3s3-1.3438 3-3v-19.219l5.9688 5.4375c1.1641 1.0547 3.1289 0.91016 4.25-0.1875 1.1836-1.1562 0.96484-3.1836-0.1875-4.25l-11-10c-0.59375-0.54297-1.0312-0.78125-2.0312-0.78125z"/>
</svg>
