<svg width="18" height="18" viewBox="0 0 18 18" fill="none" xmlns="http://www.w3.org/2000/svg">
<g clip-path="url(#clip0)">
<path d="M8.0452 7.77008C7.64868 7.77008 7.33563 8.11471 7.33563 8.53516C7.33563 8.9556 7.65563 9.30023 8.0452 9.30023C8.44172 9.30023 8.75476 8.9556 8.75476 8.53516C8.76172 8.11471 8.44172 7.77008 8.0452 7.77008ZM10.5843 7.77008C10.1878 7.77008 9.87476 8.11471 9.87476 8.53516C9.87476 8.9556 10.1948 9.30023 10.5843 9.30023C10.9808 9.30023 11.2939 8.9556 11.2939 8.53516C11.2939 8.11471 10.9808 7.77008 10.5843 7.77008Z" fill="black"/>
<path d="M14.6991 0.608704H3.91492C3.00551 0.608704 2.26511 1.35885 2.26511 2.28838V13.3123C2.26511 14.2418 3.00551 14.992 3.91492 14.992H13.0412L12.6147 13.4835L13.6448 14.4538L14.6186 15.367L16.3489 16.9163V2.28838C16.3489 1.35885 15.6085 0.608704 14.6991 0.608704ZM11.5926 11.2575C11.5926 11.2575 11.3029 10.9069 11.0614 10.5971C12.1157 10.2954 12.5181 9.62678 12.5181 9.62678C12.1881 9.84694 11.8743 10.0019 11.5926 10.1079C11.1902 10.2791 10.8039 10.3932 10.4257 10.4585C9.65307 10.6052 8.94485 10.5645 8.34126 10.4503C7.88253 10.3606 7.48818 10.2302 7.15822 10.0997C6.97312 10.0263 6.77192 9.93663 6.57073 9.82247C6.54658 9.80617 6.52244 9.79801 6.49829 9.7817C6.4822 9.77355 6.47415 9.7654 6.4661 9.75724C6.32124 9.67571 6.24076 9.61863 6.24076 9.61863C6.24076 9.61863 6.62706 10.2709 7.64914 10.5808C7.40771 10.8906 7.10993 11.2575 7.10993 11.2575C5.33135 11.2005 4.65533 10.0182 4.65533 10.0182C4.65533 7.39265 5.81422 5.26451 5.81422 5.26451C6.97312 4.3839 8.07568 4.40836 8.07568 4.40836L8.15616 4.50621C6.70754 4.93021 6.03956 5.57436 6.03956 5.57436C6.03956 5.57436 6.21662 5.47651 6.51439 5.3379C7.37551 4.95467 8.05958 4.84867 8.34126 4.82421C8.38955 4.81605 8.42979 4.8079 8.47807 4.8079C8.969 4.74267 9.5243 4.72636 10.1037 4.79159C10.8683 4.88128 11.6892 5.10959 12.5262 5.57436C12.5262 5.57436 11.8904 4.96282 10.5222 4.53882L10.6349 4.40836C10.6349 4.40836 11.7375 4.3839 12.8964 5.26451C12.8964 5.26451 14.0553 7.39265 14.0553 10.0182C14.0553 10.0182 13.3712 11.2005 11.5926 11.2575Z" fill="black"/>
</g>
<defs>
<clipPath id="clip0">
<rect x="0.782593" y="0.608704" width="17.0435" height="16.5422" fill="white"/>
</clipPath>
</defs>
</svg>
