<?xml version="1.0" encoding="UTF-8"?>
<svg width="100pt" height="100pt" version="1.1" viewBox="0 0 100 100" xmlns="http://www.w3.org/2000/svg">
 <path d="m9.332-0.0078125c-5.1289 0.015625-9.3398 4.2578-9.3398 9.3867v81.27c0.019531 5.1172 4.2227 9.3281 9.3398 9.3438h0.023438 35.363c3 0.17578 5.7109-0.94141 7.4297-2.7891s2.4922-4.2422 2.4922-6.5742c0-2.332-0.77344-4.707-2.4922-6.5547-1.7188-1.8477-4.4297-2.9883-7.4297-2.8164h-25.996v-62.512h26.18c2.8633 0 5.3984-1.1875 7.0117-3.0039 1.6133-1.8164 2.3555-4.1094 2.3555-6.3672s-0.74219-4.5742-2.3555-6.3906c-1.6133-1.8125-4.1484-2.9922-7.0117-2.9922h-35.547-0.023438zm64.062 28.465c-1.6836 0.058594-3.0156 1.4336-3.0234 3.1133v9.0625h-40.211c-0.82812 0-1.625 0.32422-2.2148 0.91016-0.58594 0.58594-0.91797 1.3789-0.92187 2.2109v12.5c0.007812 1.7266 1.4141 3.1172 3.1367 3.1133h40.211v9.0703c0.007812 1.1914 0.69141 2.2773 1.7656 2.793 1.0742 0.51953 2.3516 0.38281 3.2891-0.35156l23.391-18.406-0.003906-0.003906c0.75391-0.59375 1.1953-1.4961 1.1953-2.457 0-0.95703-0.44141-1.8633-1.1953-2.457l-23.387-18.43c-0.57812-0.45703-1.2969-0.69141-2.0312-0.66797z"/>
</svg>
