<?xml version="1.0" encoding="UTF-8"?>
<svg width="100pt" height="100pt" version="1.1" viewBox="0 0 100 100" xmlns="http://www.w3.org/2000/svg">
 <path d="m81.102 97.5h-62.203c-9.1016 0-16.398-7.3984-16.398-16.398v-62.203c0-9.1016 7.3984-16.398 16.398-16.398h62.102c9.1016 0 16.398 7.3984 16.398 16.398v62.102c0.10156 9.1016-7.2969 16.5-16.297 16.5zm-62.203-82.5c-2.1016 0-3.8984 1.6992-3.8984 3.8984v62.102c0 2.1016 1.6992 3.8984 3.8984 3.8984h62.102c2.1016 0 3.8984-1.6992 3.8984-3.8984v-62.102c0-2.1016-1.6992-3.8984-3.8984-3.8984z"/>
</svg>
