<?xml version="1.0" encoding="UTF-8"?>
<svg width="100pt" height="100pt" version="1.1" viewBox="0 0 100 100" xmlns="http://www.w3.org/2000/svg">
 <g>
  <path d="m87.5 79.168h-75c-2.3008 0-4.168 1.8633-4.168 4.1641s1.8672 4.168 4.168 4.168h75c2.3008 0 4.168-1.8672 4.168-4.168s-1.8672-4.1641-4.168-4.1641z"/>
  <path d="m50 8.332c-2.3008 0-4.168 1.8672-4.168 4.168v44.125l-13.707-13.75c-1.6523-1.4141-4.1172-1.3203-5.6562 0.21875s-1.6328 4.0039-0.21875 5.6562l20.832 20.832c1.625 1.6172 4.25 1.6172 5.875 0l20.832-20.832h0.003907c1.4141-1.6523 1.3203-4.1172-0.21875-5.6562-1.5391-1.5391-4.0039-1.6328-5.6562-0.21875l-13.75 13.75v-44.125c0-1.1055-0.44141-2.1641-1.2227-2.9453s-1.8398-1.2227-2.9453-1.2227z"/>
 </g>
</svg>
