<?xml version="1.0" encoding="UTF-8"?>
<svg width="100pt" height="100pt" version="1.1" viewBox="0 0 100 100" xmlns="http://www.w3.org/2000/svg">
 <path d="m96 74.898-38.301-59.699c-3.6016-5.6016-11.699-5.6016-15.301 0l-38.398 59.699c-3.8984 6.1016 0.5 14 7.6992 14h76.801c7.1016 0 11.398-7.8984 7.5-14zm-32.102-6.6992c1.6992 1.6992 1.6992 4.5 0 6.3008-0.89844 0.89844-2 1.3008-3.1016 1.3008s-2.3008-0.39844-3.1016-1.3008l-7.6953-7.6992-7.6992 7.6992c-0.89844 0.89844-2 1.3008-3.1016 1.3008-1.1016 0-2.3008-0.39844-3.1016-1.3008-1.6992-1.6992-1.6992-4.5 0-6.3008l7.6992-7.6992-7.6992-7.6992c-1.6992-1.6992-1.6992-4.5 0-6.3008 1.6992-1.6992 4.5-1.6992 6.3008 0l7.6992 7.6992 7.6992-7.6992c1.6992-1.6992 4.5-1.6992 6.3008 0 1.6992 1.6992 1.6992 4.5 0 6.3008l-7.6992 7.6992z"/>
</svg>
