<?xml version="1.0" encoding="UTF-8"?>
<svg width="100pt" height="100pt" version="1.1" viewBox="0 0 100 100" xmlns="http://www.w3.org/2000/svg">
 <path d="m17.762 56.055c-1.8438 1.2227-2.6289 3.6992-1.8555 5.8867 0.44141 1.2656 0.96484 2.5312 1.5547 3.7422 0.99219 2.0625 3.2617 3.1914 5.6523 2.793 2.0625-0.34375 4.4297 0.52344 6.1602 2.2578 1.7188 1.7188 2.5859 4.0859 2.2422 6.1641-0.38672 2.3789 0.73047 4.6484 2.793 5.6406 1.2109 0.58984 2.4766 1.1133 3.7422 1.5547 0.5625 0.20703 1.1406 0.30078 1.7188 0.30078 1.6641 0 3.2578-0.78516 4.168-2.1602 1.1953-1.8008 3.5234-2.918 6.0547-2.918 2.543 0 4.8711 1.1133 6.0664 2.918 1.2227 1.8438 3.6992 2.6289 5.8867 1.8555 1.2656-0.44141 2.5195-0.96484 3.7422-1.5547 2.0625-0.99219 3.1758-3.2617 2.793-5.6406-0.34375-2.0781 0.52344-4.4414 2.2422-6.1641 1.7344-1.7344 4.0977-2.6016 6.1641-2.2578 2.3789 0.39844 4.6602-0.73047 5.6523-2.793 0.58984-1.2109 1.1133-2.4766 1.5547-3.7422 0.76953-2.1875-0.015625-4.6641-1.8594-5.8867-1.8008-1.1953-2.9297-3.5234-2.9297-6.0547 0-2.5469 1.1289-4.8711 2.9297-6.0664 1.8438-1.2227 2.6289-3.6992 1.8594-5.8867-0.44141-1.2656-0.96484-2.5156-1.5547-3.7266-0.99219-2.0625-3.2617-3.1914-5.6523-2.8047-2.0625 0.34375-4.4297-0.50781-6.1641-2.2422-1.7188-1.7344-2.5859-4.0977-2.2422-6.1641 0.38672-2.3789-0.72656-4.6641-2.793-5.6523-1.2227-0.58984-2.4766-1.1133-3.7422-1.5547-2.1875-0.76953-4.6602 0.015624-5.8867 1.8555-1.1953 1.8008-3.5234 2.9297-6.0664 2.9297-2.5312 0-4.8555-1.1289-6.0547-2.9297-1.2227-1.8438-3.6992-2.6133-5.8867-1.8555-1.2656 0.45312-2.5312 0.96484-3.7422 1.5547-2.0625 0.99219-3.1758 3.2734-2.793 5.6523 0.34375 2.0625-0.52344 4.4297-2.2422 6.1641-1.7305 1.7344-4.0977 2.6016-6.1602 2.2422-2.3945-0.38672-4.6641 0.74219-5.6523 2.8047-0.58984 1.2109-1.1133 2.4609-1.5547 3.7266-0.76953 2.1875 0.011719 4.6641 1.8555 5.8867 1.8008 1.1953 2.9141 3.5234 2.9141 6.0664 0 2.5391-1.1133 4.8633-2.9141 6.0586zm32.23-19.504c7.4297 0 13.453 6.0391 13.453 13.453 0 7.4141-6.0234 13.441-13.453 13.441-7.4141 0-13.441-6.0234-13.441-13.441 0-7.4141 6.0273-13.453 13.441-13.453z"/>
</svg>
