<?xml version="1.0" encoding="UTF-8"?>
<svg width="100pt" height="100pt" version="1.1" viewBox="0 0 100 100" xmlns="http://www.w3.org/2000/svg">
 <g>
  <path d="m50 23.602h0.69922l-5.1992 5.1992c-1.6992 1.6992-1.6992 4.3984 0 6.1016 0.80078 0.80078 1.8984 1.3008 3 1.3008s2.1992-0.39844 3-1.3008l12.602-12.602c1.6992-1.6992 1.6992-4.3984 0-6.1016l-12.602-12.398c-1.6992-1.6992-4.3984-1.6992-6.1016 0-1.6992 1.6992-1.6992 4.3984 0 6.1016l5.1992 5.1992h-0.59766c-19.301 0-34.898 15.699-34.898 34.898 0 8.6016 3.1016 16.801 8.8008 23.199 0.80078 1 2 1.3984 3.1992 1.3984 1 0 2-0.39844 2.8008-1.1016 1.8008-1.6016 1.8984-4.3008 0.39844-6.1016-4.3008-4.8008-6.6016-11-6.6016-17.5-0.097657-14.395 11.801-26.293 26.301-26.293z"/>
  <path d="m84.898 50c0-8.6016-3.1016-16.801-8.8008-23.199-1.6016-1.8008-4.3008-1.8984-6.1016-0.39844-1.8008 1.6016-1.8984 4.3008-0.39844 6.1016 4.3008 4.8008 6.6016 11 6.6016 17.5 0 14.5-11.801 26.398-26.398 26.398h-0.69922l5.1992-5.1992c1.6992-1.6992 1.6992-4.3984 0-6.1016-1.6992-1.6992-4.3984-1.6992-6.1016 0l-12.301 12.5c-1.6992 1.6992-1.6992 4.3984 0 6.1016l12.602 12.602c0.80078 0.80078 1.8984 1.3008 3 1.3008s2.1992-0.39844 3-1.3008c1.6992-1.6992 1.6992-4.3984 0-6.1016l-5.1992-5.1992 0.69922-0.003906c19.301-0.10156 34.898-15.699 34.898-35z"/>
 </g>
</svg>
