<?xml version="1.0" encoding="UTF-8"?>
<svg width="100pt" height="100pt" version="1.1" viewBox="0 0 100 100" xmlns="http://www.w3.org/2000/svg">
 <path d="m84.25 24.25c1.168-1.1758 1.7539-2.5898 1.75-4.25 0.003906-1.6602-0.58203-3.0742-1.75-4.25-1.1758-1.168-2.5898-1.7539-4.25-1.75-1.6602-0.003906-3.0742 0.58203-4.25 1.75l-25.75 25.75-25.75-25.75c-1.1758-1.168-2.5898-1.7539-4.25-1.75-1.6602-0.003906-3.0742 0.58203-4.25 1.75-1.168 1.1758-1.7539 2.5898-1.75 4.25-0.003906 1.6602 0.58203 3.0742 1.75 4.25l25.75 25.75-25.75 25.75c-1.168 1.1758-1.7539 2.5898-1.75 4.25-0.003906 1.6602 0.58203 3.0742 1.75 4.25 1.1758 1.168 2.5898 1.7539 4.25 1.75 1.6602 0.003906 3.0742-0.58203 4.25-1.75l25.75-25.75 25.75 25.75c1.1758 1.168 2.5898 1.7539 4.25 1.75 1.6602 0.003906 3.0742-0.58203 4.25-1.75 1.168-1.1758 1.7539-2.5898 1.75-4.25 0.003906-1.6602-0.58203-3.0742-1.75-4.25l-25.75-25.75z"/>
</svg>
