<?xml version="1.0" encoding="UTF-8"?>
<svg width="100pt" height="100pt" version="1.1" viewBox="0 0 100 100" xmlns="http://www.w3.org/2000/svg">
 <g>
  <path d="m65.547 63.633l-13.883-6.6836v26.051l29.215-14.059v-11.988l-13.883 6.6797c-0.45703 0.21875-0.99219 0.21875-1.4492 0z"/>
  <path d="m34.453 63.633c-0.46094 0.21875-0.99219 0.21875-1.4531 0l-13.883-6.6797v11.988l29.219 14.059v-26.051z"/>
  <path d="m53.816 54.316l12.453 5.9961 28.73-13.828-12.457-5.9961z"/>
  <path d="m53.816 22.992l25.121 12.094 3.6055 1.7305 12.457-5.9922-28.73-13.824z"/>
  <path d="m46.184 54.316l-28.727-13.828-12.457 5.9961 28.73 13.828z"/>
  <path d="m5 30.824l12.457 5.9922 3.6055-1.7305 25.121-12.094-12.453-5.9922z"/>
  <path d="m50 49.238l-3.3672 1.6211 3.3672 1.6211 3.3672-1.6211z"/>
  <path d="m51.664 46.367l5.5195 2.6562 21.543-10.371-18.094-8.707-8.9688-4.3125z"/>
  <path d="m42.816 49.023l5.5195-2.6562v-20.734l-14.746 7.0938-12.316 5.9258z"/>
 </g>
</svg>
