<?xml version="1.0" encoding="UTF-8"?>
<svg width="100pt" height="100pt" version="1.1" viewBox="0 0 100 100" xmlns="http://www.w3.org/2000/svg">
 <g>
  <path d="m90.68 31.59c0 6.3906-5.1992 11.59-11.59 11.59l-31.965 0.003906c-4.3086 0-7.8125 3.5039-7.8125 7.8125v5.7305h3.9062v-5.7305c0-2.1523 1.7539-3.9062 3.9062-3.9062h31.965c8.5469 0 15.496-6.9531 15.496-15.496 0-8.5469-6.9531-15.496-15.496-15.496h-4.3164v3.9062h4.3164c6.3906-0.003906 11.59 5.1953 11.59 11.586z"/>
  <path d="m5.4141 7.4219h66.828v21.25h-66.828z"/>
  <path d="m43.145 92.578c3.2305 0 5.8594-2.6289 5.8594-5.8594v-28.02h-16.445v28.02c0 3.2305 2.6289 5.8594 5.8594 5.8594z"/>
 </g>
</svg>
