<?xml version="1.0" encoding="UTF-8"?>
<svg width="100pt" height="100pt" version="1.1" viewBox="0 0 100 100" xmlns="http://www.w3.org/2000/svg">
 <g>
  <path d="m50 27.082c-20.832 0-35.418 22.918-35.418 22.918s10.625 22.918 35.418 22.918c25 0 35.418-22.918 35.418-22.918s-14.375-22.918-35.418-22.918zm0 37.5c-8.125 0-14.582-6.457-14.582-14.582s6.457-14.582 14.582-14.582 14.582 6.457 14.582 14.582-6.457 14.582-14.582 14.582z"/>
  <path d="m56.25 50c0 3.4531-2.7969 6.25-6.25 6.25s-6.25-2.7969-6.25-6.25 2.7969-6.25 6.25-6.25 6.25 2.7969 6.25 6.25"/>
 </g>
</svg>
