<?xml version="1.0" encoding="UTF-8"?>
<svg width="100pt" height="100pt" version="1.1" viewBox="0 0 100 100" xmlns="http://www.w3.org/2000/svg">
 <path d="m51.352 35.77 9.8789 9.8789c0.14062 0.14453 0.17969 0.35547 0.10547 0.54297-0.078126 0.18359-0.25781 0.30469-0.45703 0.30859h-9.3789c-0.55078 0-1-0.44922-1-1v-9.3789c0.003906-0.19922 0.125-0.37891 0.30859-0.45703 0.1875-0.074218 0.39844-0.035156 0.54297 0.10547zm-14.352 28.23v-28c0-1.1055 0.89453-2 2-2h8.5c0.26562 0 0.51953 0.10547 0.70703 0.29297s0.29297 0.44141 0.29297 0.70703v11.5c0 0.53125 0.21094 1.0391 0.58594 1.4141s0.88281 0.58594 1.4141 0.58594h11.5c0.26562 0 0.51953 0.10547 0.70703 0.29297s0.29297 0.44141 0.29297 0.70703v14.5c0 0.53125-0.21094 1.0391-0.58594 1.4141s-0.88281 0.58594-1.4141 0.58594h-22c-1.1055 0-2-0.89453-2-2z"/>
</svg>
