<?xml version="1.0" encoding="UTF-8"?>
<svg width="100pt" height="100pt" version="1.1" viewBox="0 0 100 100" xmlns="http://www.w3.org/2000/svg">
 <g>
  <path d="m70.199 57.102h-40.398c-1.1016 0-2.1016 0.89844-2.1016 2.1016 0 1.1016 0.89844 2.1016 2.1016 2.1016h40.301c1.1016 0 2.1016-0.89844 2.1016-2.1016-0.003906-1.2031-0.90234-2.1016-2.0039-2.1016z"/>
  <path d="m70.199 38.898h-40.398c-1.1016 0-2.1016 0.89844-2.1016 2.1016 0 1.1016 0.89844 2.1016 2.1016 2.1016h40.301c1.1016 0 2.1016-0.89844 2.1016-2.1016-0.003906-1.1992-0.90234-2.1016-2.0039-2.1016z"/>
  <path d="m29.801 24.898h23.102c1.1016 0 2.1016-0.89844 2.1016-2.1016 0-1.1016-0.89844-2.1016-2.1016-2.1016l-23.102 0.003907c-1.1016 0-2.1016 0.89844-2.1016 2.1016 0.10156 1.0977 1 2.0977 2.1016 2.0977z"/>
  <path d="m70.199 75.199h-40.398c-1.1016 0-2.1016 0.89844-2.1016 2.1016 0 1.1992 0.89844 2.1016 2.1016 2.1016h40.301c1.1016 0 2.1016-0.89844 2.1016-2.1016-0.003906-1.1992-0.90234-2.1016-2.0039-2.1016z"/>
  <path d="m87.602 24.199-21-21c-0.39844-0.39844-0.89844-0.60156-1.5-0.60156l-51.203-0.097656c-0.5 0-1.1016 0.19922-1.5 0.60156-0.39844 0.39844-0.59766 0.89844-0.59766 1.5v90.898c0 1.1016 0.89844 2.1016 2.1016 2.1016h72.301c1.1016 0 2.1016-0.89844 2.1016-2.1016l-0.003907-69.898c-0.10156-0.5-0.30078-1-0.69922-1.4023zm-20.902-15.098 15 15h-13.199c-1 0-1.8008-0.80078-1.8008-1.8008zm-50.801 84.297v-86.797l46.602 0.10156v15.602c0 3.3008 2.6992 5.8984 5.8984 5.8984h15.602v65.199z"/>
 </g>
</svg>
