<?xml version="1.0" encoding="UTF-8"?>
<svg width="100pt" height="100pt" version="1.1" viewBox="0 0 100 100" xmlns="http://www.w3.org/2000/svg">
 <g>
  <path d="m33.332 75.965c1.8945 0 3.4375-1.5234 3.4648-3.418v-27.844c0-1.9141-1.5508-3.4648-3.4648-3.4648-1.9141 0-3.4688 1.5508-3.4688 3.4648v27.844c0.027344 1.8945 1.5703 3.418 3.4688 3.418z"/>
  <path d="m50 75.965c1.8945 0 3.4414-1.5234 3.4648-3.418v-27.844c0-1.9141-1.5508-3.4648-3.4648-3.4648s-3.4648 1.5508-3.4648 3.4648v27.844c0.023438 1.8945 1.5703 3.418 3.4648 3.418z"/>
  <path d="m66.668 75.965c1.8984 0 3.4414-1.5234 3.4688-3.418v-27.844c0-1.9141-1.5547-3.4648-3.4688-3.4648-1.9141 0-3.4648 1.5508-3.4648 3.4648v27.844c0.027344 1.8945 1.5703 3.418 3.4648 3.418z"/>
  <path d="m91.672 16.781h-22.18l-2.8555-9.5586c-1.2969-4.2656-5.2148-7.1914-9.6719-7.2227h-13.914c-4.457 0.03125-8.375 2.957-9.6719 7.2227l-2.8516 9.5586h-22.199c-1.9141 0-3.4688 1.5547-3.4688 3.4688s1.5547 3.4648 3.4688 3.4648h4.125v66.727c0.035156 5.2578 4.3047 9.5 9.5586 9.5117h56.086c5.2773-0.011719 9.5508-4.2852 9.5625-9.5625v-66.789h4.0156-0.003906c1.9141 0 3.4688-1.5508 3.4688-3.4648-0.003906-0.91016-0.375-1.7773-1.0273-2.4062-0.65234-0.63281-1.5312-0.97266-2.4414-0.94922zm-51.59-7.5781 0.003907 0.003906c0.40234-1.3125 1.5938-2.2266 2.9648-2.2734h14.012c1.4062-0.011719 2.6445 0.92578 3.0117 2.2891l2.2266 7.5625-24.617-0.003906zm40.645 81.945h-0.24219c-0.36719 1.0625-1.3594 1.7812-2.4805 1.8047h-55.992c-1.4609-0.023437-2.6328-1.2109-2.6406-2.6758v-66.676h61.355z"/>
 </g>
</svg>
