<svg width="64" height="62" viewBox="0 0 64 62" fill="none" xmlns="http://www.w3.org/2000/svg">
<path d="M27.4631 10.2848C30.1683 5.67606 36.8317 5.67605 39.5369 10.2847L53.725 34.4565C56.4641 39.123 53.0992 45 47.6882 45H19.3118C13.9008 45 10.5359 39.123 13.275 34.4565L27.4631 10.2848Z" fill="#B5FFBA"/>
<path d="M52.8376 33.3212L39.4142 10.0712C36.7199 5.40456 29.9841 5.40456 27.2898 10.0712L13.4334 34.0712C10.7391 38.7379 14.107 44.5712 19.4956 44.5712L31.2952 44.5712L37.195 44.5712M40.3424 11.6789L54.0924 35.4946C55.6112 38.1252 54.7099 41.489 52.0793 43.0078C49.4486 44.5265 46.0849 43.6252 44.5661 40.9946L34.9411 24.3236" stroke="#59825C" stroke-width="3" stroke-linecap="round" stroke-linejoin="round"/>
</svg>
