<?xml version="1.0" encoding="UTF-8"?>
<svg width="100pt" height="100pt" version="1.1" viewBox="0 0 100 100" xmlns="http://www.w3.org/2000/svg">
 <path d="m29.332 0c-4.8906 0-8.8906 4-8.8906 8.8906v82.223c0 4.8906 4 8.8906 8.8906 8.8906h41.332c4.8906 0 8.8906-4 8.8906-8.8906v-82.223c0-4.8906-4-8.8906-8.8906-8.8906zm15.715 8.5625h9.9102c0.65234 0 1.1797 0.74609 1.1797 1.668s-0.52734 1.668-1.1797 1.668h-9.9102c-0.65234 0-1.1797-0.74609-1.1797-1.668s0.52734-1.668 1.1797-1.668zm-19.719 11.883h49.348v59.109h-49.348zm24.672 63.828c3.0391 0 5.5039 2.4648 5.5039 5.5039 0 3.0391-2.4648 5.5039-5.5039 5.5039s-5.5039-2.4648-5.5039-5.5039c0-3.0391 2.4648-5.5039 5.5039-5.5039z"/>
</svg>
