<?xml version="1.0" encoding="UTF-8"?>
<svg width="100pt" height="100pt" version="1.1" viewBox="0 0 100 100" xmlns="http://www.w3.org/2000/svg">
 <g>
  <path d="m73.992 42.488c-1.0742-8.0078-7.9375-14.113-16.121-14.113-5.6562 0-10.926 3-13.867 7.7578-1.9258-1.3203-4.2109-2.0508-6.5781-2.0508-6.4375 0-11.68 5.2422-11.68 11.68v0.23438h-0.082032c-5.5469 0-10.059 4.5117-10.059 10.055 0 5.5586 4.5117 10.07 10.059 10.07h14.469c-0.082031-0.097656-0.14844-0.19141-0.20312-0.30078-0.74219-1.3906-0.70313-2.9727 0.066406-4.2227l6.4922-10.566c0.71875-1.1953 2.0664-1.9688 3.5117-1.9688 1.4609 0 2.8047 0.77344 3.5508 1.9961l6.4531 10.566c0.78125 1.2383 0.80859 2.8477 0.066406 4.168-0.066406 0.10938-0.13672 0.23438-0.20703 0.33203h12.656c6.5469 0 11.871-5.3242 11.871-11.871 0-6-4.5664-11.035-10.398-11.766z"/>
  <path d="m47.25 71.625h5.5039c0.75781 0 1.375-0.61719 1.375-1.375v-5.1055h2.3516c0.49609 0 0.94922-0.27344 1.1953-0.70312 0.25-0.44141 0.23438-0.97656-0.027343-1.3906l-6.4648-10.578c-0.24609-0.41406-0.69922-0.66016-1.168-0.66016l-0.015625 0.003906c-0.46875 0-0.92188 0.24609-1.168 0.66016l-6.4922 10.566c-0.26172 0.42578-0.26172 0.96484-0.027344 1.4023 0.24609 0.42578 0.70312 0.70313 1.2109 0.70313h2.3516v5.1055c0 0.75 0.60156 1.3711 1.375 1.3711z"/>
 </g>
</svg>
