<svg width="70" height="64" viewBox="0 0 70 64" fill="none" xmlns="http://www.w3.org/2000/svg">
<rect x="30" y="19" width="6" height="4" fill="#FF8080"/>
<rect x="39" y="19" width="3" height="4" fill="#8094FF"/>
<rect x="25" y="26" width="10" height="4" fill="#80FFB2"/>
<rect x="22" y="33" width="9" height="4" fill="#DE80FF"/>
<rect x="33" y="12" width="5" height="4" fill="#DE80FF"/>
<rect x="34" y="33" width="4" height="4" fill="#FFE380"/>
<rect x="20" y="40" width="8" height="4" fill="#8094FF"/>
<rect x="31" y="40" width="9" height="4" fill="#80FFB2"/>
<path d="M58.8376 37.3212L45.4142 14.0712C42.7199 9.40456 35.9841 9.40456 33.2898 14.0712L19.4334 38.0712C16.7391 42.7379 20.107 48.5712 25.4956 48.5712L37.2952 48.5712L43.195 48.5712M46.3424 15.6789L60.0924 39.4946C61.6112 42.1252 60.7099 45.489 58.0793 47.0078C55.4487 48.5265 52.0849 47.6252 50.5661 44.9946L40.9411 28.3236" stroke="white" stroke-width="4" stroke-linecap="round" stroke-linejoin="round"/>
<path d="M15.1286 34.3434C14.8159 34.885 14.4274 35.2966 13.9631 35.5781C13.4907 35.855 12.9646 35.9823 12.3847 35.9601C11.8048 35.9378 11.1926 35.7568 10.5481 35.417L10.6951 35.1624L13.4474 36.7514L12.6774 38.0851L3.82658 32.9751L4.79958 31.2898L9.22497 33.8448L9.65705 34.6924C8.99676 34.2681 8.50795 33.8081 8.19064 33.3123C7.878 32.8085 7.72519 32.2892 7.7322 31.7544C7.73921 31.2196 7.88972 30.6975 8.18372 30.1883C8.44505 29.7357 8.76792 29.3725 9.15233 29.0986C9.53674 28.8248 9.95951 28.6432 10.4207 28.5538C10.8737 28.4597 11.342 28.4607 11.8255 28.5566C12.3136 28.6444 12.7961 28.826 13.273 29.1014L13.5276 29.2484C14.0045 29.5237 14.4071 29.8531 14.7353 30.2366C15.0636 30.6201 15.306 31.0402 15.4625 31.4971C15.611 31.9492 15.6622 32.4206 15.616 32.9113C15.5664 33.3892 15.4039 33.8666 15.1286 34.3434ZM13.493 33.9003C13.703 33.5366 13.7961 33.17 13.7723 32.8006C13.7451 32.4184 13.6182 32.0596 13.3916 31.724C13.165 31.3884 12.8456 31.1016 12.4334 30.8636C12.0131 30.621 11.605 30.4878 11.2092 30.464C10.8134 30.4402 10.4513 30.5168 10.1229 30.6936C9.79914 30.8623 9.53227 31.1286 9.32227 31.4923C9.13093 31.8237 9.02635 32.1728 9.0085 32.5397C8.99533 32.8986 9.07886 33.2486 9.2591 33.5897C9.444 33.9228 9.73448 34.2037 10.1305 34.4323L10.6155 34.7123C10.9954 34.9317 11.3701 35.0294 11.7395 35.0056C12.1089 34.9818 12.448 34.8704 12.7568 34.6715C13.0656 34.4726 13.311 34.2155 13.493 33.9003ZM20.0982 25.7637C19.7716 26.3295 19.3876 26.7706 18.9463 27.087C18.5096 27.3954 18.048 27.5976 17.5613 27.6939C17.0712 27.7773 16.5821 27.7752 16.094 27.6873C15.6105 27.5914 15.1586 27.4221 14.7383 27.1794L14.5079 27.0464C14.0715 26.7944 13.6908 26.4831 13.366 26.1123C13.0378 25.7288 12.7954 25.3087 12.6388 24.8519C12.4788 24.3823 12.4249 23.8877 12.477 23.3682C12.521 22.8439 12.6993 22.311 13.012 21.7695C13.4227 21.0582 13.9233 20.5551 14.5138 20.2602C15.101 19.9526 15.7192 19.8245 16.3684 19.876C17.0095 19.9229 17.6211 20.1143 18.2031 20.4503L18.8093 20.8003L15.4423 26.6321L14.4117 26.0371L17.1697 21.2601L17.3779 22.0755C16.9576 21.8328 16.5629 21.6857 16.1939 21.6343C15.8248 21.5829 15.4871 21.6358 15.1808 21.793C14.8791 21.9422 14.621 22.2027 14.4063 22.5745C14.1916 22.9463 14.0945 23.3105 14.1149 23.6672C14.1353 24.0238 14.2675 24.3642 14.5115 24.6883C14.7521 24.9996 15.0946 25.2836 15.5392 25.5403C15.9514 25.7783 16.3565 25.9259 16.7545 25.9833C17.1444 26.036 17.5093 25.9826 17.8492 25.8232C18.181 25.6591 18.4659 25.371 18.7039 24.9587C18.9419 24.5465 19.0548 24.1644 19.0425 23.8124C19.0221 23.4558 18.9116 23.1711 18.7111 22.9583L19.6071 21.4064C20.0038 21.7647 20.2925 22.1793 20.4733 22.6501C20.6541 23.1209 20.7138 23.6242 20.6524 24.1599C20.5956 24.6876 20.4109 25.2222 20.0982 25.7637ZM24.8396 17.2155C24.4896 17.8217 24.1235 18.2785 23.7412 18.5859C23.3556 18.8806 22.9208 19.0176 22.437 18.9969C21.9451 18.9716 21.3799 18.7745 20.7413 18.4059L14.7832 14.9498L15.6932 13.3736L21.7605 16.8927C22.0838 17.0794 22.3833 17.1392 22.6592 17.0721C22.9316 16.9923 23.1611 16.7907 23.3478 16.4674L23.9428 15.4368L25.3856 16.2698L24.8396 17.2155ZM17.2659 17.7896L16.0292 17.0756L18.7172 12.4198L19.9539 13.1338L17.2659 17.7896ZM29.0017 9.81055L27.0497 8.68355L26.8887 8.96241L24.7184 7.70941C24.3385 7.49007 24.0019 7.41969 23.7087 7.49827C23.4155 7.57684 23.1568 7.81012 22.9328 8.1981C22.8162 8.40017 22.6802 8.64499 22.525 8.93256C22.3697 9.22013 22.2162 9.51407 22.0643 9.81439C21.9091 10.102 21.7742 10.3636 21.6597 10.5992L20.229 9.77322C20.3202 9.57798 20.4254 9.35849 20.5445 9.11475C20.6637 8.87102 20.7933 8.6279 20.9333 8.38542C21.0699 8.13018 21.2012 7.89344 21.3272 7.67521C21.7192 6.99624 22.1324 6.48581 22.5669 6.14392C23.0061 5.79394 23.4809 5.61546 23.9915 5.60847C24.5067 5.5934 25.0715 5.7632 25.6858 6.11787L29.7717 8.47687L29.0017 9.81055ZM27.9464 12.0303C27.6711 12.5072 27.3436 12.8785 26.9638 13.1442C26.5887 13.4019 26.1852 13.5407 25.7533 13.5608C25.3261 13.5728 24.8902 13.4505 24.4457 13.1938C23.9607 12.9138 23.6323 12.5679 23.4605 12.1562C23.2933 11.7364 23.2566 11.2679 23.3504 10.7509C23.4488 10.2257 23.666 9.67218 24.002 9.09021L24.884 7.56254L25.8903 8.14354L24.9943 9.69546C24.7703 10.0834 24.6947 10.4385 24.7673 10.7607C24.8366 11.0701 25.0207 11.3111 25.3198 11.4838C25.6189 11.6564 25.9197 11.6954 26.2223 11.6007C26.5295 11.4978 26.7951 11.2524 27.0191 10.8645C27.1544 10.6301 27.2377 10.3925 27.2689 10.1519C27.2966 9.89846 27.2468 9.64876 27.1194 9.40277C26.9886 9.14403 26.75 8.90391 26.4037 8.68241L27.1145 8.54318C27.5519 8.84959 27.8746 9.18675 28.0825 9.55466C28.295 9.91448 28.3929 10.3051 28.3759 10.7264C28.3556 11.1349 28.2124 11.5696 27.9464 12.0303Z" fill="white"/>
</svg>
