<?xml version="1.0" encoding="UTF-8"?>
<svg width="100pt" height="100pt" version="1.1" viewBox="0 0 100 100" xmlns="http://www.w3.org/2000/svg">
 <g>
  <path d="m40.359 17.395c-2.7383-2.7266-7.1719-2.7188-9.8984 0.019531l-27.531 27.648c-0.17578 0.17578-0.30859 0.375-0.46094 0.56641-0.14062 0.17578-0.30078 0.33984-0.42578 0.52344-0.14453 0.21875-0.24609 0.45703-0.36328 0.6875-0.089844 0.17969-0.20313 0.34766-0.27734 0.53125-0.097656 0.24219-0.15234 0.49219-0.22266 0.74219-0.050782 0.18359-0.125 0.36328-0.16016 0.55078-0.046875 0.25391-0.054687 0.50781-0.074219 0.76563-0.015624 0.19141-0.054687 0.37891-0.054687 0.57031 0 0.24609 0.042969 0.49219 0.066406 0.73828 0.023438 0.19922 0.019531 0.39844 0.058594 0.59766 0.046875 0.23437 0.13281 0.46094 0.20312 0.69531 0.0625 0.20312 0.10156 0.40625 0.17969 0.60547 0.09375 0.23438 0.23437 0.45312 0.35547 0.67969 0.097656 0.17969 0.17188 0.36719 0.28516 0.53906 0.15234 0.23047 0.35156 0.44141 0.53516 0.65625 0.12109 0.14062 0.21484 0.29688 0.35156 0.43359l0.015625 0.015626c0 0.003906 0.003906 0.003906 0.003906 0.007812l0.003907 0.003906 27.512 27.613c1.3672 1.375 3.1641 2.0586 4.9609 2.0586 1.7891 0 3.5742-0.67969 4.9414-2.043 2.7383-2.7266 2.7461-7.1602 0.019531-9.8984l-22.613-22.699 22.609-22.711c2.7305-2.7383 2.7188-7.168-0.019531-9.8984z"/>
  <path d="m98.223 53.348c0.12891-0.23438 0.27344-0.46484 0.375-0.71484 0.074219-0.17969 0.10938-0.37109 0.16406-0.55469 0.074219-0.24609 0.17188-0.48828 0.21875-0.73828 0.042969-0.20703 0.042969-0.42188 0.058593-0.63281 0.027344-0.23438 0.066407-0.46484 0.066407-0.70312 0-0.23828-0.042969-0.46875-0.066407-0.70703-0.023437-0.21094-0.019531-0.42188-0.058593-0.62891-0.050781-0.26172-0.14453-0.51172-0.22266-0.76562-0.054687-0.17578-0.089843-0.35938-0.16016-0.53125-0.10938-0.26953-0.26172-0.51953-0.40625-0.77734-0.078125-0.14453-0.14062-0.30078-0.23047-0.44141-0.16016-0.24609-0.37109-0.46875-0.56641-0.69922-0.11328-0.12891-0.19922-0.27344-0.32031-0.39453l-0.015625-0.015625c-0.003906 0-0.003906-0.003907-0.003906-0.003907-0.003907 0-0.003907-0.003906-0.003907-0.003906l-27.512-27.621c-2.7266-2.7383-7.1602-2.7461-9.8984-0.019531-2.7383 2.7266-2.7461 7.1602-0.019531 9.8984l22.613 22.707-22.613 22.707c-2.7266 2.7383-2.7188 7.1719 0.019531 9.8984 1.3672 1.3633 3.1523 2.043 4.9414 2.043 1.7969 0 3.5938-0.6875 4.957-2.0586l27.535-27.641c0.15234-0.15234 0.26953-0.33203 0.40234-0.49609 0.16406-0.19922 0.34766-0.38281 0.48047-0.59375 0.10547-0.16797 0.17578-0.34375 0.26562-0.51172z"/>
 </g>
</svg>
