<?xml version="1.0" encoding="UTF-8"?>
<svg width="100pt" height="100pt" version="1.1" viewBox="0 0 100 100" xmlns="http://www.w3.org/2000/svg">
 <g>
  <path d="m61.484 15.371c-2.6172-0.87891-5.4102 0.54688-6.2695 3.1445l-19.844 59.531c-0.85938 2.5977 0.68359 5.0781 3.1445 6.2695 2.5195 1.2305 5.3125 0.52734 6.2695-3.1445l19.844-59.531c0.85938-2.5781-0.54688-5.3906-3.1445-6.2695z"/>
  <path d="m97.344 45.684l-24.805-15.977c-2.3047-1.4844-5.3711-0.82031-6.8555 1.4844-1.4844 2.3047-0.82031 5.3711 1.4844 6.8555l18.34 11.816-18.34 11.816c-2.3047 1.4844-2.7539 4.4336-1.4844 6.8555 1.2891 2.4609 3.9648 2.8516 6.8555 1.4844l24.805-15.996c1.4258-0.91797 2.2656-2.4805 2.2656-4.1602 0-1.6992-0.85938-3.2617-2.2656-4.1797z"/>
  <path d="m32.852 61.68l-18.34-11.816 18.34-11.816c2.3047-1.4844 2.9688-4.5508 1.4844-6.8555-1.4844-2.3047-4.5508-2.9688-6.8555-1.4844l-24.805 15.977c-1.4258 0.91797-2.2852 2.4805-2.2852 4.1602s0.85938 3.2617 2.2656 4.1602l24.805 15.996c3.9453 2.0508 5.6445 0.50781 6.8555-1.4844 1.4453-2.3242 0.82031-5.3711-1.4648-6.8359z"/>
 </g>
</svg>
