<?xml version="1.0" encoding="UTF-8"?>
<svg width="100pt" height="100pt" version="1.1" viewBox="0 0 100 100" xmlns="http://www.w3.org/2000/svg">
 <path d="m50 0-0.007812 0.0078125c-8.0469 0.0039063-14.566 4.1953-14.574 9.3672 0 5.1797 6.5312 9.375 14.582 9.375 8.0547 0 14.582-4.1953 14.582-9.375-0.007812-5.1719-6.5312-9.3633-14.574-9.3672zm14.582 9.375v6.0391c0 5.418-6.5312 9.5859-14.582 9.5859-8.0547 0-14.582-4.1719-14.582-9.5859v-6.1758l-8.9102 5.6406c-1.0781-0.18359-2.3125-0.28906-3.5898-0.28906-8.0508 0-14.578 4.1953-14.582 9.3711 0 5.1797 6.5312 9.375 14.582 9.375 8.0547 0 14.582-4.1953 14.582-9.375 0-0.082032-0.003906-0.15625-0.007812-0.22656v0.015625h0.007812v6.25c0 5.418-6.5312 9.5859-14.582 9.5859-8.0547 0-14.582-4.1719-14.582-9.5859v-3.6133l-8.332 5.2812v35l50 33.332 50-33.332v-35l-8.332-5.2812v5.6953c0 5.418-6.5312 9.5859-14.582 9.5859-8.0547 0-14.582-4.1719-14.582-9.5859v-6.25h0.015626c-0.003907 0.046875-0.011719 0.12109-0.015626 0.19531v0.015625c0 5.1797 6.5312 9.375 14.582 9.375 8.0547 0 14.582-4.1953 14.582-9.375-0.003906-5.1758-6.5312-9.3711-14.582-9.3711-0.25781 0-0.51562 0.003906-0.76953 0.011719h0.035157l-11.766-7.4453v0.14062zm-29.164 31.039h0.015625c-0.003906 0.046876-0.011719 0.12109-0.015625 0.19531v0.015625c0 5.1797 6.5312 9.375 14.582 9.375 8.0547 0 14.582-4.1953 14.582-9.375 0-0.082031-0.003906-0.15625-0.007812-0.22656v0.015624h0.007812v6.25c0 5.418-6.5312 9.5859-14.582 9.5859-8.0547 0-14.582-4.1719-14.582-9.5859z"/>
</svg>
