<?xml version="1.0" encoding="UTF-8"?>
<svg width="100pt" height="100pt" version="1.1" viewBox="0 0 100 100" xmlns="http://www.w3.org/2000/svg">
 <path d="m77.602 15.301h-54.402c-2.5 0-4.6016 2-4.6016 4.6016v0.69922 0.10156 6.5 0.10156 9.8984c0 2.5 2 4.6016 4.6016 4.6016h8.1016c2.5 0 4.6016-2 4.6016-4.6016v-4.6992h5.8008v36.5h-6.3984c-2.3984 0-4.3984 2-4.3984 4.3984l-0.007812 8.5977c0 2.3984 2 4.3984 4.3984 4.3984h7.8008c0.10156 0 0.30078 0.10156 0.5 0.10156h13.602c0.19922 0 0.30078 0 0.39844-0.10156h7.6016c2.3984 0 4.3984-2 4.3984-4.3984v-8.5c0-2.3984-2-4.3984-4.3984-4.3984h-6.1992v-36.5h6v4.6992c0 2.5 2 4.6016 4.6016 4.6016h8.1016c2.5 0 4.6016-2 4.6016-4.6016l-0.003907-17.402c-0.10156-2.5-2.1992-4.5977-4.6992-4.5977zm0.89844 22c0 0.5-0.39844 0.89844-0.89844 0.89844h-8.1016c-0.5 0-0.89844-0.39844-0.89844-0.89844v-6.5c0-1-0.80078-1.8008-1.8008-1.8008h-9.6992c-1 0-1.8008 0.80078-1.8008 1.8008v40.199c0 1 0.80078 1.8008 1.8008 1.8008h8.1016c0.39844 0 0.69922 0.30078 0.69922 0.69922l-0.003906 8.5c0 0.39844-0.30078 0.69922-0.69922 0.69922h-8.1016c-0.19922 0-0.30078 0-0.5 0.10156h-12.598c-0.10156 0-0.30078-0.10156-0.5-0.10156h-8.3008c-0.39844 0-0.69922-0.30078-0.69922-0.69922v-8.5c0-0.39844 0.30078-0.69922 0.69922-0.69922h8.3008c1 0 1.8008-0.80078 1.8008-1.8008v-40.301c0-1-0.80078-1.8008-1.8008-1.8008h-9.5c-1 0-1.8008 0.80078-1.8008 1.8008v6.5c0 0.5-0.39844 0.89844-0.89844 0.89844h-8.1016c-0.5 0-0.89844-0.39844-0.89844-0.89844v-10-0.10156-6.3008-0.10156-0.80078c0-0.5 0.39844-0.89844 0.89844-0.89844h54.398c0.5 0 0.89844 0.39844 0.89844 0.89844z"/>
</svg>
