<?xml version="1.0" encoding="UTF-8"?>
<svg width="100pt" height="100pt" version="1.1" viewBox="0 0 100 100" xmlns="http://www.w3.org/2000/svg">
 <path d="m46.812 14c-0.94141 0.082031-1.6992 0.8125-1.8125 1.75l-5 44c-0.070312 0.61328 0.15234 1.2266 0.59375 1.6562l3.1562 3.1562c-1.6875 1.6367-2.75 3.918-2.75 6.4375 0 8.8516 5.8438 13.82 11.594 14.969 0.78125 0.16797 1.5898-0.14844 2.0508-0.80078 0.46094-0.65234 0.49219-1.5156 0.074219-2.1992-0.6875-1.1602-0.69922-1.6836-0.59375-2.1875 0.10547-0.5 0.46875-1.125 1.125-1.9375 1.3125-1.625 3.75-4.0117 3.75-7.8438 0-2.5195-1.0625-4.8008-2.75-6.4375l3.1562-3.1562c0.44141-0.42969 0.66406-1.043 0.59375-1.6562l-5-44c-0.125-1.0078-0.98438-1.7578-2-1.75h-6c-0.0625-0.003906-0.125-0.003906-0.1875 0zm2 4h2.375l4 35h-10.375zm-4.4688 39h11.312l0.25 2.25-3.1875 3.1875c-0.86328-0.27734-1.7656-0.4375-2.7188-0.4375s-1.8555 0.16016-2.7188 0.4375l-3.1875-3.1875zm5.6562 9c2.7852 0 5 2.2148 5 5 0 2.1797-1.293 3.3945-2.8438 5.3125-0.77344 0.95703-1.6172 2.082-1.9375 3.625-0.066406 0.3125 0.007812 0.67188 0 1-2.9297-1.5469-5.2188-4.582-5.2188-9.9375 0-2.7852 2.2148-5 5-5z"/>
</svg>
