<?xml version="1.0" encoding="iso-8859-1"?>
<!-- Generator: Adobe Illustrator 19.0.0, SVG Export Plug-In . SVG Version: 6.00 Build 0)  -->
<svg version="1.1" id="Capa_1" xmlns="http://www.w3.org/2000/svg" xmlns:xlink="http://www.w3.org/1999/xlink" x="0px" y="0px"
	 viewBox="0 0 512.005 512.005" style="enable-background:new 0 0 512.005 512.005;" xml:space="preserve">
<g>
	<g>
		<path d="M492.563,243.424c0-48.64-9.92-90.784-29.76-126.432c-21.184-37.76-49.184-66.688-84.096-86.816
			C343.795,10.048,304.339,0,260.275,0c-28.192,0-54.56,4.096-79.072,12.288c-24.512,8.192-45.824,19.392-63.936,33.6
			s-34.08,30.976-47.904,50.336c-13.824,19.36-24.8,40.032-32.896,62.08c-8.04,21.895-13.615,44.738-16.669,68.589
			c11.531-16.577,24.624-31.997,39.133-46.253c14.656-14.4,31.456-27.808,50.336-40.192c18.88-12.384,40.16-22.336,63.904-29.888
			c23.744-7.552,48.512-11.776,74.24-12.736l6.272,0.352c4.224,0.192,9.568,1.024,16.032,2.432
			c6.464,1.408,13.632,3.392,21.44,5.856c7.84,2.464,15.52,6.368,23.04,11.712c7.52,5.312,14.24,11.68,20.16,19.008
			c5.92,7.328,10.4,17.024,13.44,29.024c3.072,12,3.84,25.344,2.304,40.032H168.467c3.04-17.92,7.424-33.152,13.152-45.632
			c5.728-12.48,13.152-24.448,22.304-35.904c-40.224,18.688-71.232,44.256-92.96,76.672c-21.728,32.416-32.32,71.68-31.744,117.824
			c0.384,37.376,12.256,72.896,35.616,106.432c23.36,33.536,53.056,57.28,89.088,71.2c26.912,10.304,57.024,15.36,90.4,15.168
			c33.376-0.192,63.168-3.84,89.376-10.88c26.208-7.04,48.096-15.808,65.632-26.304v-107.84c-13.92,9.728-30.464,17.76-49.632,24.16
			c-19.168,6.4-38.976,10.848-59.488,13.312c-20.512,2.464-40.8,2.176-60.928-0.864c-20.128-3.04-38.208-8.48-54.208-16.288
			s-29.024-19.488-39.04-35.04s-15.104-33.92-15.296-55.072h321.824V243.424z"/>
	</g>
</g>
<g>
	<g>
		<path d="M19.443,227.392h0.288c0.021-0.167,0.045-0.332,0.067-0.499C19.681,227.061,19.56,227.224,19.443,227.392z"/>
	</g>
</g>
<g>
</g>
<g>
</g>
<g>
</g>
<g>
</g>
<g>
</g>
<g>
</g>
<g>
</g>
<g>
</g>
<g>
</g>
<g>
</g>
<g>
</g>
<g>
</g>
<g>
</g>
<g>
</g>
<g>
</g>
</svg>
